<?xml version="1.0" encoding="UTF-8"?>
<svg xmlns="http://www.w3.org/2000/svg" version="1.1" viewBox="0 0 100 100">
  <defs>
    <style>
      .cls-1 {
        fill: #665efe;
      }

      .cls-2 {
        fill: #fff;
        stroke: #fff;
        stroke-miterlimit: 10;
        stroke-width: .4px;
      }
    </style>
  </defs>
  <!-- Generator: Adobe Illustrator 28.6.0, SVG Export Plug-In . SVG Version: 1.2.0 Build 709)  -->
  <g>
    <g id="Layer_1">
      <rect class="cls-1" width="100" height="100"/>
      <g>
        <path class="cls-2" d="M55.4,54.2c-.5-.5-1-1-1.6-1.5-1.6-1.5-3.2-3.1-4.8-4.6-.3-.3-.6-.6-.9-.9,0,0,0,.2,0,.3,0,1.4,0,2.9,0,4.3,0,0,0,.2,0,.2,0,.2-.2.4-.4.4-.2,0-.4-.1-.4-.3,0,0,0-.1,0-.2,0-1.9,0-3.7,0-5.6,0-.1,0-.2,0-.3.2-.2.4-.2.7,0,.6.5,1.1,1.1,1.7,1.6,1.8,1.7,3.5,3.3,5.3,5,0,0,0,0,.1.1,0,0,0-.2,0-.2,0-2,0-4.1,0-6.1,0-.1,0-.2,0-.3,0-.2.2-.2.4-.2.2,0,.3.1.4.3,0,0,0,.1,0,.2,0,2.4,0,4.9,0,7.3,0,.2,0,.4-.3.5,0,0-.2,0-.3,0h0Z"/>
        <path class="cls-2" d="M63,54.2s0,0,0,0c-.2-.1-.3-.3-.2-.5,0-.2.2-.3.5-.3.4,0,.8,0,1.1,0,.4,0,.9,0,1.3-.1.5-.2.9-.4,1.1-.9.2-.7,0-1.3-.8-1.6-.5-.2-.9-.3-1.4-.3-1.3,0-2.7,0-4,0-.7,0-1.4-.1-2-.5-.8-.4-1.1-1.1-1.1-2,0-.8.5-1.4,1.3-1.8.6-.3,1.2-.4,1.8-.4.4,0,.9,0,1.3,0,0,0,.2,0,.2,0,.2,0,.3.2.3.4,0,.2-.1.3-.3.4-.1,0-.2,0-.3,0-.6,0-1.3,0-1.9,0-.3,0-.6.1-.8.2-.5.2-.8.6-.8,1.2,0,.6.3.9.8,1.1.5.2.9.3,1.4.3,1.5,0,2.9,0,4.4,0,.7,0,1.4.2,2,.7,1.1.9,1,2.6-.2,3.3-.4.3-.8.4-1.3.5,0,0-.2,0-.2,0h-.4c-.6,0-1.1,0-1.7,0h0Z"/>
        <path class="cls-2" d="M21,54.2s0,0-.1-.1c-.2-.2-.2-.6.2-.7,0,0,.2,0,.3,0,.6,0,1.3,0,1.9,0,.4,0,.7-.2,1.1-.4.4-.3.6-.7.5-1.2,0-.5-.4-.8-.8-1-.4-.2-.9-.3-1.4-.3-1.3,0-2.7,0-4,0-.7,0-1.4-.1-2-.5-.7-.4-1.1-1-1.1-1.9,0-.9.5-1.5,1.3-1.9.6-.3,1.2-.4,1.8-.4.4,0,.9,0,1.3,0,.3,0,.5.2.5.4,0,.3-.2.4-.5.4-.5,0-1.1,0-1.6,0-.5,0-1.1.1-1.5.5-.7.5-.6,1.6.1,2,.5.3,1.1.4,1.6.4,1.5,0,2.9,0,4.4,0,.7,0,1.5.2,2,.7,1,.9.9,2.6-.3,3.3-.4.2-.9.4-1.3.5,0,0-.2,0-.2,0h-.4c-.6,0-1.1,0-1.7,0h0Z"/>
        <path class="cls-2" d="M94.1,54.2c-.3-.3-.4-.7-.6-1-.3-.5-.5-.9-.7-1.4,0-.1-.1-.2-.3-.2-1.4,0-2.8,0-4.3,0-.1,0-.2,0-.3.2-.4.7-.7,1.4-1.1,2.1,0,.1-.1.2-.3.3,0,0-.2,0-.3,0-.3-.2-.3-.3-.2-.6.4-.9.9-1.7,1.3-2.6,0-.1.1-.2.3-.2,1.4,0,2.8,0,4.2,0,0,0,.2,0,.3,0-.2-.3-.3-.7-.5-1-.6-1.1-1.1-2.2-1.7-3.3,0-.2-.1-.3,0-.5,0-.1.2-.2.4-.2.2,0,.3.1.3.3.8,1.5,1.5,3,2.3,4.5.5,1,1,1.9,1.5,2.9.2.4.2.5-.2.7h-.3Z"/>
        <path class="cls-2" d="M13.5,54.2c-.1,0-.2-.2-.3-.3-.4-.7-.7-1.4-1.1-2.1,0-.1-.1-.2-.3-.2-1.4,0-2.8,0-4.2,0-.2,0-.3,0-.3.2-.3.7-.7,1.3-1,2,0,.2-.2.3-.3.4h-.3c-.2,0-.2-.2-.3-.3,0,0,0-.1,0-.2.5-.9.9-1.8,1.4-2.7,0-.1.1-.2.3-.2,1.4,0,2.8,0,4.2,0,0,0,.2,0,.3,0-.2-.4-.4-.7-.6-1.1-.6-1.1-1.1-2.1-1.7-3.2,0-.2,0-.3,0-.5.1-.1.3-.2.4-.1.2,0,.2.2.3.3.5.9.9,1.7,1.4,2.6.8,1.6,1.6,3.1,2.4,4.7.2.3.1.5-.2.6,0,0-.2,0-.3,0Z"/>
        <path class="cls-2" d="M79.6,54.2c-.2-.2-.3-.3-.2-.6.1-.2.4-.2.6-.2.4,0,.9,0,1.3,0,.1,0,.2,0,.2-.2,0-2.1,0-4.2,0-6.3,0-.1,0-.2-.2-.2-.5,0-1,0-1.5,0-.4,0-.6-.2-.5-.4,0-.3.2-.4.5-.4,1.4,0,2.8,0,4.2,0,.3,0,.4.1.5.3,0,.3-.1.5-.4.5-.5,0-1,0-1.5,0-.2,0-.2,0-.2.2,0,2.1,0,4.2,0,6.3,0,.1,0,.2.2.2.5,0,1,0,1.5,0,.3,0,.4.1.5.3,0,.2,0,.4-.3.5,0,0-.2,0-.2,0-1.3,0-2.7,0-4,0,0,0-.2,0-.2,0h-.1Z"/>
        <path class="cls-2" d="M72.6,54.2c-.6,0-1.3-.2-1.9-.5-.6-.3-1.2-.7-1.5-1.4,0-.2,0-.4-.1-.6,0-.2.1-.4.3-.4.2,0,.5,0,.5.3,0,.8.6,1.1,1.2,1.4,1,.4,2.1.5,3.2.4.7,0,1.4-.3,2-.7.1,0,.2-.2.4-.3.2-.2.4-.2.6,0,0,0,.1.2.3.3,0,0,0,0,0,.1-.4.5-1,.9-1.6,1.1-.4.2-.9.3-1.3.3,0,0-.2,0-.2,0h-.4c-.1,0-.2,0-.4,0-.1,0-.2,0-.3,0-.1,0-.3,0-.4,0h0c0,0-.2,0-.3,0Z"/>
        <path class="cls-2" d="M30.6,54.1c-.6,0-1.2-.2-1.8-.5-.5-.2-1-.6-1.4-1.1-.2-.3-.3-.5-.3-.9,0-.3.1-.5.4-.5.2,0,.4.1.5.4,0,.3.2.6.4.8.3.3.7.5,1.2.6,1.6.4,3.1.4,4.6-.3.3-.1.5-.3.7-.5.2-.2.4-.2.6,0,0,0,.1.2.2.2,0,0,0,0,0,.1-.4.5-1,.9-1.6,1.1-.5.2-1,.3-1.5.3,0,0-.2,0-.3,0h-.2c-.1,0-.2,0-.4,0,0,0-.2,0-.3,0-.1,0-.3,0-.4,0h-.2c0,0-.2,0-.2,0Z"/>
        <path class="cls-2" d="M37.6,54.2s0,0-.1-.1c-.1-.1-.2-.2-.1-.4,0-.2.1-.3.3-.3,0,0,.2,0,.2,0,2.4,0,4.8,0,7.3,0,.4,0,.6.2.5.5,0,.2-.2.2-.3.3h0c0,0-.1,0-.2,0-2.4,0-4.8,0-7.2,0,0,0-.1,0-.2,0h0Z"/>
        <path class="cls-2" d="M37.7,54.2c0,0,.1,0,.2,0,2.4,0,4.8,0,7.3,0,0,0,.2,0,.2,0h-7.7Z"/>
        <path class="cls-2" d="M21.1,54.2s0,0,0,0c.5,0,1,0,1.5,0,0,0,0,0,0,0h-1.7Z"/>
        <path class="cls-2" d="M63,54.2s0,0,.1,0c.5,0,.9,0,1.4,0,0,0,0,0,.1,0h-1.7Z"/>
        <path class="cls-2" d="M31,54.2c.1,0,.3,0,.4,0,0,0,0,0,0,0,0,0,0,0,0,0h-.4Z"/>
        <path class="cls-2" d="M73,54.2c.1,0,.3,0,.4,0,0,0,0,0,0,0,0,0,0,0,0,0h-.4Z"/>
        <path class="cls-2" d="M31.7,54.2c.1,0,.2,0,.4,0h-.4s0,0,0,0c0,0,0,0,0,0Z"/>
        <path class="cls-2" d="M73.7,54.1c.1,0,.2,0,.4,0h-.4s0,0,0,0c0,0,0,0,0,0Z"/>
        <path class="cls-2" d="M73.7,54.1s0,0,0,0h-.3s0,0,0,0c.1,0,.2,0,.3,0Z"/>
        <path class="cls-2" d="M31.7,54.2s0,0,0,0h-.3s0,0,0,0c0,0,.2,0,.3,0Z"/>
        <path class="cls-2" d="M32.3,54.2c0,0,.2,0,.3,0,0,0,0,0,0,0h-.3Z"/>
        <path class="cls-2" d="M72.6,54.2c0,0,.2,0,.3,0h-.3s0,0,0,0Z"/>
        <path class="cls-2" d="M30.6,54.1c0,0,.2,0,.2,0h-.2s0,0,0,0Z"/>
        <path class="cls-2" d="M73.5,45.9c1,0,1.9.1,2.8.5.4.2.8.4,1.1.8.2.3.4.6.5,1,0,0,0,.1,0,.1-.2,0-.3.3-.5.2-.2,0-.3-.2-.3-.3-.2-.5-.6-.7-1.1-.9-.9-.4-1.9-.5-3-.4-.7,0-1.5.2-2.1.5-.2,0-.3.2-.5.3-.3.2-.4.5-.4.9,0,.3-.2.4-.4.4-.2,0-.4-.2-.4-.5,0-.7.4-1.3,1-1.7.7-.5,1.6-.7,2.5-.8.3,0,.6,0,.8,0Z"/>
        <path class="cls-2" d="M27.1,48.4c0-.9.6-1.4,1.3-1.9.6-.3,1.3-.5,2-.6,1.2-.1,2.4,0,3.5.3.4.1.8.3,1.1.6.5.3.7.8.9,1.3,0,0,0,.1,0,.2-.2,0-.3.2-.5.1-.2,0-.2-.3-.3-.5-.2-.3-.4-.5-.8-.7-.6-.3-1.3-.5-2-.5-.9,0-1.8,0-2.7.3-.3,0-.6.2-.8.4-.4.3-.7.6-.7,1.1,0,.3-.2.4-.5.4-.2,0-.4-.2-.4-.5Z"/>
        <path class="cls-2" d="M41.6,49.6c1.2,0,2.4,0,3.6,0,0,0,.2,0,.2,0,.2,0,.3.2.3.4,0,.2-.2.4-.4.4,0,0-.2,0-.2,0-2.4,0-4.8,0-7.2,0,0,0-.2,0-.3,0-.2,0-.3-.2-.3-.4,0-.2.1-.4.3-.4,0,0,.2,0,.2,0,1.2,0,2.4,0,3.6,0Z"/>
        <path class="cls-2" d="M41.6,45.8c1.2,0,2.5,0,3.7,0,.3,0,.5.2.5.4,0,.2-.1.3-.3.4,0,0-.2,0-.3,0-2.4,0-4.8,0-7.2,0,0,0-.2,0-.2,0-.2,0-.3-.2-.4-.4,0-.2.1-.4.3-.4,0,0,.1,0,.2,0,1.2,0,2.4,0,3.6,0Z"/>
        <path class="cls-2" d="M37.7,53.3h7.7s0,0,0,0h-7.7s0,0,0,0Z"/>
      </g>
    </g>
  </g>
</svg>