<svg enable-background="new 0 0 100 100" viewBox="0 0 100 100" xmlns="http://www.w3.org/2000/svg"><path d="m0 0h100v100h-100z" fill="#eb9900"/><g fill="#fefefe"><path d="m53.2 45.5c-1.1 1.2-2.1 2.5-3.2 3.7-.1.1-.2.3-.3.4-.3.4-.7.4-1 0-1.2-1.4-2.4-2.7-3.5-4.1-.1.1 0 .2 0 .3v8.1c0 .3-.1.3-.3.3-1 0-2 0-2.9 0-.2 0-.3 0-.3-.3 0-4.5 0-9.1 0-13.6 0-.3.1-.3.3-.3h2.5c.2 0 .3.1.5.2 1.4 1.6 2.8 3.2 4.2 4.8.2.2.3.2.4 0 1.4-1.6 2.8-3.2 4.2-4.8.1-.1.3-.2.5-.2h2.6c.2 0 .3 0 .3.3v13.7c0 .2-.1.3-.3.3-1 0-2 0-3 0-.3 0-.3-.1-.3-.3 0-2.7 0-5.4 0-8.1-.3-.1-.3-.3-.4-.4z"/><path d="m19.9 41.2c0-2.1 0-4.3 0-6.4 0-.3.1-.4.4-.4h12.9c.3 0 .3.1.3.4v3.2c0 .3-.1.3-.3.3-3 0-6 0-9 0-.4 0-.4 0-.4.4v9c0 .3-.1.4-.3.3-1.1 0-2.1 0-3.2 0-.3 0-.4-.1-.4-.4 0-2.1 0-4.3 0-6.4z"/><path d="m14.2 35.5c0-2.1 0-4.3 0-6.4 0-.3 0-.4.3-.4h12.9c.3 0 .4.1.3.3v3.2c0 .3-.1.3-.3.3-3 0-6 0-9 0-.3 0-.4.1-.4.4v9c0 .3-.1.4-.4.4-1.1 0-2.1 0-3.2 0-.2 0-.3-.1-.3-.3.1-2.1.1-4.3.1-6.5z"/><path d="m75.5 67.4c0-.2 0-.3 0-.5 0-3.3 0-6.5 0-9.8 0-.3.1-.4.4-.4.6 0 .6 0 .6.6v11.3c0 .3-.1.4-.4.4-.4 0-.6-.2-.8-.4-2.9-3.3-5.7-6.6-8.6-9.9-.1-.1-.2-.2-.3-.3-.1.1-.1.2-.1.3v9.9c0 .3-.1.4-.4.4-.6 0-.6 0-.6-.6 0-3.8 0-7.5 0-11.3 0-.3.1-.4.4-.4.4 0 .6.1.8.4 2.9 3.4 5.8 6.7 8.7 10.1.1.1.1.1.3.2z"/><path d="m50.5 67.4c0-2 0-3.9 0-5.8 0-1.5 0-3 0-4.6 0-.2.1-.3.3-.3.7 0 .7 0 .7.7v11.2c0 .3-.1.4-.4.4s-.5-.1-.7-.3c-2.9-3.4-5.9-6.8-8.8-10.1 0 0-.1-.1-.2-.1v.3 9.9c0 .3-.1.3-.3.3-.7 0-.7 0-.7-.7 0-3.8 0-7.5 0-11.3 0-.3.1-.4.4-.4s.5.1.7.3c2.9 3.4 5.8 6.7 8.7 10.1.1.2.2.3.3.4z"/><path d="m78.9 62.9c0-1.9 0-3.9 0-5.8 0-.3.1-.3.3-.3h6.1c.3 0 .3.1.3.3 0 .5 0 .5-.5.5-.4 0-.8 0-1.2 0-1.3 0-2.5 0-3.8 0-.3 0-.3.1-.3.3v4.3c0 .2.1.3.3.3h5c.3 0 .3.1.3.3 0 .5 0 .5-.5.5-1.6 0-3.2 0-4.8 0-.3 0-.3.1-.3.3v4.3c0 .2.1.3.3.3h5.2c.3 0 .4.1.4.4 0 .5 0 .5-.4.5-2 0-4.1 0-6.1 0-.2 0-.3-.1-.3-.3 0-2 0-3.9 0-5.9z"/><path d="m53.9 62.9c0-1.9 0-3.9 0-5.8 0-.3.1-.3.3-.3.7 0 .7 0 .7.7v10.5c0 .3.1.3.3.3h5.4c.3 0 .4.1.3.3 0 .2.1.5-.3.5-2.1 0-4.3 0-6.4 0-.3 0-.3-.1-.3-.3 0-2 0-4 0-5.9z"/><path d="m62 62.9c0-1.9 0-3.9 0-5.8 0-.3.1-.3.3-.3.6 0 .6 0 .6.6v11.3c0 .3-.1.4-.4.4-.5-.1-.5-.1-.5-.7 0-1.8 0-3.6 0-5.5z"/><path d="m39.6 46.8c-.2-2.9-1.5-4.9-4.2-6.1-1.2-.5-2.5-.7-3.8-.7-1.9 0-3.9 0-5.8 0-.3 0-.3.1-.3.3v6.8 6.8c0 .3.1.4.4.4h5.7c.9 0 1.9-.1 2.8-.3 2.1-.5 3.8-1.6 4.7-3.6.4-1.2.6-2.4.5-3.6zm-4.2 2.7c-.7 1.3-1.9 1.9-3.4 2.1-.9.1-1.9 0-2.8 0-.2 0-.2-.1-.2-.3 0-1.4 0-2.8 0-4.2s0-2.8 0-4.1c0-.3.1-.4.4-.3 1 0 2.1-.1 3.1.1 2 .4 3.3 1.8 3.5 3.8 0 1-.1 2-.6 2.9z"/><path d="m68.4 40.7c-.9-.5-1.9-.7-2.9-.7-1.9 0-3.8 0-5.7 0-.3 0-.4.1-.4.4v6.7 6.7c0 .3.1.4.4.4h2.9c.2 0 .3-.1.3-.3 0-1.7 0-3.4 0-5.1 0-.2.1-.3.3-.3h2.6c.5 0 1-.1 1.4-.2 1.7-.4 2.9-1.7 3.2-3.4.1-1.6-.7-3.3-2.1-4.2zm-2.9 5.2c-.8.1-1.7 0-2.5.1-.2 0-.1-.1-.1-.2 0-.5 0-.9 0-1.4s0-.9 0-1.4c0-.1 0-.2.2-.2.8 0 1.6 0 2.4.1.9.2 1.3.6 1.3 1.5-.1.8-.4 1.3-1.3 1.5z"/><path d="m37.7 59.8c-1.7-2.9-5.5-4-8.6-2.5-4 2-4.8 7.3-1.5 10.2 1.5 1.3 3.2 1.8 5.2 1.6 3.3-.3 5.8-3 5.8-6.1-.1-1.2-.4-2.2-.9-3.2zm-5.7 8.5c-3.1 0-5.5-2.4-5.5-5.4s2.4-5.4 5.5-5.4c3 0 5.4 2.4 5.4 5.4 0 3.1-2.4 5.4-5.4 5.4z"/></g></svg>