<?xml version="1.0" encoding="utf-8"?>
<!-- Generator: Adobe Illustrator 27.9.1, SVG Export Plug-In . SVG Version: 6.00 Build 0)  -->
<svg version="1.1" id="Layer_1" xmlns="http://www.w3.org/2000/svg" xmlns:xlink="http://www.w3.org/1999/xlink" x="0px" y="0px"
	 viewBox="0 0 100 100" style="enable-background:new 0 0 100 100;" xml:space="preserve">
<style type="text/css">
	.st0{fill:#EB9900;}
	.st1{fill:#FEFEFE;}
</style>
<rect class="st0" width="100" height="100"/>
<g>
	<path class="st1" d="M53.2,45.5c-1.1,1.2-2.1,2.5-3.2,3.7c-0.1,0.1-0.2,0.3-0.3,0.4c-0.3,0.4-0.7,0.4-1,0c-1.2-1.4-2.4-2.7-3.5-4.1
		c-0.1,0.1,0,0.2,0,0.3c0,2.7,0,5.4,0,8.1c0,0.3-0.1,0.3-0.3,0.3c-1,0-2,0-2.9,0c-0.2,0-0.3,0-0.3-0.3c0-4.5,0-9.1,0-13.6
		c0-0.3,0.1-0.3,0.3-0.3c0.8,0,1.7,0,2.5,0c0.2,0,0.3,0.1,0.5,0.2c1.4,1.6,2.8,3.2,4.2,4.8c0.2,0.2,0.3,0.2,0.4,0
		c1.4-1.6,2.8-3.2,4.2-4.8c0.1-0.1,0.3-0.2,0.5-0.2c0.9,0,1.7,0,2.6,0c0.2,0,0.3,0,0.3,0.3c0,4.6,0,9.1,0,13.7
		c0,0.2-0.1,0.3-0.3,0.3c-1,0-2,0-3,0c-0.3,0-0.3-0.1-0.3-0.3c0-2.7,0-5.4,0-8.1C53.3,45.8,53.3,45.6,53.2,45.5
		C53.3,45.5,53.2,45.5,53.2,45.5z"/>
	<path class="st1" d="M19.9,41.2c0-2.1,0-4.3,0-6.4c0-0.3,0.1-0.4,0.4-0.4c4.3,0,8.6,0,12.9,0c0.3,0,0.3,0.1,0.3,0.4
		c0,1.1,0,2.1,0,3.2c0,0.3-0.1,0.3-0.3,0.3c-3,0-6,0-9,0c-0.4,0-0.4,0-0.4,0.4c0,3,0,6,0,9c0,0.3-0.1,0.4-0.3,0.3
		c-1.1,0-2.1,0-3.2,0c-0.3,0-0.4-0.1-0.4-0.4C19.9,45.5,19.9,43.3,19.9,41.2z"/>
	<path class="st1" d="M14.2,35.5c0-2.1,0-4.3,0-6.4c0-0.3,0-0.4,0.3-0.4c4.3,0,8.6,0,12.9,0c0.3,0,0.4,0.1,0.3,0.3
		c0,1.1,0,2.1,0,3.2c0,0.3-0.1,0.3-0.3,0.3c-3,0-6,0-9,0c-0.3,0-0.4,0.1-0.4,0.4c0,3,0,6,0,9c0,0.3-0.1,0.4-0.4,0.4
		c-1.1,0-2.1,0-3.2,0c-0.2,0-0.3-0.1-0.3-0.3C14.2,39.9,14.2,37.7,14.2,35.5z"/>
	<path class="st1" d="M75.5,67.4c0-0.2,0-0.3,0-0.5c0-3.3,0-6.5,0-9.8c0-0.3,0.1-0.4,0.4-0.4c0.6,0,0.6,0,0.6,0.6
		c0,3.8,0,7.5,0,11.3c0,0.3-0.1,0.4-0.4,0.4c-0.4,0-0.6-0.2-0.8-0.4c-2.9-3.3-5.7-6.6-8.6-9.9c-0.1-0.1-0.2-0.2-0.3-0.3
		c-0.1,0.1-0.1,0.2-0.1,0.3c0,3.3,0,6.6,0,9.9c0,0.3-0.1,0.4-0.4,0.4c-0.6,0-0.6,0-0.6-0.6c0-3.8,0-7.5,0-11.3
		c0-0.3,0.1-0.4,0.4-0.4c0.4,0,0.6,0.1,0.8,0.4c2.9,3.4,5.8,6.7,8.7,10.1C75.3,67.3,75.3,67.3,75.5,67.4z"/>
	<path class="st1" d="M50.5,67.4c0-2,0-3.9,0-5.8c0-1.5,0-3,0-4.6c0-0.2,0.1-0.3,0.3-0.3c0.7,0,0.7,0,0.7,0.7c0,3.7,0,7.5,0,11.2
		c0,0.3-0.1,0.4-0.4,0.4c-0.3,0-0.5-0.1-0.7-0.3c-2.9-3.4-5.9-6.8-8.8-10.1c0,0-0.1-0.1-0.2-0.1c0,0.1,0,0.2,0,0.3
		c0,3.3,0,6.6,0,9.9c0,0.3-0.1,0.3-0.3,0.3c-0.7,0-0.7,0-0.7-0.7c0-3.8,0-7.5,0-11.3c0-0.3,0.1-0.4,0.4-0.4c0.3,0,0.5,0.1,0.7,0.3
		c2.9,3.4,5.8,6.7,8.7,10.1C50.3,67.2,50.4,67.3,50.5,67.4z"/>
	<path class="st1" d="M78.9,62.9c0-1.9,0-3.9,0-5.8c0-0.3,0.1-0.3,0.3-0.3c2,0,4,0,6.1,0c0.3,0,0.3,0.1,0.3,0.3c0,0.5,0,0.5-0.5,0.5
		c-0.4,0-0.8,0-1.2,0c-1.3,0-2.5,0-3.8,0c-0.3,0-0.3,0.1-0.3,0.3c0,1.4,0,2.9,0,4.3c0,0.2,0.1,0.3,0.3,0.3c1.7,0,3.3,0,5,0
		c0.3,0,0.3,0.1,0.3,0.3c0,0.5,0,0.5-0.5,0.5c-1.6,0-3.2,0-4.8,0c-0.3,0-0.3,0.1-0.3,0.3c0,1.4,0,2.9,0,4.3c0,0.2,0.1,0.3,0.3,0.3
		c1.7,0,3.5,0,5.2,0c0.3,0,0.4,0.1,0.4,0.4c0,0.5,0,0.5-0.4,0.5c-2,0-4.1,0-6.1,0c-0.2,0-0.3-0.1-0.3-0.3
		C78.9,66.8,78.9,64.9,78.9,62.9z"/>
	<path class="st1" d="M53.9,62.9c0-1.9,0-3.9,0-5.8c0-0.3,0.1-0.3,0.3-0.3c0.7,0,0.7,0,0.7,0.7c0,3.5,0,7,0,10.5
		c0,0.3,0.1,0.3,0.3,0.3c1.8,0,3.6,0,5.4,0c0.3,0,0.4,0.1,0.3,0.3c0,0.2,0.1,0.5-0.3,0.5c-2.1,0-4.3,0-6.4,0c-0.3,0-0.3-0.1-0.3-0.3
		C53.9,66.8,53.9,64.8,53.9,62.9z"/>
	<path class="st1" d="M62,62.9c0-1.9,0-3.9,0-5.8c0-0.3,0.1-0.3,0.3-0.3c0.6,0,0.6,0,0.6,0.6c0,3.8,0,7.5,0,11.3
		c0,0.3-0.1,0.4-0.4,0.4C62,69,62,69,62,68.4C62,66.6,62,64.8,62,62.9z"/>
	<path class="st1" d="M39.6,46.8c-0.2-2.9-1.5-4.9-4.2-6.1c-1.2-0.5-2.5-0.7-3.8-0.7c-1.9,0-3.9,0-5.8,0c-0.3,0-0.3,0.1-0.3,0.3
		c0,2.3,0,4.5,0,6.8c0,2.3,0,4.5,0,6.8c0,0.3,0.1,0.4,0.4,0.4c1.9,0,3.8,0,5.7,0c0.9,0,1.9-0.1,2.8-0.3c2.1-0.5,3.8-1.6,4.7-3.6
		C39.5,49.2,39.7,48,39.6,46.8z M35.4,49.5c-0.7,1.3-1.9,1.9-3.4,2.1c-0.9,0.1-1.9,0-2.8,0c-0.2,0-0.2-0.1-0.2-0.3
		c0-1.4,0-2.8,0-4.2c0-1.4,0-2.8,0-4.1c0-0.3,0.1-0.4,0.4-0.3c1,0,2.1-0.1,3.1,0.1c2,0.4,3.3,1.8,3.5,3.8
		C36,47.6,35.9,48.6,35.4,49.5z"/>
	<path class="st1" d="M68.4,40.7c-0.9-0.5-1.9-0.7-2.9-0.7c-1.9,0-3.8,0-5.7,0c-0.3,0-0.4,0.1-0.4,0.4c0,2.2,0,4.5,0,6.7
		c0,2.2,0,4.5,0,6.7c0,0.3,0.1,0.4,0.4,0.4c1,0,1.9,0,2.9,0c0.2,0,0.3-0.1,0.3-0.3c0-1.7,0-3.4,0-5.1c0-0.2,0.1-0.3,0.3-0.3
		c0.9,0,1.7,0,2.6,0c0.5,0,1-0.1,1.4-0.2c1.7-0.4,2.9-1.7,3.2-3.4C70.6,43.3,69.8,41.6,68.4,40.7z M65.5,45.9
		C64.7,46,63.8,45.9,63,46c-0.2,0-0.1-0.1-0.1-0.2c0-0.5,0-0.9,0-1.4c0-0.5,0-0.9,0-1.4c0-0.1,0-0.2,0.2-0.2c0.8,0,1.6,0,2.4,0.1
		c0.9,0.2,1.3,0.6,1.3,1.5C66.7,45.2,66.4,45.7,65.5,45.9z"/>
	<path class="st1" d="M37.7,59.8c-1.7-2.9-5.5-4-8.6-2.5c-4,2-4.8,7.3-1.5,10.2c1.5,1.3,3.2,1.8,5.2,1.6c3.3-0.3,5.8-3,5.8-6.1
		C38.5,61.8,38.2,60.8,37.7,59.8z M32,68.3c-3.1,0-5.5-2.4-5.5-5.4c0-3,2.4-5.4,5.5-5.4c3,0,5.4,2.4,5.4,5.4
		C37.4,66,35,68.3,32,68.3z"/>
</g>
</svg>
