<svg viewBox="0 0 100 100" xmlns="http://www.w3.org/2000/svg"><path d="m0 0h100v100h-100z" fill="#464c4c"/><g fill="#fff"><path d="m22.992 51.628c0 2.205-.138 2.894-.551 3.307-.551.413-1.102.689-1.791.689l.138 1.24c.965 0 2.067-.413 2.756-.965.413-.551.689-1.102.965-1.791.138-.689.276-1.24.138-1.929v-8.13h-1.654v7.579z"/><path d="m35.256 50.663c0 .965 0 1.791.138 2.48h-1.516l-.138-1.516c-.276.551-.689.965-1.24 1.24-.551.276-1.102.413-1.654.413-1.378 0-3.169-.827-3.169-3.858v-5.236h1.654v4.961c0 1.654.551 2.894 2.067 2.894.276 0 .551 0 .827-.138s.551-.276.689-.551c.276-.276.413-.413.551-.689s.138-.551.138-.827v-5.512h1.654v6.339z"/><path d="m38.287 47.08c0-1.102 0-2.067-.138-2.894h1.516l.138 1.516c.276-.551.827-.965 1.378-1.378.551-.276 1.24-.413 1.791-.413 2.205 0 3.858 1.791 3.858 4.547 0 3.169-1.929 4.823-4.134 4.823-.551 0-1.102-.138-1.516-.276-.551-.276-.965-.551-1.24-1.102v4.961h-1.654v-9.784zm1.654 2.481c0 .276 0 .413.138.689.138.551.413.965.965 1.378.413.276.965.551 1.516.551 1.791 0 2.756-1.378 2.756-3.445 0-1.791-.965-3.307-2.618-3.307-.689 0-1.378.413-1.791.827s-.689 1.102-.827 1.791v1.516h-.138z"/><path d="m49.724 44.187 1.929 5.236c.276.551.413 1.24.551 1.791.138-.551.413-1.24.551-1.929l1.791-5.236h1.791l-2.343 6.477c-1.24 3.032-1.929 4.685-3.169 5.65-.551.551-1.24.827-2.067 1.102l-.413-1.378c.551-.138.965-.413 1.378-.827.551-.551 1.102-1.102 1.378-1.791 0-.138.138-.276.138-.413s0-.276-.138-.413l-3.307-8.268h1.929z"/><path d="m60.748 41.568v2.618h2.343v1.24h-2.343v4.823c0 1.102.276 1.791 1.24 1.791.276 0 .689 0 .965-.138l.138 1.24c-.551.138-.965.276-1.516.138-.276 0-.689 0-.965-.138s-.551-.276-.827-.551c-.551-.689-.689-1.516-.689-2.343v-4.961h-1.378v-1.24h1.378v-2.205l1.654-.276z"/><path d="m66.122 49.01c0 .413 0 .827.138 1.24s.413.689.689 1.102c.276.276.689.551 1.102.689s.827.138 1.24.138c.827 0 1.654-.138 2.48-.413l.276 1.24c-.965.413-1.929.551-3.032.551-.551 0-1.24 0-1.791-.276s-1.102-.551-1.516-.965c-.413-.413-.689-.965-.965-1.516-.138-.551-.276-1.102-.276-1.791 0-2.756 1.654-4.823 4.272-4.823 2.894 0 3.721 2.618 3.721 4.272v.827l-6.339-.276zm4.823-1.241c0-.276 0-.689-.138-.965s-.276-.551-.413-.827c-.276-.276-.551-.413-.827-.551s-.689-.276-.965-.276c-.689 0-1.24.413-1.791.827-.413.551-.689 1.102-.689 1.791h4.823z"/><path d="m74.941 46.943c0-1.102 0-1.929-.138-2.756h1.516v1.791h.138c.138-.551.413-.965.965-1.378.413-.413.965-.551 1.516-.551h.413v1.516h-.551c-.551 0-1.102.276-1.516.689s-.689.965-.689 1.516c0 .276-.138.551-.138.827v4.823h-1.516z"/><path d="m74.252 19.521c0 .827-.138 1.654-.551 2.343s-1.102 1.24-1.791 1.654c-.689.413-1.516.551-2.343.413s-1.516-.413-2.205-.965c-.689-.551-1.102-1.378-1.24-2.205s-.138-1.654.138-2.48.827-1.516 1.516-1.929c.689-.551 1.516-.827 2.343-.827.551 0 1.102 0 1.654.276.551.138.965.413 1.378.827s.689.827.965 1.24.138 1.102.138 1.654z"/></g><path d="m50 67.612c-11.024 0-20.808-3.996-25.768-9.784 1.929 5.236 5.512 9.784 10.059 12.953s10.059 4.961 15.709 4.961 11.024-1.654 15.709-4.961c4.547-3.169 8.13-7.717 10.059-12.953-4.961 5.788-14.607 9.784-25.768 9.784z" fill="#f37726"/><path d="m50 29.58c11.024 0 20.808 3.996 25.768 9.784-1.929-5.236-5.512-9.784-10.059-12.953-4.547-3.307-10.059-4.961-15.709-4.961s-11.024 1.654-15.709 4.961c-4.547 3.169-8.13 7.717-10.059 12.953 5.099-5.925 14.744-9.784 25.768-9.784z" fill="#f37726"/><path d="m34.842 79.05c0 1.102-.138 2.067-.689 3.032-.551.827-1.378 1.516-2.343 1.929s-1.929.551-3.032.413c-.965-.138-1.929-.551-2.756-1.24s-1.378-1.654-1.516-2.618c-.276-.965-.138-2.067.138-3.032.413-.965.965-1.791 1.791-2.48.827-.551 1.791-.965 2.894-.965.689 0 1.378 0 2.067.276s1.24.551 1.791 1.102.965.965 1.24 1.654c.138.551.276 1.24.413 1.929z" fill="#fff"/><path d="m25.472 28.202c-.551 0-1.24-.138-1.654-.413-.551-.276-.965-.827-1.102-1.378-.276-.551-.413-1.102-.276-1.654s.413-1.102.827-1.516c.413-.413.965-.689 1.516-.827.551-.276 1.102-.276 1.654 0s1.102.551 1.378 1.102c.413.413.551 1.102.551 1.654 0 .827-.276 1.654-.827 2.205-.413.413-1.24.827-2.067.827z" fill="#fff"/></svg>