<?xml version="1.0" encoding="UTF-8"?>
<svg id="Layer_1" xmlns="http://www.w3.org/2000/svg" version="1.1" viewBox="0 0 100 100">
  <!-- Generator: Adobe Illustrator 29.5.1, SVG Export Plug-In . SVG Version: 2.1.0 Build 141)  -->
  <rect width="100" height="100" fill="#464c4c"/>
  <g>
    <g id="g">
      <path id="path0_fill" d="M22.992,51.628c0,2.205-.138,2.894-.551,3.307-.551.413-1.102.689-1.791.689l.138,1.24c.965,0,2.067-.413,2.756-.965.413-.551.689-1.102.965-1.791.138-.689.276-1.24.138-1.929v-8.13h-1.654v7.579h0Z" fill="#fff"/>
      <path id="path1_fill" d="M35.256,50.663c0,.965,0,1.791.138,2.48h-1.516l-.138-1.516c-.276.551-.689.965-1.24,1.24-.551.276-1.102.413-1.654.413-1.378,0-3.169-.827-3.169-3.858v-5.236h1.654v4.961c0,1.654.551,2.894,2.067,2.894.276,0,.551,0,.827-.138s.551-.276.689-.551c.276-.276.413-.413.551-.689.138-.276.138-.551.138-.827v-5.512h1.654v6.339h0Z" fill="#fff"/>
      <path id="path2_fill" d="M38.287,47.08c0-1.102,0-2.067-.138-2.894h1.516l.138,1.516c.276-.551.827-.965,1.378-1.378.551-.276,1.24-.413,1.791-.413,2.205,0,3.858,1.791,3.858,4.547,0,3.169-1.929,4.823-4.134,4.823-.551,0-1.102-.138-1.516-.276-.551-.276-.965-.551-1.24-1.102h0v4.961h-1.654v-9.784h0ZM39.941,49.561c0,.276,0,.413.138.689.138.551.413.965.965,1.378.413.276.965.551,1.516.551,1.791,0,2.756-1.378,2.756-3.445,0-1.791-.965-3.307-2.618-3.307-.689,0-1.378.413-1.791.827s-.689,1.102-.827,1.791v1.516h-.138Z" fill="#fff"/>
      <path id="path3_fill" d="M49.724,44.187l1.929,5.236c.276.551.413,1.24.551,1.791.138-.551.413-1.24.551-1.929l1.791-5.236h1.791l-2.343,6.477c-1.24,3.032-1.929,4.685-3.169,5.65-.551.551-1.24.827-2.067,1.102l-.413-1.378c.551-.138.965-.413,1.378-.827.551-.551,1.102-1.102,1.378-1.791,0-.138.138-.276.138-.413s0-.276-.138-.413l-3.307-8.268h1.929Z" fill="#fff"/>
      <path id="path4_fill" d="M60.748,41.568v2.618h2.343v1.24h-2.343v4.823c0,1.102.276,1.791,1.24,1.791.276,0,.689,0,.965-.138l.138,1.24c-.551.138-.965.276-1.516.138-.276,0-.689,0-.965-.138s-.551-.276-.827-.551c-.551-.689-.689-1.516-.689-2.343v-4.961h-1.378v-1.24h1.378v-2.205l1.654-.276Z" fill="#fff"/>
      <path id="path5_fill" d="M66.122,49.01c0,.413,0,.827.138,1.24s.413.689.689,1.102c.276.276.689.551,1.102.689s.827.138,1.24.138c.827,0,1.654-.138,2.48-.413l.276,1.24c-.965.413-1.929.551-3.032.551-.551,0-1.24,0-1.791-.276-.551-.276-1.102-.551-1.516-.965-.413-.413-.689-.965-.965-1.516-.138-.551-.276-1.102-.276-1.791,0-2.756,1.654-4.823,4.272-4.823,2.894,0,3.721,2.618,3.721,4.272v.827l-6.339-.276h0ZM70.945,47.769c0-.276,0-.689-.138-.965s-.276-.551-.413-.827c-.276-.276-.551-.413-.827-.551-.276-.138-.689-.276-.965-.276-.689,0-1.24.413-1.791.827-.413.551-.689,1.102-.689,1.791,0,0,4.823,0,4.823,0Z" fill="#fff"/>
      <path id="path6_fill" d="M74.941,46.943c0-1.102,0-1.929-.138-2.756h1.516v1.791h.138c.138-.551.413-.965.965-1.378.413-.413.965-.551,1.516-.551h.413v1.516h-.551c-.551,0-1.102.276-1.516.689s-.689.965-.689,1.516c0,.276-.138.551-.138.827v4.823h-1.516v-6.477h0Z" fill="#fff"/>
    </g>
    <g>
      <path id="path7_fill" d="M74.252,19.521c0,.827-.138,1.654-.551,2.343-.413.689-1.102,1.24-1.791,1.654-.689.413-1.516.551-2.343.413-.827-.138-1.516-.413-2.205-.965-.689-.551-1.102-1.378-1.24-2.205-.138-.827-.138-1.654.138-2.48s.827-1.516,1.516-1.929c.689-.551,1.516-.827,2.343-.827.551,0,1.102,0,1.654.276.551.138.965.413,1.378.827s.689.827.965,1.24.138,1.102.138,1.654h0Z" fill="#fff"/>
      <path id="path8_fill" d="M50,67.612c-11.024,0-20.808-3.996-25.768-9.784,1.929,5.236,5.512,9.784,10.059,12.953s10.059,4.961,15.709,4.961,11.024-1.654,15.709-4.961c4.547-3.169,8.13-7.717,10.059-12.953-4.961,5.788-14.607,9.784-25.768,9.784Z" fill="#f37726"/>
      <path id="path9_fill" d="M50,29.58c11.024,0,20.808,3.996,25.768,9.784-1.929-5.236-5.512-9.784-10.059-12.953-4.547-3.307-10.059-4.961-15.709-4.961s-11.024,1.654-15.709,4.961c-4.547,3.169-8.13,7.717-10.059,12.953,5.099-5.925,14.744-9.784,25.768-9.784Z" fill="#f37726"/>
      <path id="path10_fill" d="M34.842,79.05c0,1.102-.138,2.067-.689,3.032-.551.827-1.378,1.516-2.343,1.929s-1.929.551-3.032.413c-.965-.138-1.929-.551-2.756-1.24s-1.378-1.654-1.516-2.618c-.276-.965-.138-2.067.138-3.032.413-.965.965-1.791,1.791-2.48.827-.551,1.791-.965,2.894-.965.689,0,1.378,0,2.067.276.689.276,1.24.551,1.791,1.102s.965.965,1.24,1.654c.138.551.276,1.24.413,1.929h0Z" fill="#fff"/>
      <path id="path11_fill" d="M25.472,28.202c-.551,0-1.24-.138-1.654-.413-.551-.276-.965-.827-1.102-1.378-.276-.551-.413-1.102-.276-1.654s.413-1.102.827-1.516c.413-.413.965-.689,1.516-.827.551-.276,1.102-.276,1.654,0s1.102.551,1.378,1.102c.413.413.551,1.102.551,1.654,0,.827-.276,1.654-.827,2.205-.413.413-1.24.827-2.067.827Z" fill="#fff"/>
    </g>
  </g>
</svg>