<svg enable-background="new 0 0 100 100" viewBox="0 0 100 100" xmlns="http://www.w3.org/2000/svg"><path d="m0 0h100v100h-100z" fill="#00a82d"/><path d="m38.4 35.5c0 .6 0 1.6-.6 2.2s-1.6.6-2.2.6h-6.4c-1.8 0-2.9 0-3.7.1-.4 0-.9.2-1.1.3-.1 0-.1 0 0 0l14.5-14.8s.1 0 0 0c-.1.2-.3.7-.3 1.1-.1.7-.1 1.8-.1 3.7v6.8zm13.6 44.7c-1.7-1.1-2.6-2.5-2.9-3.4-.3-.8-.5-1.8-.5-2.7 0-4.1 3.4-7.5 7.6-7.5 1.2 0 2.2 1 2.2 2.2 0 .8-.4 1.5-1.1 1.9-.2.1-.6.2-.8.3-.2 0-1.2.1-1.6.5-.5.4-.9 1-.9 1.7s.3 1.4.8 1.9c.9.9 2.1 1.4 3.4 1.4 3.4 0 6.1-2.7 6.1-6.1 0-3-2-5.7-4.7-6.9-.4-.2-1-.3-1.6-.5-.7-.1-1.4-.2-1.5-.2-2.1-.2-7.3-1.9-7.7-6.5 0 0-1.5 7-4.6 8.9-.3.1-.7.3-1.1.4s-.9.1-1.1.1c-5 .3-10.4-1.3-14.1-5.1 0 0-2.5-2-3.8-7.8-.3-1.4-.9-3.9-1.2-6.2-.1-.8-.2-1.5-.2-2.1 0-2.4 1.5-4.1 3.4-4.3h.3 9.9c1.7 0 2.7-.4 3.4-1 .8-.8 1-1.9 1-3.3 0 0 0-9.1 0-10.2 0 0 0-.2 0-.3.2-1.8 1.9-3.4 4.3-3.4h1.2c.5 0 1.1 0 1.6.1.4 0 .7.1 1.3.3 3 .7 3.7 3.8 3.7 3.8s5.7 1 8.6 1.5c2.7.5 9.5.9 10.8 7.8 3 16.2 1.2 32 1 32-2.4 15.3-15.1 14.5-15.1 14.5-2.7 0-4.8-.9-6.1-1.8zm11.4-32.6c-1.6-.1-3 .5-3.5 1.7-.1.2-.2.5-.1.7 0 .1.1.2.2.2.6.3 1.6.4 3 .6 1.4.1 2.4.2 3.1.1.1 0 .2 0 .3-.2.1-.1 0-.4 0-.7-.1-1.3-1.3-2.2-3-2.4z" fill="#fff"/></svg>