<svg enable-background="new 0 0 100 100" viewBox="0 0 100 100" xmlns="http://www.w3.org/2000/svg"><path d="m0 0h100v100h-100z" fill="#ff6c00"/><g fill="#fff"><path d="m17.5 62.3v-24.6h7.3c2.2 0 4.1.5 5.8 1.5s3 2.3 3.9 4.1 1.4 3.8 1.4 6.1v1.2c0 2.3-.5 4.4-1.4 6.2s-2.3 3.1-4 4.1-3.7 1.4-5.9 1.4zm4.3-21.2v17.8h2.8c2.2 0 4-.7 5.2-2.1s1.8-3.4 1.8-6.1v-1.4c0-2.7-.6-4.7-1.7-6.1-1.2-1.4-2.8-2.1-5.1-2.1z"/><path d="m60 54.3c-.2 2.6-1.2 4.7-2.9 6.2s-3.9 2.2-6.8 2.2c-2 0-3.7-.5-5.2-1.4s-2.6-2.3-3.5-4c-.8-1.7-1.2-3.7-1.3-6v-2.3c0-2.3.4-4.4 1.2-6.1.8-1.8 2-3.1 3.5-4.1s3.3-1.4 5.3-1.4c2.7 0 4.9.7 6.6 2.2s2.6 3.6 2.9 6.3h-4.3c-.2-1.8-.7-3-1.5-3.8s-2-1.2-3.6-1.2c-1.9 0-3.3.7-4.3 2-1 1.4-1.5 3.4-1.5 6v2.1c0 2.7.5 4.7 1.4 6.1 1 1.4 2.3 2.1 4.2 2.1 1.7 0 2.9-.4 3.8-1.1.8-.8 1.4-2 1.6-3.8z"/><path d="m64.9 62.3v-24.6h7.3c2.2 0 4.1.5 5.8 1.5s3 2.3 3.9 4.1 1.4 3.8 1.4 6.1v1.2c0 2.3-.5 4.4-1.4 6.2s-2.3 3.1-4 4.1-3.7 1.4-5.9 1.4zm4.2-21.2v17.8h2.8c2.2 0 4-.7 5.2-2.1s1.8-3.4 1.8-6.1v-1.4c0-2.7-.6-4.7-1.7-6.1-1.2-1.4-2.8-2.1-5.1-2.1z"/></g></svg>