<?xml version="1.0" encoding="utf-8"?>
<!-- Generator: Adobe Illustrator 28.2.0, SVG Export Plug-In . SVG Version: 6.00 Build 0)  -->
<svg version="1.1" id="Layer_1" xmlns="http://www.w3.org/2000/svg" xmlns:xlink="http://www.w3.org/1999/xlink" x="0px" y="0px"
	 viewBox="0 0 100 100" style="enable-background:new 0 0 100 100;" xml:space="preserve">
<style type="text/css">
	.st0{fill:#FF6C00;}
	.st1{fill:#FFFFFF;}
</style>
<rect class="st0" width="100" height="100"/>
<g>
	<path class="st1" d="M17.5,62.3V37.7h7.3c2.2,0,4.1,0.5,5.8,1.5c1.7,1,3,2.3,3.9,4.1c0.9,1.8,1.4,3.8,1.4,6.1v1.2
		c0,2.3-0.5,4.4-1.4,6.2c-0.9,1.8-2.3,3.1-4,4.1s-3.7,1.4-5.9,1.4H17.5z M21.8,41.1v17.8h2.8c2.2,0,4-0.7,5.2-2.1
		c1.2-1.4,1.8-3.4,1.8-6.1v-1.4c0-2.7-0.6-4.7-1.7-6.1c-1.2-1.4-2.8-2.1-5.1-2.1H21.8z"/>
	<path class="st1" d="M60,54.3c-0.2,2.6-1.2,4.7-2.9,6.2s-3.9,2.2-6.8,2.2c-2,0-3.7-0.5-5.2-1.4c-1.5-0.9-2.6-2.3-3.5-4
		c-0.8-1.7-1.2-3.7-1.3-6V49c0-2.3,0.4-4.4,1.2-6.1c0.8-1.8,2-3.1,3.5-4.1c1.5-1,3.3-1.4,5.3-1.4c2.7,0,4.9,0.7,6.6,2.2
		c1.7,1.5,2.6,3.6,2.9,6.3h-4.3c-0.2-1.8-0.7-3-1.5-3.8c-0.8-0.8-2-1.2-3.6-1.2c-1.9,0-3.3,0.7-4.3,2c-1,1.4-1.5,3.4-1.5,6V51
		c0,2.7,0.5,4.7,1.4,6.1c1,1.4,2.3,2.1,4.2,2.1c1.7,0,2.9-0.4,3.8-1.1c0.8-0.8,1.4-2,1.6-3.8H60z"/>
	<path class="st1" d="M64.9,62.3V37.7h7.3c2.2,0,4.1,0.5,5.8,1.5c1.7,1,3,2.3,3.9,4.1c0.9,1.8,1.4,3.8,1.4,6.1v1.2
		c0,2.3-0.5,4.4-1.4,6.2s-2.3,3.1-4,4.1s-3.7,1.4-5.9,1.4H64.9z M69.1,41.1v17.8h2.8c2.2,0,4-0.7,5.2-2.1c1.2-1.4,1.8-3.4,1.8-6.1
		v-1.4c0-2.7-0.6-4.7-1.7-6.1c-1.2-1.4-2.8-2.1-5.1-2.1H69.1z"/>
</g>
</svg>
