<?xml version="1.0" encoding="utf-8"?>
<!-- Generator: Adobe Illustrator 27.8.1, SVG Export Plug-In . SVG Version: 6.00 Build 0)  -->
<svg version="1.1" id="Layer_1" xmlns="http://www.w3.org/2000/svg" xmlns:xlink="http://www.w3.org/1999/xlink" x="0px" y="0px"
	 viewBox="0 0 100 100" style="enable-background:new 0 0 100 100;" xml:space="preserve">
<style type="text/css">
	.st0{fill:#FFFFFF;}
	.st1{fill:#DE273E;}
	.st2{fill:#1D8CCC;}
	.st3{fill:#1B4986;}
	.st4{fill:#128568;}
</style>
<rect y="0" class="st0" width="100" height="100"/>
<g>
	<path class="st1" d="M21.2,49.2c1.2-2,2.4-4,3.6-6.1c0.7-1.1,1.4-1.2,2.3-0.2c1.2,1.3,2.2,2.8,2.9,4.5c0.7,1.7,0.7,3.3,0,4.9
		c-0.7,1.7-1.7,3.3-3,4.6c-0.8,0.9-1.5,0.8-2.1-0.2c-1.2-2-2.5-4.1-3.7-6.1C21.2,50.2,21.2,49.7,21.2,49.2z"/>
	<path class="st2" d="M56,74.3c-0.6-0.4-0.7-0.9-0.4-1.5c1.3-2.6,2.8-5,5.2-6.8c2.4-1.9,4.9-1.8,7.5-0.7c0.9,0.4,1.1,1.1,0.6,2
		c-1.1,1.9-2.3,3.8-3.4,5.8c-0.4,0.6-1.1,0.8-1.6,1.3C61.2,74.3,58.6,74.3,56,74.3z"/>
	<path class="st3" d="M36.3,74.3C35.2,73.8,34.6,73,34,72c-0.9-1.5-1.8-3-2.7-4.5c-0.7-1.1-0.4-1.8,0.9-2.3c3-1.2,5.7-0.7,8,1.6
		c1.8,1.7,3.1,3.8,4.2,6c0.3,0.6,0.2,1.1-0.3,1.6C41.5,74.3,38.9,74.3,36.3,74.3z"/>
	<path class="st3" d="M58.5,49.9c0,4.7-3.8,8.6-8.5,8.5c-4.7,0-8.5-3.9-8.5-8.6c0-4.7,3.8-8.5,8.5-8.5
		C54.7,41.4,58.5,45.2,58.5,49.9z"/>
	<path class="st3" d="M78.8,50c0,0.4-0.1,0.9-0.4,1.4c-1.1,1.8-2.1,3.6-3.2,5.4c-0.6,1.1-1.4,1.1-2.2,0.2c-1.1-1.2-2.1-2.6-2.8-4.1
		c-0.9-2-0.9-3.9,0-5.9c0.7-1.5,1.6-2.9,2.8-4.1c0.8-0.9,1.5-0.8,2.2,0.2c1.1,1.8,2.1,3.6,3.2,5.4C78.6,48.9,78.8,49.4,78.8,50z"/>
	<path class="st4" d="M55.9,25.7c2.6,0,5.3,0,7.9,0c0.8,0.1,1.3,0.6,1.7,1.3c1.1,1.8,2.2,3.6,3.3,5.4c0.6,1,0.3,1.8-0.8,2.2
		c-2.9,1.2-5.6,0.8-8-1.4c-1.9-1.8-3.3-3.9-4.4-6.2C55.3,26.6,55.2,26,55.9,25.7z"/>
	<path class="st3" d="M36.3,25.7c2.6,0,5.2,0,7.9,0c0.6,0.3,0.6,0.7,0.4,1.2c-1.3,2.7-2.9,5.2-5.4,7c-2.3,1.7-4.8,1.6-7.3,0.5
		c-0.8-0.3-1.1-1.1-0.6-1.9c1.1-2,2.3-3.9,3.5-5.8C35,26.2,35.6,25.8,36.3,25.7z"/>
</g>
</svg>
