<?xml version="1.0" encoding="utf-8"?>
<!-- Generator: Adobe Illustrator 27.9.0, SVG Export Plug-In . SVG Version: 6.00 Build 0)  -->
<svg version="1.1" id="Layer_1" xmlns="http://www.w3.org/2000/svg" xmlns:xlink="http://www.w3.org/1999/xlink" x="0px" y="0px"
	 viewBox="0 0 100 100" style="enable-background:new 0 0 100 100;" xml:space="preserve">
<style type="text/css">
	.st0{fill:#FFFFFF;}
	.st1{fill:#4E5D6E;}
	.st2{fill:#96D325;}
	.st3{fill:#C53753;}
	.st4{fill:#65CBB8;}
</style>
<rect class="st0" width="100" height="100"/>
<g transform="matrix(0.61524215,0,0,0.61524215,1,0.91434476)">
	<path class="st1" d="M54.7,41.7c-0.7,0-1.5,0.3-2.2,0.7c-1.7,1.3-2.1,3.7-0.9,5.4c1.3,1.7,3.7,2.1,5.4,0.9c1.7-1.3,2.1-3.7,0.9-5.4
		C57.2,42.2,55.9,41.7,54.7,41.7z M104.6,41.7c-1.2,0-2.5,0.5-3.3,1.6c-1.3,1.7-0.9,4.2,0.9,5.4c1.7,1.2,4.2,0.9,5.4-0.9
		c1.3-1.7,0.9-4.2-0.9-5.4C106.1,42,105.4,41.7,104.6,41.7z M96.1,44.7c-1.3-0.1-2.5,0.6-3.2,1.8c-0.8,1.6-0.2,3.6,1.4,4.4
		c1.6,0.8,3.6,0.2,4.4-1.4c0.8-1.6,0.2-3.6-1.4-4.4C96.9,44.9,96.5,44.8,96.1,44.7z M88.6,48.8c-1.1,0.1-2,0.8-2.4,1.9
		c-0.5,1.4,0.3,3,1.7,3.4c1.4,0.5,3-0.3,3.4-1.7c0.5-1.4-0.3-3-1.8-3.4C89.3,48.8,88.9,48.8,88.6,48.8z M54.4,51.3
		c-0.8,0-1.7,0.3-2.3,1c-1.3,1.3-1.3,3.3,0,4.6c1.3,1.3,3.3,1.3,4.6,0c1.3-1.3,1.3-3.3,0-4.6C56.1,51.6,55.3,51.3,54.4,51.3
		L54.4,51.3z M83.4,53.1c-1.1,0-2,0.8-2.1,1.9c-0.2,1.2,0.6,2.4,1.9,2.6c1.2,0.2,2.4-0.7,2.6-1.9c0.2-1.2-0.6-2.4-1.9-2.6
		C83.7,53.1,83.6,53.1,83.4,53.1z M79.6,57.4c-1,0-1.9,0.8-1.9,1.9c0,1,0.8,1.9,1.9,1.9c1,0,1.9-0.8,1.9-1.9
		C81.5,58.3,80.7,57.4,79.6,57.4z M55.7,59.6c-0.9,0-1.8,0.4-2.3,1.1c-0.9,1.2-0.6,2.9,0.6,3.8c1.2,0.9,2.9,0.6,3.8-0.6
		c0.9-1.2,0.6-2.9-0.6-3.8C56.7,59.8,56.2,59.6,55.7,59.6z M77.1,61.6c-0.1,0-0.2,0-0.3,0c-0.8,0.1-1.4,0.9-1.3,1.8
		c0.1,0.8,0.9,1.4,1.8,1.3c0.8-0.1,1.4-0.9,1.3-1.8C78.4,62.2,77.8,61.6,77.1,61.6z M57.7,66.3c-0.9-0.1-1.8,0.4-2.2,1.2
		c-0.6,1.1-0.1,2.5,1,3.1c1.1,0.6,2.5,0.1,3.1-1c0.6-1.1,0.1-2.5-1-3.1C58.3,66.4,58,66.3,57.7,66.3z M94.5,70.6
		c-0.2,0-0.4,0.1-0.6,0.2c-0.8,0.4-1.1,1.3-0.7,2.1c0.4,0.7,1.3,1,2.1,0.7c0.8-0.4,1.1-1.3,0.7-2.1C95.7,70.9,95.1,70.6,94.5,70.6z
		 M60,71.6c-0.7,0.1-1.4,0.5-1.6,1.3c-0.3,1,0.2,2,1.2,2.4c1,0.3,2-0.2,2.4-1.2c0.3-1-0.2-2.1-1.2-2.4C60.5,71.6,60.3,71.6,60,71.6z
		 M99.3,71.6c-0.2,0-0.5,0-0.7,0.1c-1,0.3-1.5,1.4-1.2,2.4c0.3,1,1.4,1.5,2.4,1.2c1-0.3,1.5-1.4,1.2-2.4
		C100.7,72.1,100,71.7,99.3,71.6z M104.2,73.6c-0.2,0-0.3,0-0.5,0c-1.2,0.2-2.1,1.4-1.9,2.6c0.2,1.2,1.4,2.1,2.6,1.9
		c1.2-0.2,2.1-1.4,1.9-2.6C106.2,74.5,105.3,73.7,104.2,73.6z M62.9,75.6c-0.7,0-1.3,0.6-1.5,1.3c-0.1,0.8,0.4,1.6,1.3,1.8
		c0.8,0.1,1.6-0.4,1.8-1.3c0.1-0.8-0.4-1.6-1.3-1.8C63.1,75.6,63,75.6,62.9,75.6z M109.4,77.1c-1.5,0-2.7,1.2-2.7,2.7
		c0,1.5,1.2,2.7,2.7,2.7c1.5,0,2.7-1.2,2.7-2.7C112.1,78.3,110.9,77.1,109.4,77.1z M114.7,82.1c-1.5,0.1-2.8,1.2-3.1,2.8
		c-0.3,1.8,0.9,3.5,2.7,3.7c1.8,0.3,3.5-0.9,3.7-2.7c0.3-1.8-0.9-3.5-2.7-3.8C115.1,82.1,114.9,82.1,114.7,82.1z M39.8,89
		c-0.5-0.1-1,0-1.5,0.2c-2,0.7-3.2,2.8-2.5,4.9c0.7,2,2.8,3.2,4.9,2.5c2-0.7,3.2-2.8,2.5-4.9C42.6,90.1,41.3,89.1,39.8,89z
		 M119.5,89c-1.5,0.1-2.9,1.1-3.4,2.7c-0.7,2,0.5,4.2,2.5,4.9c2,0.7,4.2-0.4,4.9-2.5c0.7-2-0.5-4.2-2.5-4.9
		C120.5,89,120,88.9,119.5,89z M91.5,90.1c-0.4,0-0.8,0.2-1.1,0.5c-0.6,0.6-0.6,1.6,0,2.2c0.6,0.6,1.6,0.6,2.2,0
		c0.6-0.6,0.6-1.6,0-2.2C92.3,90.3,91.9,90.1,91.5,90.1L91.5,90.1z M47.6,92.7c-0.4,0-0.8,0.1-1.3,0.3c-1.6,0.8-2.2,2.8-1.4,4.4
		c0.8,1.6,2.8,2.2,4.4,1.4c1.6-0.8,2.3-2.8,1.4-4.4C50.2,93.3,48.9,92.6,47.6,92.7z M72.1,93.2c-0.6,0-1.2,0.3-1.5,0.8
		c-0.4,0.8-0.1,1.7,0.7,2.1c0.8,0.4,1.7,0.1,2.1-0.7c0.4-0.8,0.1-1.7-0.7-2.1C72.5,93.3,72.3,93.3,72.1,93.2z M67.7,94.5
		c-0.6,0-1.2,0.2-1.6,0.8c-0.6,0.8-0.4,2,0.4,2.6c0.8,0.6,2,0.4,2.6-0.4c0.6-0.8,0.4-2-0.4-2.6C68.4,94.6,68,94.5,67.7,94.5z
		 M91.6,94.5c-0.4,0-0.7,0.1-1,0.4c-0.8,0.6-1,1.8-0.4,2.6c0.6,0.8,1.8,1,2.6,0.4c0.8-0.6,1-1.8,0.4-2.6
		C92.8,94.7,92.2,94.4,91.6,94.5z M55.5,94.5c-0.5,0-1.1,0.2-1.5,0.5c-1.2,0.9-1.5,2.6-0.6,3.8c0.9,1.2,2.6,1.5,3.8,0.6
		c1.2-0.9,1.5-2.6,0.6-3.8C57.3,94.9,56.4,94.5,55.5,94.5z M62.1,95c-0.6,0-1.2,0.2-1.6,0.7h0c-0.9,0.9-0.9,2.3,0,3.2
		c0.9,0.9,2.3,0.9,3.2,0c0.9-0.9,0.9-2.3,0-3.2C63.3,95.2,62.7,95,62.1,95z M90.7,99.6c-0.3,0-0.6,0.1-0.9,0.2
		c-1.1,0.6-1.6,1.9-1,3.1c0.6,1.1,1.9,1.6,3.1,1c1.1-0.6,1.6-1.9,1-3.1C92.5,100,91.6,99.5,90.7,99.6z M89,105.3
		c-0.3,0-0.7,0-1.1,0.1c-1.4,0.5-2.2,2-1.7,3.4c0.5,1.4,2,2.2,3.4,1.7c1.4-0.5,2.2-2,1.8-3.4C91.1,106.1,90.1,105.4,89,105.3z
		 M85.4,111.7c-0.2,0-0.4,0-0.7,0c-1.8,0.3-3,2-2.7,3.7c0.3,1.8,2,3,3.7,2.7c1.8-0.3,3-2,2.7-3.7C88.2,112.9,86.9,111.8,85.4,111.7z
		 M79.6,118.2c-2.1,0-3.9,1.7-3.9,3.9s1.7,3.9,3.9,3.9c2.1,0,3.9-1.7,3.9-3.9S81.8,118.2,79.6,118.2z"/>
	<path class="st2" d="M79.6,33.6c-2.1,0-3.9,1.7-3.9,3.9c0,2.1,1.7,3.9,3.9,3.9c2.1,0,3.9-1.7,3.9-3.9
		C83.5,35.4,81.8,33.6,79.6,33.6z M74.2,41.3c-0.2,0-0.4,0-0.7,0c-1.8,0.3-3,2-2.7,3.7c0.3,1.8,2,3,3.7,2.7c1.8-0.3,3-2,2.7-3.7
		C77,42.5,75.7,41.4,74.2,41.3z M70.7,48.8c-0.4,0-0.7,0-1.1,0.1c-1.4,0.5-2.2,2-1.8,3.4c0.5,1.4,2,2.2,3.4,1.7
		c1.4-0.5,2.2-2,1.7-3.4C72.7,49.6,71.8,48.9,70.7,48.8z M68.2,55.5c-0.3,0-0.6,0.1-0.9,0.2c-1.1,0.6-1.6,1.9-1,3
		c0.6,1.1,1.9,1.6,3.1,1c1.1-0.6,1.6-1.9,1-3.1C70,55.9,69.1,55.4,68.2,55.5z M103.6,59.6c-0.5,0-1.1,0.2-1.5,0.5
		c-1.2,0.9-1.5,2.6-0.6,3.8c0.9,1.2,2.6,1.5,3.8,0.6c1.2-0.9,1.5-2.6,0.6-3.8C105.3,60,104.5,59.6,103.6,59.6z M97.2,60
		c-0.6,0-1.2,0.2-1.6,0.7c-0.9,0.9-0.9,2.3,0,3.2c0.9,0.9,2.3,0.9,3.2,0c0.9-0.9,0.9-2.3,0-3.2C98.3,60.2,97.7,60,97.2,60z
		 M111.2,60.3c-0.4,0-0.8,0.1-1.2,0.3c-1.6,0.8-2.3,2.8-1.4,4.4c0.8,1.6,2.8,2.3,4.4,1.4c1.6-0.8,2.3-2.8,1.4-4.4
		C113.7,60.9,112.4,60.2,111.2,60.3z M67.5,61.3c-0.4,0-0.7,0.1-1,0.4c-0.8,0.6-1,1.8-0.4,2.6c0.6,0.8,1.8,1,2.6,0.4
		c0.8-0.6,1-1.8,0.4-2.6C68.8,61.6,68.2,61.3,67.5,61.3z M91.7,61.3c-0.6,0-1.2,0.2-1.6,0.8c-0.6,0.8-0.4,2,0.4,2.6
		c0.8,0.6,2,0.4,2.6-0.4c0.6-0.8,0.4-2-0.4-2.6C92.5,61.5,92.1,61.4,91.7,61.3z M39.1,62.9c-1.5,0.1-2.9,1.1-3.4,2.7
		c-0.7,2,0.4,4.2,2.5,4.9c2,0.7,4.2-0.5,4.9-2.5c0.7-2.1-0.5-4.2-2.5-4.9C40.1,62.9,39.6,62.8,39.1,62.9z M120.2,62.9
		c-0.5,0-1,0-1.5,0.2c-2,0.7-3.1,2.8-2.5,4.9c0.7,2,2.8,3.1,4.9,2.5c2-0.7,3.2-2.8,2.5-4.9C123,64,121.7,63,120.2,62.9z M87.4,63.2
		c-0.6,0-1.2,0.3-1.5,0.8c-0.4,0.8-0.1,1.7,0.7,2.1c0.8,0.4,1.7,0.1,2.1-0.7c0.4-0.8,0.1-1.7-0.7-2.1C87.8,63.3,87.6,63.2,87.4,63.2
		z M67.7,66.3c-0.4,0-0.8,0.2-1.1,0.5c-0.6,0.6-0.6,1.6,0,2.2c0.6,0.6,1.6,0.6,2.2,0c0.6-0.6,0.6-1.6,0-2.2
		C68.5,66.5,68.1,66.3,67.7,66.3L67.7,66.3z M44.3,70.9c-1.5,0.1-2.8,1.2-3.1,2.8c-0.3,1.8,0.9,3.5,2.7,3.7c1.8,0.3,3.5-0.9,3.7-2.7
		c0.3-1.8-0.9-3.5-2.7-3.7C44.7,70.9,44.5,70.9,44.3,70.9z M49.9,77.1c-1.5,0-2.7,1.2-2.7,2.7c0,1.5,1.2,2.7,2.7,2.7
		c1.5,0,2.7-1.2,2.7-2.7C52.7,78.3,51.4,77.1,49.9,77.1z M96.2,80.9c-0.7,0-1.3,0.6-1.5,1.3c-0.1,0.8,0.4,1.6,1.3,1.8
		c0.8,0.1,1.6-0.4,1.8-1.3c0.1-0.9-0.4-1.6-1.3-1.8C96.4,80.9,96.3,80.9,96.2,80.9z M55.3,81.4c-0.2,0-0.3,0-0.5,0
		c-1.2,0.2-2.1,1.4-1.9,2.6c0.2,1.2,1.3,2.1,2.6,1.9c1.2-0.2,2.1-1.4,1.9-2.6C57.3,82.2,56.3,81.4,55.3,81.4z M60.3,84.2
		c-0.3,0-0.5,0-0.7,0.1c-1,0.3-1.5,1.4-1.2,2.4c0.3,1,1.4,1.5,2.4,1.2c1-0.3,1.5-1.4,1.2-2.4C61.7,84.8,61.1,84.3,60.3,84.2z
		 M99,84.2c-0.7,0.1-1.4,0.6-1.6,1.3c-0.3,1,0.2,2.1,1.2,2.4c1,0.3,2-0.2,2.4-1.2c0.3-1-0.2-2.1-1.2-2.4
		C99.4,84.2,99.2,84.2,99,84.2z M64.5,85.9c-0.2,0-0.4,0.1-0.6,0.2c-0.8,0.4-1.1,1.3-0.7,2.1c0.4,0.8,1.3,1.1,2.1,0.7
		c0.8-0.4,1.1-1.3,0.7-2.1C65.7,86.2,65.1,85.8,64.5,85.9z M101.9,88.8c-0.9-0.1-1.8,0.4-2.2,1.2c-0.6,1.1-0.1,2.5,1,3.1
		c1.1,0.6,2.5,0.1,3.1-1c0.6-1.1,0.1-2.5-1-3.1C102.5,88.9,102.2,88.8,101.9,88.8z M103.8,94.5c-0.9,0-1.7,0.4-2.3,1.1
		c-0.9,1.2-0.6,2.9,0.6,3.8c1.2,0.9,2.9,0.6,3.8-0.6c0.9-1.2,0.6-2.9-0.6-3.8C104.8,94.7,104.3,94.5,103.8,94.5z M82.3,94.9
		c-0.1,0-0.2,0-0.3,0c-0.9,0.1-1.4,0.9-1.3,1.8c0.1,0.8,0.9,1.4,1.8,1.3c0.9-0.1,1.4-0.9,1.3-1.8C83.7,95.4,83.1,94.9,82.3,94.9z
		 M79.6,98.4c-1,0-1.9,0.8-1.9,1.9c0,1,0.8,1.9,1.9,1.9c1,0,1.9-0.8,1.9-1.9C81.5,99.2,80.7,98.4,79.6,98.4z M104.9,101.7
		c-0.8,0-1.7,0.3-2.3,1c-1.3,1.3-1.3,3.4,0,4.6c1.3,1.3,3.3,1.3,4.6,0c1.3-1.3,1.3-3.3,0-4.6C106.5,102,105.7,101.7,104.9,101.7z
		 M75.7,102c-1.1,0.1-2,0.8-2.1,1.9c-0.2,1.2,0.6,2.4,1.9,2.6c1.2,0.2,2.4-0.7,2.6-1.9c0.2-1.3-0.6-2.4-1.9-2.6
		C76,102,75.8,102,75.7,102z M70.2,105.3c-1.1,0.1-2,0.8-2.4,1.9c-0.5,1.4,0.3,3,1.8,3.4c1.4,0.5,3-0.3,3.4-1.7
		c0.5-1.4-0.3-3-1.7-3.4C70.9,105.3,70.6,105.3,70.2,105.3z M63.7,108.3c-1.3-0.1-2.5,0.6-3.2,1.8c-0.8,1.6-0.2,3.6,1.4,4.4
		c1.6,0.8,3.6,0.2,4.4-1.4c0.8-1.6,0.2-3.6-1.4-4.4C64.5,108.4,64.1,108.3,63.7,108.3z M54.9,110.1c-1.2,0-2.5,0.5-3.3,1.6
		c-1.3,1.7-0.9,4.2,0.9,5.4c1.7,1.3,4.2,0.9,5.4-0.9c1.3-1.7,0.9-4.2-0.9-5.4C56.4,110.4,55.7,110.1,54.9,110.1z M104.3,110.1
		c-0.7,0-1.5,0.3-2.1,0.7c-1.7,1.2-2.1,3.7-0.9,5.4c1.3,1.7,3.7,2.1,5.4,0.9c1.7-1.3,2.1-3.7,0.9-5.4
		C106.8,110.6,105.6,110,104.3,110.1z"/>
	<path class="st3" d="M92.4,35.7c-1.5,0.1-2.9,1.1-3.4,2.7c-0.7,2,0.4,4.2,2.5,4.9c2,0.7,4.2-0.5,4.9-2.5c0.7-2-0.5-4.2-2.5-4.9
		C93.4,35.7,92.9,35.7,92.4,35.7z M85.1,41.3c-1.5,0.1-2.8,1.2-3.1,2.8c-0.3,1.8,0.9,3.5,2.7,3.7c1.8,0.3,3.5-0.9,3.7-2.7
		c0.3-1.8-0.9-3.5-2.7-3.7C85.5,41.3,85.3,41.3,85.1,41.3z M79.6,47.3c-1.5,0-2.7,1.2-2.7,2.7c0,1.5,1.2,2.7,2.7,2.7
		c1.5,0,2.7-1.2,2.7-2.7C82.4,48.6,81.1,47.3,79.6,47.3z M45.6,51.1c-1.2,0-2.5,0.5-3.3,1.6c-1.3,1.7-0.9,4.1,0.9,5.4
		c1.7,1.3,4.2,0.9,5.4-0.9c1.3-1.7,0.9-4.2-0.9-5.4C47.1,51.3,46.3,51.1,45.6,51.1z M75.9,53.1c-0.1,0-0.3,0-0.5,0
		c-1.2,0.2-2.1,1.4-1.9,2.6c0.2,1.2,1.4,2.1,2.6,1.9c1.2-0.2,2.1-1.4,1.9-2.6C77.8,53.9,76.9,53.1,75.9,53.1z M73.5,58.4
		c-0.2,0-0.5,0-0.7,0.1c-1,0.3-1.5,1.4-1.2,2.4c0.3,1,1.4,1.5,2.4,1.2c1-0.3,1.5-1.4,1.2-2.4C74.9,59,74.2,58.5,73.5,58.4z
		 M48.1,60.3c-1.3-0.1-2.5,0.6-3.2,1.8c-0.8,1.6-0.2,3.6,1.4,4.4c1.6,0.8,3.6,0.2,4.4-1.4c0.8-1.6,0.2-3.6-1.4-4.4
		C49,60.5,48.5,60.4,48.1,60.3z M71.9,63.2c-0.2,0-0.4,0.1-0.6,0.2c-0.8,0.4-1.1,1.3-0.7,2.1c0.4,0.8,1.3,1.1,2.1,0.7
		c0.8-0.4,1.1-1.3,0.7-2.1C73.1,63.5,72.5,63.2,71.9,63.2z M96.1,65.9c-0.4,0-0.7,0.1-1,0.4c-0.8,0.6-1,1.8-0.4,2.6
		c0.6,0.8,1.8,1,2.6,0.4c0.8-0.6,1-1.8,0.4-2.6C97.3,66.1,96.7,65.8,96.1,65.9z M101.5,66.3c-0.3,0-0.6,0.1-0.9,0.2
		c-1.1,0.6-1.6,1.9-1,3.1c0.6,1.1,1.9,1.6,3.1,1c1.1-0.6,1.6-1.9,1-3.1C103.3,66.7,102.4,66.2,101.5,66.3z M91.5,66.3
		c-0.4,0-0.8,0.2-1.1,0.5c-0.6,0.6-0.6,1.6,0,2.2c0.6,0.6,1.6,0.6,2.2,0c0.6-0.6,0.6-1.6,0-2.2C92.3,66.5,91.9,66.3,91.5,66.3
		L91.5,66.3z M51.2,67.9c-1.1,0.1-2,0.8-2.4,1.9c-0.5,1.4,0.3,3,1.8,3.4c1.4,0.5,3-0.3,3.4-1.7c0.5-1.4-0.3-3-1.8-3.4
		C51.9,67.9,51.5,67.9,51.2,67.9z M108.1,67.9c-0.3,0-0.7,0-1.1,0.1c-1.4,0.4-2.2,2-1.8,3.4c0.5,1.4,2,2.2,3.4,1.7
		c1.4-0.5,2.2-2,1.8-3.4C110.1,68.7,109.2,68,108.1,67.9z M115,70.9c-0.2,0-0.4,0-0.7,0c-1.8,0.3-3,2-2.7,3.7c0.3,1.8,2,3,3.7,2.7
		c1.8-0.3,3-2,2.7-3.7C117.8,72.1,116.5,71,115,70.9z M55.1,73.6c-1.1,0-2,0.8-2.1,1.9c-0.2,1.2,0.6,2.4,1.9,2.6
		c1.2,0.2,2.4-0.6,2.6-1.9c0.2-1.2-0.7-2.4-1.9-2.6C55.4,73.6,55.2,73.6,55.1,73.6z M121.9,75.9c-2.1,0-3.9,1.7-3.9,3.9
		c0,2.1,1.7,3.9,3.9,3.9c2.1,0,3.9-1.7,3.9-3.9C125.8,77.6,124,75.9,121.9,75.9z M59.2,77.9c-1,0-1.9,0.8-1.9,1.9
		c0,1,0.8,1.9,1.9,1.9c1,0,1.9-0.8,1.9-1.9C61.1,78.7,60.2,77.9,59.2,77.9z M63.1,80.9c-0.1,0-0.2,0-0.3,0c-0.8,0.1-1.4,0.9-1.3,1.8
		c0.1,0.8,0.9,1.4,1.8,1.3c0.8-0.1,1.4-0.9,1.3-1.8C64.4,81.4,63.8,80.9,63.1,80.9z M94.8,85.9c-0.6,0-1.2,0.3-1.5,0.8
		c-0.4,0.7-0.1,1.7,0.7,2.1c0.8,0.4,1.7,0.1,2.1-0.7c0.4-0.7,0.1-1.7-0.7-2.1C95.2,85.9,95,85.9,94.8,85.9z M96.3,89.9
		c-0.6,0-1.2,0.3-1.6,0.8c-0.6,0.8-0.4,2,0.4,2.6c0.8,0.6,2,0.4,2.6-0.4c0.6-0.8,0.4-2-0.4-2.6C97,90.1,96.6,90,96.3,89.9z
		 M76.9,94.9c-0.7,0-1.3,0.6-1.5,1.3c-0.1,0.8,0.4,1.6,1.3,1.8c0.8,0.1,1.6-0.4,1.8-1.3c0.1-0.8-0.5-1.6-1.3-1.8
		C77.1,94.9,77,94.9,76.9,94.9z M97.2,95c-0.6,0-1.2,0.2-1.6,0.7c-0.9,0.9-0.9,2.3,0,3.2c0.9,0.9,2.3,0.9,3.2,0
		c0.9-0.9,0.9-2.3,0-3.2C98.3,95.2,97.7,95,97.2,95L97.2,95z M73.2,97.4c-0.7,0.1-1.4,0.5-1.6,1.3c-0.3,1,0.2,2,1.2,2.4
		c1,0.3,2-0.2,2.4-1.2c0.3-1-0.2-2-1.2-2.4C73.7,97.4,73.4,97.4,73.2,97.4z M68.6,99.6c-0.9-0.1-1.8,0.4-2.2,1.2
		c-0.6,1.1-0.1,2.5,1,3.1c1.1,0.6,2.5,0.1,3.1-1c0.6-1.1,0.1-2.5-1-3.1C69.2,99.7,68.9,99.6,68.6,99.6z M45.3,100.8
		c-0.7,0-1.5,0.3-2.1,0.7c-1.7,1.3-2.1,3.7-0.9,5.4c1.3,1.7,3.7,2.1,5.4,0.8c1.7-1.3,2.1-3.7,0.9-5.4
		C47.8,101.3,46.6,100.7,45.3,100.8z M62.3,101.1c-0.9,0-1.7,0.4-2.3,1.1c-0.9,1.2-0.6,2.9,0.6,3.8c1.2,0.9,2.9,0.6,3.8-0.6
		c0.9-1.2,0.6-2.9-0.6-3.8C63.3,101.3,62.8,101.1,62.3,101.1z M97,101.1c-0.5,0-1,0.2-1.5,0.5c-1.2,0.9-1.5,2.6-0.6,3.8
		c0.9,1.2,2.6,1.5,3.8,0.6c1.2-0.9,1.5-2.6,0.6-3.8C98.8,101.5,97.9,101.1,97,101.1z M54.4,101.7c-0.8,0-1.7,0.3-2.3,1
		c-1.3,1.3-1.3,3.4,0,4.6c1.3,1.3,3.3,1.3,4.6,0c1.3-1.3,1.3-3.3,0-4.6C56.1,102,55.3,101.7,54.4,101.7z M95.6,108.3
		c-0.4,0-0.8,0.2-1.2,0.3c-1.6,0.8-2.2,2.8-1.4,4.4c0.8,1.6,2.8,2.3,4.4,1.4c1.6-0.8,2.2-2.8,1.4-4.4
		C98.1,108.9,96.9,108.2,95.6,108.3z M93,116.1c-0.5,0-1,0-1.5,0.2c-2,0.6-3.2,2.8-2.5,4.9c0.7,2,2.8,3.2,4.9,2.5
		c2-0.7,3.2-2.8,2.5-4.9C95.9,117.3,94.5,116.2,93,116.1z"/>
	<path class="st4" d="M66.9,35.7c-0.5,0-1,0-1.5,0.2c-2,0.7-3.1,2.8-2.5,4.9c0.7,2,2.9,3.2,4.9,2.5c2-0.7,3.2-2.8,2.5-4.9
		C69.8,36.9,68.4,35.9,66.9,35.7z M63.2,44.7c-0.4,0-0.9,0.1-1.3,0.4c-1.6,0.8-2.2,2.8-1.4,4.4c0.8,1.6,2.8,2.3,4.4,1.4
		c1.6-0.8,2.3-2.8,1.4-4.4C65.8,45.3,64.5,44.7,63.2,44.7z M113.7,51.1c-0.7,0-1.5,0.3-2.1,0.7c-1.7,1.3-2.1,3.7-0.9,5.4
		c1.3,1.7,3.7,2.1,5.4,0.9c1.7-1.3,2.1-3.7,0.9-5.4C116.2,51.6,114.9,51,113.7,51.1z M104.9,51.3c-0.8,0-1.7,0.3-2.3,1
		c-1.3,1.3-1.3,3.3,0,4.6c1.3,1.3,3.3,1.3,4.6,0c1.3-1.3,1.3-3.3,0-4.6C106.5,51.6,105.7,51.3,104.9,51.3z M97.2,53
		c-0.9,0-1.7,0.4-2.3,1.1c-0.9,1.2-0.6,2.9,0.6,3.8c1.2,0.9,2.9,0.6,3.8-0.6c0.9-1.2,0.6-2.9-0.6-3.8C98.3,53.2,97.7,53,97.2,53z
		 M62.1,53c-0.5,0-1,0.2-1.5,0.5c-1.2,0.9-1.5,2.6-0.6,3.8c0.9,1.2,2.6,1.5,3.8,0.6c1.2-0.9,1.5-2.6,0.6-3.8
		C63.8,53.4,63,53,62.1,53z M91,55.5c-0.9-0.1-1.8,0.4-2.2,1.2c-0.6,1.1-0.1,2.5,1,3.1c1.1,0.6,2.5,0.1,3.1-1c0.6-1.1,0.1-2.5-1-3
		C91.6,55.6,91.3,55.5,91,55.5z M85.8,58.4c-0.7,0.1-1.4,0.5-1.6,1.3c-0.3,1,0.2,2,1.2,2.4c1,0.3,2-0.2,2.4-1.2
		c0.3-1-0.2-2.1-1.2-2.4C86.3,58.5,86,58.4,85.8,58.4z M62.1,60c-0.6,0-1.2,0.2-1.6,0.7c-0.9,0.9-0.9,2.3,0,3.2
		c0.9,0.9,2.3,0.9,3.2,0c0.9-0.9,0.9-2.3,0-3.2C63.3,60.2,62.7,60,62.1,60z M82.2,61.6c-0.7,0-1.3,0.6-1.5,1.3
		c-0.1,0.8,0.5,1.6,1.3,1.8c0.9,0.1,1.6-0.5,1.8-1.3c0.1-0.8-0.5-1.6-1.3-1.8C82.4,61.6,82.3,61.6,82.2,61.6z M63.1,65.9
		c-0.6,0-1.2,0.2-1.6,0.8c-0.6,0.8-0.4,2,0.4,2.6c0.8,0.6,2,0.4,2.6-0.4c0.6-0.8,0.4-2-0.4-2.6C63.9,66,63.5,65.9,63.1,65.9z
		 M64.8,70.6c-0.6,0-1.2,0.3-1.5,0.8c-0.4,0.8-0.1,1.7,0.7,2.1c0.8,0.4,1.7,0.1,2.1-0.7c0.4-0.8,0.1-1.7-0.7-2.1
		C65.2,70.7,64.9,70.6,64.8,70.6z M96.3,75.6c-0.1,0-0.2,0-0.3,0c-0.8,0.1-1.4,0.9-1.3,1.8c0.1,0.8,0.9,1.4,1.8,1.3
		c0.8-0.1,1.4-0.9,1.3-1.8C97.7,76.2,97.1,75.6,96.3,75.6z M37.4,75.9c-2.1,0-3.9,1.7-3.9,3.9c0,2.1,1.7,3.9,3.9,3.9
		c2.1,0,3.9-1.7,3.9-3.9C41.3,77.6,39.5,75.9,37.4,75.9z M100.1,77.9c-1,0-1.9,0.8-1.9,1.9c0,1,0.8,1.9,1.9,1.9c1,0,1.9-0.8,1.9-1.9
		C102,78.7,101.2,77.9,100.1,77.9z M104,81.4c-1.1,0-2,0.8-2.1,1.9c-0.2,1.2,0.6,2.4,1.9,2.6c1.2,0.2,2.4-0.7,2.6-1.9
		c0.2-1.2-0.6-2.4-1.9-2.6C104.3,81.4,104.1,81.4,104,81.4z M44.6,82.1c-0.2,0-0.4,0-0.7,0c-1.8,0.3-3,2-2.7,3.8
		c0.3,1.8,2,3,3.7,2.7c1.8-0.3,3-2,2.7-3.7C47.4,83.3,46.1,82.2,44.6,82.1z M51.6,86.2c-0.4,0-0.7,0-1.1,0.1c-1.4,0.5-2.2,2-1.8,3.4
		c0.5,1.4,2,2.2,3.4,1.8c1.4-0.5,2.2-2,1.8-3.4C53.6,87.1,52.7,86.3,51.6,86.2z M107.7,86.2c-1.1,0.1-2,0.8-2.4,1.9
		c-0.5,1.4,0.3,3,1.8,3.4c1.4,0.5,3-0.3,3.4-1.8c0.5-1.4-0.3-3-1.7-3.4C108.4,86.3,108,86.2,107.7,86.2z M57.4,88.7
		c-0.3,0-0.6,0.1-0.9,0.2c-1.1,0.6-1.6,1.9-1,3.1c0.6,1.1,1.9,1.6,3.1,1c1.1-0.6,1.6-1.9,1-3.1C59.2,89.2,58.3,88.7,57.4,88.7z
		 M63,89.9c-0.4,0-0.7,0.1-1,0.4c-0.8,0.6-1,1.8-0.4,2.6c0.6,0.8,1.8,1,2.6,0.4c0.8-0.6,1-1.8,0.4-2.6C64.2,90.2,63.6,89.9,63,89.9z
		 M67.7,90.1c-0.4,0-0.8,0.2-1.1,0.5c-0.6,0.6-0.6,1.6,0,2.2c0.6,0.6,1.6,0.6,2.2,0c0.6-0.6,0.6-1.6,0-2.2
		C68.5,90.3,68.1,90.1,67.7,90.1z M111.6,92.7c-1.3-0.1-2.5,0.6-3.2,1.8c-0.8,1.6-0.2,3.6,1.4,4.4c1.6,0.8,3.6,0.2,4.4-1.4
		c0.8-1.6,0.2-3.6-1.4-4.4C112.5,92.8,112.1,92.7,111.6,92.7z M87.2,93.2c-0.2,0-0.4,0.1-0.6,0.2c-0.7,0.4-1.1,1.3-0.7,2.1
		c0.4,0.8,1.3,1.1,2.1,0.7c0.8-0.4,1.1-1.3,0.7-2.1C88.4,93.5,87.8,93.2,87.2,93.2z M86.1,97.4c-0.2,0-0.5,0-0.7,0.1
		c-1,0.3-1.5,1.4-1.2,2.4c0.3,1,1.4,1.5,2.4,1.2c1-0.3,1.5-1.4,1.2-2.4C87.5,97.9,86.9,97.4,86.1,97.4z M114,100.8
		c-1.2-0.1-2.5,0.5-3.3,1.6c-1.3,1.7-0.9,4.2,0.9,5.4c1.7,1.3,4.2,0.9,5.4-0.8c1.3-1.7,0.9-4.2-0.9-5.4
		C115.5,101,114.7,100.8,114,100.8z M83.6,102c-0.2,0-0.3,0-0.5,0c-1.2,0.2-2.1,1.3-1.9,2.6c0.2,1.2,1.3,2.1,2.6,1.9
		c1.2-0.2,2.1-1.4,1.9-2.6C85.6,102.8,84.7,102,83.6,102z M79.6,106.8c-1.5,0-2.7,1.2-2.7,2.7s1.2,2.7,2.7,2.7
		c1.5,0,2.7-1.2,2.7-2.7S81.1,106.8,79.6,106.8z M73.9,111.7c-1.5,0.1-2.8,1.2-3.1,2.8c-0.3,1.8,0.9,3.5,2.7,3.7
		c1.8,0.3,3.5-0.9,3.7-2.7c0.3-1.8-0.9-3.5-2.7-3.7C74.4,111.7,74.1,111.7,73.9,111.7z M66.3,116.1c-1.5,0.1-2.9,1.1-3.4,2.7
		c-0.7,2,0.5,4.2,2.5,4.9c2,0.7,4.2-0.5,4.9-2.5c0.7-2-0.5-4.2-2.5-4.9C67.3,116.1,66.8,116.1,66.3,116.1z"/>
</g>
</svg>
