<svg enable-background="new 0 0 100 100" viewBox="0 0 100 100" xmlns="http://www.w3.org/2000/svg"><path d="m0 0h100v100h-100z" fill="#fff"/><g transform="matrix(.61524215 0 0 .61524215 1 .914345)"><path d="m54.7 41.7c-.7 0-1.5.3-2.2.7-1.7 1.3-2.1 3.7-.9 5.4 1.3 1.7 3.7 2.1 5.4.9 1.7-1.3 2.1-3.7.9-5.4-.7-1.1-2-1.6-3.2-1.6zm49.9 0c-1.2 0-2.5.5-3.3 1.6-1.3 1.7-.9 4.2.9 5.4 1.7 1.2 4.2.9 5.4-.9 1.3-1.7.9-4.2-.9-5.4-.6-.4-1.3-.7-2.1-.7zm-8.5 3c-1.3-.1-2.5.6-3.2 1.8-.8 1.6-.2 3.6 1.4 4.4s3.6.2 4.4-1.4.2-3.6-1.4-4.4c-.4-.2-.8-.3-1.2-.4zm-7.5 4.1c-1.1.1-2 .8-2.4 1.9-.5 1.4.3 3 1.7 3.4 1.4.5 3-.3 3.4-1.7.5-1.4-.3-3-1.8-3.4-.2-.2-.6-.2-.9-.2zm-34.2 2.5c-.8 0-1.7.3-2.3 1-1.3 1.3-1.3 3.3 0 4.6s3.3 1.3 4.6 0 1.3-3.3 0-4.6c-.6-.7-1.4-1-2.3-1zm29 1.8c-1.1 0-2 .8-2.1 1.9-.2 1.2.6 2.4 1.9 2.6 1.2.2 2.4-.7 2.6-1.9s-.6-2.4-1.9-2.6c-.2 0-.3 0-.5 0zm-3.8 4.3c-1 0-1.9.8-1.9 1.9 0 1 .8 1.9 1.9 1.9 1 0 1.9-.8 1.9-1.9 0-1-.8-1.9-1.9-1.9zm-23.9 2.2c-.9 0-1.8.4-2.3 1.1-.9 1.2-.6 2.9.6 3.8s2.9.6 3.8-.6.6-2.9-.6-3.8c-.5-.3-1-.5-1.5-.5zm21.4 2c-.1 0-.2 0-.3 0-.8.1-1.4.9-1.3 1.8.1.8.9 1.4 1.8 1.3.8-.1 1.4-.9 1.3-1.8-.2-.7-.8-1.3-1.5-1.3zm-19.4 4.7c-.9-.1-1.8.4-2.2 1.2-.6 1.1-.1 2.5 1 3.1s2.5.1 3.1-1 .1-2.5-1-3.1c-.3-.1-.6-.2-.9-.2zm36.8 4.3c-.2 0-.4.1-.6.2-.8.4-1.1 1.3-.7 2.1.4.7 1.3 1 2.1.7.8-.4 1.1-1.3.7-2.1-.3-.6-.9-.9-1.5-.9zm-34.5 1c-.7.1-1.4.5-1.6 1.3-.3 1 .2 2 1.2 2.4 1 .3 2-.2 2.4-1.2.3-1-.2-2.1-1.2-2.4-.3-.1-.5-.1-.8-.1zm39.3 0c-.2 0-.5 0-.7.1-1 .3-1.5 1.4-1.2 2.4s1.4 1.5 2.4 1.2 1.5-1.4 1.2-2.4c-.3-.8-1-1.2-1.7-1.3zm4.9 2c-.2 0-.3 0-.5 0-1.2.2-2.1 1.4-1.9 2.6s1.4 2.1 2.6 1.9 2.1-1.4 1.9-2.6c-.1-1-1-1.8-2.1-1.9zm-41.3 2c-.7 0-1.3.6-1.5 1.3-.1.8.4 1.6 1.3 1.8.8.1 1.6-.4 1.8-1.3.1-.8-.4-1.6-1.3-1.8-.1 0-.2 0-.3 0zm46.5 1.5c-1.5 0-2.7 1.2-2.7 2.7s1.2 2.7 2.7 2.7 2.7-1.2 2.7-2.7-1.2-2.7-2.7-2.7zm5.3 5c-1.5.1-2.8 1.2-3.1 2.8-.3 1.8.9 3.5 2.7 3.7 1.8.3 3.5-.9 3.7-2.7.3-1.8-.9-3.5-2.7-3.8-.2 0-.4 0-.6 0zm-74.9 6.9c-.5-.1-1 0-1.5.2-2 .7-3.2 2.8-2.5 4.9.7 2 2.8 3.2 4.9 2.5 2-.7 3.2-2.8 2.5-4.9-.6-1.6-1.9-2.6-3.4-2.7zm79.7 0c-1.5.1-2.9 1.1-3.4 2.7-.7 2 .5 4.2 2.5 4.9s4.2-.4 4.9-2.5c.7-2-.5-4.2-2.5-4.9-.5-.2-1-.3-1.5-.2zm-28 1.1c-.4 0-.8.2-1.1.5-.6.6-.6 1.6 0 2.2s1.6.6 2.2 0 .6-1.6 0-2.2c-.3-.3-.7-.5-1.1-.5zm-43.9 2.6c-.4 0-.8.1-1.3.3-1.6.8-2.2 2.8-1.4 4.4s2.8 2.2 4.4 1.4 2.3-2.8 1.4-4.4c-.5-1.1-1.8-1.8-3.1-1.7zm24.5.5c-.6 0-1.2.3-1.5.8-.4.8-.1 1.7.7 2.1s1.7.1 2.1-.7.1-1.7-.7-2.1c-.2 0-.4 0-.6-.1zm-4.4 1.3c-.6 0-1.2.2-1.6.8-.6.8-.4 2 .4 2.6s2 .4 2.6-.4.4-2-.4-2.6c-.3-.3-.7-.4-1-.4zm23.9 0c-.4 0-.7.1-1 .4-.8.6-1 1.8-.4 2.6s1.8 1 2.6.4 1-1.8.4-2.6c-.4-.6-1-.9-1.6-.8zm-36.1 0c-.5 0-1.1.2-1.5.5-1.2.9-1.5 2.6-.6 3.8s2.6 1.5 3.8.6 1.5-2.6.6-3.8c-.5-.7-1.4-1.1-2.3-1.1zm6.6.5c-.6 0-1.2.2-1.6.7-.9.9-.9 2.3 0 3.2s2.3.9 3.2 0 .9-2.3 0-3.2c-.4-.5-1-.7-1.6-.7zm28.6 4.6c-.3 0-.6.1-.9.2-1.1.6-1.6 1.9-1 3.1.6 1.1 1.9 1.6 3.1 1 1.1-.6 1.6-1.9 1-3.1-.4-.8-1.3-1.3-2.2-1.2zm-1.7 5.7c-.3 0-.7 0-1.1.1-1.4.5-2.2 2-1.7 3.4s2 2.2 3.4 1.7 2.2-2 1.8-3.4c-.3-1-1.3-1.7-2.4-1.8zm-3.6 6.4c-.2 0-.4 0-.7 0-1.8.3-3 2-2.7 3.7.3 1.8 2 3 3.7 2.7 1.8-.3 3-2 2.7-3.7-.2-1.5-1.5-2.6-3-2.7zm-5.8 6.5c-2.1 0-3.9 1.7-3.9 3.9s1.7 3.9 3.9 3.9c2.1 0 3.9-1.7 3.9-3.9s-1.7-3.9-3.9-3.9z" fill="#4e5d6e"/><path d="m79.6 33.6c-2.1 0-3.9 1.7-3.9 3.9 0 2.1 1.7 3.9 3.9 3.9 2.1 0 3.9-1.7 3.9-3.9 0-2.1-1.7-3.9-3.9-3.9zm-5.4 7.7c-.2 0-.4 0-.7 0-1.8.3-3 2-2.7 3.7.3 1.8 2 3 3.7 2.7 1.8-.3 3-2 2.7-3.7-.2-1.5-1.5-2.6-3-2.7zm-3.5 7.5c-.4 0-.7 0-1.1.1-1.4.5-2.2 2-1.8 3.4.5 1.4 2 2.2 3.4 1.7s2.2-2 1.7-3.4c-.2-1-1.1-1.7-2.2-1.8zm-2.5 6.7c-.3 0-.6.1-.9.2-1.1.6-1.6 1.9-1 3s1.9 1.6 3.1 1c1.1-.6 1.6-1.9 1-3.1-.4-.7-1.3-1.2-2.2-1.1zm35.4 4.1c-.5 0-1.1.2-1.5.5-1.2.9-1.5 2.6-.6 3.8s2.6 1.5 3.8.6 1.5-2.6.6-3.8c-.6-.7-1.4-1.1-2.3-1.1zm-6.4.4c-.6 0-1.2.2-1.6.7-.9.9-.9 2.3 0 3.2s2.3.9 3.2 0 .9-2.3 0-3.2c-.5-.5-1.1-.7-1.6-.7zm14 .3c-.4 0-.8.1-1.2.3-1.6.8-2.3 2.8-1.4 4.4.8 1.6 2.8 2.3 4.4 1.4 1.6-.8 2.3-2.8 1.4-4.4-.7-1.1-2-1.8-3.2-1.7zm-43.7 1c-.4 0-.7.1-1 .4-.8.6-1 1.8-.4 2.6s1.8 1 2.6.4 1-1.8.4-2.6c-.3-.5-.9-.8-1.6-.8zm24.2 0c-.6 0-1.2.2-1.6.8-.6.8-.4 2 .4 2.6s2 .4 2.6-.4.4-2-.4-2.6c-.2-.2-.6-.3-1-.4zm-52.6 1.6c-1.5.1-2.9 1.1-3.4 2.7-.7 2 .4 4.2 2.5 4.9 2 .7 4.2-.5 4.9-2.5.7-2.1-.5-4.2-2.5-4.9-.5-.2-1-.3-1.5-.2zm81.1 0c-.5 0-1 0-1.5.2-2 .7-3.1 2.8-2.5 4.9.7 2 2.8 3.1 4.9 2.5 2-.7 3.2-2.8 2.5-4.9-.6-1.6-1.9-2.6-3.4-2.7zm-32.8.3c-.6 0-1.2.3-1.5.8-.4.8-.1 1.7.7 2.1s1.7.1 2.1-.7.1-1.7-.7-2.1c-.2 0-.4-.1-.6-.1zm-19.7 3.1c-.4 0-.8.2-1.1.5-.6.6-.6 1.6 0 2.2s1.6.6 2.2 0 .6-1.6 0-2.2c-.3-.3-.7-.5-1.1-.5zm-23.4 4.6c-1.5.1-2.8 1.2-3.1 2.8-.3 1.8.9 3.5 2.7 3.7 1.8.3 3.5-.9 3.7-2.7.3-1.8-.9-3.5-2.7-3.7-.2-.1-.4-.1-.6-.1zm5.6 6.2c-1.5 0-2.7 1.2-2.7 2.7s1.2 2.7 2.7 2.7 2.7-1.2 2.7-2.7c.1-1.5-1.2-2.7-2.7-2.7zm46.3 3.8c-.7 0-1.3.6-1.5 1.3-.1.8.4 1.6 1.3 1.8.8.1 1.6-.4 1.8-1.3.1-.9-.4-1.6-1.3-1.8-.1 0-.2 0-.3 0zm-40.9.5c-.2 0-.3 0-.5 0-1.2.2-2.1 1.4-1.9 2.6s1.3 2.1 2.6 1.9c1.2-.2 2.1-1.4 1.9-2.6-.1-1.1-1.1-1.9-2.1-1.9zm5 2.8c-.3 0-.5 0-.7.1-1 .3-1.5 1.4-1.2 2.4s1.4 1.5 2.4 1.2 1.5-1.4 1.2-2.4c-.3-.7-.9-1.2-1.7-1.3zm38.7 0c-.7.1-1.4.6-1.6 1.3-.3 1 .2 2.1 1.2 2.4s2-.2 2.4-1.2c.3-1-.2-2.1-1.2-2.4-.4-.1-.6-.1-.8-.1zm-34.5 1.7c-.2 0-.4.1-.6.2-.8.4-1.1 1.3-.7 2.1s1.3 1.1 2.1.7 1.1-1.3.7-2.1c-.3-.6-.9-1-1.5-.9zm37.4 2.9c-.9-.1-1.8.4-2.2 1.2-.6 1.1-.1 2.5 1 3.1s2.5.1 3.1-1 .1-2.5-1-3.1c-.3-.1-.6-.2-.9-.2zm1.9 5.7c-.9 0-1.7.4-2.3 1.1-.9 1.2-.6 2.9.6 3.8s2.9.6 3.8-.6.6-2.9-.6-3.8c-.5-.3-1-.5-1.5-.5zm-21.5.4c-.1 0-.2 0-.3 0-.9.1-1.4.9-1.3 1.8.1.8.9 1.4 1.8 1.3s1.4-.9 1.3-1.8c-.1-.8-.7-1.3-1.5-1.3zm-2.7 3.5c-1 0-1.9.8-1.9 1.9 0 1 .8 1.9 1.9 1.9 1 0 1.9-.8 1.9-1.9s-.8-1.9-1.9-1.9zm25.3 3.3c-.8 0-1.7.3-2.3 1-1.3 1.3-1.3 3.4 0 4.6 1.3 1.3 3.3 1.3 4.6 0s1.3-3.3 0-4.6c-.7-.7-1.5-1-2.3-1zm-29.2.3c-1.1.1-2 .8-2.1 1.9-.2 1.2.6 2.4 1.9 2.6 1.2.2 2.4-.7 2.6-1.9.2-1.3-.6-2.4-1.9-2.6-.2 0-.4 0-.5 0zm-5.5 3.3c-1.1.1-2 .8-2.4 1.9-.5 1.4.3 3 1.8 3.4 1.4.5 3-.3 3.4-1.7.5-1.4-.3-3-1.7-3.4-.4-.2-.7-.2-1.1-.2zm-6.5 3c-1.3-.1-2.5.6-3.2 1.8-.8 1.6-.2 3.6 1.4 4.4s3.6.2 4.4-1.4.2-3.6-1.4-4.4c-.4-.3-.8-.4-1.2-.4zm-8.8 1.8c-1.2 0-2.5.5-3.3 1.6-1.3 1.7-.9 4.2.9 5.4 1.7 1.3 4.2.9 5.4-.9 1.3-1.7.9-4.2-.9-5.4-.6-.4-1.3-.7-2.1-.7zm49.4 0c-.7 0-1.5.3-2.1.7-1.7 1.2-2.1 3.7-.9 5.4 1.3 1.7 3.7 2.1 5.4.9 1.7-1.3 2.1-3.7.9-5.4-.8-1.1-2-1.7-3.3-1.6z" fill="#96d325"/><path d="m92.4 35.7c-1.5.1-2.9 1.1-3.4 2.7-.7 2 .4 4.2 2.5 4.9 2 .7 4.2-.5 4.9-2.5s-.5-4.2-2.5-4.9c-.5-.2-1-.2-1.5-.2zm-7.3 5.6c-1.5.1-2.8 1.2-3.1 2.8-.3 1.8.9 3.5 2.7 3.7 1.8.3 3.5-.9 3.7-2.7.3-1.8-.9-3.5-2.7-3.7-.2-.1-.4-.1-.6-.1zm-5.5 6c-1.5 0-2.7 1.2-2.7 2.7s1.2 2.7 2.7 2.7 2.7-1.2 2.7-2.7c.1-1.4-1.2-2.7-2.7-2.7zm-34 3.8c-1.2 0-2.5.5-3.3 1.6-1.3 1.7-.9 4.1.9 5.4 1.7 1.3 4.2.9 5.4-.9 1.3-1.7.9-4.2-.9-5.4-.6-.5-1.4-.7-2.1-.7zm30.3 2c-.1 0-.3 0-.5 0-1.2.2-2.1 1.4-1.9 2.6s1.4 2.1 2.6 1.9 2.1-1.4 1.9-2.6c-.2-1.1-1.1-1.9-2.1-1.9zm-2.4 5.3c-.2 0-.5 0-.7.1-1 .3-1.5 1.4-1.2 2.4s1.4 1.5 2.4 1.2 1.5-1.4 1.2-2.4c-.3-.7-1-1.2-1.7-1.3zm-25.4 1.9c-1.3-.1-2.5.6-3.2 1.8-.8 1.6-.2 3.6 1.4 4.4s3.6.2 4.4-1.4.2-3.6-1.4-4.4c-.3-.2-.8-.3-1.2-.4zm23.8 2.9c-.2 0-.4.1-.6.2-.8.4-1.1 1.3-.7 2.1s1.3 1.1 2.1.7 1.1-1.3.7-2.1c-.3-.6-.9-.9-1.5-.9zm24.2 2.7c-.4 0-.7.1-1 .4-.8.6-1 1.8-.4 2.6s1.8 1 2.6.4 1-1.8.4-2.6c-.4-.6-1-.9-1.6-.8zm5.4.4c-.3 0-.6.1-.9.2-1.1.6-1.6 1.9-1 3.1.6 1.1 1.9 1.6 3.1 1 1.1-.6 1.6-1.9 1-3.1-.4-.8-1.3-1.3-2.2-1.2zm-10 0c-.4 0-.8.2-1.1.5-.6.6-.6 1.6 0 2.2s1.6.6 2.2 0 .6-1.6 0-2.2c-.3-.3-.7-.5-1.1-.5zm-40.3 1.6c-1.1.1-2 .8-2.4 1.9-.5 1.4.3 3 1.8 3.4 1.4.5 3-.3 3.4-1.7.5-1.4-.3-3-1.8-3.4-.3-.2-.7-.2-1-.2zm56.9 0c-.3 0-.7 0-1.1.1-1.4.4-2.2 2-1.8 3.4.5 1.4 2 2.2 3.4 1.7s2.2-2 1.8-3.4c-.3-1-1.2-1.7-2.3-1.8zm6.9 3c-.2 0-.4 0-.7 0-1.8.3-3 2-2.7 3.7.3 1.8 2 3 3.7 2.7 1.8-.3 3-2 2.7-3.7-.2-1.5-1.5-2.6-3-2.7zm-59.9 2.7c-1.1 0-2 .8-2.1 1.9-.2 1.2.6 2.4 1.9 2.6 1.2.2 2.4-.6 2.6-1.9.2-1.2-.7-2.4-1.9-2.6-.2 0-.4 0-.5 0zm66.8 2.3c-2.1 0-3.9 1.7-3.9 3.9 0 2.1 1.7 3.9 3.9 3.9 2.1 0 3.9-1.7 3.9-3.9s-1.8-3.9-3.9-3.9zm-62.7 2c-1 0-1.9.8-1.9 1.9 0 1 .8 1.9 1.9 1.9 1 0 1.9-.8 1.9-1.9s-.9-1.9-1.9-1.9zm3.9 3c-.1 0-.2 0-.3 0-.8.1-1.4.9-1.3 1.8.1.8.9 1.4 1.8 1.3.8-.1 1.4-.9 1.3-1.8-.2-.8-.8-1.3-1.5-1.3zm31.7 5c-.6 0-1.2.3-1.5.8-.4.7-.1 1.7.7 2.1s1.7.1 2.1-.7c.4-.7.1-1.7-.7-2.1-.2-.1-.4-.1-.6-.1zm1.5 4c-.6 0-1.2.3-1.6.8-.6.8-.4 2 .4 2.6s2 .4 2.6-.4.4-2-.4-2.6c-.3-.2-.7-.3-1-.4zm-19.4 5c-.7 0-1.3.6-1.5 1.3-.1.8.4 1.6 1.3 1.8.8.1 1.6-.4 1.8-1.3.1-.8-.5-1.6-1.3-1.8-.1 0-.2 0-.3 0zm20.3.1c-.6 0-1.2.2-1.6.7-.9.9-.9 2.3 0 3.2s2.3.9 3.2 0 .9-2.3 0-3.2c-.5-.5-1.1-.7-1.6-.7zm-24 2.4c-.7.1-1.4.5-1.6 1.3-.3 1 .2 2 1.2 2.4 1 .3 2-.2 2.4-1.2.3-1-.2-2-1.2-2.4-.3-.1-.6-.1-.8-.1zm-4.6 2.2c-.9-.1-1.8.4-2.2 1.2-.6 1.1-.1 2.5 1 3.1s2.5.1 3.1-1 .1-2.5-1-3.1c-.3-.1-.6-.2-.9-.2zm-23.3 1.2c-.7 0-1.5.3-2.1.7-1.7 1.3-2.1 3.7-.9 5.4 1.3 1.7 3.7 2.1 5.4.8s2.1-3.7.9-5.4c-.8-1-2-1.6-3.3-1.5zm17 .3c-.9 0-1.7.4-2.3 1.1-.9 1.2-.6 2.9.6 3.8s2.9.6 3.8-.6.6-2.9-.6-3.8c-.5-.3-1-.5-1.5-.5zm34.7 0c-.5 0-1 .2-1.5.5-1.2.9-1.5 2.6-.6 3.8s2.6 1.5 3.8.6 1.5-2.6.6-3.8c-.5-.7-1.4-1.1-2.3-1.1zm-42.6.6c-.8 0-1.7.3-2.3 1-1.3 1.3-1.3 3.4 0 4.6 1.3 1.3 3.3 1.3 4.6 0s1.3-3.3 0-4.6c-.6-.7-1.4-1-2.3-1zm41.2 6.6c-.4 0-.8.2-1.2.3-1.6.8-2.2 2.8-1.4 4.4s2.8 2.3 4.4 1.4c1.6-.8 2.2-2.8 1.4-4.4-.7-1.1-1.9-1.8-3.2-1.7zm-2.6 7.8c-.5 0-1 0-1.5.2-2 .6-3.2 2.8-2.5 4.9.7 2 2.8 3.2 4.9 2.5 2-.7 3.2-2.8 2.5-4.9-.5-1.5-1.9-2.6-3.4-2.7z" fill="#c53753"/><path d="m66.9 35.7c-.5 0-1 0-1.5.2-2 .7-3.1 2.8-2.5 4.9.7 2 2.9 3.2 4.9 2.5s3.2-2.8 2.5-4.9c-.5-1.5-1.9-2.5-3.4-2.7zm-3.7 9c-.4 0-.9.1-1.3.4-1.6.8-2.2 2.8-1.4 4.4s2.8 2.3 4.4 1.4c1.6-.8 2.3-2.8 1.4-4.4-.5-1.2-1.8-1.8-3.1-1.8zm50.5 6.4c-.7 0-1.5.3-2.1.7-1.7 1.3-2.1 3.7-.9 5.4 1.3 1.7 3.7 2.1 5.4.9 1.7-1.3 2.1-3.7.9-5.4-.8-1.1-2.1-1.7-3.3-1.6zm-8.8.2c-.8 0-1.7.3-2.3 1-1.3 1.3-1.3 3.3 0 4.6s3.3 1.3 4.6 0 1.3-3.3 0-4.6c-.7-.7-1.5-1-2.3-1zm-7.7 1.7c-.9 0-1.7.4-2.3 1.1-.9 1.2-.6 2.9.6 3.8s2.9.6 3.8-.6.6-2.9-.6-3.8c-.4-.3-1-.5-1.5-.5zm-35.1 0c-.5 0-1 .2-1.5.5-1.2.9-1.5 2.6-.6 3.8s2.6 1.5 3.8.6 1.5-2.6.6-3.8c-.6-.7-1.4-1.1-2.3-1.1zm28.9 2.5c-.9-.1-1.8.4-2.2 1.2-.6 1.1-.1 2.5 1 3.1s2.5.1 3.1-1 .1-2.5-1-3c-.3-.2-.6-.3-.9-.3zm-5.2 2.9c-.7.1-1.4.5-1.6 1.3-.3 1 .2 2 1.2 2.4 1 .3 2-.2 2.4-1.2.3-1-.2-2.1-1.2-2.4-.3 0-.6-.1-.8-.1zm-23.7 1.6c-.6 0-1.2.2-1.6.7-.9.9-.9 2.3 0 3.2s2.3.9 3.2 0 .9-2.3 0-3.2c-.4-.5-1-.7-1.6-.7zm20.1 1.6c-.7 0-1.3.6-1.5 1.3-.1.8.5 1.6 1.3 1.8.9.1 1.6-.5 1.8-1.3.1-.8-.5-1.6-1.3-1.8-.1-0-.2-0-.3-0zm-19.1 4.3c-.6 0-1.2.2-1.6.8-.6.8-.4 2 .4 2.6s2 .4 2.6-.4.4-2-.4-2.6c-.2-.3-.6-.4-1-.4zm1.7 4.7c-.6 0-1.2.3-1.5.8-.4.8-.1 1.7.7 2.1s1.7.1 2.1-.7.1-1.7-.7-2.1c-.2 0-.5-.1-.6-.1zm31.5 5c-.1 0-.2 0-.3 0-.8.1-1.4.9-1.3 1.8.1.8.9 1.4 1.8 1.3.8-.1 1.4-.9 1.3-1.8-.1-.7-.7-1.3-1.5-1.3zm-58.9.3c-2.1 0-3.9 1.7-3.9 3.9 0 2.1 1.7 3.9 3.9 3.9 2.1 0 3.9-1.7 3.9-3.9s-1.8-3.9-3.9-3.9zm62.7 2c-1 0-1.9.8-1.9 1.9 0 1 .8 1.9 1.9 1.9 1 0 1.9-.8 1.9-1.9s-.8-1.9-1.9-1.9zm3.9 3.5c-1.1 0-2 .8-2.1 1.9-.2 1.2.6 2.4 1.9 2.6 1.2.2 2.4-.7 2.6-1.9s-.6-2.4-1.9-2.6c-.2 0-.4 0-.5 0zm-59.4.7c-.2 0-.4 0-.7 0-1.8.3-3 2-2.7 3.8s2 3 3.7 2.7c1.8-.3 3-2 2.7-3.7-.2-1.6-1.5-2.7-3-2.8zm7 4.1c-.4 0-.7 0-1.1.1-1.4.5-2.2 2-1.8 3.4.5 1.4 2 2.2 3.4 1.8 1.4-.5 2.2-2 1.8-3.4-.3-1-1.2-1.8-2.3-1.9zm56.1 0c-1.1.1-2 .8-2.4 1.9-.5 1.4.3 3 1.8 3.4 1.4.5 3-.3 3.4-1.8.5-1.4-.3-3-1.7-3.4-.4-0-.8-.1-1.1-.1zm-50.3 2.5c-.3 0-.6.1-.9.2-1.1.6-1.6 1.9-1 3.1.6 1.1 1.9 1.6 3.1 1 1.1-.6 1.6-1.9 1-3.1-.4-.7-1.3-1.2-2.2-1.2zm5.6 1.2c-.4 0-.7.1-1 .4-.8.6-1 1.8-.4 2.6s1.8 1 2.6.4 1-1.8.4-2.6c-.4-.5-1-.8-1.6-.8zm4.7.2c-.4 0-.8.2-1.1.5-.6.6-.6 1.6 0 2.2s1.6.6 2.2 0 .6-1.6 0-2.2c-.3-.3-.7-.5-1.1-.5zm43.9 2.6c-1.3-.1-2.5.6-3.2 1.8-.8 1.6-.2 3.6 1.4 4.4s3.6.2 4.4-1.4.2-3.6-1.4-4.4c-.3-.3-.7-.4-1.2-.4zm-24.4.5c-.2 0-.4.1-.6.2-.7.4-1.1 1.3-.7 2.1s1.3 1.1 2.1.7 1.1-1.3.7-2.1c-.3-.6-.9-.9-1.5-.9zm-1.1 4.2c-.2 0-.5 0-.7.1-1 .3-1.5 1.4-1.2 2.4s1.4 1.5 2.4 1.2 1.5-1.4 1.2-2.4c-.3-.8-.9-1.3-1.7-1.3zm27.9 3.4c-1.2-.1-2.5.5-3.3 1.6-1.3 1.7-.9 4.2.9 5.4 1.7 1.3 4.2.9 5.4-.8 1.3-1.7.9-4.2-.9-5.4-.6-.6-1.4-.8-2.1-.8zm-30.4 1.2c-.2 0-.3 0-.5 0-1.2.2-2.1 1.3-1.9 2.6.2 1.2 1.3 2.1 2.6 1.9 1.2-.2 2.1-1.4 1.9-2.6-.1-1.1-1-1.9-2.1-1.9zm-4 4.8c-1.5 0-2.7 1.2-2.7 2.7s1.2 2.7 2.7 2.7 2.7-1.2 2.7-2.7-1.2-2.7-2.7-2.7zm-5.7 4.9c-1.5.1-2.8 1.2-3.1 2.8-.3 1.8.9 3.5 2.7 3.7 1.8.3 3.5-.9 3.7-2.7.3-1.8-.9-3.5-2.7-3.7-.1-.1-.4-.1-.6-.1zm-7.6 4.4c-1.5.1-2.9 1.1-3.4 2.7-.7 2 .5 4.2 2.5 4.9s4.2-.5 4.9-2.5-.5-4.2-2.5-4.9c-.5-.2-1-.2-1.5-.2z" fill="#65cbb8"/></g></svg>