<?xml version="1.0" encoding="UTF-8"?>
<svg xmlns="http://www.w3.org/2000/svg" version="1.1" viewBox="0 0 100 100">
  <defs>
    <style>
      .cls-1 {
        fill: #5c5a5a;
      }

      .cls-2 {
        fill: #fff;
      }

      .cls-3 {
        fill: #669811;
      }
    </style>
  </defs>
  <!-- Generator: Adobe Illustrator 28.6.0, SVG Export Plug-In . SVG Version: 1.2.0 Build 709)  -->
  <g>
    <g id="Layer_1">
      <rect class="cls-2" width="100" height="100"/>
      <path class="cls-3" d="M28.4,71.8c1-1.6,2-3.1,3-4.6,8-12.3,16.1-24.6,24.1-36.9.8-1.3,1.9-1.9,3.4-1.8h11.6c3.9,0,.5,0,.8,0,0,.5-.5.8-.7,1.2-8.8,13.5-17.6,27-26.4,40.4-.7,1.1-1.6,1.7-2.9,1.7h-12.9Z"/>
      <path class="cls-3" d="M47,71.7c.9-1.4,1.9-2.8,2.8-4.3,8.4-12.8,16.8-25.6,25.2-38.5.3-.4.5-.6,1-.6h1c1.9,0,3.2,1.2,3.3,3.1v10.8c0,.7-.2,1.3-.6,1.9-5.7,8.7-11.3,17.3-17,26-.6,1-1.5,1.5-2.6,1.5h-13.1Z"/>
      <path class="cls-1" d="M53,28.5c-1.6,2.5-3.2,4.9-4.7,7.3-1,1.5-1.9,3-2.9,4.4-.2.4-.5.5-.9.5h-24c-.5,0-.7,0-.6-.6v-8.6c0-1.7,1.3-3.1,3-3.1h30.1Z"/>
      <path class="cls-1" d="M42.8,44c-2.1,3.2-4.2,6.4-6.2,9.5-.5.8-1,1.5-1.5,2.3-.2.3-.4.4-.8.4h-14c-.5,0-.6,0-.6-.6v-11.1c0-.4,0-.6.5-.6h22.6Z"/>
      <path class="cls-3" d="M65.6,71.8c4.9-7.4,9.7-14.8,14.5-22.2.2.2,0,.4,0,.6v18.1c0,2.2-1.3,3.4-3.4,3.5h-11.2,0Z"/>
      <path class="cls-1" d="M32.6,59.6c-1.8,2.8-3.6,5.5-5.4,8.3-.8,1.1-1.5,2.3-2.2,3.4-.2.3-.5.5-.9.4h-1.9c-1.4-.3-2.4-1.5-2.4-2.9v-8.7c0-.3,0-.5.4-.5,0,0,12.4,0,12.4,0Z"/>
    </g>
  </g>
</svg>

