<svg fill="none" height="13" viewBox="0 0 12 13" width="12" xmlns="http://www.w3.org/2000/svg"><path d="m6 .5c-.78793 0-1.56815.155195-2.2961.456723-.72795.301527-1.38939.743487-1.94654 1.300637s-.999109 1.21859-1.300637 1.94654-.456723 1.50817-.456723 2.2961.155195 1.56815.456723 2.2961.743487 1.3894 1.300637 1.9465c.55715.5572 1.21859.9991 1.94654 1.3007.72795.3015 1.50817.4567 2.2961.4567 1.5913 0 3.11742-.6321 4.2426-1.7574 1.1253-1.12518 1.7574-2.6513 1.7574-4.2426s-.6321-3.11742-1.7574-4.24264c-1.12518-1.12522-2.6513-1.75736-4.2426-1.75736zm-.94 8.4-2.1136-2.1144c-.09367-.09389-.14622-.22114-.14607-.35377.00015-.13262.05298-.25976.14687-.35343s.22114-.14622.35377-.14607c.13262.00015.25976.05298.35343.14687l1.6568 1.6576 3.0352-3.036c.09469-.0899.22075-.13927.35131-.13758.13056.0017.2553.05432.34763.14664.09232.09233.14494.21707.14664.34763.00169.13056-.04768.25662-.13758.35131l-3.492 3.4912z" fill="#fbfbfe"/></svg>