<svg fill="none" height="16" viewBox="0 0 17 16" width="17" xmlns="http://www.w3.org/2000/svg"><path clip-rule="evenodd" d="m8.78182 2.63903c-.193-.351-.524-.389-.657-.389-.13463-.00156-.26711.0339-.38297.1025s-.21065.1677-.27403.2865l-5.497 9.99997c-.06409.1138-.09676.2426-.09465.3732.00211.1305.03892.2582.10665.3698.06516.1131.15925.2068.27261.2715s.24189.098.37239.0965h10.99398c.1305.0015.2591-.0318.3724-.0965.1134-.0647.2075-.1584.2726-.2715.0678-.1116.1046-.2393.1067-.3698.0021-.1306-.0306-.2594-.0947-.3732zm-2.409-.602c.379-.691 1.066-1.037 1.752-1.037.35859-.002045.71101.09323 1.01972.27567s.56214.44522.73328.76033l5.49698 9.99997c.733 1.333-.231 2.964-1.752 2.964h-10.99498c-1.521 0-2.485997-1.63-1.751997-2.963zm2.377 7.025c0 .16576-.06585.32473-.18306.44194s-.27618.18306-.44194.18306-.32473-.06585-.44194-.18306c-.11722-.11721-.18306-.27618-.18306-.44194v-3.437c0-.16576.06584-.32473.18306-.44194.11721-.11721.27618-.18306.44194-.18306s.32473.06585.44194.18306.18306.27618.18306.44194zm-1 2.93797-.25-.25v-.75l.25-.25h.75l.25.25v.75l-.25.25z" fill="#000" fill-rule="evenodd"/></svg>