<svg fill="none" height="13" viewBox="0 0 12 13" width="12" xmlns="http://www.w3.org/2000/svg"><path d="m5.375 7.625v4.25c0 .1658.06585.3247.18306.4419.11721.1173.27618.1831.44194.1831s.32473-.0658.44194-.1831c.11721-.1172.18306-.2761.18306-.4419v-4.25l.5-.5h4.25c.1658 0 .3247-.06585.4419-.18306.1173-.11721.1831-.27618.1831-.44194s-.0658-.32473-.1831-.44194c-.1172-.11721-.2761-.18306-.4419-.18306h-4.25l-.5-.5v-4.25c0-.16576-.06585-.324731-.18306-.441942-.11721-.11721-.27618-.183058-.44194-.183058s-.32473.065848-.44194.183058c-.11721.117211-.18306.276182-.18306.441942v4.25l-.5.5h-4.25c-.16576 0-.324731.06585-.441942.18306-.11721.11721-.183058.27618-.183058.44194s.065848.32473.183058.44194c.117211.11721.276182.18306.441942.18306h4.137z" fill="#000"/></svg>