<svg fill="none" height="16" viewBox="0 0 17 16" width="17" xmlns="http://www.w3.org/2000/svg"><path clip-rule="evenodd" d="m3.49073 1.3015-.182.849c-.01524.07196-.05104.13794-.10305.18995-.052.05201-.11799.08781-.18995.10305l-.849.182c-.402.087-.402.661 0 .747l.849.183c.07196.01524.13795.05104.18995.10305.05201.05201.08781.11799.10305.18995l.182.849c.087.402.661.402.747 0l.183-.849c.01525-.07196.05104-.13794.10305-.18995s.118-.08781.18995-.10305l.848-.183c.402-.087.402-.661 0-.747l-.849-.182c-.0719-.01536-.13782-.0512-.18981-.10319s-.08783-.11791-.10319-.18981l-.182-.849c-.087-.402-.661-.402-.747 0zm7.37397 12.698c-.3794.0061-.7489-.1213-1.04403-.3598-.29514-.2384-.4972-.573-.57094-.9452l-.357-1.667c-.05597-.2588-.18535-.4959-.37264-.683s-.42455-.3163-.68336-.372l-1.667-.357c-.781-.169-1.305-.818-1.305-1.616s.524-1.447 1.305-1.615l1.667-.357c.25878-.05615.49594-.18557.68319-.37282.18724-.18724.31666-.4244.37281-.68318l.358-1.667c.167-.781.81597-1.305 1.61397-1.305s1.447.524 1.615 1.305l.357 1.667c.114.528.528.942 1.056 1.055l1.667.357c.781.169 1.305.818 1.305 1.616s-.524 1.447-1.305 1.615l-1.667.357c-.259.056-.4964.1855-.6837.373-.1873.1874-.3165.4249-.3723.684l-.358 1.666c-.0733.3722-.2751.7069-.5701.9454-.2951.2385-.6645.3658-1.0439.3596zm0-10.75c-.098 0-.331.03-.392.316l-.358 1.668c-.1066.49427-.35354.94732-.71109 1.30487-.35755.35756-.8106.60446-1.30488.71113l-1.667.357c-.286.062-.317.295-.317.393s.031.331.317.393l1.667.357c.49428.10667.94733.35357 1.30488.71112s.60449.81058.71109 1.30488l.358 1.668c.061.286.294.316.392.316s.331-.03.392-.316l.358-1.667c.1065-.4945.3534-.94772.7109-1.30547.3576-.35774.8107-.60479 1.3051-.71153l1.667-.357c.286-.062.317-.295.317-.393s-.031-.331-.317-.393l-1.667-.357c-.4942-.10667-.9473-.35357-1.3048-.71113-.3576-.35755-.6045-.8106-.7112-1.30487l-.358-1.668c-.061-.286-.294-.316-.392-.316zm-7.55597 8.901.182-.849c.086-.402.66-.402.747 0l.182.849c.01536.0719.0512.1378.10319.1898s.11791.0878.18981.1032l.849.182c.402.086.402.66 0 .747l-.849.182c-.0719.0154-.13782.0512-.18981.1032s-.08783.1179-.10319.1898l-.182.849c-.086.402-.66.402-.747 0l-.182-.849c-.01536-.0719-.05119-.1378-.10318-.1898s-.11791-.0878-.18982-.1032l-.849-.182c-.402-.086-.402-.66 0-.747l.849-.182c.07196-.0152.13795-.051.18995-.103.05201-.0521.08781-.118.10305-.19z" fill="#000" fill-rule="evenodd"/></svg>