<svg height="40" viewBox="0 0 40 40" width="40" xmlns="http://www.w3.org/2000/svg"><path d="m1.769524 2.597198h36.460953v34.805603h-36.460953z" fill="#ff0" fill-rule="evenodd" stroke="#000" stroke-width="1.308268"/><g transform="matrix(.88763677 0 0 .88763677 2.247265 -51.010942)"><path d="m20 64.526342c-8.545865 0-15.4736579 6.927793-15.4736579 15.473658s6.9277929 15.473658 15.4736579 15.473658 15.473658-6.927793 15.473658-15.473658-6.927793-15.473658-15.473658-15.473658zm-.408738 9.488564c3.527079 0 6.393832 2.84061 6.393832 6.335441s-2.866753 6.335441-6.393832 6.335441-6.393832-2.84061-6.393832-6.335441 2.866753-6.335441 6.393832-6.335441z" fill="#fff" stroke="#000" stroke-width="1.027684"/><path d="m7.2335209 71.819938 4.9702591 4.161823c-1.679956 2.581606-1.443939 6.069592.159325 8.677725l-5.1263071 3.424463c.67516 1.231452 3.0166401 3.547686 4.2331971 4.194757l3.907728-4.567277c2.541952 1.45975 5.730694 1.392161 8.438683-.12614l3.469517 6.108336c1.129779-.44367 4.742234-3.449633 5.416358-5.003859l-5.46204-4.415541c1.44319-2.424098 1.651175-5.267515.557303-7.748623l5.903195-3.833951c-.558169-.986655-3.084522-3.673045-4.671219-4.698691l-4.118813 4.981678c-2.498773-1.769539-6.009854-2.037104-8.869388-.645478l-3.595408-5.322091c-1.345962.579488-4.1293881 2.921233-5.2123901 4.812869zm8.1010311 3.426672c2.75284-2.446266 6.769149-2.144694 9.048998.420874 2.279848 2.56557 2.113919 6.596919-.638924 9.043185-2.752841 2.446267-6.775754 2.13726-9.055604-.428308-2.279851-2.565568-2.107313-6.589485.64553-9.035751z"/></g></svg>