<svg height="40" viewBox="0 0 16 16" width="40" xmlns="http://www.w3.org/2000/svg"><path d="m8.156 12.5a.99.99 0 0 0 .707-.294l.523-2.574 1.114-1.133 1.058-1.04 2.65-.601a.996.996 0 0 0 0-1.414l-3.657-3.658a.996.996 0 0 0 -1.414 0l-.523 2.576-1.114 1.137-1.058 1.036-2.65.6a.996.996 0 0 0 0 1.413l3.657 3.658a.999.999 0 0 0 .707.295z"/><path d="m9.842.996c-.386 0-.77.146-1.06.44a.5.5 0 0 0 -.136.251l-.492 2.43-1.008 1.03-.953.933-2.511.566a.5.5 0 0 0 -.243.133 1.505 1.505 0 0 0 -.002 2.123l1.477 1.477-2.768 2.767a.5.5 0 0 0 0 .707.5.5 0 0 0 .708 0l2.767-2.767 1.475 1.474a1.494 1.494 0 0 0 2.123-.002.5.5 0 0 0 .135-.254l.492-2.427 1.008-1.024.953-.937 2.511-.57a.5.5 0 0 0 .243-.132c.586-.58.583-1.543.002-2.125l-3.659-3.656a1.501 1.501 0 0 0 -1.062-.437zm.05 1.025a.394.394 0 0 1 .305.12l3.658 3.657c.18.18.141.432.002.627l-2.41.545a.5.5 0 0 0 -.24.131l-1.057 1.041a.5.5 0 0 0 -.007.006l-1.114 1.135a.5.5 0 0 0 -.133.25l-.48 2.36c-.082.053-.165.109-.26.109a.492.492 0 0 1 -.353-.149l-3.658-3.658c-.18-.18-.141-.432-.002-.627l2.41-.545a.5.5 0 0 0 .238-.13l1.059-1.036a.5.5 0 0 0 .007-.008l1.114-1.138a.5.5 0 0 0 .133-.25l.472-2.323a.619.619 0 0 1 .317-.117z"/></svg>