<svg height="64" viewBox="0 0 64 64" width="64" xmlns="http://www.w3.org/2000/svg"><path d="m25.470843 9.4933766c-.168653 2.6484414 4.668258 4.9525924 9.233988 4.0357674 5.921519-.987149 6.694002-6.1434942 1.270219-7.751281-4.574129-1.6229475-10.817376.7667262-10.504207 3.7155136zm-20.9462148 8.1586744c-.4563792-5.819178 4.7496701-11.7250103 13.9127508-14.5543422 11.314532-3.96956064 27.058284-1.6969066 35.166574 4.0126921 9.275765 6.1889221 7.158128 16.2079421-3.171076 21.5939521-1.784316 1.635815-6.380222 1.21421-7.068351 3.186186-1.04003.972427-1.288046 2.050158-1.232864 3.168203 1.015111 2.000108-3.831548 1.633216-3.270553 3.759574.589477 5.264544-.179276 10.53738-.362842 15.806257-.492006 2.184998 1.163456 4.574232-.734888 6.610642-2.482919 2.325184-7.30604 2.189143-9.193497-.274767-2.733688-1.740626-8.254447-3.615254-6.104247-6.339626 3.468112-1.708686-2.116197-3.449897.431242-5.080274 5.058402-1.39256-2.393215-2.304318-.146889-4.334645 3.069198-.977415 2.056986-2.518352-.219121-3.540397 1.876567-1.807151 1.484149-4.868919-2.565455-5.942205.150866-1.805474 2.905737-4.136876-1.679967-5.20493-8.024543-2.636204-13.5981753-7.567921-13.7608505-12.86632z" fill="#ff0" stroke="#000" stroke-width="1.726652"/></svg>