<svg fill="none" height="16" viewBox="0 0 16 16" width="16" xmlns="http://www.w3.org/2000/svg"><g fill="#000"><path d="m10.75 7h1.5v-1.5h-1.5z"/><path d="m7.5 7h1.5v-1.5h-1.5z"/><path d="m4.25 7h1.5v-1.5h-1.5z"/><path clip-rule="evenodd" d="m2 0c-1.104214 0-2 .895786-2 2v8.5c0 1.1042.895786 2 2 2h1v2.75c0 .2905.16778.555.43066.6787.26304.1236.57407.0839.79786-.1016l4.04199-3.3496 5.72359.0186c1.1066.003 2.0058-.8928 2.0059-2v-8.4961c0-1.104214-.8958-2-2-2zm12 1.5c.2758 0 .5.22421.5.5v8.4961c-.0001.2766-.2247.5008-.502.5l-5.99605-.0186-.12988.0118c-.12818.0222-.24926.0771-.35059.1611l-3.02148 2.5039v-1.9043c0-.4142-.33579-.75-.75-.75h-1.75c-.27579 0-.5-.2242-.5-.5v-8.5c0-.27579.22421-.5.5-.5z" fill-rule="evenodd"/></g></svg>