<svg fill="none" height="16" viewBox="0 0 16 16" width="16" xmlns="http://www.w3.org/2000/svg"><path d="m.0189877 13.6645.5940013-3.201c.075-.409.272-.783.568001-1.081l8.801-8.802c.77401-.773 2.03301-.775 2.81001 0l1.628 1.628c.774.775.774 2.035 0 2.81l-8.80401 8.803c-.296.295-.67.491-1.078.566l-3.202.594c-.07.012-.138.019-.206.019-.297001 0-.585002-.117-.799002-.331-.2630006-.264-.3800002-.639-.3120003-1.005zm12.4530123-8.468 1.16-1.16-.001-.848-1.82-1.821-.848.001-1.16001 1.16zm-8.16101 7.962c.16-.03.307-.107.423-.224l6.85301-6.853-2.66801-2.668-6.853 6.852c-.117.118-.194.265-.225.426l-.474 2.557.385.385z" fill="#000"/></svg>