<svg fill="none" height="24" viewBox="0 0 25 24" width="25" xmlns="http://www.w3.org/2000/svg"><path d="m13.6241 11.7759 4.709-4.70896c.1092-.11883.1684-.27527.165-.43666-.0033-.16139-.0689-.31526-.1829-.42947-.1141-.11421-.2679-.17993-.4293-.18345s-.3179.05544-.4368.16458l-4.689 4.68896h-.488l-4.68904-4.68796c-.05811-.05805-.12708-.10408-.20298-.13547-.0759-.03138-.15724-.04752-.23937-.04747-.08214.00005-.16346.01627-.23932.04774-.07586.03148-.14478.07759-.20283.1357-.05804.05811-.10407.12708-.13546.20298s-.04752.15724-.04747.23937c.00009.16588.06607.32492.18343.44215l4.68704 4.68596v.491l-4.68704 4.687c-.10926.1189-.1684.2753-.16507.4367s.06889.3153.18297.4295.26787.1799.42926.1834c.16138.0035.31789-.0554.43684-.1646l4.68704-4.687h.491l4.687 4.687c.1175.1171.2766.1828.4425.1828.1658 0 .3249-.0657.4425-.1828.1173-.1173.1832-.2765.1832-.4425 0-.1659-.0659-.3251-.1832-.4425l-4.709-4.709z" fill="#000"/></svg>