<svg fill="none" height="16" viewBox="0 0 16 16" width="16" xmlns="http://www.w3.org/2000/svg"><path clip-rule="evenodd" d="m11 3h2.6c.4 0 .7.3.7.6s-.3.6-.6.6h-.4v9.8c0 1.1-.9 2-2 2h-6.49995c-1.1 0-2-.9-2-2v-9.8h-.4c-.4 0-.6-.2-.6-.6s.2-.6.6-.6h2.6v-1c0-1.1.9-2 2-2h2c1.09995 0 1.99995.9 1.99995 2zm-4.09995-1.8-.6.6v1.2h3.5v-1.2l-.6-.6zm4.49995 13.5.6-.6v-9.9h-7.99995v9.9l.6.6zm-4.39995-2.3c0 .3-.3.6-.6.6s-.6-.3-.6-.6v-4.8c-.1-.3.2-.6.6-.6s.6.3.6.6zm3.20005 0c0 .3-.30004.6-.60004.6s-.6-.3-.6-.6v-4.8c0-.3.3-.6.6-.6s.60004.3.60004.6z" fill="#000" fill-rule="evenodd"/></svg>