<svg fill="none" height="17" viewBox="0 0 16 17" width="16" xmlns="http://www.w3.org/2000/svg"><path d="m14.9815 14.3461-.594-3.201c-.075-.409-.272-.783-.568-1.081l-8.801-8.80196c-.774-.772999-2.033-.774999-2.81 0l-1.628 1.628c-.774.775-.774 2.035 0 2.81l8.804 8.80296c.296.295.67.491 1.078.566l3.202.594c.07.012.138.019.206.019.297 0 .585-.117.799-.331.263-.264.38-.639.312-1.005zm-12.453-8.46796-1.16-1.16.001-.848 1.82-1.821.848.001 1.16 1.16zm8.161 7.96196c-.16-.03-.307-.107-.423-.224l-6.853-6.85296 2.668-2.668 6.853 6.85196c.117.118.194.265.225.426l.474 2.557-.385.385z" fill="#000"/></svg>