<svg fill="none" height="24" viewBox="0 0 24 24" width="24" xmlns="http://www.w3.org/2000/svg"><path clip-rule="evenodd" d="m16.969 10.059c.293-.293.768-.293 1.061 0s.293.768 0 1.061l-5.88 5.88h-.8l-5.88104-5.88c-.293-.293-.293-.768 0-1.061s.768-.293 1.061 0l4.47004 4.47v-11.779c0-.414.336-.75.75-.75s.75.336.749.75v11.779zm-11.98707 9.641.8.8h11.93497l.8-.8v-1.95c0-.414.336-.75.75-.75s.75.336.75.75v1.75c0 1.381-1.119 2.5-2.5 2.5h-11.53497c-1.381 0-2.5-1.119-2.5-2.5v-1.75c0-.414.336-.75.75-.75s.75.336.75.75z" fill="#000" fill-rule="evenodd"/></svg>