<svg fill="none" height="16" viewBox="0 0 16 16" width="16" xmlns="http://www.w3.org/2000/svg"><path d="m7.85822 8.84922-3.005 3.00498c-.09431.0911-.22061.1415-.35171.1404-.13109-.0012-.2565-.0538-.3492-.1465-.09271-.0927-.14529-.2181-.14643-.3492s.04926-.2574.14034-.3517l3.005-3.00498v-.283l-3.005-3.006c-.09108-.09431-.14148-.22061-.14034-.35171.00114-.13109.05372-.2565.14643-.3492.0927-.09271.21811-.14529.3492-.14643.1311-.00114.2574.04926.35171.14034l3.005 3.005h.283l3.00498-3.005c.0943-.09108.2206-.14148.3517-.14034s.2565.05372.3492.14643c.0927.0927.1453.21811.1465.3492.0011.1311-.0493.2574-.1404.35171l-3.00498 3.006v.283l3.00498 3.00498c.0911.0943.1415.2206.1404.3517-.0012.1311-.0538.2565-.1465.3492s-.2181.1453-.3492.1465c-.1311.0011-.2574-.0493-.3517-.1404l-3.00498-3.00498.001.001z" fill="#000"/></svg>