<svg fill="none" height="16" viewBox="0 0 16 16" width="16" xmlns="http://www.w3.org/2000/svg"><path d="m7.625.5c-.98491 0-1.96018.193993-2.87013.5709-.90994.37691-1.73673.92936-2.43317 1.6258s-1.24889 1.52323-1.625796 2.43317c-.376911.90995-.570904 1.88522-.570904 2.87013s.193993 1.96018.570904 2.8701c.376906.91.929356 1.7368 1.625796 2.4332s1.52323 1.2489 2.43317 1.6258c.90995.3769 1.88522.5709 2.87013.5709 1.98912 0 3.8968-.7902 5.3033-2.1967s2.1967-3.31418 2.1967-5.3033-.7902-3.89678-2.1967-5.3033-3.31418-2.1967-5.3033-2.1967zm.625 10.875c0 .1658-.06585.3247-.18306.4419-.11721.1173-.27618.1831-.44194.1831s-.32473-.0658-.44194-.1831c-.11721-.1172-.18306-.2761-.18306-.4419v-4.437c0-.16576.06585-.32473.18306-.44194s.27618-.18306.44194-.18306.32473.06585.44194.18306.18306.27618.18306.44194zm0-6.375-.25.25h-.75l-.25-.25v-.75l.25-.25h.75l.25.25z" fill="#000"/></svg>