<svg fill="none" height="16" viewBox="0 0 16 16" width="16" xmlns="http://www.w3.org/2000/svg"><path d="m14.8748 12.037-5.49698-10c-.381-.691-1.067-1.037-1.753-1.037s-1.372.346-1.752 1.037l-5.496997 10c-.734 1.333.231 2.963 1.751997 2.963h10.99498c1.52 0 2.485-1.63 1.752-2.963zm-6.62498-.287-.25.25h-.75l-.25-.25v-.75l.25-.25h.75l.25.25zm0-2.688c0 .16576-.06584.32473-.18305.44194-.11722.11721-.27619.18306-.44195.18306s-.32473-.06585-.44194-.18306-.18306-.27618-.18306-.44194v-3.437c0-.16576.06585-.32473.18306-.44194s.27618-.18306.44194-.18306.32473.06585.44195.18306c.11721.11721.18305.27618.18305.44194z" fill="#000"/></svg>