<svg fill="none" height="10" viewBox="0 0 8 10" width="8" xmlns="http://www.w3.org/2000/svg"><path d="m4.23336 7.46639 3.614-3.613c.04665-.04629.08368-.10136.10894-.16203.02527-.06067.03828-.12574.03828-.19147 0-.06572-.01301-.13079-.03828-.19146-.02526-.06067-.06229-.11574-.10894-.16204-.09377-.09373-.22092-.14639-.3535-.14639-.13259 0-.25974.05266-.3535.14639l-3.148 3.147-3.145004-3.146c-.094301-.09108-.220602-.14147-.351701-.14033-.131098.00114-.256504.05372-.349208.14642-.0927045.09271-.14528889.21811-.1464281.34921s.049258.2574.1403371.3517l3.612004 3.613z" fill="#000"/></svg>