<svg fill="none" height="16" viewBox="0 0 16 16" width="16" xmlns="http://www.w3.org/2000/svg"><path d="m1.5 4c0-.27579.22421-.5.5-.5h5.25v9.5h-5.25c-.27579 0-.5-.2242-.5-.5zm7.25 9v-9.5h5.25c.2758 0 .5.22421.5.5v8.5c0 .2758-.2242.5-.5.5zm-6.75-11c-1.104214 0-2 .89579-2 2v8.5c0 1.1042.895786 2 2 2h12c1.1042 0 2-.8958 2-2v-8.5c0-1.10421-.8958-2-2-2zm2.75 3h-1.75v1.5h1v5h1.5v-5.75c0-.41421-.33579-.75-.75-.75zm5.25 1.5h1.5v.78647l-1.0854.54271c-.2541.12704-.4146.38674-.4146.67082v2.25c0 .4142.3358.75.75.75h2.25v-1.5h-1.5v-1.03647l1.0854-.54271c.2541-.12704.4146-.38674.4146-.67082v-2c0-.41421-.3358-.75-.75-.75h-2.25z" fill="#000"/></svg>