<svg fill="none" height="16" viewBox="0 0 16 16" width="16" xmlns="http://www.w3.org/2000/svg"><path d="m3 3.78c0-1.0179-.86721-1.66166-1.75-1.76524v-.01476h-.25v1.5c.18133 0 .32279.0609.40708.13029.08253.06794.09292.12429.09292.14971v7.94c0 .0254-.01039.0818-.09292.1497-.08429.0694-.22575.1303-.40708.1303v1.5h.25v-.0148c.88279-.1035 1.75-.7473 1.75-1.7652zm7.5.22c0-.27614-.2239-.5-.5-.5h-3.5c-.27614 0-.5.22386-.5.5v7.5c0 .2761.22386.5.5.5h3.5c.2761 0 .5-.2239.5-.5zm-.5-2c1.1046 0 2 .89543 2 2v7.5c0 1.1046-.8954 2-2 2h-3.5c-1.10457 0-2-.8954-2-2v-7.5c0-1.10457.89543-2 2-2zm5.5 0h-.25v.01476c-.8828.10358-1.75.74734-1.75 1.76524v7.94c0 1.0179.8672 1.6617 1.75 1.7652v.0148h.25v-1.5c-.1813 0-.3228-.0609-.4071-.1303-.0825-.0679-.0929-.1243-.0929-.1497v-7.94c0-.02542.0104-.08177.0929-.14971.0843-.06939.2258-.13029.4071-.13029z" fill="#000"/></svg>