<svg fill="none" height="16" viewBox="0 0 16 16" width="16" xmlns="http://www.w3.org/2000/svg"><path d="m3.5 2c0-.27579.22421-.5.5-.5h8c.2758 0 .5.22421.5.5v12c0 .2758-.2242.5-.5.5h-8c-.27579 0-.5-.2242-.5-.5zm.5-2c-1.10421 0-2 .895786-2 2v12c0 1.1042.89579 2 2 2h8c1.1042 0 2-.8958 2-2v-12c0-1.104214-.8958-2-2-2zm1.89301 6h1.35699v4h-1.35699c-.35 0-.525.423-.278.67l2.106 2.106c.153.153.402.153.555 0l2.10699-2.107c.247-.247.072-.66998-.278-.66998h-1.355v-3.99902h1.356c.35 0 .526-.423.277-.669l-2.10699-2.107c-.153-.153-.402-.153-.555 0l-2.106 2.106c-.247.247-.072.67.278.67z" fill="#000"/></svg>