<svg fill="none" height="16" viewBox="0 0 16 16" width="16" xmlns="http://www.w3.org/2000/svg"><path d="m3.4105 4.83612 1.35951 1.35989c.297.296.087.804-.333.804h-3.575004c-.26 0-.471-.211-.471-.471v-3.575c0-.42.508-.63.805004-.333l1.13195 1.13227c1.35162-1.96355 3.61214-3.25328 6.17204-3.25328 4.136 0 7.5 3.364 7.5 7.5s-3.364 7.5-7.5 7.5c-3.796 0-6.934-2.837-7.425-6.5h1.515c.478 2.833 2.942 5 5.91 5 3.309 0 6-2.691 6-6s-2.691-6-6-6c-2.14738 0-4.03107 1.13503-5.0895 2.83612z" fill="#000"/></svg>