<svg fill="none" height="16" viewBox="0 0 16 16" width="16" xmlns="http://www.w3.org/2000/svg"><path d="m.371588 2.93131c-.574954-1.59709.962612-3.13466 2.559702-2.559707l.00134.000482 9.13897 3.309625c.0002.00007-.0002-.00008 0 0 1.3743.49587 1.7762 2.25569.736 3.29589l-.9997.99967 2.8797 2.87963c.7829.7829.7829 2.0478 0 2.8307l-1.04 1.04c-.7829.7829-2.0478.7829-2.8307 0l-2.87965-2.8797-.95967.9597c-1.04019 1.0402-2.79979.6389-3.29566-.7354-.00008-.0002.00008.0002 0 0zm1.411332-.50808c.00006.00017-.00006-.00018 0 0l3.30989 9.13967c.12444.3453.56447.4437.82411.184l2.02033-2.02029 3.94035 3.94029c.1971.1971.5122.1971.7093 0l1.04-1.04c.1971-.1971.1971-.5122 0-.7093l-3.94031-3.94033 2.06031-2.06033c.2597-.25965.1612-.69967-.184-.82411l-.001-.00038-9.13869-3.30952c-.00017-.00006.00018.00007 0 0-.40254-.14446-.78475.23776-.64029.6403z" fill="#000"/></svg>