<svg fill="none" height="16" viewBox="0 0 16 16" width="16" xmlns="http://www.w3.org/2000/svg"><path d="m2 3.5c-.27579 0-.5.22421-.5.5v8.5c0 .2758.22421.5.5.5h5.25v-9.5zm12 9.5h-5.25v-9.5h5.25c.2758 0 .5.22421.5.5v8.5c0 .2758-.2242.5-.5.5zm-14-9c0-1.10421.895786-2 2-2h12c1.1042 0 2 .89579 2 2v8.5c0 1.1042-.8958 2-2 2h-12c-1.104214 0-2-.8958-2-2zm10 2.5h1.5v1h-1.5v1.5h1.5v1h-1.5v1.5h2.25c.4142 0 .75-.3358.75-.75v-5c0-.41421-.3358-.75-.75-.75h-2.25zm-5.5 0h-1.5v-1.5h2.25c.41421 0 .75.33579.75.75v2c0 .28408-.1605.54378-.41459.67082l-1.08541.54271v1.03647h1.5v1.5h-2.25c-.41421 0-.75-.3358-.75-.75v-2.25c0-.28408.1605-.54378.41459-.67082l1.08541-.54271z" fill="#000" fill-rule="evenodd"/></svg>