<svg fill="none" height="16" viewBox="0 0 16 16" width="16" xmlns="http://www.w3.org/2000/svg"><path d="m2.5 1c0 .27579.22421.5.5.5h2c.27579 0 .5-.22421.5-.5h1.5c0 1.10421-.89579 2-2 2h-2c-1.10421 0-2-.89579-2-2zm0 5c0-.27579.22421-.5.5-.5h2c.27579 0 .5.22421.5.5v4c0 .2758-.22421.5-.5.5h-2c-.27579 0-.5-.2242-.5-.5zm.5-2c-1.10421 0-2 .89579-2 2v4c0 1.1042.89579 2 2 2h2c1.10421 0 2-.8958 2-2v-4c0-1.10421-.89579-2-2-2zm7 2c0-.27579.2242-.5.5-.5h2c.2758 0 .5.22421.5.5v4c0 .2758-.2242.5-.5.5h-2c-.2758 0-.5-.2242-.5-.5zm.5-2c-1.10421 0-2 .89579-2 2v4c0 1.1042.89579 2 2 2h2c1.1042 0 2-.8958 2-2v-4c0-1.10421-.8958-2-2-2zm-7.5 10.5c-.27579 0-.5.2242-.5.5h-1.5c0-1.1042.89579-2 2-2h2c1.10421 0 2 .8958 2 2h-1.5c0-.2758-.22421-.5-.5-.5zm7 .5c0-.2758.2242-.5.5-.5h2c.2758 0 .5.2242.5.5h1.5c0-1.1042-.8958-2-2-2h-2c-1.10421 0-2 .8958-2 2zm.5-13.5c-.2758 0-.5-.22421-.5-.5h-1.5c0 1.10421.89579 2 2 2h2c1.1042 0 2-.89579 2-2h-1.5c0 .27579-.2242.5-.5.5z" fill="#000"/></svg>