<svg fill="none" height="16" viewBox="0 0 16 16" width="16" xmlns="http://www.w3.org/2000/svg"><path d="m7.75 2.125c0-.34479.28021-.625.625-.625s.625.28021.625.625v1 4.875h1.5v-4.875c0-.34479.2802-.625.625-.625s.625.28021.625.625v1.5 3.375h1.5v-3.375c0-.34479.2802-.625.625-.625s.625.28021.625.625v7.3938l-1.1198 1.644c-.0848.1244-.1302.2716-.1302.4222v1.915h1.5v-1.6838l1.1198-1.644c.0848-.1244.1302-.2716.1302-.4222v-7.625c0-1.17321-.9518-2.125-2.125-2.125-.2404 0-.4715.03996-.687.1136-.229-.92636-1.0661-1.6136-2.063-1.6136-.3015 0-.5884.06286-.8482.17618-.3487-.697212-1.06954-1.17618-1.9018-1.17618s-1.5531.478968-1.90177 1.17618c-.25986-.11332-.54673-.17618-.84823-.17618-1.17321 0-2.125.95179-2.125 2.125v4.12817c-.83496-.71035-2.08965-.67118-2.878328.1175-.829893.82989-.829893 2.17577 0 3.00563l.000208.0002 4.87712 4.8733v.7502h1.5v-1.061c0-.199-.0791-.3899-.21988-.5305l-5.09679-5.09283c-.2441-.24411-.2441-.64023 0-.88434.24411-.24411.64024-.24411.88434 0l1.153 1.153c.2145.2145.53709.27867.81734.16258.28026-.11609.46299-.38956.46299-.69291v-5.929c0-.34479.28022-.625.625-.625.34421 0 .62406.27927.625.62326v4.87674h1.5v-4.875-.00322z" fill="#000"/></svg>