<svg fill="none" height="16" viewBox="0 0 16 16" width="16" xmlns="http://www.w3.org/2000/svg"><path d="m2 1v.25h.01476c.10358.88279.74734 1.75 1.76524 1.75h7.94c1.0179 0 1.6617-.86721 1.7652-1.75h.0148v-.25h-1.5c0 .18133-.0609.32279-.1303.40708-.0679.08253-.1243.09292-.1497.09292h-7.94c-.02542 0-.08177-.01039-.14971-.09292-.06939-.08429-.13029-.22575-.13029-.40708zm2 5c-.27614 0-.5.22386-.5.5v3.5c0 .2761.22386.5.5.5h7.5c.2761 0 .5-.2239.5-.5v-3.5c0-.27614-.2239-.5-.5-.5zm-2 .5c0-1.10457.89543-2 2-2h7.5c1.1046 0 2 .89543 2 2v3.5c0 1.1046-.8954 2-2 2h-7.5c-1.10457 0-2-.8954-2-2zm1.78 7c-1.0179 0-1.66166.8672-1.76524 1.75h-.01476v.25h1.5c0-.1813.0609-.3228.13029-.4071.06794-.0825.12429-.0929.14971-.0929h7.94c.0254 0 .0818.0104.1497.0929.0694.0843.1303.2258.1303.4071h1.5v-.25h-.0148c-.1035-.8828-.7473-1.75-1.7652-1.75z" fill="#000"/></svg>