<svg fill="none" height="16" viewBox="0 0 16 16" width="16" xmlns="http://www.w3.org/2000/svg"><path d="m2 3.5c-.27579 0-.5.22421-.5.5v8c0 .2758.22421.5.5.5h12c.2758 0 .5-.2242.5-.5v-8c0-.27579-.2242-.5-.5-.5zm-2 .5c0-1.10421.895786-2 2-2h12c1.1042 0 2 .89579 2 2v8c0 1.1042-.8958 2-2 2h-12c-1.104214 0-2-.8958-2-2zm8.75 4.75h-1.5v-1.5h1.5zm-.74999-4.125c-2.08859 0-3.85265 1.31791-4.54842 3.15347l-.08398.22153.08398.22153c.69577 1.83557 2.45983 3.15347 4.54842 3.15347s3.85269-1.3179 4.54839-3.15347l.084-.22153-.084-.22153c-.6957-1.83556-2.4598-3.15347-4.54839-3.15347zm0 5.5c-1.46089 0-2.71493-.87045-3.28719-2.125.57226-1.25455 1.8263-2.125 3.28719-2.125s2.71489.87045 3.28719 2.125c-.5723 1.25455-1.8263 2.125-3.28719 2.125z" fill="#000"/></svg>