<svg fill="none" height="16" viewBox="0 0 16 16" width="16" xmlns="http://www.w3.org/2000/svg"><path d="m7.00488 9.75v4.25c0 .1658.06585.3247.18306.4419.11721.1173.27618.1831.44194.1831s.32473-.0658.44195-.1831c.11721-.1172.18305-.2761.18305-.4419v-4.25l.5-.5h4.25002c.1657 0 .3247-.06585.4419-.18306s.1831-.27618.1831-.44194-.0659-.32473-.1831-.44194-.2762-.18306-.4419-.18306h-4.25002l-.5-.5v-4.25c0-.16576-.06584-.32473-.18305-.44194-.11722-.11721-.27619-.18306-.44195-.18306s-.32473.06585-.44194.18306-.18306.27618-.18306.44194v4.25l-.5.5h-4.25c-.16576 0-.32473.06585-.44194.18306s-.18306.27618-.18306.44194.06585.32473.18306.44194.27618.18306.44194.18306h4.137z" fill="#000"/></svg>