<svg fill="none" height="16" viewBox="0 0 16 16" width="16" xmlns="http://www.w3.org/2000/svg"><path d="m3.5 3.75c0-2.07121 1.67879-3.75 3.75-3.75s3.75 1.67879 3.75 3.75v6.5c0 1.2422-1.00779 2.25-2.25 2.25s-2.25-1.0078-2.25-2.25v-6.75h1.5v6.75c0 .4138.33621.75.75.75s.75-.3362.75-.75v-6.5c0-1.24279-1.00721-2.25-2.25-2.25s-2.25 1.00721-2.25 2.25v7c0 2.0708 1.67921 3.75 3.75 3.75 2.0708 0 3.75-1.6792 3.75-3.75v-7.25h1.5v7.25c0 2.8992-2.3508 5.25-5.25 5.25-2.89921 0-5.25-2.3508-5.25-5.25z" fill="#000"/></svg>