<svg fill="none" height="16" viewBox="0 0 16 16" width="16" xmlns="http://www.w3.org/2000/svg"><path d="m3.5 2c0-.27579.22421-.5.5-.5h1.25c.27579 0 .5.22421.5.5v3.25c0 .27579-.22421.5-.5.5h-1.25c-.27579 0-.5-.22421-.5-.5zm.5-2c-1.10421 0-2 .895786-2 2v3.25c0 1.10421.89579 2 2 2h1.25c1.10421 0 2-.89579 2-2v-3.25c0-1.104214-.89579-2-2-2zm-.5 10.75c0-.2758.22421-.5.5-.5h1.25c.27579 0 .5.2242.5.5v3.25c0 .2758-.22421.5-.5.5h-1.25c-.27579 0-.5-.2242-.5-.5zm.5-2c-1.10421 0-2 .89579-2 2v3.25c0 1.1042.89579 2 2 2h1.25c1.10421 0 2-.8958 2-2v-3.25c0-1.10421-.89579-2-2-2zm6.75-7.25c-.2758 0-.5.22421-.5.5v3.25c0 .27579.2242.5.5.5h1.25c.2758 0 .5-.22421.5-.5v-3.25c0-.27579-.2242-.5-.5-.5zm-2 .5c0-1.104214.89579-2 2-2h1.25c1.1042 0 2 .895786 2 2v3.25c0 1.10421-.8958 2-2 2h-1.25c-1.10421 0-2-.89579-2-2zm1.5 8.75c0-.2758.2242-.5.5-.5h1.25c.2758 0 .5.2242.5.5v3.25c0 .2758-.2242.5-.5.5h-1.25c-.2758 0-.5-.2242-.5-.5zm.5-2c-1.10421 0-2 .89579-2 2v3.25c0 1.1042.89579 2 2 2h1.25c1.1042 0 2-.8958 2-2v-3.25c0-1.10421-.8958-2-2-2z" fill="#000"/></svg>