<svg fill="none" height="16" viewBox="0 0 16 16" width="16" xmlns="http://www.w3.org/2000/svg"><path d="m10.089 10.973 3.845 3.844c.0578.0584.1265.1048.2024.1364.0758.0317.1572.0479.2393.0478.0822-.0001.1635-.0165.2392-.0483.0758-.0318.1445-.0783.2021-.1369.058-.0581.104-.1271.1353-.203.0313-.0758.0474-.1571.0473-.2392s-.0163-.1634-.0478-.2392-.0777-.1446-.1358-.2026l-3.833-3.832.006-.42701c.5-.70625.8262-1.5205.9523-2.37657.1261-.85608.0484-1.72982-.2268-2.55021-.2751-.82039-.74-1.56429-1.3567-2.17123-.61676-.60694-1.36801-1.05979-2.19271-1.32176-.8247-.261965-1.69958-.325648-2.55352-.18587-.85394.13977-1.66286.47906-2.361.99029s-1.26581 1.17997-1.65686 1.95186c-.39106.7719-.594474 1.62518-.59371 2.49049 0 1.45869.57946 2.85764 1.61091 3.88911 1.03145 1.0314 2.4304 1.6109 3.88909 1.6109 1.189 0 2.288-.38 3.187-1.022zm-3.589-.223c-2.343 0-4.25-1.90701-4.25-4.25001s1.907-4.25 4.25-4.25 4.25 1.907 4.25 4.25-1.907 4.25001-4.25 4.25001z" fill="#000"/></svg>