<svg fill="none" height="16" viewBox="0 0 16 16" width="16" xmlns="http://www.w3.org/2000/svg"><g fill="#000"><path d="m2.49913 12.6251c.12 0 .24-.02.358-.059l3.433-1.146 6.99897-6.998c.73-.731.73-1.921 0-2.652l-1.06-1.060002c-.732-.7300003-1.92-.7300003-2.65197 0l-6.999 6.999002-1.145 3.436c-.135.406-.031.848.272 1.15.216.215.501.33.794.33zm7.96197-11.03c.242-.244.641-.244.883 0l1.061 1.061c.244.243.244.64 0 .883l-1.065 1.066-1.94497-1.945zm-6.79097 6.79 4.84-4.84 1.94397 1.944-4.83997 4.841-2.917.973z"/><path d="m14.8169 13.314-1.794.548c-.692.211-1.432.249-2.137.106l-2.08199-.417c-1.219-.243-2.506-.071-3.619.485-1.232.616-2.718.376-3.693-.6l-.051-.051-.833.936c.855.854 1.992 1.304 3.145 1.304.676 0 1.357-.154 1.991-.472.865-.432 1.865-.567 2.815-.376l2.08199.417c.91.182 1.86.133 2.747-.138l1.794-.548z"/></g></svg>