<svg fill="none" height="16" viewBox="0 0 16 16" width="16" xmlns="http://www.w3.org/2000/svg"><path d="m8.35176 10.9989 5.46604-5.46499c.0582-.05797.1044-.12689.1359-.20278.0314-.07589.0476-.15726.0475-.23943-.0001-.08216-.0164-.1635-.0481-.23932-.0316-.07582-.078-.14463-.1363-.20247-.1177-.11682-.2767-.18238-.4425-.18238s-.3249.06556-.4425.18238l-4.93404 4.935-4.93-4.934c-.11836-.11238-.27593-.17409-.43913-.17197-.16321.00212-.31913.06789-.43454.1833s-.18118.27133-.1833.43453c-.00211.1632.0596.32077.17197.43914l5.465 5.46399z" fill="#000"/></svg>