<svg fill="none" height="16" viewBox="0 0 16 16" width="16" xmlns="http://www.w3.org/2000/svg"><g fill="#000"><path d="m11.618 12.868-.364.382h-.831c-.088.146-.241.25-.423.25h-8c-.275 0-.5-.225-.5-.5v-11c0-.275.225-.5.5-.5h4.939l.061.061v2.939c0 .276.224.5.5.5h2.939l.061.061v1.454l1.5-1.5v-.265c0-.199-.079-.39-.22-.53l-4-4c-.14-.141-.331-.22-.53-.22h-5.25c-1.105 0-2 .895-2 2v11c0 1.105.895 2 2 2h8c1.105 0 2-.895 2-2v-.514z"/><path d="m13.836 4.946c.126-.127.294-.196.473-.196.178 0 .346.069.473.195l1.023 1.024c.126.125.195.293.195.472 0 .18-.069.348-.195.474l-.8653.86533-1.969-1.96899z"/><path d="m12.4403 6.34167-3.6003 3.60033c-.047.047-.073.11-.073.177v1.631c0 .138.112.25.25.25h1.599l.177-.073 3.6163-3.61633z"/><path d="m7.517 9.84799v.16801h-.001v1.501c-.02432-.0226-.05016-.0432-.07593-.0638-.04945-.0394-.09859-.0786-.13607-.1312l-.223-.313c-.01-.017-.044-.063-.115-.052-.036.005-.084.025-.107.089-.154.44-.367 1.041-.921 1.041h-.017c-.604-.017-.912-.53-1.176-2.10101l-.363.96801c-.236.631-.847 1.055-1.521 1.055h-.361v-1.25h.361c.156 0 .297-.098.352-.244l.67-1.78701c.167-.446.611-.709 1.072-.655.479.055.841.413.903.891.063.473.122.84.177 1.12101.205-.19401.469-.32401.76-.36501.253-.036.496.026.722.128z"/></g></svg>