<svg fill="none" height="16" viewBox="0 0 16 16" width="16" xmlns="http://www.w3.org/2000/svg"><g fill="#000"><path d="m9.79407 7.31811h-1.931c-.445 0-.669.539-.354.854l2.68203 2.68199c.195.195.512.195.707 0l2.682-2.68199c.315-.315.092-.854-.354-.854h-1.932v-2.936h.002v-1.25h-.002v-.824h-1.50003v.824h-.003v1.25h.004v2.936z"/><path d="m14 3.13208h-1.204v1.25h1.204c.345 0 .625.28.625.625v8.00002c0 .345-.28.625-.625.625h-12c-.345 0-.625-.28-.625-.625v-10.00002c0-.345.28-.625.625-.625h3.643c.177 0 .346.076.465.207l1.428 1.586c.118.132.287.207.464.207h.291v-1.25h-.013l-1.242-1.38c-.355-.394-.863-.62-1.394-.62h-3.642c-1.034 0-1.875.841-1.875 1.875v10.00002c0 1.034.841 1.875 1.875 1.875h12c1.034 0 1.875-.841 1.875-1.875v-8.00002c0-1.034-.841-1.875-1.875-1.875z"/></g></svg>