<svg fill="none" height="16" viewBox="0 0 16 16" width="16" xmlns="http://www.w3.org/2000/svg"><path d="m1.5 3c0-.27579.22421-.5.5-.5h12c.2758 0 .5.22421.5.5v8c0 .2758-.2242.5-.5.5h-12c-.27579 0-.5-.2242-.5-.5zm.5-2c-1.104214 0-2 .89579-2 2v8c0 1.1042.895786 2 2 2h.64979l-1.29927 2.2499 1.29897.7501 1.73245-3h7.25716l1.7324 3 1.299-.7501-1.2993-2.2499h.6288c1.1042 0 2-.8958 2-2v-8c0-1.10421-.8958-2-2-2zm3.79501 3.64401v4.712c0 .494.534.80299.962.558l4.12299-2.356c.432-.246.432-.869 0-1.116l-4.12299-2.356c-.429-.245-.962.064-.962.558z" fill="#000"/></svg>