<svg fill="none" height="16" viewBox="0 0 16 16" width="16" xmlns="http://www.w3.org/2000/svg"><path d="m10.4287 1.08398c.0824-.05493.1793-.084156.2783-.08398h3.993l.3.3v3.993c0 .09894-.0294.19564-.0844.27788-.055.08223-.1332.1463-.2246.1841-.0914.03779-.192.04761-.289.02821-.0971-.0194-.1861-.06714-.256-.13719l-1.173-1.173-.281-.281-3.625 3.625c-.11777.11647-.27666.18188-.4423.18207-.16563.00018-.32467-.06486-.4427-.18107-.11682-.11764-.18238-.27671-.18238-.4425s.06556-.32485.18238-.4425l3.625-3.625-1.454-1.454c-.0701-.06993-.1179-.1591-.1372-.25621-.0194-.09711-.0095-.19778.0284-.28925s.1022-.16963.1845-.22456zm-2.61176.98296c-.11721.11721-.27618.18306-.44194.18306h-4.525l-.6.6v10.3l.6.6h10.3l.6-.6v-4.525c0-.16576.0658-.32473.1831-.44194.1172-.11721.2761-.18306.4419-.18306s.3247.06585.4419.18306c.1173.11721.1831.27618.1831.44194v4.375c0 .5304-.2107 1.0391-.5858 1.4142s-.8838.5858-1.4142.5858h-10c-.53043 0-1.03914-.2107-1.41421-.5858-.37508-.3751-.58579-.8838-.58579-1.4142v-10c0-.53043.21071-1.03914.58579-1.41421.37507-.37508.88378-.58579 1.41421-.58579h4.375c.16576 0 .32473.06585.44194.18306s.18306.27618.18306.44194-.06585.32473-.18306.44194z" fill="#000"/></svg>