<svg fill="none" height="16" viewBox="0 0 16 16" width="16" xmlns="http://www.w3.org/2000/svg"><path d="m16 4v8.25c0 .5304-.2107 1.0391-.5858 1.4142s-.8838.5858-1.4142.5858h-12c-.53043 0-1.039141-.2107-1.414214-.5858-.375072-.3751-.585786-.8838-.585786-1.4142v-8.25c0-.53043.210714-1.03914.585786-1.41421.375073-.37508.883784-.58579 1.414214-.58579h12c.5304 0 1.0391.21071 1.4142.58579.3751.37507.5858.88378.5858 1.41421zm-14.75-.15v8.55l.6.6h4.9v-9.75h-4.9zm12.9 9.15h-6.15v-9.75h6.15l.6.6v8.55zm-8.79645-2.8536c.09377.0938.14645.221.14645.3536s-.05268.2598-.14645.3536c-.09376.0937-.22094.1464-.35355.1464h-2c-.13261 0-.25979-.0527-.35355-.1464-.09377-.0938-.14645-.221-.14645-.3536s.05268-.2598.14645-.3536c.09376-.0937.22094-.1464.35355-.1464h2c.13261 0 .25979.0527.35355.1464zm.14645-2.1464c0-.13261-.05268-.25979-.14645-.35355-.09376-.09377-.22094-.14645-.35355-.14645h-2c-.13261 0-.25979.05268-.35355.14645-.09377.09376-.14645.22094-.14645.35355s.05268.25979.14645.35355c.09376.09377.22094.14645.35355.14645h2c.13261 0 .25979-.05268.35355-.14645.09377-.09376.14645-.22094.14645-.35355zm-.14645-2.85355c.09377.09376.14645.22094.14645.35355s-.05268.25979-.14645.35355c-.09376.09377-.22094.14645-.35355.14645h-2c-.13261 0-.25979-.05268-.35355-.14645-.09377-.09376-.14645-.22094-.14645-.35355s.05268-.25979.14645-.35355c.09376-.09377.22094-.14645.35355-.14645h2c.13261 0 .25979.05268.35355.14645z" fill="#000" fill-rule="evenodd"/></svg>