<svg fill="none" height="16" viewBox="0 0 16 16" width="16" xmlns="http://www.w3.org/2000/svg"><path d="m13 4h-1v-2c0-.53043-.2107-1.039141-.5858-1.414214-.3751-.375072-.8838-.585786-1.4142-.585786h-4c-.53043 0-1.03914.210714-1.41421.585786-.37508.375073-.58579.883784-.58579 1.414214v2h-1c-.53043 0-1.03914.21071-1.41421.58579-.37508.37507-.58579.88378-.58579 1.41421v5c0 .5304.21071 1.0391.58579 1.4142.37507.3751.88378.5858 1.41421.5858h1v1c0 .5304.21071 1.0391.58579 1.4142.37507.3751.88378.5858 1.41421.5858h4c.5304 0 1.0391-.2107 1.4142-.5858s.5858-.8838.5858-1.4142v-1h1c.5304 0 1.0391-.2107 1.4142-.5858s.5858-.8838.5858-1.4142v-5c0-.53043-.2107-1.03914-.5858-1.41421-.3751-.37508-.8838-.58579-1.4142-.58579zm-2.25 10.15-.6.6h-4.3l-.6-.6v-4.15h5.5zm0-10.15h-5.5v-2.15l.6-.6h4.3l.6.6zm2.25 3.6-.4.4h-1.2l-.4-.4v-1.2l.4-.4h1.2l.4.4z" fill="#000"/></svg>