<svg fill="none" height="16" viewBox="0 0 16 16" width="16" xmlns="http://www.w3.org/2000/svg"><path d="m8.23336 10.4664 3.61404-3.61301c.0466-.04629.0836-.10136.1089-.16203s.0383-.12574.0383-.19147c0-.06572-.013-.13079-.0383-.19146s-.0623-.11574-.1089-.16204c-.0938-.09373-.221-.14639-.3535-.14639-.1326 0-.2598.05266-.3535.14639l-3.14804 3.147-3.145-3.146c-.09431-.09108-.22061-.14147-.3517-.14033-.1311.00114-.25651.05372-.34921.14642-.09271.09271-.14529.21811-.14643.34921s.04926.2574.14034.3517l3.612 3.61301z" fill="#000"/></svg>