<svg fill="none" height="16" viewBox="0 0 16 16" width="16" xmlns="http://www.w3.org/2000/svg"><path d="m2.53406 13.818 5.465-5.46597.001-.705-5.464-5.465c-.11837-.11238-.27594-.17408-.43914-.17197-.1632.00212-.31912.06789-.43453.1833s-.18118.27133-.1833.43453.05959.32078.17197.43914l4.934 4.931-4.935 4.93397c-.11252.1183-.17441.2758-.17248.439s.06753.3192.18281.4347c.11528.1156.27113.1815.43433.1838s.32085-.0592.43934-.1715zm6 0 5.46504-5.46597.001-.705-5.46404-5.465c-.11836-.11238-.27594-.17408-.43914-.17197-.1632.00212-.31912.06789-.43453.1833s-.18118.27133-.1833.43453.05959.32078.17197.43914l4.93404 4.931-4.93504 4.93397c-.11252.1183-.17441.2758-.17248.439s.06753.3192.18281.4347c.11528.1156.27113.1815.43433.1838s.32085-.0592.43934-.1715z" fill="#000"/></svg>