<svg fill="none" height="16" viewBox="0 0 16 16" width="16" xmlns="http://www.w3.org/2000/svg"><path d="m8.36645 2.34562c-.22767-.12749-.50523-.12749-.7329 0l-6.25 3.5c-.23686.13264-.38355.38291-.38355.65438s.14669.52174.38355.65438l6.25 3.50002c.22767.1275.50523.1275.7329 0l6.25005-3.50002c.2368-.13264.3835-.38291.3835-.65438s-.1467-.52174-.3835-.65438zm-.36645 6.79479-4.71501-2.64041 4.71501-2.64041 4.715 2.64041zm-6.36353-.06381 6.36352 3.5638 6.32551-3.54279.733 1.30869-6.69201 3.748c-.22768.1275-.50527.1276-.73296 0l-6.729996-3.769z" fill="#000"/></svg>