<svg fill="none" height="16" viewBox="0 0 17 16" width="17" xmlns="http://www.w3.org/2000/svg"><g fill="#000"><path clip-rule="evenodd" d="m7.10918 11.66c.14.14.33.22.53.22s.39-.08.53-.22l6.75002-6.75c.35-.34.54-.8.54-1.29s-.19-.95-.54-1.29l-1.79-1.79c-.34-.35-.8-.54-1.29-.54s-.95.2-1.29.54l-6.75002 6.75c-.29.29-.29.77 0 1.06l.5907.5907-2.9807 2.9893h4.24l.86501-.865zm.53-1.59-2.25-2.25v-.01l2.47562-2.47562 2.255 2.255zm3.54132-3.54128 2.6787-2.67872c.13-.13.13-.33 0-.46l-1.79-1.79c-.08-.08-.18-.1-.23-.1 0 0-.15.01-.23.09l-2.68374 2.68372z" fill-rule="evenodd"/><path d="m.40918 14h15.00002v2h-15.00002z"/></g></svg>