<svg enable-background="new 0 0 100 100" viewBox="0 0 100 100" xmlns="http://www.w3.org/2000/svg"><path d="m0 0h100v100h-100z" fill="#23bbb9"/><path d="m85.4 50c-.8-.8-1.7-1.4-2.8-1.7-1.7-.6-3.3-1.1-5-1.7-.6-.2-1.1-.5-1.6-.8-.4-.3-.5-.8-.5-1.2.2-.7.6-1.1 1.3-1.3.8-.2 1.7-.2 2.5-.2.8.1 1.6.4 2.2.9.1.1.2.2.4.2h2.7.8c.4 0 .5-.3.4-.6-.1-.2-.2-.5-.4-.7-.7-1-1.6-1.6-2.7-2s-2.3-.6-3.5-.7c-1.4-.1-2.7 0-3.9.3-1 .2-1.9.7-2.7 1.4-.6.5-1 1.1-1.2 1.9-2.1-2.7-4.8-4.1-8.3-3.7-3.4.5-5.8 2.3-7.2 5.5 0-.1-.1-.2-.1-.2-1.4-3.1-3.9-4.8-7.3-5.1-1.8-.2-3.6.2-5.1 1.2-.1.1-.2.1-.3 0-.4-.3-.8-.5-1.1-.7-.9-.5-1.8-.6-2.8-.5-.9.2-1.7.5-2.4 1.1-.4.3-.8.6-1.1.9-.1-.1 0-.2 0-.2 0-.5 0-.9 0-1.4 0-.4-.2-.5-.5-.5-.7 0-1.4 0-2.1 0-.5 0-.8.2-.8.8v4.5c0 .2 0 .2-.2.3-.5.5-.9.9-1.4 1.4 0 0-.1.1-.2.1 0-.1 0-.2 0-.2 0-2 0-4.1 0-6.1 0-.5-.2-.7-.6-.8-.8 0-1.5 0-2.3 0-.3 0-.5.2-.5.5v.5c0 .3-.3.5-.6.4-.1 0-.2-.1-.2-.1-1.5-.9-3.1-1.3-4.8-1.1-2.1.2-4 .9-5.5 2.4-2.1 2.1-3 4.7-2.4 7.7.8 4.8 5.6 7.8 10.3 6.7.9-.2 1.7-.5 2.5-1 .4-.2.7 0 .7.4v.5c0 .4.2.5.5.5h2.1c.5 0 .8-.2.8-.8 0-1.7 0-3.6 0-5.3 0-.2.1-.2.2-.4.2-.2.5-.5.8-.8.2-.2.5-.5.7-.7v.3 6.8c0 .5.2.8.7.8h2.2c.3 0 .5-.2.5-.5 0-.9 0-1.7 0-2.7 0-2.6 0-5.1 0-7.7 0-.2.1-.4.2-.5.2-.2.4-.3.5-.5.5-.5 1.1-.9 1.8-1.2.6-.2 1.2-.3 1.8-.2.3.1.4.3.2.6-.8 1.4-1.1 3-1 4.5.2 2.3 1.1 4.3 2.7 5.9 2.8 2.6 6.9 3.1 10.1 1.2.3-.2.4-.2.5.2 1 1.9.8 4.1-.6 5.8-1.5 1.7-4.1 2.3-6.1 1.2-1.7-.8-2.6-2.3-2.8-4.1.1-.5.1-.6-.3-.6-.8 0-1.7 0-2.4 0-.4 0-.5.2-.5.5.1 1.2.4 2.3.9 3.4 1.7 3.3 5.3 5.1 8.9 4.6 2.1-.3 3.9-1.3 5.3-3 2.2-2.7 2.7-5.7 1.4-8.9-.2-.6-.5-1.1-.9-1.7-.1-.2-.2-.3 0-.5s.2-.4.4-.6c.2-.3.3-.6.5-.9 1.7 4.1 5.9 6.1 9.7 5.3 1.8-.4 3.4-1.2 4.7-2.6 1.7-1.9 2.6-4.1 2.4-6.7.1 0 .1.1.2.1.8.5 1.5.9 2.3 1.1 1.5.5 3 1.1 4.6 1.6.5.2 1.1.5 1.6.8.3.6.4 1 .3 1.6-.2.6-.6 1-1.2 1.2s-1.2.2-1.9.2c-1.1-.1-2-.2-2.8-1-.2-.1-.3-.2-.5-.2-1.1 0-2.1 0-3.1 0-.1 0-.2 0-.3 0-.4.1-.5.3-.4.6.2.5.5.9.9 1.3.7.7 1.6 1.1 2.5 1.4 1.6.5 3.2.6 4.8.5 1.3-.1 2.6-.3 3.7-.9 1.4-.7 2.3-1.7 2.6-3.3.3-.7-0-1.9-.9-2.8zm-63.3 3.7c-3 0-5.1-2.4-5.1-5.2 0-2.7 2.3-5.1 5.1-5 2.9 0 5.1 2.3 5.1 5.1s-2.1 5.2-5.1 5.1zm47.1-5c0 2.5-1.7 4.6-4.1 5.1s-5-.9-5.8-3.3c-.1-.2-.2-.2-.2-.3-.4-.2-.8-.3-1.2-.4-1.2-.2-2.4-.2-3.6.1-.2 0-.3.1-.5.2-.4.1-.6.3-.8.7-.8 1.8-2.2 2.9-4.2 3.1-2.5.3-4.7-1.2-5.5-3.6-.9-2.8 1-5.9 3.9-6.5 2.3-.5 4.6.7 5.7 2.9.1.2.2.4.5.5.5.2 1.1.3 1.7.4 1.2.1 2.3.1 3.6-.2.1 0 .2-.1.3-.1.3-.1.5-.3.7-.6.8-1.7 2.3-2.7 4.2-3 2.7-.3 5.1 1.6 5.5 4.2-.2.2-.2.5-.2.8z" fill="#fff"/></svg>