<svg enable-background="new 0 0 100 100" viewBox="0 0 100 100" xmlns="http://www.w3.org/2000/svg"><path d="m0 0h100v100h-100z" fill="#189acb"/><g clip-rule="evenodd" fill="#fff" fill-rule="evenodd"><path d="m28.5 45.8h3.4c.5 0 .5.3.6.6 1 3 2.1 6 3 9.2.4-1.4.8-2.6 1.1-3.9.5-1.8 1.1-3.5 1.5-5.3.2-.6.4-.7 1-.7h2.5c.4 0 .5.1.3.5-1.8 4.7-3.3 9.5-5.4 14-1 2-2.3 3.7-4.4 4.7-1.7.8-1.7.8-2.2-.9-.1-.4-.4-.9-.3-1.3s.8-.4 1.2-.6c1-.6 1.8-1.3 2.4-2.2.4-.6.4-1.1.2-1.8-1.6-3.8-3.1-7.7-4.6-11.5-0-.2-.1-.4-.3-.8z"/><path d="m78.1 51.5c0-2.3 0-4.7 0-7 0-.7-.1-.9-.9-.9-1.3.1-2.5 0-3.8 0-.6 0-.7-.2-.7-.7.1-.7-.3-1.6.1-2.1s1.4-.1 2.1-.1h11.2c.6 0 .9.1.8.8s.3 1.6-.2 2c-.4.5-1.3.1-2 .1-.8 0-1.6.1-2.4 0s-.9.2-.9.9v14.2c0 .7-.2.9-.9.8s-1.3 0-2 0c-.5 0-.7-.1-.7-.7.4-2.5.3-4.9.3-7.3z"/><path d="m56.9 59c-.5-1.8-1-3.5-1.4-5.3-.4-1.4-1-2.5-2.5-3.2 2.7-1.3 3.7-3.1 3.3-5.7-.4-2.3-2-3.7-4.8-4.1-2.4-.3-4.8-.2-7.2.1-.5.1-.6.2-.6.7v6.2 11.1c0 .6.2.8.7.7.7-.1 1.4 0 2.1 0 .5 0 .7-.2.6-.7 0-1.7 0-3.5 0-5.2 0-1.9 0-1.9 1.9-1.9 1.3 0 2.3.6 2.7 1.9.2.5.3 1 .4 1.5.3 1.3.6 2.5 1 3.7.1.3.2.6.6.6h2.8c.4-0 .5-0 .4-.4zm-5.7-10.3c-1.2.6-2.5.4-3.7.4-.4 0-.3-.3-.3-.5 0-.8 0-1.6 0-2.5 0-.8 0-1.5 0-2.3 0-.4.1-.7.6-.7 1-.1 2-.1 3 .1 1.3.3 2 1.2 2.2 2.4-0 1.5-.6 2.6-1.8 3.1z"/><path d="m74.4 58.8c-1.9-5.9-3.8-11.7-5.7-17.6-.1-.5-.4-.6-.8-.6-1 0-2.1 0-3.1 0-.6 0-.8.2-.9.7-.6 1.9-1.2 3.9-1.8 5.8-1.2 3.8-2.4 7.7-3.7 11.5-.2.6-.2.9.6.8.7-.1 1.4 0 2.2 0 .5 0 .7-.2.8-.7.4-1.4.8-2.8 1.2-4.1.1-.4.2-.6.7-.5h4.9c.4 0 .5.1.7.5.3 1 .6 2.1 1 3.1.6 1.8.6 1.8 2.4 1.8h1.2c.3 0 .5-.1.3-.7zm-10.2-7.3c-.6 0-.3-.3-.2-.6.7-2.4 1.5-4.8 2.1-7.3.7 2.6 1.6 5.2 2.4 7.8-1.4.1-2.8.1-4.3.1z"/><path d="m27.5 45.4c-.2-2.3-1.8-4-4.3-4.6s-5.1-.3-7.6-.1c-.6.1-.8.3-.7.9v8.4 4.3 4.3c0 .6.2.8.8.8h2.1c.5 0 .6-.1.6-.6 0-1.9 0-3.8 0-5.7 0-.6.1-.7.7-.7 1.8.2 3.5 0 5.1-.8 2.4-1.1 3.5-3.2 3.3-6.2zm-6.2 4.2c-.8.2-1.5.2-2.3.1-.5-.1-.7-.2-.7-.8 0-1.6 0-3.3 0-4.9 0-.6.2-.8.8-.8.4 0 .7-.1 1.1-.1.3 0 .6.1 1 .1 1.8.3 2.8 1.2 2.9 2.9 0 1.8-1 3.1-2.8 3.5z"/></g></svg>