<svg enable-background="new 0 0 100 100" viewBox="0 0 100 100" xmlns="http://www.w3.org/2000/svg"><path d="m0 0h100v100h-100z" fill="#fff"/><g clip-rule="evenodd" fill-rule="evenodd"><path d="m43.2 50.3c1-1.1 1.9-2.2 2.9-3.3.2-.2.3-.5.3-.8 0-1.8 0-3.6 0-5.4 0-.3-.1-.6-.3-.8-1.1-1-2.3-2.1-3.4-3.1-.2-.2-.5-.3-.8-.3-1.6 0-3.2 0-4.9 0-.4 0-.5-.1-.5-.5 0-1.8 0-3.7 0-5.5 0-.4.1-.5.5-.5h4.9c.5 0 .5.2.5.6v4.8c0 .3.1.5.3.7 1.1 1 2.2 1.9 3.2 2.9.2.2.5.3.8.3h5.6c.4 0 .6-.1.8-.4.6-.6 1.1-1.2 1.7-1.9.2-.2.3-.5.3-.8 0-1.6 0-3.2 0-4.8 0-.5.1-.6.6-.6h4.8c.5 0 .6.1.6.6v5.3c0 .5-.1.6-.6.6-1.5 0-2.9 0-4.4 0-.5 0-.8.1-1.1.5-.2.3-.5.6-.8.9-.8.7-1 1.5-1 2.5.1 1.5 0 3.1 0 4.6 0 .3.1.6.3.8.8.7 1.5 1.4 2.3 2.2.2.2.5.3.8.3h4.2c.4 0 .5.1.5.5v4.9c0 .4-.1.5-.5.5-1.5 0-3 0-4.5 0-.4 0-.5-.1-.5-.5 0-1.4 0-2.9 0-4.3 0-.3-.1-.6-.3-.8-.8-.7-1.6-1.5-2.3-2.2.1-.3-.1-.3-.4-.3-1.8 0-3.6 0-5.4 0-.3 0-.5.1-.7.4-.8.9-1.6 1.8-2.4 2.6-.3.1-.2.4-.2.7v6.9c0 .6 0 .7-.7.7-2.2 0-4.5 0-6.7 0-.6 0-.6-.1-.6-.7 0-2.2 0-4.5 0-6.7 0-.4.1-.5.5-.5h6c.2-.1.4 0 .6-.1z" fill="#a3cc39"/><path d="m47.9 80.3c-.2-.2-.1-.4-.1-.6 0-6.8 0-13.6 0-20.3 0-.2.2-.5-.2-.6-.3-.1-.6-.1-.8.2-.8 1-1.7 1.9-2.5 2.9-.2.2-.2.4-.2.7v4.5c0 .4-.1.6-.5.5-1.4 0-2.9 0-4.3 0-.3 0-.5-.1-.5-.4 0-1.6 0-3.2 0-4.9 0-.4.2-.5.5-.5h3.7c.3 0 .5-.1.7-.3.9-1 1.8-2.1 2.7-3.1.2-.2.3-.4.3-.7 0-1.9 0-3.9 0-5.8 0-.5.1-.6.6-.6h6.2c.5 0 .6.1.6.6v5.6c0 .4.1.6.4.8.4.3.7.6 1 .9.9 1.1 2 1.5 3.4 1.3 1-.1 1.9 0 2.9 0 .3 0 .5.1.5.4v4.9c0 .3-.1.5-.4.5-1.5 0-2.9 0-4.4 0-.4 0-.5-.1-.4-.5 0-1.3 0-2.6 0-4 0-.3-.1-.5-.3-.7-.8-.7-1.6-1.4-2.4-2.2-.3-.3-.7-.2-1-.2-.2 0-.2.2-.2.3v1 19.6c0 .2.1.4-.1.6-.3-.3-.2-.6-.2-1 0-6.4 0-12.8 0-19.2 0-1.3.1-1.2-1.2-1.2-.9 0-1.9 0-2.8 0-.7 0-.8 0-.8.8v10.7 9c-0 .4-0 .7-.2 1z" fill="#40843e"/><path d="m45.8 33.2c0-1 0-2 0-3 0-.3-.1-.5-.3-.6 0 0-.1-.1-.1-.1-.8-.7-1.5-1.6-2.4-1.9s-2-.1-3-.1c-.8 0-1.6 0-2.4 0-.3 0-.4-.1-.4-.4 0-1.7 0-3.4 0-5 0-.3.1-.4.4-.4h5c.3 0 .4.1.4.4v4.1c0 .3.1.5.3.7 1 .8 1.9 1.6 2.9 2.4.2.2.5.3.8.3h4.9c.3 0 .5-.1.7-.3.7-.8 1.5-1.7 2.2-2.5.2-.3.3-.5.3-.9 0-1.5 0-2.9 0-4.4 0-.4.1-.6.6-.6h4.8c.4 0 .5.1.5.5v4.9c0 .4-.1.5-.5.4-1.5 0-2.9 0-4.4 0-.3 0-.6.1-.8.4-.8 1-1.7 1.9-2.6 2.9-.2.2-.3.5-.3.8v5.3c0 .4-.1.5-.6.5-1.8 0-3.7 0-5.5 0-.4 0-.5-.1-.5-.5 0-.9 0-1.9 0-2.9z" fill="#40843e"/><path d="m42.5 43.3v3.2c0 .5-.1.6-.6.6-1.9 0-3.8 0-5.7 0-.4 0-.6.1-.9.3-.8.8-1.6 1.6-2.5 2.5-.2.2-.3.4-.3.8v4.1c0 .4-.1.5-.5.5-1.4 0-2.9 0-4.3 0-.4 0-.5-.1-.5-.5 0-1.6 0-3.2 0-4.8 0-.4.1-.5.5-.5h4.2c.3 0 .5-.1.7-.3.9-.9 1.8-1.8 2.7-2.6.2-.2.3-.3.3-.6 0-2 0-3.9 0-5.9 0-.2-.1-.4-.2-.6-.6-.6-1.2-1.3-1.8-1.9-.2-.2-.4-.3-.8-.3-1.4 0-2.9 0-4.3 0-.4 0-.5-.1-.5-.5 0-1.6 0-3.2 0-4.8 0-.4.1-.5.5-.5h4.4c.4 0 .5.1.5.5v3.9c0 .3.1.5.3.8.8.9 1.7 1.8 2.5 2.7.2.2.4.3.7.3h5.2c.4 0 .6.1.5.5-.2 1-.1 2.1-.1 3.1z" fill="#40853e"/><path d="m58 43.3c0-1 0-2.1 0-3.1 0-.5.1-.7.6-.7h5.2c.4 0 .6-.1.8-.4.7-.8 1.5-1.7 2.2-2.5.2-.2.3-.5.3-.8 0-1.4 0-2.9 0-4.3 0-.4.1-.5.5-.5h4.4c.3 0 .4.1.4.4v4.9c0 .3-.1.4-.4.4-1.3 0-2.6 0-4 0-.4 0-.6.1-.8.4-.7.8-1.4 1.5-2.1 2.3-.2.2-.3.5-.3.8v5.7c0 .3.1.6.4.8.8.7 1.7 1.4 2.5 2.1.2.2.5.3.8.3h4.4c.3 0 .5.1.5.4v4.9c0 .3-.1.5-.5.5-1.5 0-2.9 0-4.4 0-.4 0-.5-.1-.5-.5 0-1.3 0-2.7 0-4 0-.3-.1-.6-.4-.8-1-.8-2-1.7-2.9-2.5-.2-.2-.5-.3-.8-.3-1.8 0-3.6 0-5.4 0-.4 0-.5-.1-.5-.5-0-.8-0-1.9-0-3z" fill="#40843e"/><path d="m47.9 80.3c0-1.8 0-3.6 0-5.4 0-5.2 0-10.4 0-15.5 0-.5.1-.7.6-.6h3.9c.5 0 .6.1.6.6v18.4 2.5c-.6.2-1.3.1-1.9.1-1-.1-2.1 0-3.2-.1z" fill="#19191a"/><path d="m28.6 46.3c-1 0-2 0-3 0-.4 0-.5-.1-.5-.5 0-1.9 0-3.9 0-5.8 0-.4.1-.4.5-.4h6.1c.4 0 .5.1.5.5v5.7c0 .4-.1.5-.5.5-1-0-2-0-3.1-0z" fill="#a3cc39"/><path d="m74.8 42.9v2.9c0 .3-.1.4-.4.4-1.8 0-3.6 0-5.3 0-.3 0-.4-.1-.4-.4 0-1.9 0-3.9 0-5.8 0-.3.1-.4.4-.4h5.3c.3 0 .4.1.4.4z" fill="#a3cc39"/><path d="m46.4 22.6c0-.8 0-1.7 0-2.5 0-.3.1-.4.4-.4h4.6c.3 0 .4.1.4.4v5c0 .3-.1.4-.4.4-1.5 0-3.1 0-4.6 0-.3 0-.4-.1-.4-.4 0-.9 0-1.7 0-2.5z" fill="#a3cc39"/><path d="m67.4 26.6v2.1c0 .3-.1.4-.4.4-1.3 0-2.6 0-3.8 0-.3 0-.4-.1-.4-.4 0-1.4 0-2.9 0-4.3 0-.3.1-.4.4-.4h3.9c.3 0 .4.1.4.4-.1.8-.1 1.5-.1 2.2z" fill="#a3cc39"/><path d="m66.5 56h1.9c.3 0 .5.1.5.4v3.9c0 .3-.1.4-.4.4-1.3 0-2.6 0-3.9 0-.3 0-.4-.1-.4-.4 0-1.3 0-2.6 0-3.9 0-.3.1-.4.4-.4z" fill="#a3cc39"/><path d="m43.2 50.3c-.2.2-.4.1-.6.1-2 0-3.9 0-5.9 0-.5 0-.6.1-.6.6v6.5c0 .5.1.6.6.6h6.8c.5 0 .6-.1.6-.6-.1-2.4.1-4.9-.1-7.3 0-.3.2-.2.3-.2-.2.2-.2.5-.2.8v7.2c0 .4-.1.6-.6.6-2.3 0-4.7 0-7 0-.4 0-.6.1-.6.5v2.6c0 .4-.1.5-.5.5-.8 0-1.7 0-2.5 0-.3 0-.5-.1-.5-.4 0-1 0-1.9 0-2.9 0-.4.2-.4.5-.4h2.4c.4 0 .5-.1.5-.6 0-2.3 0-4.6 0-6.9 0-.5.1-.6.6-.6 2.4-.1 4.6-.1 6.8-.1z" fill="#a3cc39"/><path d="m35.2 27.1v1.7c0 .3-.1.4-.4.4-1 0-2 0-3 0-.3 0-.4-.1-.4-.4 0-1.1 0-2.2 0-3.4 0-.3.1-.4.3-.4h3.1c.3 0 .4.1.4.4z" fill="#a3cc39"/></g></svg>