<svg enable-background="new 0 0 100 100" viewBox="0 0 100 100" xmlns="http://www.w3.org/2000/svg"><path d="m0 0h100v100h-100z" fill="#c55b28"/><path d="m60.7 37.7c-1.5-.3-2-.9-2.2-2.2-.1-.7-.2-1.4-.4-2-.5-1.5-.3-2.5 1-3.6 1.8-1.5 2-4.3.9-6.5-1.2-2.1-3.6-3.2-6-2.7-2.3.5-4.1 2.4-4.3 4.7-.3 2.6.9 5.1 3.3 5.6 2.3.5 2.7 1.8 3 3.6.1.6.2 1.1.4 1.7.4 1.1 0 1.5-1 2-4.4 2.3-5.9 7.9-2.8 11.6 1.5 1.8 1 2.9.1 4.5-.7 1.2-1.3 1.6-2.8 1-4.7-1.9-10-.6-13.4 3.2-3.5 3.9-4.2 8.4-2.3 13.3 1.8 4.6 6.4 7.5 11.4 7.5 4.9 0 9.4-2.8 11.3-7.3 2-4.8 1.3-9.3-2.1-13.3-.4-.4-1.1-.9-1.1-1.3.3-1.5 1.4-2.7 2.1-4 .5-.8 1.2-.4 1.9-.3 4.5.5 8.3-2.3 9-6.5.7-4.1-1.9-8.2-6-9zm-5.5-7.9c-2.1 0-3.7-1.7-3.7-3.7 0-2.1 1.7-3.8 3.8-3.7 1.9 0 3.6 1.7 3.6 3.7s-1.7 3.7-3.7 3.7zm.4 37.2c0 5.5-4.5 10-10 10s-10-4.5-10.1-10c0-5.6 4.5-10.1 10.1-10.1 5.5.1 10 4.6 10 10.1zm3.4-16c-3.1 0-5.6-2.4-5.7-5.5 0-3.1 2.5-5.7 5.6-5.7 3 0 5.6 2.6 5.6 5.6.1 3-2.5 5.5-5.5 5.6z" fill="#fff" stroke="#fff" stroke-miterlimit="10"/></svg>