<?xml version="1.0" encoding="utf-8"?>
<!-- Generator: Adobe Illustrator 27.9.0, SVG Export Plug-In . SVG Version: 6.00 Build 0)  -->
<svg version="1.1" id="Layer_1" xmlns="http://www.w3.org/2000/svg" xmlns:xlink="http://www.w3.org/1999/xlink" x="0px" y="0px"
	 viewBox="0 0 100 100" style="enable-background:new 0 0 100 100;" xml:space="preserve">
<style type="text/css">
	.st0{fill:#C55B28;}
	.st1{fill:#FFFFFF;stroke:#FFFFFF;stroke-miterlimit:10;}
</style>
<rect class="st0" width="100" height="100"/>
<path class="st1" d="M60.7,37.7c-1.5-0.3-2-0.9-2.2-2.2c-0.1-0.7-0.2-1.4-0.4-2c-0.5-1.5-0.3-2.5,1-3.6c1.8-1.5,2-4.3,0.9-6.5
	c-1.2-2.1-3.6-3.2-6-2.7c-2.3,0.5-4.1,2.4-4.3,4.7C49.4,28,50.6,30.5,53,31c2.3,0.5,2.7,1.8,3,3.6c0.1,0.6,0.2,1.1,0.4,1.7
	c0.4,1.1,0,1.5-1,2c-4.4,2.3-5.9,7.9-2.8,11.6c1.5,1.8,1,2.9,0.1,4.5c-0.7,1.2-1.3,1.6-2.8,1c-4.7-1.9-10-0.6-13.4,3.2
	c-3.5,3.9-4.2,8.4-2.3,13.3c1.8,4.6,6.4,7.5,11.4,7.5c4.9,0,9.4-2.8,11.3-7.3c2-4.8,1.3-9.3-2.1-13.3c-0.4-0.4-1.1-0.9-1.1-1.3
	c0.3-1.5,1.4-2.7,2.1-4c0.5-0.8,1.2-0.4,1.9-0.3c4.5,0.5,8.3-2.3,9-6.5C67.4,42.6,64.8,38.5,60.7,37.7z M55.2,29.8
	c-2.1,0-3.7-1.7-3.7-3.7c0-2.1,1.7-3.8,3.8-3.7c1.9,0,3.6,1.7,3.6,3.7C58.9,28.1,57.2,29.8,55.2,29.8z M55.6,67c0,5.5-4.5,10-10,10
	c-5.5,0-10-4.5-10.1-10c0-5.6,4.5-10.1,10.1-10.1C51.1,57,55.6,61.5,55.6,67z M59,51c-3.1,0-5.6-2.4-5.7-5.5c0-3.1,2.5-5.7,5.6-5.7
	c3,0,5.6,2.6,5.6,5.6C64.6,48.4,62,50.9,59,51z"/>
</svg>
