<?xml version="1.0" encoding="utf-8"?>
<!-- Generator: Adobe Illustrator 27.9.0, SVG Export Plug-In . SVG Version: 6.00 Build 0)  -->
<svg version="1.1" id="Layer_1" xmlns="http://www.w3.org/2000/svg" xmlns:xlink="http://www.w3.org/1999/xlink" x="0px" y="0px"
	 viewBox="0 0 100 100" style="enable-background:new 0 0 100 100;" xml:space="preserve">
<style type="text/css">
	.st0{fill:#0BC5BA;}
	.st1{fill-rule:evenodd;clip-rule:evenodd;fill:#FFFFFF;}
</style>
<rect class="st0" width="100" height="100"/>
<g>
	<path class="st1" d="M20.7,54.9h-6V53h5.4c0.1,0,0.2-0.1,0.2-0.3v-2c0-0.1-0.1-0.3-0.2-0.3h-5.4v-1.8h5.9c0.1,0,0.2-0.1,0.2-0.3
		v-2.1c0-0.1-0.1-0.3-0.2-0.3h-8.9c-0.1,0-0.2,0.1-0.2,0.3v11.2c0,0.1,0.1,0.3,0.2,0.3h9c0.1,0,0.2-0.1,0.2-0.3v-2.2
		C21,55.1,20.9,54.9,20.7,54.9z M33.4,50.9h-4.9c-0.1,0-0.3,0.1-0.3,0.3V53c0,0.1,0.1,0.3,0.3,0.3h2v1.4l0,0
		c-0.5,0.3-1.1,0.5-1.9,0.5c-1.9,0-3.1-1.4-3.1-3.2l0,0c0-1.8,1.3-3.2,2.9-3.2c1.1,0,1.9,0.4,2.6,1c0.1,0.1,0.3,0.1,0.3,0l1.6-2
		c0.1-0.1,0.1-0.3,0-0.4c-1.2-1-2.5-1.6-4.5-1.6c-3.6,0-6.2,2.6-6.2,6.1l0,0c0,3.5,2.7,6.1,6.3,6.1c2,0,3.7-0.8,5-1.8
		c0.1,0,0.1-0.1,0.1-0.2v-4.9C33.7,51,33.5,50.9,33.4,50.9z M46.2,46h-2.7c-0.1,0-0.2,0.1-0.2,0.3v6l-4.7-6.1c0-0.1-0.1-0.1-0.2-0.1
		h-2.6c-0.1,0-0.2,0.1-0.2,0.3v11.2c0,0.1,0.1,0.3,0.2,0.3h2.7c0.1,0,0.2-0.1,0.2-0.3v-6.1l4.9,6.3c0,0.1,0.1,0.1,0.2,0.1h2.4
		c0.1,0,0.2-0.1,0.2-0.3V46.2C46.4,46.1,46.3,46,46.2,46z M76.9,46h-9.7c-0.1,0-0.2,0.1-0.2,0.3v2.3c0,0.1,0.1,0.3,0.2,0.3h3.2v8.6
		c0,0.1,0.1,0.3,0.2,0.3h2.8c0.1,0,0.2-0.1,0.2-0.3v-8.6l0,0h3.2c0.1,0,0.2-0.1,0.2-0.3v-2.4C77.2,46.1,77.1,46,76.9,46z M88.2,54.9
		h-6V53h5.4c0.1,0,0.2-0.1,0.2-0.3v-2c0-0.1-0.1-0.3-0.2-0.3h-5.4v-1.8h5.9c0.1,0,0.2-0.1,0.2-0.3v-2.1c0-0.1-0.1-0.3-0.2-0.3h-8.8
		c-0.1,0-0.2,0.1-0.2,0.3v11.2c0,0.1,0.1,0.3,0.2,0.3h8.9c0.1,0,0.2-0.1,0.2-0.3v-2.2C88.5,55.1,88.4,54.9,88.2,54.9z"/>
	<path class="st1" d="M57.4,46.1H56c-0.1,0-0.2-0.1-0.2-0.2v-5.2c0-0.1,0.1-0.2,0.2-0.2h1.4c0.1,0,0.2,0.1,0.2,0.2v5.2
		C57.5,46.1,57.4,46.1,57.4,46.1z"/>
	<path class="st1" d="M60.2,53.3l0.7-1.2c0-0.1,0.1-0.1,0.2-0.1l4.4,2.5c0.1,0,0.1,0.1,0.1,0.2L64.9,56c0,0.1-0.1,0.1-0.2,0.1
		l-4.4-2.5C60.2,53.5,60.1,53.4,60.2,53.3z"/>
	<path class="st1" d="M52.6,52.2l0.7,1.2c0,0.1,0,0.2-0.1,0.2l-4.4,2.5c-0.1,0-0.2,0-0.2-0.1L47.8,55c0-0.1,0-0.2,0.1-0.2l4.4-2.5
		C52.4,52,52.5,52.1,52.6,52.2z"/>
	<path class="st1" d="M65.1,47.3l-1.4-2.3c-0.1-0.1-0.3-0.2-0.4-0.1l-6.6,3.8L50,44.7c-0.1-0.1-0.3,0-0.4,0.1l-1.4,2.4
		c-0.1,0.1,0,0.3,0.1,0.4l6.6,3.8v7.7c0,0.2,0.1,0.3,0.3,0.3H58c0.2,0,0.3-0.1,0.3-0.3v-7.7l6.6-3.8C65.2,47.7,65.2,47.5,65.1,47.3z
		"/>
</g>
</svg>
