<svg enable-background="new 0 0 100 100" viewBox="0 0 100 100" xmlns="http://www.w3.org/2000/svg"><path d="m0 0h100v100h-100z" fill="#0bc5ba"/><g clip-rule="evenodd" fill="#fff" fill-rule="evenodd"><path d="m20.7 54.9h-6v-1.9h5.4c.1 0 .2-.1.2-.3v-2c0-.1-.1-.3-.2-.3h-5.4v-1.8h5.9c.1 0 .2-.1.2-.3v-2.1c0-.1-.1-.3-.2-.3h-8.9c-.1 0-.2.1-.2.3v11.2c0 .1.1.3.2.3h9c.1 0 .2-.1.2-.3v-2.2c.1-.1-0-.3-.2-.3zm12.7-4h-4.9c-.1 0-.3.1-.3.3v1.8c0 .1.1.3.3.3h2v1.4c-.5.3-1.1.5-1.9.5-1.9 0-3.1-1.4-3.1-3.2 0-1.8 1.3-3.2 2.9-3.2 1.1 0 1.9.4 2.6 1 .1.1.3.1.3 0l1.6-2c.1-.1.1-.3 0-.4-1.2-1-2.5-1.6-4.5-1.6-3.6 0-6.2 2.6-6.2 6.1 0 3.5 2.7 6.1 6.3 6.1 2 0 3.7-.8 5-1.8.1 0 .1-.1.1-.2v-4.9c.1-.1-.1-.2-.2-.2zm12.8-4.9h-2.7c-.1 0-.2.1-.2.3v6l-4.7-6.1c0-.1-.1-.1-.2-.1h-2.6c-.1 0-.2.1-.2.3v11.2c0 .1.1.3.2.3h2.7c.1 0 .2-.1.2-.3v-6.1l4.9 6.3c0 .1.1.1.2.1h2.4c.1 0 .2-.1.2-.3v-11.4c0-.1-.1-.2-.2-.2zm30.7 0h-9.7c-.1 0-.2.1-.2.3v2.3c0 .1.1.3.2.3h3.2v8.6c0 .1.1.3.2.3h2.8c.1 0 .2-.1.2-.3v-8.6h3.2c.1 0 .2-.1.2-.3v-2.4c.2-.1.1-.2-.1-.2zm11.3 8.9h-6v-1.9h5.4c.1 0 .2-.1.2-.3v-2c0-.1-.1-.3-.2-.3h-5.4v-1.8h5.9c.1 0 .2-.1.2-.3v-2.1c0-.1-.1-.3-.2-.3h-8.8c-.1 0-.2.1-.2.3v11.2c0 .1.1.3.2.3h8.9c.1 0 .2-.1.2-.3v-2.2c.1-.1-0-.3-.2-.3z"/><path d="m57.4 46.1h-1.4c-.1 0-.2-.1-.2-.2v-5.2c0-.1.1-.2.2-.2h1.4c.1 0 .2.1.2.2v5.2c-.1.2-.2.2-.2.2z"/><path d="m60.2 53.3.7-1.2c0-.1.1-.1.2-.1l4.4 2.5c.1 0 .1.1.1.2l-.7 1.3c0 .1-.1.1-.2.1l-4.4-2.5c-.1-.1-.2-.2-.1-.3z"/><path d="m52.6 52.2.7 1.2c0 .1 0 .2-.1.2l-4.4 2.5c-.1 0-.2 0-.2-.1l-.8-1c0-.1 0-.2.1-.2l4.4-2.5c.1-.3.2-.2.3-.1z"/><path d="m65.1 47.3-1.4-2.3c-.1-.1-.3-.2-.4-.1l-6.6 3.8-6.7-4c-.1-.1-.3 0-.4.1l-1.4 2.4c-.1.1 0 .3.1.4l6.6 3.8v7.7c0 .2.1.3.3.3h2.8c.2 0 .3-.1.3-.3v-7.7l6.6-3.8c.3.1.3-.1.2-.3z"/></g></svg>