<svg enable-background="new 0 0 100 100" viewBox="0 0 100 100" xmlns="http://www.w3.org/2000/svg"><path d="m0 0h100v100h-100z" fill="#0061d5"/><g fill="#fff"><path d="m51 40.2c-4.5 0-8.4 2.5-10.4 6.2-2-3.7-5.9-6.2-10.4-6.2-2.6 0-5.1.9-7.1 2.4v-9.9c0-1.3-1.1-2.3-2.4-2.3s-2.3 1-2.3 2.3v19.5c.1 6.4 5.3 11.6 11.7 11.6 4.5 0 8.4-2.5 10.4-6.2 2 3.7 5.9 6.2 10.4 6.2 6.5 0 11.8-5.3 11.8-11.8.1-6.6-5.2-11.8-11.7-11.8m-20.7 18.8c-3.9 0-7.1-3.2-7.1-7 0-3.9 3.2-7 7.1-7s7 3.2 7 7-3.2 7-7 7m20.7 0c-3.9 0-7.1-3.2-7.1-7 0-3.9 3.2-7 7.1-7s7 3.2 7 7c.1 3.8-3.1 7-7 7"/><path d="m81 59.7-6.4-7.8 6.4-7.9c.8-1 .6-2.5-.5-3.2-1.1-.8-2.7-.6-3.6.4l-5.5 6.8-5.5-6.7c-.9-1-2.4-1.2-3.5-.4s-1.3 2.2-.5 3.2l6.4 7.9-6.4 7.8c-.8 1-.6 2.5.5 3.3s2.7.6 3.5-.4l5.5-6.7 5.5 6.7c.9 1 2.4 1.2 3.6.4 1.1-.9 1.3-2.3.5-3.4"/></g></svg>