<?xml version="1.0" encoding="utf-8"?>
<!-- Generator: Adobe Illustrator 27.8.1, SVG Export Plug-In . SVG Version: 6.00 Build 0)  -->
<svg version="1.1" id="Layer_1" xmlns="http://www.w3.org/2000/svg" xmlns:xlink="http://www.w3.org/1999/xlink" x="0px" y="0px"
	 viewBox="0 0 100 100" style="enable-background:new 0 0 100 100;" xml:space="preserve">
<style type="text/css">
	.st0{fill:#0061D5;}
	.st1{fill:#FFFFFF;}
</style>
<rect y="0" class="st0" width="100" height="100"/>
<g>
	<g>
		<path class="st1" d="M51,40.2c-4.5,0-8.4,2.5-10.4,6.2c-2-3.7-5.9-6.2-10.4-6.2c-2.6,0-5.1,0.9-7.1,2.4v-9.9
			c0-1.3-1.1-2.3-2.4-2.3c-1.3,0-2.3,1-2.3,2.3v19.5h0c0.1,6.4,5.3,11.6,11.7,11.6c4.5,0,8.4-2.5,10.4-6.2c2,3.7,5.9,6.2,10.4,6.2
			c6.5,0,11.8-5.3,11.8-11.8C62.8,45.4,57.5,40.2,51,40.2 M30.3,59c-3.9,0-7.1-3.2-7.1-7c0-3.9,3.2-7,7.1-7c3.9,0,7,3.2,7,7
			C37.3,55.8,34.1,59,30.3,59 M51,59c-3.9,0-7.1-3.2-7.1-7c0-3.9,3.2-7,7.1-7c3.9,0,7,3.2,7,7C58.1,55.8,54.9,59,51,59"/>
		<path class="st1" d="M81,59.7l-6.4-7.8l6.4-7.9c0.8-1,0.6-2.5-0.5-3.2c-1.1-0.8-2.7-0.6-3.6,0.4v0L71.4,48l-5.5-6.7v0
			c-0.9-1-2.4-1.2-3.5-0.4c-1.1,0.8-1.3,2.2-0.5,3.2h0l6.4,7.9l-6.4,7.8h0c-0.8,1-0.6,2.5,0.5,3.3c1.1,0.8,2.7,0.6,3.5-0.4l5.5-6.7
			l5.5,6.7c0.9,1,2.4,1.2,3.6,0.4C81.6,62.2,81.8,60.8,81,59.7"/>
	</g>
</g>
</svg>

