<?xml version="1.0" encoding="UTF-8"?>
<svg id="Layer_1" xmlns="http://www.w3.org/2000/svg" version="1.1" viewBox="0 0 100 100">
  <!-- Generator: Adobe Illustrator 30.4.0, SVG Export Plug-In . SVG Version: 2.1.4 Build 226)  -->
  <path d="M77.17,27.524c-5.621-1.266-11.51.74-15.167,5.244-2.804-3.448-6.932-5.473-11.348-5.608-4.857-.148-9.479,2.012-12.468,5.847-3.644-4.672-9.634-6.771-15.359-5.482-7.503,1.689-12.515,8.69-11.803,16.272.704,7.488,6.858,13.416,14.429,13.764l-.024,3.446c-.279-.001-.521-.052-.714.026.089.124.241.176.455.156.371-.076.749-.082,1.134-.017h47.43c.373-.065.742-.059,1.107.017.145.003.462.002.485-.155-.237-.078-.48-.03-.763-.026l-.009-3.448c7.622-.36,13.747-6.335,14.423-13.816.684-7.567-4.325-14.535-11.81-16.22ZM49.642,60.996l-23.48.002-.008-3.423c4.703.02,9.12-2.145,12.033-5.854,2.773,3.542,6.945,5.69,11.458,5.847l-.003,3.428ZM50.356,60.998l-.002-3.423c4.547-.042,8.774-2.102,11.647-5.616,2.901,3.539,7.2,5.629,11.834,5.617l.004,3.421h-23.483Z" fill="#d6ab00"/>
  <g>
    <path d="M75.328,61.034c3.17.237,5.564,2.96,5.457,6.106-.104,3.091-2.664,5.709-5.859,5.709H25.072c-3.217,0-5.783-2.65-5.859-5.765-.077-3.139,2.335-5.843,5.504-6.051.2-.013.44.079.626.014.332-.115.581.006.921.006l23.244-.007h.982s23.244.007,23.244.007c.341,0,.589-.119.921-.007.204.068.46-.027.672-.012Z" fill="#d6a500"/>
    <polygon points="54.159 48.822 54.101 42.32 50.953 47.582 49.394 47.588 46.264 42.501 46.252 48.821 43.021 48.82 43.019 36.488 45.896 36.479 50.223 43.576 54.449 36.48 57.324 36.481 57.366 48.82 54.159 48.822" fill="#fff"/>
    <path d="M32.732,41.274c.515,2.698-.434,5.305-2.894,6.639-1.122.597-2.333.888-3.622.892l-6.085.017v-12.345s6.346.022,6.346.022c1.2.004,2.296.333,3.341.861,1.529.809,2.589,2.213,2.913,3.914Z" fill="#fff"/>
    <path d="M80.432,41.053c-.009,2.928-2.417,4.512-5.136,4.525l-2.496.013-.002,3.23h-3.495s-.001-12.343-.001-12.343l6.169.022c.981.004,1.885.273,2.725.7,1.466.767,2.242,2.219,2.237,3.853Z" fill="#fff"/>
    <path d="M62.006,51.95c-4.548-5.558-4.539-13.622-.003-19.181,4.521,5.532,4.566,13.585.003,19.181Z" fill="#b47300"/>
    <path d="M38.188,51.715c-4.295-5.472-4.289-13.237-.002-18.708,4.266,5.45,4.311,13.193.002,18.708Z" fill="#b47300"/>
    <path d="M74.956,61.767c2.851,0,5.07,2.432,5.083,5.135.014,2.74-2.212,5.187-5.053,5.187H25.012c-2.818,0-5.037-2.414-5.051-5.13s2.21-5.189,5.052-5.19l49.942-.003Z" fill="#fff"/>
    <path d="M28.925,40.87c.796,1.654.475,3.842-1.221,4.728-.515.269-1.065.417-1.653.42l-2.419.014v-6.764s2.659.026,2.659.026c1.115.011,2.083.62,2.634,1.576Z" fill="#d6ab00"/>
    <path d="M76.654,42.022c-.349.492-.856.778-1.446.785l-2.408.03v-3.611s2.231.02,2.231.02c.578.005,1.117.202,1.501.635.452.618.485,1.438.122,2.14Z" fill="#d6ab00"/>
    <polygon points="66.986 69.639 66.036 69.647 63.593 66.675 63.583 69.648 62.451 69.648 62.448 64.711 63.394 64.708 65.836 67.665 65.856 64.717 66.979 64.706 66.986 69.639" fill="#32322f"/>
    <polygon points="59.83 68.61 57.538 68.593 57.09 69.641 55.918 69.633 58.109 64.71 59.247 64.708 61.456 69.642 60.248 69.642 59.83 68.61" fill="#32322f"/>
    <polygon points="31.577 68.601 29.279 68.593 28.844 69.647 27.662 69.648 29.868 64.702 31.003 64.719 33.207 69.647 32.006 69.651 31.577 68.601" fill="#32322f"/>
    <path d="M50,69.524c-1.043.4-2.216.22-3.162-.33l.382-.896c.832.617,2.524.741,2.578.022.016-.219-.144-.399-.374-.464l-1.436-.402c-.371-.104-.739-.318-.917-.677-.384-.773.007-1.659.821-1.96.919-.34,1.942-.234,2.834.223l-.351.895c-.899-.535-2.323-.556-2.302.194.006.233.183.352.419.417l1.396.383c.346.095.694.276.88.602.421.738.079,1.668-.767,1.993Z" fill="#32322f"/>
    <path d="M37.106,69.524c-1.039.4-2.211.223-3.165-.332l.386-.891c.823.603,2.499.746,2.572.025.024-.231-.13-.405-.364-.47l-1.436-.4c-.374-.104-.741-.311-.922-.673-.386-.773.008-1.671.826-1.97.922-.337,1.942-.228,2.827.227l-.349.892c-.905-.539-2.33-.54-2.305.189.008.242.195.364.426.427l1.353.369c.344.094.701.267.897.586.452.735.107,1.693-.747,2.022Z" fill="#32322f"/>
    <path d="M42.11,69.535c-1.056.387-2.236.198-3.156-.358l.397-.88c.852.628,2.513.729,2.577.028.018-.199-.135-.402-.349-.462l-1.387-.387c-.356-.1-.701-.255-.918-.574-.251-.369-.286-.839-.101-1.299.467-1.162,2.523-1.221,3.689-.557l-.356.893c-.892-.552-2.329-.552-2.305.188.007.202.182.351.397.41l1.35.368c.39.106.786.302.979.684.379.751.018,1.64-.818,1.947Z" fill="#32322f"/>
    <polygon points="54.425 69.634 53.27 69.648 53.268 65.647 51.693 65.646 51.693 64.703 55.994 64.708 55.997 65.643 54.429 65.646 54.425 69.634" fill="#32322f"/>
    <polygon points="70.756 69.634 69.601 69.648 69.6 65.653 68.038 65.644 68.035 64.704 72.325 64.708 72.328 65.643 70.76 65.646 70.756 69.634" fill="#32322f"/>
    <rect x="42.484" y="66.602" width="4.935" height="1.144" transform="translate(-22.325 111.972) rotate(-89.869)" fill="#333330"/>
    <polygon points="59.441 67.704 57.905 67.713 58.67 65.867 59.441 67.704" fill="#fefefe"/>
    <polygon points="31.187 67.699 29.652 67.713 30.428 65.852 31.187 67.699" fill="#fefefe"/>
  </g>
</svg>