<svg enable-background="new 0 0 100 100" viewBox="0 0 100 100" xmlns="http://www.w3.org/2000/svg"><path d="m0 0h100v100h-100z" fill="#fff"/><path d="m25.7 68.3 2.5 4.4c.5.9 1.3 1.6 2.2 2.2l9-15.6h-18c0 1 .3 2 .8 3z" fill="#0066da"/><path d="m50 40.8-9-15.6c-.9.5-1.6 1.2-2.2 2.2l-16.7 28.8c-.5.9-.8 1.9-.8 3h18z" fill="#00ac47"/><path d="m69.6 74.8c.9-.5 1.6-1.2 2.2-2.2l1.1-1.8 5-8.7c.5-.9.8-1.9.8-3h-18l3.8 7.5z" fill="#ea4335"/><path d="m50 40.8 9-15.6c-.9-.5-1.9-.8-3-.8h-12.1c-1.1 0-2.1.3-3 .8z" fill="#00832d"/><path d="m60.6 59.2h-21.2l-9 15.6c.9.5 1.9.8 3 .8h33.3c1 0 2.1-.3 3-.8z" fill="#2684fc"/><path d="m69.5 41.8-8.3-14.4c-.5-.9-1.3-1.6-2.2-2.2l-9 15.6 10.6 18.4h18c0-1-.3-2-.8-3z" fill="#ffba00"/></svg>