<?xml version="1.0" encoding="utf-8"?>
<!-- Generator: Adobe Illustrator 27.9.0, SVG Export Plug-In . SVG Version: 6.00 Build 0)  -->
<svg version="1.1" id="Layer_1" xmlns="http://www.w3.org/2000/svg" xmlns:xlink="http://www.w3.org/1999/xlink" x="0px" y="0px"
	 viewBox="0 0 100 100" style="enable-background:new 0 0 100 100;" xml:space="preserve">
<style type="text/css">
	.st0{fill:#FFFFFF;}
	.st1{fill:#0066DA;}
	.st2{fill:#00AC47;}
	.st3{fill:#EA4335;}
	.st4{fill:#00832D;}
	.st5{fill:#2684FC;}
	.st6{fill:#FFBA00;}
</style>
<rect class="st0" width="100" height="100"/>
<g>
	<path class="st1" d="M25.7,68.3l2.5,4.4c0.5,0.9,1.3,1.6,2.2,2.2l9-15.6h-18c0,1,0.3,2,0.8,3L25.7,68.3z"/>
	<path class="st2" d="M50,40.8l-9-15.6c-0.9,0.5-1.6,1.2-2.2,2.2L22.1,56.2c-0.5,0.9-0.8,1.9-0.8,3h18L50,40.8z"/>
	<path class="st3" d="M69.6,74.8c0.9-0.5,1.6-1.2,2.2-2.2l1.1-1.8l5-8.7c0.5-0.9,0.8-1.9,0.8-3h-18l3.8,7.5L69.6,74.8z"/>
	<path class="st4" d="M50,40.8l9-15.6c-0.9-0.5-1.9-0.8-3-0.8H43.9c-1.1,0-2.1,0.3-3,0.8L50,40.8z"/>
	<path class="st5" d="M60.6,59.2H39.4l-9,15.6c0.9,0.5,1.9,0.8,3,0.8h33.3c1,0,2.1-0.3,3-0.8L60.6,59.2z"/>
	<path class="st6" d="M69.5,41.8l-8.3-14.4c-0.5-0.9-1.3-1.6-2.2-2.2l-9,15.6l10.6,18.4h18c0-1-0.3-2-0.8-3L69.5,41.8z"/>
</g>
</svg>
