<svg enable-background="new 0 0 100 100" viewBox="0 0 100 100" xmlns="http://www.w3.org/2000/svg"><path d="m0 0h100v100h-100z" fill="#0067c9"/><path d="m88.7 45.3c-.4-.9-.9-1.6-1.5-2.2s-1.4-1.1-2.2-1.5c-1-.5-1.9-.6-2.8-.6-1 0-1.9.2-2.8.5-.4.2-.8.4-1.2.6-.4.3-.7.5-1.1.9-.2.2-.4.4-.6.6s-.4.6-.5.8c-.2.2-.5 1-.7 1.5 0-.9.2-2.2.7-2.9v-6.4c0-.4-.2-.8-.5-1.1s-.6-.4-1-.4-.8.1-1.1.4-.4.6-.4 1.1v5.7c-.6-.4-1.2-.7-1.9-1-.6-.2-1.3-.3-2.1-.3-1 0-1.9.2-2.7.5-.9.4-1.6.9-2.2 1.5s-1.1 1.4-1.5 2.2c0 .1-.1.1-.1.2 0-.1-.1-.1-.1-.2-.4-.9-.9-1.6-1.5-2.2s-1.4-1.1-2.2-1.5c-.9-.4-1.8-.5-2.7-.5-1 0-1.9.2-2.8.5-.9.4-1.6.9-2.2 1.5-.7.6-1.2 1.4-1.5 2.2 0 .1 0 .1-.1.2 0-.1 0-.1-.1-.2-.4-.9-.9-1.6-1.5-2.2s-1.4-1.1-2.2-1.5c-.9-.4-1.8-.5-2.7-.5-1 0-1.9.2-2.8.5-.8.4-1.6.9-2.2 1.5-.7.6-1.2 1.4-1.5 2.2 0 .1 0 .1-.1.2 0-.1 0-.1-.1-.2-.4-.9-.9-1.6-1.5-2.2s-1.4-1.1-2.2-1.5c-.9-.4-1.8-.5-2.7-.5-1 0-1.9.2-2.8.5-.8.3-1.5.8-2.1 1.4v-.2c0-.8-.7-1.5-1.5-1.5h-10.9c-.8 0-1.5.7-1.5 1.5s.7 1.5 1.5 1.5h8.3l-9.8 13.1c-.2.3-.3.6-.3.9v1c0 .8.7 1.5 1.5 1.5h11.3c.8 0 1.5-.6 1.5-1.4.5.4 1.1.7 1.7 1 .9.4 1.8.5 2.7.5 1.5 0 2.8-.4 3.9-1.2.9-.6 1.7-1.4 2.2-2.4v2c0 .4.1.8.4 1.1s.6.4 1.1.4c.4 0 .7-.1 1-.4s.5-.6.5-1.1v-5.3s-3.3 0-3.7 0c-.3 0-.6.1-.8.3s-.4.4-.5.7l-.2.5c-.3.7-.8 1.3-1.5 1.7s-1.4.6-2.2.6c-.5 0-1.1-.1-1.6-.3s-.9-.5-1.3-.9-.7-.8-.9-1.3-.3-1-.3-1.6v-1.3h9.5.7 3v-4.3c0-.5.1-1.1.3-1.6s.5-.9.9-1.3.8-.7 1.3-.9 1-.3 1.6-.3c.5 0 1.1.1 1.6.3s.9.5 1.3.9.7.8.9 1.3.3 1 .3 1.6v11.4c0 .4.1.8.4 1.1s.6.4 1.1.4c.4 0 .7-.1 1-.4s.4-.6.4-1.1v-2c.3.5.7 1 1.1 1.5.6.6 1.4 1.1 2.2 1.5.9.4 1.8.5 2.7.5 1 0 1.9-.2 2.7-.5.9-.4 1.6-.9 2.3-1.5s1.2-1.4 1.5-2.2c0-.1 0-.1.1-.2 0 .1 0 .1.1.2.4.9.9 1.6 1.5 2.2.7.6 1.4 1.1 2.2 1.5s1.8.5 2.8.5 1.9-.2 2.7-.5c.9-.4 1.6-.9 2.2-1.5s1.1-1.4 1.5-2.2c0-.1.1-.1.1-.2 0 .1.1.1.1.2.4.9.9 1.6 1.5 2.2s1.4 1.1 2.2 1.5c.9.4 1.8.5 2.7.5 1 0 1.9-.2 2.7-.5.9-.4 1.6-.9 2.3-1.5s1.2-1.4 1.5-2.2c.4-.9.5-1.8.5-2.7v-6c.2-1 .1-1.9-.3-2.7zm-74.2 12.4 8-10.7c0 .3-.1.6-.1 1v5.8c0 1 .2 1.9.6 2.7.2.4.4.8.6 1.1h-9.1zm19.1-8.2h-8.2v-1.5c0-.5.1-1.1.3-1.6s.5-.9.9-1.3.8-.7 1.3-.9 1-.3 1.6-.3c.5 0 1.1.1 1.6.3s.9.5 1.3.9.7.8.9 1.3.3 1 .3 1.6zm26.3 4.3c0 .5-.1 1.1-.3 1.6s-.5.9-.9 1.3-.8.7-1.3.9-1 .3-1.6.3c-.5 0-1.1-.1-1.6-.3s-.9-.5-1.3-.9-.7-.8-.9-1.3-.3-1-.3-1.6v-5.8c0-.5.1-1.1.3-1.6s.5-.9.9-1.3.8-.7 1.3-.9 1-.3 1.6-.3c.5 0 1.1.1 1.6.3s.9.5 1.3.9.7.8.9 1.3.3 1 .3 1.6zm13.2 0c0 .5-.1 1.1-.3 1.6s-.5.9-.9 1.3-.8.7-1.3.9-1 .3-1.6.3-1.1-.1-1.6-.3-.9-.5-1.3-.9-.7-.8-.9-1.3-.3-1-.3-1.6v-5.8c0-.5.1-1.1.3-1.6s.5-.9.9-1.3.8-.7 1.3-.9 1-.3 1.6-.3 1.1.1 1.6.3.9.5 1.3.9.7.8.9 1.3.3 1 .3 1.6zm13.2 0c0 .5-.1 1.1-.3 1.6s-.5.9-.9 1.3-.8.7-1.3.9-1 .3-1.6.3c-.5 0-1.1-.1-1.6-.3s-.9-.5-1.3-.9-.7-.8-.9-1.3-.3-1-.3-1.6v-5.8c0-.5.1-1.1.3-1.6s.5-.9.9-1.3.8-.7 1.3-.9 1-.3 1.6-.3c.5 0 1.1.1 1.6.3s.9.5 1.3.9.7.8.9 1.3.3 1 .3 1.6z" fill="#fff"/></svg>