<svg viewBox="0 0 100 100" xmlns="http://www.w3.org/2000/svg"><path d="m0 0h100v100h-100z" fill="#368bcc"/><path d="m13.111 59.85c-.371 0-.64-.083-.807-.25-.148-.167-.223-.417-.223-.751v-16.883c0-.352.074-.612.223-.779.167-.167.436-.25.807-.25h7.259c2.151 0 3.783.501 4.895 1.502 1.131 1.001 1.697 2.485 1.697 4.45 0 1.298-.306 2.41-.918 3.338-.612.909-1.502 1.595-2.67 2.058l3.087 6.842c.056.111.083.213.083.306 0 .278-.167.417-.501.417h-2.281c-.241 0-.417-.028-.528-.083-.111-.074-.213-.213-.306-.417l-2.809-6.592h-4.478v6.091c0 .334-.083.584-.25.751-.148.167-.417.25-.807.25h-1.474zm6.536-9.762c1.298 0 2.253-.25 2.865-.751s.918-1.316.918-2.448c0-1.113-.278-1.928-.834-2.448s-1.4-.779-2.531-.779h-4.422v6.425h4.005zm8.702 9.762c-.315 0-.473-.139-.473-.417 0-.111.028-.232.083-.362l7.343-17.411c.111-.278.232-.464.362-.556.13-.111.315-.167.556-.167h1.53c.26 0 .445.056.556.167.13.093.25.278.362.556l7.343 17.411c.056.13.083.25.083.362 0 .278-.158.417-.473.417h-2.42c-.241 0-.417-.028-.528-.083-.093-.074-.185-.213-.278-.417l-1.585-3.894h-7.676l-1.558 3.894c-.093.204-.195.343-.306.417-.093.056-.26.083-.501.083zm11.571-6.981-2.948-7.287-2.948 7.287z"/><g fill="#fff"><path d="m82.124 70.281h-28.972c-3.195 0-5.794-2.6-5.794-5.794v-28.972c0-3.195 2.599-5.794 5.794-5.794h28.972c3.195 0 5.794 2.599 5.794 5.794v28.972c0 3.195-2.599 5.794-5.794 5.794zm-28.972-37.664c-1.597 0-2.897 1.3-2.897 2.897v28.972c0 1.597 1.3 2.897 2.897 2.897h28.972c1.597 0 2.897-1.3 2.897-2.897v-28.972c0-1.597-1.3-2.897-2.897-2.897z"/><path d="m57.537 44.192c-.445 0-.788-.13-1.029-.389s-.362-.575-.362-.946v-.584c0-.371.121-.686.362-.946s.584-.389 1.029-.389h1.196c.445 0 .788.13 1.029.389.26.26.389.575.389.946v.584c0 .371-.13.686-.389.946-.241.26-.584.389-1.029.389zm-.111 15.658c-.371 0-.64-.083-.807-.25s-.25-.417-.25-.751v-11.32c0-.352.083-.612.25-.779s.436-.25.807-.25h1.446c.371 0 .64.083.807.25s.25.426.25.779v11.32c0 .334-.083.584-.25.751-.148.167-.417.25-.807.25zm7.029 0c-.371 0-.64-.083-.807-.25-.148-.167-.223-.417-.223-.751v-16.883c0-.352.074-.612.223-.779.167-.167.436-.25.807-.25h5.562c3.134 0 5.526.751 7.176 2.253 1.669 1.502 2.503 3.903 2.503 7.204 0 6.304-3.226 9.457-9.679 9.457h-5.562zm5.785-2.697c1.965 0 3.44-.51 4.422-1.53 1.001-1.02 1.502-2.763 1.502-5.229s-.501-4.2-1.502-5.201c-.983-1.02-2.457-1.53-4.422-1.53h-3.254v13.489h3.254z"/></g></svg>