<?xml version="1.0" encoding="UTF-8"?>
<svg xmlns="http://www.w3.org/2000/svg" version="1.1" viewBox="0 0 100 100">
  <defs>
    <style>
      .cls-1 {
        fill: #d19988;
        stroke: #d19988;
        stroke-linecap: round;
        stroke-linejoin: round;
      }
    </style>
  </defs>
  <!-- Generator: Adobe Illustrator 28.6.0, SVG Export Plug-In . SVG Version: 1.2.0 Build 709)  -->
  <g>
    <g id="Layer_1">
      <g id="Layer_1-2" data-name="Layer_1">
        <path class="cls-1" d="M30.9,36.1l24.2-13.9v55.4l-24.2-13.9v-27.7h0ZM12.8,63.9h12.1v-27.7h-12.1s0,27.7,0,27.7ZM75.9,25.2l-4.5,4.5c5.6,5.4,9,12.6,9,20.5s-3.4,15.1-9,20.5l4.5,4.5c7-6.5,11.3-15.3,11.3-25s-4.3-18.5-11.3-25ZM73.5,50.2c0-6.3-2.8-12-7.2-16.3l-4.5,4.5c3.1,3.2,5,7.3,5,11.8s-1.9,8.6-4.9,11.8l4.5,4.5c4.4-4.3,7.2-10,7.2-16.3h0Z"/>
      </g>
    </g>
  </g>
</svg>