<?xml version="1.0" encoding="UTF-8"?>
<svg xmlns="http://www.w3.org/2000/svg" version="1.1" viewBox="0 0 100 100">
  <defs>
    <style>
      .cls-1 {
        stroke-width: 10px;
      }

      .cls-1, .cls-2, .cls-3 {
        fill: none;
        stroke: #72af69;
        stroke-linejoin: round;
      }

      .cls-2 {
        stroke-linecap: round;
      }

      .cls-2, .cls-3 {
        stroke-width: 6px;
      }

      .cls-4 {
        fill: #fff;
      }

      .cls-5 {
        fill: #72af69;
      }
    </style>
  </defs>
  <!-- Generator: Adobe Illustrator 28.6.0, SVG Export Plug-In . SVG Version: 1.2.0 Build 709)  -->
  <g>
    <g id="Layer_1">
      <g>
        <g>
          <rect class="cls-2" x="19.5" y="19.5" width="61" height="61"/>
          <line class="cls-3" x1="21" y1="54.5" x2="79" y2="54.5"/>
          <line class="cls-1" x1="21" y1="26.5" x2="79" y2="26.5"/>
          <line class="cls-3" x1="50" y1="19.5" x2="50" y2="77.5"/>
        </g>
        <rect class="cls-5" x="45.2" y="5.4" width="49.4" height="23.3" rx="3.9" ry="3.9"/>
        <g>
          <path class="cls-4" d="M63.4,19.1c0,1.3-.6,2.3-1.4,3-.9.7-2,1.1-3.4,1.1s-2.7-.5-3.6-1.5-1.3-2.4-1.3-4.2v-.7c0-1.1.2-2.2.6-3,.4-.9,1-1.5,1.7-2,.8-.5,1.6-.7,2.6-.7s2.5.4,3.3,1.1c.8.7,1.3,1.8,1.5,3.1h-2.5c0-.8-.3-1.3-.6-1.7-.4-.3-.9-.5-1.7-.5s-1.4.3-1.8.9c-.4.6-.6,1.5-.6,2.7v.9c0,1.3.2,2.2.6,2.8s1,.9,1.8.9,1.3-.2,1.7-.5.6-.9.6-1.6h2.5Z"/>
          <path class="cls-4" d="M71.7,19.9c0-.5-.2-.8-.5-1.1-.3-.2-.9-.5-1.8-.8s-1.5-.5-2-.8c-1.4-.7-2-1.7-2-3s.2-1.2.5-1.7c.4-.5.9-.9,1.6-1.2.7-.3,1.4-.4,2.3-.4s1.6.2,2.3.5,1.2.7,1.6,1.3c.4.6.6,1.2.6,1.9h-2.5c0-.5-.2-1-.5-1.3s-.8-.5-1.5-.5-1.1.1-1.4.4-.5.6-.5,1,.2.7.6,1c.4.3,1,.5,1.7.7,1.4.4,2.4.9,3.1,1.6s1,1.4,1,2.3-.4,1.8-1.2,2.4c-.8.6-1.8.9-3.2.9s-1.8-.2-2.5-.5c-.8-.3-1.3-.8-1.7-1.4-.4-.6-.6-1.3-.6-2h2.5c0,1.3.8,2,2.4,2s1-.1,1.4-.4c.3-.2.5-.6.5-1Z"/>
          <path class="cls-4" d="M80.7,20.1l2.7-9h2.7l-4.2,11.9h-2.6l-4.1-11.9h2.7l2.7,9Z"/>
        </g>
      </g>
    </g>
  </g>
</svg>