<svg viewBox="0 0 100 100" xmlns="http://www.w3.org/2000/svg"><g fill="none" stroke="#72af69" stroke-linejoin="round"><path d="m19.5 19.5h61v61h-61z" stroke-linecap="round" stroke-width="6"/><path d="m21 54.5h58" stroke-width="6"/><path d="m21 26.5h58" stroke-width="10"/><path d="m50 19.5v58" stroke-width="6"/></g><rect fill="#72af69" height="23.3" rx="3.9" width="49.4" x="45.2" y="5.4"/><path d="m63.4 19.1c0 1.3-.6 2.3-1.4 3-.9.7-2 1.1-3.4 1.1s-2.7-.5-3.6-1.5-1.3-2.4-1.3-4.2v-.7c0-1.1.2-2.2.6-3 .4-.9 1-1.5 1.7-2 .8-.5 1.6-.7 2.6-.7s2.5.4 3.3 1.1 1.3 1.8 1.5 3.1h-2.5c0-.8-.3-1.3-.6-1.7-.4-.3-.9-.5-1.7-.5s-1.4.3-1.8.9-.6 1.5-.6 2.7v.9c0 1.3.2 2.2.6 2.8s1 .9 1.8.9 1.3-.2 1.7-.5.6-.9.6-1.6h2.5z" fill="#fff"/><path d="m71.7 19.9c0-.5-.2-.8-.5-1.1-.3-.2-.9-.5-1.8-.8s-1.5-.5-2-.8c-1.4-.7-2-1.7-2-3s.2-1.2.5-1.7c.4-.5.9-.9 1.6-1.2s1.4-.4 2.3-.4 1.6.2 2.3.5 1.2.7 1.6 1.3.6 1.2.6 1.9h-2.5c0-.5-.2-1-.5-1.3s-.8-.5-1.5-.5-1.1.1-1.4.4-.5.6-.5 1 .2.7.6 1 1 .5 1.7.7c1.4.4 2.4.9 3.1 1.6s1 1.4 1 2.3-.4 1.8-1.2 2.4-1.8.9-3.2.9-1.8-.2-2.5-.5c-.8-.3-1.3-.8-1.7-1.4s-.6-1.3-.6-2h2.5c0 1.3.8 2 2.4 2s1-.1 1.4-.4c.3-.2.5-.6.5-1z" fill="#fff"/><path d="m80.7 20.1 2.7-9h2.7l-4.2 11.9h-2.6l-4.1-11.9h2.7l2.7 9z" fill="#fff"/></svg>