<svg viewBox="0 0 100 100" xmlns="http://www.w3.org/2000/svg"><g fill="#31a4dd"><path d="m29.3 8.7c-5.7 0-10.3 4.6-10.3 10.3v62c0 5.7 4.6 10.3 10.3 10.3h41.3c5.7 0 10.3-4.6 10.3-10.3v-46.5h-20.7c-2.9 0-5.2-2.3-5.2-5.2v-20.6h-25.8zm31 0v20.7h20.7zm-28.4 10.3h10.3c1.4 0 2.6 1.2 2.6 2.6s-1.2 2.6-2.6 2.6h-10.3c-1.4 0-2.6-1.2-2.6-2.6s1.2-2.6 2.6-2.6zm0 10.3h10.3c1.4 0 2.6 1.2 2.6 2.6s-1.2 2.6-2.6 2.6h-10.3c-1.4 0-2.6-1.2-2.6-2.6s1.2-2.6 2.6-2.6zm2.6 15.5h31c2.9 0 5.2 2.3 5.2 5.2v10.3c0 2.9-2.3 5.2-5.2 5.2h-31c-2.9 0-5.2-2.3-5.2-5.2v-10.3c0-2.9 2.3-5.2 5.2-5.2zm23.3 31h10.3c1.4 0 2.6 1.2 2.6 2.6s-1.2 2.6-2.6 2.6h-10.3c-1.4 0-2.6-1.2-2.6-2.6s1.2-2.6 2.6-2.6z"/><g><path d="m43 55c0 1.8-.5 3.2-1.5 4.2s-2.4 1.5-4.2 1.5h-3.5v-10.8h3.7c1.7 0 3.1.4 4 1.3s1.4 2.2 1.4 3.8zm-3 .1c0-1-.2-1.7-.6-2.2s-1-.7-1.8-.7h-.9v6.1h.7c.9 0 1.5-.3 2-.8.4-.5.6-1.3.6-2.4z"/><path d="m49.7 60.6-2.2-7.8c.1 1.3.2 2.4.2 3.1v4.7h-2.6v-10.8h3.9l2.3 7.7 2.2-7.7h3.9v10.8h-2.7v-4.7c0-.2 0-.5 0-.8s0-1 0-2.2l-2.2 7.8h-2.8z"/><path d="m67.4 53.2c0 1.2-.4 2.1-1.1 2.8s-1.7 1-3 1h-.8v3.6h-2.9v-10.8h3.7c1.4 0 2.4.3 3.1.9s1 1.4 1 2.5zm-4.9 1.4h.5c.4 0 .8-.1 1-.4s.4-.6.4-1c0-.7-.4-1.1-1.2-1.1h-.8v2.5z"/></g></g></svg>