<?xml version="1.0" encoding="UTF-8"?>
<svg xmlns="http://www.w3.org/2000/svg" version="1.1" viewBox="0 0 100 100">
  <defs>
    <style>
      .cls-1 {
        fill: #93cec8;
      }
    </style>
  </defs>
  <!-- Generator: Adobe Illustrator 28.6.0, SVG Export Plug-In . SVG Version: 1.2.0 Build 709)  -->
  <g>
    <g id="Layer_1">
      <path class="cls-1" d="M20.7,81.1c-.1,1.2.8,2.3,2.1,2.3h4.2c1.1,0,1.9-.8,2.1-1.8,0-.6.2-1.5.4-2.4h40.8c.2.9.4,1.7.5,2.4.1,1,1,1.8,2.1,1.8h4.2c1.3,0,2.2-1.1,2.1-2.3-.6-5-3.3-16.9-15.5-27.1-2.3,1.6-4.8,3.2-7.6,4.6.8.6,1.5,1.2,2.2,1.9h-16.7c2.8-2.4,6.1-4.7,10.3-6.7,22.5-11.2,26.6-28.6,27.4-34.9.1-1.2-.8-2.3-2.1-2.3h-4.2c-1.1,0-1.9.8-2.1,1.8,0,.6-.2,1.5-.4,2.4H29.6c-.2-.9-.4-1.7-.4-2.4-.1-1-1-1.8-2.1-1.8h-4.2c-1.3,0-2.2,1.1-2.1,2.3.7,5.6,4.1,20.1,20.9,31.1-16.8,11-20.2,25.5-20.9,31.1ZM50,45.2c-3.3-1.8-6.1-3.7-8.4-5.7h16.8c-2.3,2-5.1,3.9-8.4,5.7h0ZM67.1,29.1c-.8,1.4-1.7,2.8-2.7,4.2h-28.8c-1.1-1.4-2-2.8-2.7-4.2h34.3ZM32.9,70.9c.8-1.4,1.7-2.8,2.7-4.2h28.7c1.1,1.4,2,2.8,2.8,4.2h-34.2Z"/>
    </g>
  </g>
</svg>