<svg viewBox="0 0 100 100" xmlns="http://www.w3.org/2000/svg"><path d="m6.4 16.5h87v14h-87z" fill="#ffe7b6"/><path d="m46.1 25.4c-6.3 0-9-3.7-15.6-10.5h-27.2v70.3h93.5v-59.8h-50.6z" fill="#ffcf7b"/><g fill="#fff"><path d="m50.4 38.7c8.1 0 13.7 6.5 13 15.8 4.1-.1 10.3 1.8 10.3 8.7s-3.7 8.2-8.2 8.2h-30.3c-4.5 0-8.2-3.7-8.2-8.2 0-6.5 5.8-8.9 10.3-8.7-.4-9.8 5.2-15.8 13-15.8zm0-4.6c-9.3 0-17 7.3-17.5 16.5-6 1.1-10.5 6.3-10.5 12.6s5.7 12.8 12.8 12.8h30.3c7.1 0 12.8-5.7 12.8-12.8s-4.6-11.5-10.5-12.6c-.5-9.2-8.1-16.5-17.5-16.5z"/><path d="m56.9 54.2h-13" stroke="#fff" stroke-linecap="round" stroke-miterlimit="10" stroke-width="3"/><path d="m56.9 59.7h-13" stroke="#fff" stroke-linecap="round" stroke-miterlimit="10" stroke-width="3"/><path d="m56.9 65.3h-13" stroke="#fff" stroke-linecap="round" stroke-miterlimit="10" stroke-width="3"/></g></svg>