<?xml version="1.0" encoding="UTF-8"?>
<svg xmlns="http://www.w3.org/2000/svg" version="1.1" viewBox="0 0 100 100">
  <defs>
    <style>
      .cls-1 {
        fill: #fff;
      }

      .cls-2 {
        fill-rule: evenodd;
      }

      .cls-2, .cls-3 {
        fill: #93aad1;
      }
    </style>
  </defs>
  <!-- Generator: Adobe Illustrator 28.6.0, SVG Export Plug-In . SVG Version: 1.2.0 Build 709)  -->
  <g>
    <g id="Layer_1">
      <g>
        <path class="cls-2" d="M50,17.6c18.6,0,33.8,15.1,33.8,33.8s-15.1,33.8-33.8,33.8-33.8-15.1-33.8-33.8S31.4,17.6,50,17.6M57.2,62.6h-14.4c1.5,6.9,4.1,11.6,7.2,16.2,3.4-4.9,5.7-9.6,7.2-16.2M37.1,62.6h-12.9c3.5,7.9,10.4,14,19,16.1-2.9-4.9-5-10.3-6.2-16.1M75.8,62.6h-12.9c-1.1,5.6-3.1,10.9-6.1,16,8.5-2.1,15.5-8.1,19-16M36.4,45.7h-14c-.8,3.7-.8,7.6,0,11.3h13.8c-.3-3.7-.3-7.5.1-11.3M57.9,45.7h-15.9c-.5,3.7-.5,7.5-.1,11.3h16.2c.4-3.7.3-7.5-.1-11.3M77.6,45.7h-14c.4,3.7.5,7.5.1,11.3h13.8c.7-3.6.8-7.5,0-11.3M43.4,24c-8.7,2.1-15.7,8.1-19.2,16.1h13.1c1.2-5.7,3.3-11.2,6.1-16.1M50,23.9c-3.1,5-5.4,9.7-6.9,16.3h13.9c-1.5-6.3-3.8-11.1-6.9-16.3M56.7,24.1c2.9,5.1,4.9,10.6,6,16.1h13.1c-3.5-7.9-10.6-14-19.1-16.1"/>
        <rect class="cls-3" x="35.1" y="14.9" width="54" height="21.7" rx="3.9" ry="3.9"/>
        <g>
          <path class="cls-1" d="M50.1,31.2h-2.3v-4.8h-4.5v4.8h-2.3v-11.1h2.3v4.5h4.5v-4.5h2.3v11.1Z"/>
          <path class="cls-1" d="M60.7,22h-3.4v9.2h-2.3v-9.2h-3.3v-1.8h9v1.8Z"/>
          <path class="cls-1" d="M65.4,20.2l2.8,8,2.8-8h3v11.1h-2.3v-3l.2-5.2-3,8.3h-1.6l-3-8.3.2,5.2v3h-2.3v-11.1h3Z"/>
          <path class="cls-1" d="M78.8,29.4h4.8v1.8h-7.1v-11.1h2.3v9.2Z"/>
        </g>
      </g>
    </g>
  </g>
</svg>