<svg viewBox="0 0 100 100" xmlns="http://www.w3.org/2000/svg"><path d="m56.6 40.1-8.3 13.2-8.2-6.5-16.6 23.1h53zm26.5-16.6v53h-66.2v-53zm6.7-6.6h-79.6v66.2h79.5v-66.2zm-66.3 19.9c0-3.7 3-6.6 6.6-6.6s6.6 3 6.6 6.6-3 6.6-6.6 6.6-6.6-3-6.6-6.6z" fill="#6aadce"/><path d="m56.6 40.1-8.3 13.2-8.2-6.5-16.6 23.1h53zm26.5-16.6v53h-66.2v-53zm6.7-6.6h-79.6v66.2h79.5v-66.2zm-66.3 19.9c0-3.7 3-6.6 6.6-6.6s6.6 3 6.6 6.6-3 6.6-6.6 6.6-6.6-3-6.6-6.6z" fill="none" stroke="#6aadce" stroke-linecap="round" stroke-linejoin="round"/></svg>