<?xml version="1.0" encoding="UTF-8"?>
<svg xmlns="http://www.w3.org/2000/svg" version="1.1" viewBox="0 0 100 100">
  <defs>
    <style>
      .cls-1 {
        fill: #ce6363;
      }
    </style>
  </defs>
  <!-- Generator: Adobe Illustrator 28.6.0, SVG Export Plug-In . SVG Version: 1.2.0 Build 709)  -->
  <g>
    <g id="Layer_1">
      <g id="Layer_1-2" data-name="Layer_1">
        <path class="cls-1" d="M48,18c13.3,0,8.4,19.2,8.4,19.2,0,0,19.2-5.3,19.2,7.9v36.9H24.4V18h23.6ZM50.6,11.6H18v76.8h64v-46c0-7.7-21.3-30.8-31.4-30.8ZM64.3,53.2h-7.7v10.8h2.7v-4.3h4.4v-2.1h-4.4v-2h5v-2.3h0ZM49.9,53.2h-4.7v10.8h4.7c1.6,0,2.8-.5,3.7-1.6,1.6-1.9,1.7-6-.2-7.9s-2.1-1.3-3.5-1.3ZM47.9,55.5h1.5c1.4,0,2.3.5,2.7,1.9.2.8.2,2,0,2.8-.4,1-1.1,1.5-2.2,1.5h-1.9v-6.2h0ZM39.9,53.2h-4.9v10.8h2.7v-3.7h2.2c1.8,0,3.1-.8,3.6-2.2.3-.9.3-1.7,0-2.6-.5-1.4-1.8-2.2-3.6-2.2h0ZM37.7,55.3h1.6c.7,0,1.4,0,1.7.7.2.4.2,1.1,0,1.4-.3.6-1,.7-1.7.7h-1.6v-2.8ZM66.1,68.3h-33.3c-2.1,0-3.9-1.7-3.9-3.9v-12.3c0-2.1,1.7-3.9,3.9-3.9h33.3c2.1,0,3.9,1.7,3.9,3.9v12.3c0,2.1-1.7,3.9-3.9,3.9Z"/>
      </g>
    </g>
  </g>
</svg>