<svg clip-rule="evenodd" fill-rule="evenodd" stroke-linejoin="round" stroke-miterlimit="2" viewBox="0 0 164 118" xmlns="http://www.w3.org/2000/svg"><path d="m0 0h164.94v119.27h-164.94z" fill="#fff" transform="scale(.994301 .989352)"/><g fill-rule="nonzero" transform="translate(-.945 -.815)"><g fill="#53baa1"><path d="m68.65 4.16-12.13 18.58-12.14-18.58z"/><path d="m119.41 4.16-12.13 18.58-12.14-18.58z"/><path d="m44.38 115.47 12.14-18.59 12.13 18.59z"/><path d="m95.14 115.47 12.14-18.59 12.13 18.59z"/></g><path d="m145.53 63.71c4.3-.8 7.57-2.71 9.8-5.72 2.24-3.01 3.35-6.67 3.35-10.96 0-3.56-.62-6.52-1.85-8.9s-2.9-4.27-4.99-5.68c-2.09-1.4-4.53-2.41-7.31-3.01s-5.72-.9-8.81-.9h-23.56v18.83c-.19-.55-.39-1.09-.61-1.63-1.63-3.95-3.91-7.32-6.84-10.1s-6.39-4.92-10.41-6.41c-4.01-1.49-8.4-2.24-13.16-2.24s-9.14.75-13.16 2.24c-4.01 1.49-7.48 3.63-10.41 6.41-2.62 2.49-4.72 5.46-6.3 8.9-.23-2.47-.81-4.61-1.74-6.41-1.23-2.38-2.9-4.27-4.99-5.68-2.09-1.4-4.53-2.41-7.31-3.01s-5.72-.9-8.81-.9h-23.55v60.88h13.41v-24.34h6.62l12.73 24.34h16.08l-15.47-25.71c4.3-.8 7.57-2.71 9.8-5.72.1-.14.19-.29.29-.43-.02.47-.03.94-.03 1.42 0 4.87.82 9.29 2.45 13.24s3.91 7.32 6.84 10.1c2.92 2.78 6.39 4.92 10.41 6.41 4.01 1.49 8.4 2.24 13.16 2.24s9.14-.75 13.16-2.24c4.01-1.49 7.48-3.63 10.41-6.41 2.92-2.78 5.2-6.15 6.84-10.1.22-.53.42-1.08.61-1.63v18.83h13.41v-24.34h6.62l12.73 24.34h16.08zm-109.14-12.9c-.72.92-1.62 1.59-2.71 2.02s-2.31.69-3.65.77c-1.35.09-2.62.13-3.83.13h-7.91v-13.84h8.77c1.2 0 2.44.09 3.7.26s2.38.5 3.35.99 1.78 1.19 2.41 2.11.95 2.15.95 3.7c0 1.65-.36 2.94-1.08 3.86zm62.35 16.04c-.89 2.38-2.16 4.44-3.83 6.19-1.66 1.75-3.65 3.11-5.98 4.09-2.32.98-4.92 1.46-7.78 1.46-2.87 0-5.46-.49-7.78-1.46s-4.31-2.34-5.98-4.09c-1.66-1.75-2.94-3.81-3.83-6.19s-1.33-5-1.33-7.87c0-2.81.44-5.42 1.33-7.83s2.16-4.48 3.83-6.23c1.66-1.75 3.65-3.11 5.98-4.09 2.32-.97 4.91-1.46 7.78-1.46s5.46.49 7.78 1.46 4.31 2.34 5.98 4.09c1.66 1.75 2.94 3.83 3.83 6.23.89 2.41 1.33 5.02 1.33 7.83 0 2.87-.44 5.49-1.33 7.87zm44.94-16.04c-.72.92-1.62 1.59-2.71 2.02s-2.31.69-3.65.77c-1.35.09-2.62.13-3.83.13h-7.91v-13.84h8.77c1.2 0 2.44.09 3.7.26s2.38.5 3.35.99 1.78 1.19 2.41 2.11.95 2.15.95 3.7c0 1.65-.36 2.94-1.08 3.86z" fill="#202826"/></g></svg>