<?xml version="1.0" encoding="utf-8"?>
<!-- Generator: Adobe Illustrator 16.0.0, SVG Export Plug-In . SVG Version: 6.00 Build 0)  -->
<!DOCTYPE svg PUBLIC "-//W3C//DTD SVG 1.1//EN" "http://www.w3.org/Graphics/SVG/1.1/DTD/svg11.dtd">
<svg version="1.1" id="Layer_1" xmlns="http://www.w3.org/2000/svg" xmlns:xlink="http://www.w3.org/1999/xlink" x="0px" y="0px"
	 width="350px" height="120px" viewBox="0 0 350 120" enable-background="new 0 0 350 120" xml:space="preserve">
<g id="extra_line" display="none">
</g>
<g id="logo" display="none">
	<g display="inline">
		<g>
			<circle fill="#5A5B6A" cx="154.75" cy="-90.677" r="6.234"/>
			<circle fill="#5A5B6A" cx="154.75" cy="-70.17" r="6.234"/>
			<circle fill="#5A5B6A" cx="154.75" cy="-49.663" r="6.234"/>
			<circle fill="#5A5B6A" cx="154.75" cy="-29.156" r="6.234"/>
			<circle fill="#5A5B6A" cx="154.75" cy="-111.184" r="6.234"/>
		</g>
		<g>
			<circle fill="#5A5B6A" cx="195.75" cy="-90.677" r="6.234"/>
			<circle fill="#5A5B6A" cx="195.75" cy="-70.17" r="6.234"/>
			<circle fill="#5A5B6A" cx="195.75" cy="-49.663" r="6.234"/>
			<circle fill="#5A5B6A" cx="195.75" cy="-29.156" r="6.234"/>
			<circle fill="#5A5B6A" cx="195.75" cy="-111.184" r="6.234"/>
		</g>
		<g>
			<circle fill="#5A5B6A" cx="175.25" cy="-80.677" r="6.234"/>
			<circle fill="#5A5B6A" cx="175.25" cy="-60.17" r="6.234"/>
			<circle fill="#5A5B6A" cx="175.25" cy="-39.663" r="6.234"/>
			<circle fill="#5A5B6A" cx="175.25" cy="-19.156" r="6.234"/>
			<circle fill="#5A5B6A" cx="175.25" cy="-101.184" r="6.234"/>
		</g>
		<g>
			<circle fill="#5A5B6A" cx="216.25" cy="-80.677" r="6.234"/>
			<circle fill="#5A5B6A" cx="216.25" cy="-60.17" r="6.234"/>
			<circle fill="#5A5B6A" cx="216.25" cy="-39.663" r="6.234"/>
			<circle fill="#5A5B6A" cx="216.25" cy="-19.156" r="6.234"/>
			<circle fill="#5A5B6A" cx="216.25" cy="-101.184" r="6.234"/>
		</g>
		<g>
			<circle fill="#5A5B6A" cx="236.75" cy="-90.677" r="6.234"/>
			<circle fill="#5A5B6A" cx="236.75" cy="-70.17" r="6.234"/>
			<circle fill="#5A5B6A" cx="236.75" cy="-49.663" r="6.234"/>
			<circle fill="#5A5B6A" cx="236.75" cy="-29.156" r="6.234"/>
			<circle fill="#5A5B6A" cx="236.75" cy="-111.184" r="6.234"/>
		</g>
	</g>
</g>
<g id="lines" display="none">
	<g display="inline">
		
			<line fill="none" stroke="#49A3C6" stroke-width="2" stroke-linecap="round" stroke-linejoin="round" stroke-miterlimit="10" x1="109.5" y1="75.354" x2="89" y2="65.354"/>
		<circle fill="#5A5B6A" cx="48" cy="44.846" r="6.234"/>
		<circle fill="#DD2963" cx="48" cy="65.352" r="6.234"/>
		<circle fill="#49A3C6" cx="48" cy="85.859" r="6.234"/>
		<circle fill="#DD2963" cx="89" cy="44.846" r="6.234"/>
		<circle fill="#5A5B6A" cx="89" cy="65.352" r="6.234"/>
		<circle fill="#DD2963" cx="89" cy="85.859" r="6.234"/>
		<circle fill="#49A3C6" cx="89" cy="106.366" r="6.234"/>
		<circle fill="#5A5B6A" cx="89" cy="24.338" r="6.234"/>
		<circle fill="#DD2963" cx="68.5" cy="54.846" r="6.234"/>
		<circle fill="#DD2963" cx="68.5" cy="75.353" r="6.234"/>
		<circle fill="#49A3C6" cx="68.5" cy="95.859" r="6.234"/>
		<circle fill="#5A5B6A" cx="68.5" cy="34.338" r="6.234"/>
		<circle fill="#DD2963" cx="109.5" cy="54.846" r="6.234"/>
		<circle fill="#49A3C6" cx="109.5" cy="75.353" r="6.234"/>
		<circle fill="#49A3C6" cx="109.5" cy="95.859" r="6.234"/>
		<circle fill="#5A5B6A" cx="109.5" cy="34.338" r="6.234"/>
		<circle fill="#5A5B6A" cx="130" cy="44.846" r="6.234"/>
		<circle fill="#DD2963" cx="130" cy="65.352" r="6.234"/>
		<circle fill="#49A3C6" cx="130" cy="85.859" r="6.234"/>
		
			<line fill="none" stroke="#5A5B6A" stroke-width="2" stroke-linecap="round" stroke-linejoin="round" stroke-miterlimit="10" x1="75.86" y1="58.781" x2="89" y2="65.354"/>
		
			<polyline fill="none" stroke="#5A5B6A" stroke-width="2" stroke-linecap="round" stroke-linejoin="round" stroke-miterlimit="10" points="
			130,44.846 89,24.339 48,44.846 61.061,51.378 		"/>
		
			<polyline fill="none" stroke="#DD2963" stroke-width="2" stroke-linecap="round" stroke-linejoin="round" stroke-miterlimit="10" points="
			130,65.354 89,44.846 48,65.354 89,85.857 		"/>
		
			<polyline fill="none" stroke="#49A3C6" stroke-width="2" stroke-linecap="round" stroke-linejoin="round" stroke-miterlimit="10" points="
			109.5,75.354 130,85.857 89,106.366 48,85.857 		"/>
	</g>
</g>
<g>
	<g enable-background="new    ">
		<path fill="#00AEEF" d="M165.658,75.358l-5.619-12.771c0.16-0.071,0.332-0.127,0.49-0.205c2.11-1.051,3.756-2.507,4.93-4.362
			c1.176-1.856,1.764-3.998,1.764-6.424c0-2.539-0.594-4.719-1.776-6.537c-1.185-1.818-2.898-3.211-5.146-4.179
			c-2.244-0.966-4.932-1.448-8.057-1.448h-19.385v4.688l4.463,0.853v30.327l-4.463,0.854v4.66h16.655v-4.66l-4.463-0.854V64.019
			l7.799-0.029l6.781,16.826h9.408v-4.717L165.658,75.358z M145.053,58.049V45.401h7.191c2.424,0,4.244,0.588,5.457,1.763
			c1.211,1.176,1.817,2.748,1.817,4.719c0,2.009-0.614,3.538-1.848,4.591c-1.233,1.051-3.127,1.576-5.684,1.576L145.053,58.049
			L145.053,58.049z"/>
		<path fill="#00AEEF" d="M189.221,82.131c-2.938,0-5.643-0.346-8.115-1.036c-2.472-0.691-4.883-1.861-7.231-3.513v-9.774h5.969
			l0.91,6.024c0.928,0.719,2.135,1.297,3.623,1.731c1.486,0.438,3.103,0.654,4.846,0.654c1.593,0,2.933-0.223,4.021-0.668
			s1.918-1.08,2.485-1.904c0.568-0.823,0.854-1.785,0.854-2.885c0-1.061-0.256-1.994-0.769-2.799
			c-0.512-0.807-1.35-1.535-2.516-2.189c-1.166-0.653-2.742-1.272-4.732-1.86c-3.184-0.892-5.836-1.904-7.957-3.041
			c-2.123-1.138-3.709-2.506-4.762-4.106c-1.051-1.603-1.576-3.511-1.576-5.728c0-2.218,0.611-4.185,1.832-5.897
			c1.224-1.716,2.918-3.064,5.088-4.052c2.168-0.983,4.666-1.485,7.488-1.506c3.146-0.037,5.922,0.353,8.328,1.166
			s4.463,1.914,6.168,3.297v9.097h-5.826l-1.053-5.713c-0.758-0.513-1.752-0.947-2.984-1.31c-1.229-0.358-2.651-0.539-4.264-0.539
			c-1.383,0-2.605,0.213-3.666,0.64c-1.061,0.426-1.895,1.047-2.5,1.86c-0.607,0.813-0.91,1.791-0.91,2.928
			c0,0.986,0.266,1.849,0.795,2.587c0.531,0.739,1.422,1.422,2.672,2.047c1.252,0.625,2.947,1.27,5.088,1.934
			c4.529,1.23,7.964,2.895,10.304,4.988c2.34,2.093,3.512,4.807,3.512,8.143c0,2.313-0.631,4.324-1.891,6.039
			c-1.261,1.715-3.023,3.041-5.287,3.98C194.9,81.662,192.252,82.131,189.221,82.131z"/>
		<path fill="#00AEEF" d="M207.695,93.356v-4.688l4.094-0.854V56.322l-4.492-0.853v-4.688h11.512l0.427,3.608
			c0.928-1.346,2.057-2.379,3.383-3.098c1.326-0.721,2.897-1.08,4.719-1.08c2.48,0,4.607,0.678,6.381,2.031
			c1.771,1.355,3.131,3.254,4.078,5.699c0.947,2.442,1.42,5.287,1.42,8.527v0.596c0,3.014-0.473,5.651-1.42,7.916
			c-0.947,2.264-2.307,4.021-4.078,5.271c-1.772,1.252-3.907,1.877-6.41,1.877c-1.704,0-3.202-0.303-4.489-0.909
			c-1.289-0.605-2.398-1.496-3.326-2.673v9.267l4.207,0.854v4.689H207.695L207.695,93.356z M224.977,76.188
			c2.234,0,3.875-0.823,4.916-2.473c1.043-1.648,1.564-3.865,1.564-6.65V66.47c0-2.027-0.232-3.805-0.697-5.33
			c-0.465-1.524-1.18-2.719-2.146-3.582c-0.965-0.86-2.197-1.293-3.693-1.293c-1.231,0-2.309,0.281-3.227,0.84
			c-0.921,0.56-1.654,1.34-2.203,2.345v13.784c0.549,0.947,1.282,1.679,2.203,2.189C222.611,75.935,223.707,76.188,224.977,76.188z"
			/>
		<path fill="#00AEEF" d="M253.256,82.131c-3.088,0-5.518-0.812-7.289-2.43c-1.771-1.621-2.658-3.843-2.658-6.666
			c0-1.933,0.525-3.634,1.578-5.103c1.052-1.469,2.605-2.615,4.66-3.438c2.058-0.824,4.563-1.236,7.519-1.236h4.379v-2.416
			c0-1.553-0.461-2.803-1.379-3.752c-0.921-0.946-2.271-1.42-4.052-1.42c-0.967,0-1.834,0.117-2.602,0.354
			c-0.766,0.236-1.453,0.572-2.062,1.009l-0.651,4.12h-5.629l-0.058-7.786c1.556-0.947,3.265-1.709,5.131-2.287
			c1.865-0.578,3.945-0.867,6.238-0.867c3.961,0,7.082,0.925,9.365,2.771c2.283,1.847,3.426,4.494,3.426,7.943v13.102
			c0,0.419,0.004,0.824,0.015,1.224c0.01,0.399,0.043,0.787,0.1,1.166l3.154,0.455v4.66h-9.806
			c-0.209-0.586-0.403-1.188-0.584-1.806c-0.18-0.614-0.307-1.235-0.383-1.86c-1.004,1.271-2.203,2.297-3.596,3.084
			C256.682,81.735,255.076,82.131,253.256,82.131z M255.16,76.306c1.309,0,2.535-0.304,3.682-0.91
			c1.146-0.605,2.015-1.373,2.603-2.304V68.09h-4.406c-1.99,0-3.492,0.459-4.506,1.38c-1.015,0.918-1.521,2.004-1.521,3.254
			c0,1.137,0.359,2.018,1.08,2.643C252.811,75.992,253.834,76.306,255.16,76.306z"/>
		<path fill="#00AEEF" d="M290.035,82.131c-2.918,0-5.443-0.657-7.574-1.978c-2.133-1.315-3.775-3.141-4.932-5.471
			c-1.157-2.33-1.734-5.012-1.734-8.043v-0.938c0-2.994,0.584-5.656,1.748-7.988c1.166-2.33,2.809-4.162,4.932-5.498
			s4.623-2.004,7.505-2.004c2.709,0,5.055,0.426,7.034,1.279c1.979,0.852,3.584,1.875,4.816,3.068v8.526h-5.854l-1.08-5.485
			c-0.492-0.492-1.117-0.892-1.875-1.193c-0.759-0.303-1.563-0.455-2.416-0.455c-1.535,0-2.828,0.402-3.879,1.209
			c-1.054,0.805-1.849,1.932-2.39,3.381c-0.539,1.451-0.809,3.17-0.809,5.16v0.938c0,2.142,0.283,3.918,0.852,5.328
			c0.568,1.412,1.351,2.469,2.347,3.17c0.993,0.701,2.106,1.051,3.34,1.051c1.553,0,2.813-0.412,3.778-1.235
			c0.967-0.824,1.611-1.983,1.935-3.479h6.621l0.086,0.17c-0.267,2.084-0.877,3.918-1.834,5.5s-2.301,2.809-4.035,3.68
			C294.881,81.694,292.688,82.131,290.035,82.131z"/>
		<path fill="#00AEEF" d="M321.072,82.131c-2.918,0-5.463-0.647-7.631-1.946c-2.17-1.297-3.853-3.088-5.045-5.371
			c-1.195-2.283-1.791-4.896-1.791-7.832v-1.164c0-3.014,0.571-5.699,1.719-8.06c1.146-2.36,2.752-4.204,4.817-5.541
			c2.064-1.336,4.453-2.004,7.162-2.004c2.785,0,5.125,0.554,7.021,1.662c1.895,1.108,3.326,2.694,4.293,4.76
			c0.967,2.066,1.449,4.55,1.449,7.447v4.293h-18.445l-0.059,0.17c0.075,1.479,0.407,2.789,0.995,3.937
			c0.587,1.146,1.41,2.053,2.474,2.715c1.061,0.664,2.35,0.994,3.865,0.994c1.608,0,3.084-0.207,4.42-0.625
			c1.336-0.416,2.608-1.031,3.821-1.849l2.218,4.806c-1.232,1.022-2.795,1.881-4.689,2.572
			C325.772,81.785,323.574,82.131,321.072,82.131z M314.705,63.115h11.086v-0.738c0-1.289-0.189-2.41-0.568-3.367
			c-0.381-0.956-0.963-1.7-1.748-2.231c-0.787-0.529-1.805-0.795-3.057-0.795c-1.137,0-2.113,0.309-2.928,0.924
			c-0.815,0.615-1.459,1.449-1.933,2.5c-0.475,1.053-0.786,2.242-0.938,3.568L314.705,63.115z"/>
	</g>
	<g>
		
			<line fill="none" stroke="#00AEEF" stroke-width="2" stroke-linecap="round" stroke-linejoin="round" stroke-miterlimit="10" x1="84.668" y1="70" x2="72.113" y2="63.875"/>
		<circle fill="#575C70" cx="23.168" cy="39.493" r="6.234"/>
		<circle fill="#ED1165" cx="23.168" cy="59.999" r="6.232"/>
		<circle fill="#00AEEF" cx="23.168" cy="80.508" r="6.234"/>
		<circle fill="#ED1165" cx="64.168" cy="39.493" r="6.234"/>
		<circle fill="#575C70" cx="64.168" cy="59.999" r="6.232"/>
		<circle fill="#ED1165" cx="64.168" cy="80.508" r="6.234"/>
		<circle fill="#00AEEF" cx="64.168" cy="101.015" r="6.233"/>
		<circle fill="#575C70" cx="64.168" cy="18.986" r="6.234"/>
		<circle fill="#ED1165" cx="43.668" cy="49.493" r="6.234"/>
		<circle fill="#ED1165" cx="43.668" cy="70" r="6.233"/>
		<circle fill="#00AEEF" cx="43.668" cy="90.508" r="6.234"/>
		<circle fill="#575C70" cx="43.668" cy="28.986" r="6.234"/>
		<circle fill="#ED1165" cx="84.668" cy="49.493" r="6.234"/>
		<circle fill="#00AEEF" cx="84.668" cy="70" r="6.233"/>
		<circle fill="#00AEEF" cx="84.668" cy="90.508" r="6.234"/>
		<circle fill="#575C70" cx="84.668" cy="28.986" r="6.234"/>
		<circle fill="#575C70" cx="105.168" cy="39.493" r="6.234"/>
		<circle fill="#ED1165" cx="105.168" cy="59.999" r="6.232"/>
		<circle fill="#00AEEF" cx="105.168" cy="80.508" r="6.234"/>
		
			<line fill="none" stroke="#5A5B6A" stroke-width="2" stroke-linecap="round" stroke-linejoin="round" stroke-miterlimit="10" x1="51.027" y1="53.429" x2="64.168" y2="59.999"/>
		
			<polyline fill="none" stroke="#575C70" stroke-width="2" stroke-linecap="round" stroke-linejoin="round" stroke-miterlimit="10" points="
			105.168,39.493 64.168,18.985 23.168,39.493 36.229,46.024 		"/>
		
			<polyline fill="none" stroke="#ED1165" stroke-width="2" stroke-linecap="round" stroke-linejoin="round" stroke-miterlimit="10" points="
			105.168,59.999 64.168,39.493 23.168,59.999 64.168,80.508 		"/>
		
			<polyline fill="none" stroke="#00AEEF" stroke-width="2" stroke-linecap="round" stroke-linejoin="round" stroke-miterlimit="10" points="
			84.668,70 105.168,80.508 64.168,101.015 23.168,80.508 		"/>
	</g>
</g>
</svg>
