<svg viewBox="0 0 100 100" xmlns="http://www.w3.org/2000/svg"><path d="m16.386 30.593v38.814l33.614 19.407v-38.814z" fill="#8cb7fd"/><path d="m50 91.398c-.446 0-.892-.115-1.292-.346l-33.614-19.406c-.799-.461-1.292-1.313-1.292-2.237v-38.815c0-.923.493-1.776 1.292-2.237.799-.462 1.784-.462 2.583 0l33.614 19.407c.799.461 1.292 1.313 1.292 2.237v38.813c0 .923-.493 1.776-1.292 2.237-.4.232-.846.346-1.292.346zm-31.03-23.482 28.447 16.423v-32.847l-28.447-16.424s0 32.848 0 32.848z" fill="#004494"/><path d="m50 50v38.814l33.614-19.407v-38.814z" fill="#fae68d"/><path d="m50 91.398c-.446 0-.892-.115-1.292-.346-.799-.461-1.292-1.313-1.292-2.237v-38.813c0-.923.493-1.776 1.292-2.237l33.613-19.407c.799-.462 1.784-.462 2.583 0 .799.461 1.292 1.313 1.292 2.237v38.814c0 .923-.493 1.776-1.292 2.237l-33.613 19.406c-.4.232-.846.346-1.292.346zm2.584-39.905v32.847l28.446-16.423v-32.848s-28.446 16.424-28.446 16.424z" fill="#004494"/><path d="m16.386 30.593 33.614 19.407 33.614-19.407-33.614-19.407z" fill="#a8ecaf"/><path d="m50 52.584c-.446 0-.892-.115-1.292-.346l-33.614-19.407c-.799-.461-1.292-1.313-1.292-2.237s.493-1.776 1.292-2.237l33.615-19.408c.799-.462 1.784-.462 2.583 0l33.613 19.407c.799.461 1.292 1.313 1.292 2.237s-.493 1.776-1.292 2.237l-33.613 19.407c-.4.232-.846.346-1.292.346zm-28.447-21.991 28.447 16.424 28.446-16.424-28.446-16.424s-28.447 16.424-28.447 16.424z" fill="#004494"/></svg>