<?xml version="1.0" encoding="UTF-8"?>
<svg id="Layer_1" xmlns="http://www.w3.org/2000/svg" version="1.1" viewBox="0 0 24 24">
  <!-- Generator: Adobe Illustrator 30.2.1, SVG Export Plug-In . SVG Version: 2.1.1 Build 1)  -->
  <path d="M12.031,0C6.967,0,3,3.075,3,7v13.25c0,1.994,3,3.75,9.029,3.75,5.94,0,8.971-1.748,8.971-3.75V7c0-3.925-3.939-7-8.969-7ZM11.209,18.87c-.201.307-.493.542-.876.707-.384.166-.85.249-1.397.249-.242,0-.479-.017-.709-.048-.231-.032-.452-.079-.664-.141-.212-.062-.413-.14-.604-.232v-1.376c.331.147.675.279,1.032.397.356.117.71.177,1.061.177.242,0,.437-.032.585-.096.148-.064.255-.151.322-.263.067-.112.1-.239.1-.383,0-.175-.059-.324-.177-.449-.118-.124-.279-.24-.485-.349-.205-.108-.437-.225-.695-.349-.163-.076-.339-.169-.53-.279-.191-.11-.373-.244-.545-.403-.172-.159-.312-.354-.422-.581s-.165-.501-.165-.819c0-.417.096-.773.287-1.07.191-.296.464-.522.819-.68s.774-.236,1.259-.236c.363,0,.709.042,1.039.126s.674.206,1.034.365l-.478,1.151c-.322-.131-.61-.231-.865-.304-.255-.071-.514-.107-.779-.107-.185,0-.342.03-.473.089-.131.059-.229.142-.296.248-.067.107-.1.23-.1.37,0,.166.048.306.146.418.097.113.244.223.439.328.196.104.44.228.733.367.356.169.662.345.915.528.253.183.448.397.585.645.137.247.206.554.206.92,0,.414-.101.773-.301,1.079ZM16.805,18.789c-.198.322-.505.575-.919.76s-.948.277-1.601.277c-.386,0-.745-.031-1.077-.094-.333-.062-.646-.156-.938-.284v-1.256c.299.152.613.269.941.346.327.078.633.117.917.117.528,0,.898-.091,1.11-.274.212-.183.317-.44.317-.771,0-.194-.049-.358-.147-.492-.1-.134-.271-.235-.514-.306-.244-.07-.584-.105-1.021-.105h-.529v-1.132h.539c.43,0,.757-.041.981-.122s.378-.192.459-.334.122-.304.122-.485c0-.248-.077-.442-.229-.583-.153-.14-.408-.21-.765-.21-.223,0-.426.028-.609.084-.183.056-.348.122-.494.2s-.275.154-.386.228l-.683-1.018c.274-.197.595-.362.962-.492.368-.131.807-.196,1.316-.196.72,0,1.29.145,1.71.434.421.29.631.699.631,1.229,0,.321-.067.6-.201.836-.134.235-.314.428-.542.578-.228.149-.483.26-.767.329v.029c.561.069.986.241,1.278.516.291.273.437.64.437,1.099,0,.408-.1.772-.299,1.094ZM12.078,9.781c-2.052,0-6.489-.39-6.489-1.391,0-1.01,3.986-1.39,6.489-1.39,2.569,0,6.511.39,6.511,1.391,0,1.01-4.41,1.39-6.511,1.39ZM12,5c-3.467,0-6.472.654-7.975,1.612.261-3.175,3.679-5.612,8.006-5.612,4.295,0,7.685,2.437,7.943,5.612-1.502-.958-4.506-1.612-7.974-1.612Z" fill="#f48c10"/>
</svg>