<?xml version="1.0" encoding="UTF-8"?>
<svg id="Layer_1" xmlns="http://www.w3.org/2000/svg" version="1.1" viewBox="0 0 100 100">
  <!-- Generator: Adobe Illustrator 29.5.1, SVG Export Plug-In . SVG Version: 2.1.0 Build 141)  -->
  <path d="M49.915,43.1c11.331-5.455,24.468-11.8,27.664-13.336,6.026-2.899,11.549,4.712,11.549,4.712l-28.567,13.78s-10.646-5.155-10.646-5.155ZM24.058,20.654c2.237,0,4.542.502,6.73,1.562,6.336,3.068,9.629,9.785,8.145,15.827-.848,3.447.965,3.916,3.733,5.256l46.266,22.388s-5.543,7.594-11.562,4.682c-3.698-1.79-18.55-8.957-31.348-15.165l-3.212,1.546c-2.772,1.334-4.585,1.8-3.747,5.246,1.471,6.049-1.839,12.759-8.184,15.808-2.181,1.047-4.477,1.542-6.697,1.542-7.535,0-13.189-5.53-13.189-12.394,0-5.158,3.215-10.291,8.52-12.955,5.299-2.661,9.016-.587,14.282-3.147l1.643-.799-1.8-.88c-5.259-2.573-8.98-.509-14.272-3.182-5.295-2.67-8.494-7.8-8.494-12.945,0-6.874,5.67-12.391,13.186-12.391ZM32.389,62.44c-1.594-3.332-6.117-4.493-10.082-2.586-3.968,1.904-5.899,6.172-4.307,9.508,1.594,3.332,6.117,4.496,10.085,2.589,3.968-1.907,5.895-6.176,4.304-9.511ZM44.268,50.62c0,1.35,1.092,2.446,2.446,2.446s2.446-1.096,2.446-2.446-1.096-2.446-2.446-2.446-2.446,1.096-2.446,2.446ZM22.17,40.143c3.962,1.917,8.491.77,10.092-2.563s-.32-7.604-4.281-9.518c-3.962-1.917-8.488-.766-10.089,2.566-1.604,3.329.316,7.597,4.278,9.515Z" fill="#a6c5cc"/>
</svg>