<?xml version="1.0" encoding="UTF-8"?>
<svg xmlns="http://www.w3.org/2000/svg" version="1.1" viewBox="0 0 100 100">
  <defs>
    <style>
      .cls-1 {
        fill: #83beed;
      }

      .cls-2 {
        fill: #5fa2c4;
      }

      .cls-3 {
        fill: none;
        stroke: #5fa2c4;
        stroke-linecap: round;
        stroke-linejoin: round;
      }

      .cls-4 {
        fill: #b8ebff;
      }
    </style>
  </defs>
  <!-- Generator: Adobe Illustrator 28.6.0, SVG Export Plug-In . SVG Version: 1.2.0 Build 709)  -->
  <g>
    <g id="Layer_1">
      <g>
        <rect class="cls-4" x="6.4" y="16.5" width="87" height="14"/>
        <path class="cls-1" d="M46.1,25.4c-6.3,0-9-3.7-15.6-10.5H3.3v70.3h93.5V25.4h-50.6Z"/>
      </g>
      <g>
        <line class="cls-3" x1="58.5" y1="60.2" x2="53.3" y2="57.6"/>
        <circle class="cls-2" cx="32.9" cy="47.5" r="2.6"/>
        <circle class="cls-2" cx="32.9" cy="56" r="2.6"/>
        <circle class="cls-2" cx="32.9" cy="64.5" r="2.6"/>
        <circle class="cls-2" cx="50" cy="47.5" r="2.6"/>
        <circle class="cls-2" cx="50" cy="56" r="2.6"/>
        <circle class="cls-2" cx="50" cy="64.5" r="2.6"/>
        <circle class="cls-2" cx="50" cy="73.1" r="2.6"/>
        <circle class="cls-2" cx="50" cy="38.9" r="2.6"/>
        <circle class="cls-2" cx="41.5" cy="51.6" r="2.6"/>
        <circle class="cls-2" cx="41.5" cy="60.2" r="2.6"/>
        <circle class="cls-2" cx="41.5" cy="68.7" r="2.6"/>
        <circle class="cls-2" cx="41.5" cy="43.1" r="2.6"/>
        <circle class="cls-2" cx="58.5" cy="51.6" r="2.6"/>
        <circle class="cls-2" cx="58.5" cy="60.2" r="2.6"/>
        <circle class="cls-2" cx="58.5" cy="68.7" r="2.6"/>
        <circle class="cls-2" cx="58.5" cy="43.1" r="2.6"/>
        <circle class="cls-2" cx="67.1" cy="47.5" r="2.6"/>
        <circle class="cls-2" cx="67.1" cy="56" r="2.6"/>
        <circle class="cls-2" cx="67.1" cy="64.5" r="2.6"/>
        <line class="cls-3" x1="44.5" y1="53.3" x2="50" y2="56"/>
        <polyline class="cls-3" points="67.1 47.5 50 38.9 32.9 47.5 38.4 50.2"/>
        <polyline class="cls-3" points="67.1 56 50 47.5 32.9 56 50 64.5"/>
        <polyline class="cls-3" points="58.5 60.2 67.1 64.5 50 73.1 32.9 64.5"/>
      </g>
    </g>
  </g>
</svg>