<svg viewBox="0 0 100 100" xmlns="http://www.w3.org/2000/svg"><path d="m6.4 16.5h87v14h-87z" fill="#b8ebff"/><path d="m46.1 25.4c-6.3 0-9-3.7-15.6-10.5h-27.2v70.3h93.5v-59.8h-50.6z" fill="#83beed"/><path d="m58.5 60.2-5.2-2.6" fill="none" stroke="#5fa2c4" stroke-linecap="round" stroke-linejoin="round"/><g fill="#5fa2c4"><circle cx="32.9" cy="47.5" r="2.6"/><circle cx="32.9" cy="56" r="2.6"/><circle cx="32.9" cy="64.5" r="2.6"/><circle cx="50" cy="47.5" r="2.6"/><circle cx="50" cy="56" r="2.6"/><circle cx="50" cy="64.5" r="2.6"/><circle cx="50" cy="73.1" r="2.6"/><circle cx="50" cy="38.9" r="2.6"/><circle cx="41.5" cy="51.6" r="2.6"/><circle cx="41.5" cy="60.2" r="2.6"/><circle cx="41.5" cy="68.7" r="2.6"/><circle cx="41.5" cy="43.1" r="2.6"/><circle cx="58.5" cy="51.6" r="2.6"/><circle cx="58.5" cy="60.2" r="2.6"/><circle cx="58.5" cy="68.7" r="2.6"/><circle cx="58.5" cy="43.1" r="2.6"/><circle cx="67.1" cy="47.5" r="2.6"/><circle cx="67.1" cy="56" r="2.6"/><circle cx="67.1" cy="64.5" r="2.6"/></g><path d="m44.5 53.3 5.5 2.7" fill="none" stroke="#5fa2c4" stroke-linecap="round" stroke-linejoin="round"/><path d="m67.1 47.5-17.1-8.6-17.1 8.6 5.5 2.7" fill="none" stroke="#5fa2c4" stroke-linecap="round" stroke-linejoin="round"/><path d="m67.1 56-17.1-8.5-17.1 8.5 17.1 8.5" fill="none" stroke="#5fa2c4" stroke-linecap="round" stroke-linejoin="round"/><path d="m58.5 60.2 8.6 4.3-17.1 8.6-17.1-8.6" fill="none" stroke="#5fa2c4" stroke-linecap="round" stroke-linejoin="round"/></svg>