<?xml version="1.0" encoding="UTF-8"?>
<svg xmlns="http://www.w3.org/2000/svg" version="1.1" viewBox="0 0 100 100">
  <defs>
    <style>
      .cls-1 {
        stroke: #a5bfce;
        stroke-linecap: round;
        stroke-linejoin: round;
      }

      .cls-1, .cls-2 {
        fill: #a5bfce;
      }
    </style>
  </defs>
  <!-- Generator: Adobe Illustrator 28.6.0, SVG Export Plug-In . SVG Version: 1.2.0 Build 709)  -->
  <g>
    <g id="Layer_1">
      <g id="Layer_1-2" data-name="Layer_1">
        <g>
          <path class="cls-1" d="M24.4,82V18h51.3v37c0,13.2-19.2,7.9-19.2,7.9,0,0,4.9,19.2-8.5,19.2h-23.6,0ZM82,57.6V11.5H18v76.9h32.6c10.1,0,31.4-23.1,31.4-30.8Z"/>
          <path class="cls-2" d="M47.1,54.5c0-1.7.2-3,.6-4,.4-1,1.2-2,2.2-2.9,1.1-1,1.8-1.8,2.2-2.4.4-.6.5-1.2.5-1.9,0-2-.9-3-2.8-3s-1.6.3-2.1.8-.8,1.3-.8,2.3h-5.2c0-2.3.8-4.1,2.2-5.4,1.5-1.3,3.4-1.9,6-1.9s4.5.6,5.9,1.8,2.1,3,2.1,5.2-.2,2-.7,2.9-1.3,1.9-2.4,3l-1.5,1.4c-.9.9-1.4,1.9-1.6,3.1v1.1h-4.7,0ZM46.6,60c0-.8.3-1.5.8-2s1.2-.8,2.1-.8,1.6.3,2.1.8.8,1.2.8,2-.3,1.4-.8,2-1.2.8-2.1.8-1.6-.3-2.1-.8-.8-1.2-.8-2Z"/>
        </g>
      </g>
    </g>
  </g>
</svg>