<svg viewBox="0 0 100 100" xmlns="http://www.w3.org/2000/svg"><g fill="#a5bfce"><path d="m24.4 82v-64h51.3v37c0 13.2-19.2 7.9-19.2 7.9s4.9 19.2-8.5 19.2h-23.6zm57.6-24.4v-46.1h-64v76.9h32.6c10.1 0 31.4-23.1 31.4-30.8z" stroke="#a5bfce" stroke-linecap="round" stroke-linejoin="round"/><path d="m47.1 54.5c0-1.7.2-3 .6-4s1.2-2 2.2-2.9c1.1-1 1.8-1.8 2.2-2.4s.5-1.2.5-1.9c0-2-.9-3-2.8-3s-1.6.3-2.1.8-.8 1.3-.8 2.3h-5.2c0-2.3.8-4.1 2.2-5.4 1.5-1.3 3.4-1.9 6-1.9s4.5.6 5.9 1.8 2.1 3 2.1 5.2-.2 2-.7 2.9-1.3 1.9-2.4 3l-1.5 1.4c-.9.9-1.4 1.9-1.6 3.1v1.1h-4.7zm-.5 5.5c0-.8.3-1.5.8-2s1.2-.8 2.1-.8 1.6.3 2.1.8.8 1.2.8 2-.3 1.4-.8 2-1.2.8-2.1.8-1.6-.3-2.1-.8-.8-1.2-.8-2z"/></g></svg>