<svg viewBox="0 0 100 100" xmlns="http://www.w3.org/2000/svg"><path d="m47.9 33.6 36.7-7.6c0-.1-2.9-12.6-2.9-12.6l-60.9 12.1c-3 .6-5.2 3.3-5.2 6.4v42c0 4.8 3.9 8.6 8.6 8.6h51.8c4.8 0 8.6-3.9 8.6-8.6v-40.3zm25.4-15.1 6.9 4.6-8.6 1.7-6.9-4.6zm-16.9 3.4 6.9 4.6-8.6 1.7-6.9-4.6s8.6-1.7 8.6-1.7zm-17 3.3 6.9 4.6-8.6 1.7-6.9-4.6zm-7.4 17 5.9-5.8h8.8l-5.9 5.8zm12.2 28.8v-20.2l17.3 9.8-17.3 10.3zm13.9-28.8h-8.8l5.9-5.8h8.8zm17.3 0h-8.8l5.9-5.8h8.8s-5.9 5.8-5.9 5.8z" fill="#81c7d3" stroke="#81c7d3" stroke-linecap="round" stroke-linejoin="round"/></svg>