<?xml version="1.0" encoding="UTF-8"?>
<svg xmlns="http://www.w3.org/2000/svg" version="1.1" viewBox="0 0 100 100">
  <defs>
    <style>
      .cls-1 {
        fill: #fff;
      }

      .cls-2 {
        fill-rule: evenodd;
      }

      .cls-2, .cls-3 {
        fill: #93aad1;
      }
    </style>
  </defs>
  <!-- Generator: Adobe Illustrator 28.6.0, SVG Export Plug-In . SVG Version: 1.2.0 Build 709)  -->
  <g>
    <g id="Layer_1">
      <g>
        <path class="cls-2" d="M50,17c19,0,34.4,15.4,34.4,34.4s-15.4,34.4-34.4,34.4S15.6,70.4,15.6,51.4,31,17,50,17M57.3,62.9h-14.7c1.6,7.1,4.1,11.8,7.3,16.5,3.4-5,5.9-9.8,7.3-16.5M36.8,62.9h-13.1c3.5,8.1,10.6,14.3,19.4,16.4-3-5-5.1-10.5-6.3-16.4M76.3,62.9h-13.1c-1.1,5.7-3.1,11.1-6.2,16.3,8.6-2.2,15.8-8.3,19.3-16.3M36.1,45.7h-14.2c-.8,3.8-.8,7.7,0,11.5h14.1c-.3-3.8-.3-7.7.1-11.5M58.1,45.7h-16.2c-.5,3.8-.5,7.7-.2,11.5h16.5c.4-3.8.3-7.7-.2-11.5M78.1,45.7h-14.2c.4,3.8.5,7.7.1,11.5h14.1c.7-3.7.8-7.6,0-11.5M43.2,23.5c-8.8,2.1-16,8.3-19.5,16.4h13.3c1.2-5.9,3.4-11.4,6.2-16.4M50,23.4c-3.1,5.1-5.5,9.9-7.1,16.6h14.1c-1.5-6.4-3.8-11.3-7.1-16.6M56.8,23.6c2.9,5.2,5,10.8,6.2,16.4h13.3c-3.5-8.1-10.8-14.2-19.5-16.4"/>
        <rect class="cls-3" x="41.9" y="14.2" width="46.8" height="22.1" rx="3.9" ry="3.9"/>
        <g>
          <path class="cls-1" d="M53.5,23.5l2.1-3.9h2.7l-3.3,5.6,3.4,5.7h-2.7l-2.2-4-2.2,4h-2.7l3.4-5.7-3.3-5.6h2.7l2.1,3.9Z"/>
          <path class="cls-1" d="M63.1,19.6l2.9,8.2,2.9-8.2h3.1v11.3h-2.3v-3.1l.2-5.3-3,8.4h-1.6l-3-8.4.2,5.3v3.1h-2.3v-11.3h3Z"/>
          <path class="cls-1" d="M76.8,29h4.9v1.9h-7.3v-11.3h2.3v9.4Z"/>
        </g>
      </g>
    </g>
  </g>
</svg>