<?xml version="1.0" encoding="UTF-8"?>
<svg xmlns="http://www.w3.org/2000/svg" version="1.1" viewBox="0 0 100 100">
  <defs>
    <style>
      .cls-1 {
        fill: #ffe7b6;
      }

      .cls-2 {
        fill: #ffcf7b;
      }
    </style>
  </defs>
  <!-- Generator: Adobe Illustrator 28.6.0, SVG Export Plug-In . SVG Version: 1.2.0 Build 709)  -->
  <g>
    <g id="Layer_1">
      <g>
        <rect class="cls-1" x="6.4" y="16.6" width="87" height="14"/>
        <path class="cls-2" d="M46.1,25.4c-6.3,0-9-3.7-15.6-10.5H3.3v70.2h93.5V25.4h-50.6ZM46.1,33.4h11.7v3.9h-11.7v-3.9ZM46.1,41.2h11.7v3.9h-11.7v-3.9ZM46.1,49h11.7v3.9h-11.7v-3.9ZM51.9,79.9c-6.3,0-11-3.6-9.4-9.7l3.6-13.4h11.7l3.6,13.4c1.5,6.1-3.1,9.7-9.4,9.7ZM57.8,72.3c0,5-11.7,4.9-11.7,0s11.7-5.2,11.7,0Z"/>
      </g>
    </g>
  </g>
</svg>