<?xml version="1.0" encoding="utf-8"?>
<!DOCTYPE svg PUBLIC "-//W3C//DTD SVG 1.1//EN" "http://www.w3.org/Graphics/SVG/1.1/DTD/svg11.dtd">
<svg width="330px" height="330px" viewBox="0 0 250 250" version="1.1" xmlns="http://www.w3.org/2000/svg" >
  <g>
    <g id="XMLID_51_" opacity="0.4">
      <g id="XMLID_240_">
        <g id="XMLID_242_">
          <g id="XMLID_251_">
            <polygon
              id="XMLID_252_"
              fill="none"
              stroke="#1774B5"
              strokeWidth="1.5"
              strokeMiterlimit="10"
              points="205.294,130.258 
        194.82,112.104 205.294,93.951 226.24,93.951 236.713,112.104 226.24,130.258 					"
            />
          </g>
        </g>
      </g>
      <g id="XMLID_204_">
        <g id="XMLID_223_">
          <g id="XMLID_230_">
            <polygon
              id="XMLID_231_"
              fill="#E9F8FF"
              stroke="#1774B5"
              strokeWidth="1.5"
              strokeMiterlimit="10"
              points="168.987,109.311 
        158.514,91.158 168.987,73.004 189.934,73.004 200.406,91.158 189.934,109.311 					"
            />
          </g>
          <g id="XMLID_228_">
            <polygon
              id="XMLID_229_"
              fill="none"
              stroke="#1774B5"
              strokeWidth="1.5"
              strokeMiterlimit="10"
              points="168.987,67.418 
        158.514,49.265 168.987,31.112 189.934,31.112 200.406,49.265 189.934,67.418 					"
            />
          </g>
        </g>
        <g id="XMLID_206_">
          <g id="XMLID_215_">
            <polygon
              id="XMLID_216_"
              fill="none"
              stroke="#1774B5"
              strokeWidth="1.5"
              strokeMiterlimit="10"
              points="132.68,130.258 
        122.207,112.104 132.68,93.951 153.627,93.951 164.1,112.104 153.627,130.258 					"
            />
          </g>
          <g id="XMLID_213_">
            <polygon
              id="XMLID_214_"
              fill="#E9F8FF"
              stroke="#1774B5"
              strokeWidth="1.5"
              strokeMiterlimit="10"
              points="132.68,88.365 
        122.207,70.211 132.68,52.058 153.627,52.058 164.1,70.211 153.627,88.365 					"
            />
          </g>
        </g>
      </g>
      <g id="XMLID_168_">
        <g id="XMLID_187_">
          <g id="XMLID_196_">
            <polygon
              id="XMLID_197_"
              fill="#E9F8FF"
              stroke="#1774B5"
              strokeWidth="1.5"
              strokeMiterlimit="10"
              points="96.374,151.203 
        85.9,133.051 96.374,114.897 117.32,114.897 127.793,133.051 117.32,151.203 					"
            />
          </g>
          <g id="XMLID_194_">
            <polygon
              id="XMLID_195_"
              fill="none"
              stroke="#1774B5"
              strokeWidth="1.5"
              strokeMiterlimit="10"
              points="96.374,109.311 
        85.9,91.158 96.374,73.004 117.32,73.004 127.793,91.158 117.32,109.311 					"
            />
          </g>
          <g id="XMLID_192_">
            <polygon
              id="XMLID_193_"
              fill="none"
              stroke="#1774B5"
              strokeWidth="1.5"
              strokeMiterlimit="10"
              points="96.374,67.418 
        85.9,49.265 96.374,31.112 117.32,31.112 127.793,49.265 117.32,67.418 					"
            />
          </g>
        </g>
        <g id="XMLID_170_">
          <g id="XMLID_177_">
            <polygon
              id="XMLID_178_"
              fill="#E9F8FF"
              stroke="#1774B5"
              strokeWidth="1.5"
              strokeMiterlimit="10"
              points="60.066,88.365 
        49.594,70.211 60.066,52.058 81.013,52.058 91.486,70.211 81.013,88.365 					"
            />
          </g>
        </g>
      </g>
      <g id="XMLID_73_">
        <g id="XMLID_151_">
          <g id="XMLID_160_">
            <polygon
              id="XMLID_161_"
              fill="#E9F8FF"
              stroke="#1774B5"
              strokeWidth="1.5"
              strokeMiterlimit="10"
              points="23.76,151.203 
        13.287,133.051 23.76,114.897 44.706,114.897 55.18,133.051 44.706,151.203 					"
            />
          </g>
          <g id="XMLID_158_">
            <polygon
              id="XMLID_159_"
              fill="none"
              stroke="#1774B5"
              strokeWidth="1.5"
              strokeMiterlimit="10"
              points="23.76,109.311 
        13.287,91.158 23.76,73.004 44.706,73.004 55.18,91.158 44.706,109.311 					"
            />
          </g>
        </g>
      </g>
    </g>

    <line
      id="XMLID_23_"
      fill="none"
      stroke="#12519B"
      strokeWidth="1.5"
      strokeLinecap="round"
      strokeLinejoin="round"
      strokeMiterlimit="10"
      x1="28.605"
      y1="218.889"
      x2="216.105"
      y2="218.889"
    />
    <g>
      <path
        id="XMLID_5_"
        fill="#FFFFFF"
        d="M140.196,214.639c-1.605-1.734-3.591-3.217-6.091-4.348v-90.186l2.877-4.986
  c1.277-2.214-0.32-4.981-2.877-4.981l0,0h-1.75h-17.929c-1.834,0-3.321,1.487-3.321,3.321v96.832
  c-2.5,1.131-4.652,2.613-6.257,4.348h-0.084c-1.192,0-2.159,0.967-2.159,2.158v1.842h39.75v-1.842
  C142.355,215.605,141.389,214.639,140.196,214.639z"
      />

      <path
        id="XMLID_33_"
        fill="none"
        stroke="#12519B"
        strokeWidth="1.5"
        strokeLinecap="round"
        strokeLinejoin="round"
        strokeMiterlimit="10"
        d="
  M139.946,214.639c-1.605-1.734-3.591-3.217-6.091-4.348v-89.506c0-0.445,0.123-0.88,0.357-1.259l2.621-4.246
  c1.32-2.137-0.217-4.893-2.729-4.893l0,0h-1.75h-18.293c-1.771,0-3.207,1.436-3.207,3.207v96.696
  c-2.5,1.131-4.402,2.848-6.007,4.598h-0.084c-1.324,0-2.409,1.084-2.409,2.408v1.592h39.75v-2.092
  C142.105,215.605,141.139,214.639,139.946,214.639z"
      />
      <path
        id="XMLID_26_"
        fill="#5482B7"
        d="M132.663,213.48l-2.058-0.93v-70.912h-0.042c0-2.646-2.146-4.793-4.792-4.793
  c-2.172,0-4.004,1.447-4.591,3.43c-0.375-0.245-0.823-0.387-1.305-0.387c-1.099,0-2.022,0.74-2.305,1.75h-2.966v70.912
  l-2.058,0.93c-1.07,0.484-2.062,1.043-2.943,1.658h25.921C134.657,214.502,133.708,213.953,132.663,213.48z"
      />

      <path
        id="XMLID_94_"
        fill="none"
        stroke="#12519B"
        strokeWidth="1.5"
        strokeLinecap="round"
        strokeLinejoin="round"
        strokeMiterlimit="10"
        d="
  M132.663,213.48l-2.058-0.93v-70.912h-0.042c0-2.646-2.146-4.793-4.792-4.793c-2.172,0-4.004,1.447-4.591,3.43
  c-0.375-0.245-0.823-0.387-1.305-0.387c-1.099,0-2.022,0.74-2.305,1.75h-2.966v70.912l-2.058,0.93
  c-1.07,0.484-2.062,1.043-2.943,1.658h25.921C134.657,214.502,133.708,213.953,132.663,213.48z"
      />
      <circle
        id="XMLID_24_"
        fill="#5482B7"
        cx="119.23"
        cy="126.763"
        r="2.375"
      />

      <circle
        id="XMLID_50_"
        fill="none"
        stroke="#12519B"
        strokeWidth="1.5"
        strokeLinecap="round"
        strokeLinejoin="round"
        strokeMiterlimit="10"
        cx="119.23"
        cy="126.763"
        r="2.375"
      />
      <circle
        id="XMLID_4_"
        fill="#5482B7"
        cx="121.73"
        cy="101.513"
        r="4.125"
      />

      <circle
        id="XMLID_3_"
        fill="none"
        stroke="#12519B"
        strokeWidth="1.5"
        strokeLinecap="round"
        strokeLinejoin="round"
        strokeMiterlimit="10"
        cx="121.73"
        cy="101.513"
        r="4.125"
      />
      <circle
        id="XMLID_14_"
        fill="#5482B7"
        cx="126.98"
        cy="92.763"
        r="1.605"
      />

      <circle
        id="XMLID_8_"
        fill="none"
        stroke="#12519B"
        strokeWidth="1.5"
        strokeLinecap="round"
        strokeLinejoin="round"
        strokeMiterlimit="10"
        cx="126.98"
        cy="92.763"
        r="1.605"
      />
      <circle
        id="XMLID_28_"
        fill="#5482B7"
        cx="126.23"
        cy="120.763"
        r="1"
      />

      <circle
        id="XMLID_83_"
        fill="none"
        stroke="#12519B"
        strokeWidth="1.5"
        strokeLinecap="round"
        strokeLinejoin="round"
        strokeMiterlimit="10"
        cx="126.23"
        cy="120.763"
        r="1"
      />
      <circle
        id="XMLID_74_"
        fill="#12519B"
        cx="123.059"
        cy="165.342"
        r="0.797"
      />
      <circle
        id="XMLID_76_"
        fill="#12519B"
        cx="121.75"
        cy="176.783"
        r="2.488"
      />
      <circle
        id="XMLID_78_"
        fill="#12519B"
        cx="125"
        cy="189.533"
        r="1.105"
      />
    </g>
    <g>
      <path
        id="XMLID_13_"
        fill="#FFFFFF"
        d="M99.355,169.975v-37.586h-13.5v37.586c-11.75,3.01-20.625,13.93-20.625,26.789
  c0,8.996,4.445,16.875,11.124,22.125h33.003c6.679-5.25,10.873-13.129,10.873-22.125
  C120.23,183.904,111.355,172.984,99.355,169.975z"
      />

      <path
        id="XMLID_10_"
        fill="none"
        stroke="#12519B"
        strokeWidth="1.5"
        strokeLinecap="round"
        strokeLinejoin="round"
        strokeMiterlimit="10"
        d="
  M99.355,169.975v-37.586h-13.5v37.586c-11.75,3.01-20.625,13.93-20.625,26.789c0,8.996,4.445,16.875,11.124,22.125h33.003
  c6.679-5.25,10.873-13.129,10.873-22.125C120.23,183.904,111.355,172.984,99.355,169.975z"
      />
      <path
        id="XMLID_9_"
        fill="#769AC5"
        d="M114.68,186.639h-6.668c-0.106-1.398-1.272-2.5-2.698-2.5c-1.425,0-2.591,1.102-2.697,2.5
  h-0.273c-0.131-2.506-2.198-4.5-4.737-4.5c-0.798,0-1.548,0.199-2.208,0.547c-0.91-2.6-3.383-4.465-6.292-4.465
  c-3.21,0-5.889,2.27-6.523,5.289c-0.605-0.391-1.326-0.621-2.102-0.621c-2.098,0-3.802,1.668-3.869,3.75h-5.58
  c-1.425,3.121-2.176,6.564-2.176,10c0,7.205,3.17,13.926,8.71,18.5h30.58c5.54-4.574,8.71-11.295,8.71-18.5
  C116.855,193.203,116.104,189.76,114.68,186.639z"
      />

      <path
        id="XMLID_40_"
        fill="none"
        stroke="#12519B"
        strokeWidth="1.5"
        strokeLinecap="round"
        strokeLinejoin="round"
        strokeMiterlimit="10"
        d="
  M114.68,186.639h-6.668c-0.106-1.398-1.272-2.5-2.698-2.5c-1.425,0-2.591,1.102-2.697,2.5h-0.273
  c-0.131-2.506-2.198-4.5-4.737-4.5c-0.798,0-1.548,0.199-2.208,0.547c-0.91-2.6-3.383-4.465-6.292-4.465
  c-3.21,0-5.889,2.27-6.523,5.289c-0.605-0.391-1.326-0.621-2.102-0.621c-2.098,0-3.802,1.668-3.869,3.75h-5.58
  c-1.425,3.121-2.176,6.564-2.176,10c0,7.205,3.17,13.926,8.71,18.5h30.58c5.54-4.574,8.71-11.295,8.71-18.5
  C116.855,193.203,116.104,189.76,114.68,186.639z"
      />

      <path
        id="XMLID_91_"
        fill="none"
        stroke="#12519B"
        strokeWidth="1.5"
        strokeLinecap="round"
        strokeLinejoin="round"
        strokeMiterlimit="10"
        d="
  M82.908,187.352c-0.303-0.762-0.47-1.594-0.47-2.463c0-3.682,2.985-6.668,6.667-6.668c2.91,0,5.384,1.865,6.294,4.465"
      />

      <path
        id="XMLID_29_"
        fill="none"
        stroke="#12519B"
        strokeWidth="1.5"
        strokeLinecap="round"
        strokeLinejoin="round"
        strokeMiterlimit="10"
        d="
  M100.671,190.518"
      />

      <path
        id="XMLID_38_"
        fill="none"
        stroke="#12519B"
        strokeWidth="1.5"
        strokeLinecap="round"
        strokeLinejoin="round"
        strokeMiterlimit="10"
        d="
  M93.225,185.049c0.72-1.709,2.41-2.91,4.381-2.91c2.623,0,4.75,2.127,4.75,4.75"
      />

      <path
        id="XMLID_39_"
        fill="none"
        stroke="#12519B"
        strokeWidth="1.5"
        strokeLinecap="round"
        strokeLinejoin="round"
        strokeMiterlimit="10"
        d="
  M102.605,186.846c0-1.494,1.213-2.707,2.708-2.707c1.496,0,2.709,1.213,2.709,2.707"
      />
      <rect
        id="XMLID_41_"
        x="87.98"
        y="122.638"
        fill="#94B1D2"
        width="9.25"
        height="15.5"
      />

      <rect
        id="XMLID_34_"
        x="87.98"
        y="122.638"
        fill="none"
        stroke="#12519B"
        strokeWidth="1.5"
        strokeLinecap="round"
        strokeLinejoin="round"
        strokeMiterlimit="10"
        width="9.25"
        height="15.5"
      />
      <path
        id="XMLID_30_"
        fill="#D2DEEC"
        d="M100.23,132.139h-15c-1.656,0-3-1.344-3-3l0,0c0-1.657,1.344-3,3-3h15c1.657,0,3,1.343,3,3
  l0,0C103.23,130.795,101.888,132.139,100.23,132.139z"
      />

      <path
        id="XMLID_6_"
        fill="none"
        stroke="#12519B"
        strokeWidth="1.5"
        strokeLinecap="round"
        strokeLinejoin="round"
        strokeMiterlimit="10"
        d="
  M100.23,132.139h-15c-1.656,0-3-1.344-3-3l0,0c0-1.657,1.344-3,3-3h15c1.657,0,3,1.343,3,3l0,0
  C103.23,130.795,101.888,132.139,100.23,132.139z"
      />
      <circle
        id="XMLID_47_"
        fill="#769AC5"
        cx="96.543"
        cy="174.617"
        r="3.063"
      />
      <circle
        id="XMLID_46_"
        fill="#769AC5"
        cx="93.365"
        cy="148.689"
        r="1.385"
      />
      <circle
        id="XMLID_43_"
        fill="#769AC5"
        cx="90.723"
        cy="158.546"
        r="1.741"
      />

      <circle
        id="XMLID_42_"
        fill="none"
        stroke="#12519B"
        strokeWidth="1.5"
        strokeLinecap="round"
        strokeLinejoin="round"
        strokeMiterlimit="10"
        cx="96.543"
        cy="174.617"
        r="3.063"
      />

      <circle
        id="XMLID_44_"
        fill="none"
        stroke="#12519B"
        strokeWidth="1.5"
        strokeLinecap="round"
        strokeLinejoin="round"
        strokeMiterlimit="10"
        cx="93.365"
        cy="148.689"
        r="0.99"
      />

      <circle
        id="XMLID_45_"
        fill="none"
        stroke="#12519B"
        strokeWidth="1.5"
        strokeLinecap="round"
        strokeLinejoin="round"
        strokeMiterlimit="10"
        cx="90.723"
        cy="158.546"
        r="1.741"
      />
      <circle
        id="XMLID_54_"
        fill="#769AC5"
        cx="105.932"
        cy="178.298"
        r="0.757"
      />

      <circle
        id="XMLID_48_"
        fill="none"
        stroke="#12519B"
        strokeWidth="1.5"
        strokeLinecap="round"
        strokeLinejoin="round"
        strokeMiterlimit="10"
        cx="105.932"
        cy="178.298"
        r="0.757"
      />

      <circle
        id="XMLID_59_"
        fill="none"
        stroke="#12519B"
        strokeWidth="1.5"
        strokeLinecap="round"
        strokeLinejoin="round"
        strokeMiterlimit="10"
        cx="101.432"
        cy="180.548"
        r="0.198"
      />
      <circle
        id="XMLID_27_"
        fill="#12519B"
        cx="87.605"
        cy="202.889"
        r="0.75"
      />
      <circle
        id="XMLID_35_"
        fill="#12519B"
        cx="93.105"
        cy="208.889"
        r="1.594"
      />
      <circle
        id="XMLID_71_"
        fill="#12519B"
        cx="95.355"
        cy="200.139"
        r="0.75"
      />
      <circle
        id="XMLID_56_"
        fill="#12519B"
        cx="100.605"
        cy="208.139"
        r="0.844"
      />
    </g>
    <g>
      <path
        id="XMLID_31_"
        fill="#D2DEEC"
        d="M157.772,144.639h-15.833c-1.657,0-3-1.344-3-3l0,0c0-1.657,1.343-3,3-3h15.833
  c1.657,0,3,1.343,3,3l0,0C160.772,143.295,159.43,144.639,157.772,144.639z"
      />

      <path
        id="XMLID_11_"
        fill="none"
        stroke="#12519B"
        strokeWidth="1.5"
        strokeLinecap="round"
        strokeLinejoin="round"
        strokeMiterlimit="10"
        d="
  M157.772,144.639h-15.833c-1.657,0-3-1.344-3-3l0,0c0-1.657,1.343-3,3-3h15.833c1.657,0,3,1.343,3,3l0,0
  C160.772,143.295,159.43,144.639,157.772,144.639z"
      />
      <path
        id="XMLID_12_"
        fill="#FFFFFF"
        d="M156.605,176.639v-32h-13.5v32l-21.907,34.314c-2.119,3.328,0.219,7.686,4.165,7.686
  h48.775c3.945,0,6.389-4.357,4.27-7.686L156.605,176.639z"
      />

      <path
        id="XMLID_22_"
        fill="none"
        stroke="#12519B"
        strokeWidth="1.5"
        strokeLinecap="round"
        strokeLinejoin="round"
        strokeMiterlimit="10"
        d="
  M156.605,176.639v-32h-13.5v32l-21.907,34.314c-2.119,3.328,0.219,7.686,4.165,7.686h48.775c3.945,0,6.389-4.357,4.27-7.686
  L156.605,176.639z"
      />
      <path
        id="XMLID_25_"
        fill="#9BB6D5"
        d="M175.455,212.82l-8.797-13.854c-0.926-2.188-2.93-3.703-5.252-3.703
  c-1.186,0-2.288,0.395-3.207,1.072c-1.045-1.127-2.471-1.822-4.043-1.822c-2.205,0-4.122,1.365-5.104,3.375h-1.055
  c-1.049-1.16-2.495-1.875-4.092-1.875c-1.598,0-3.043,0.715-4.092,1.875h-0.441c-0.811,0.477-1.734,0.75-2.717,0.75
  s-1.907-0.273-2.718-0.75h-0.261l-9.527,14.934c-0.471,0.738-0.197,1.359-0.102,1.531c0.16,0.293,0.545,0.785,1.314,0.785h48.775
  c0.824,0,1.213-0.545,1.341-0.779C175.682,213.992,175.841,213.428,175.455,212.82z"
      />

      <path
        id="XMLID_36_"
        fill="none"
        stroke="#12519B"
        strokeWidth="1.5"
        strokeLinecap="round"
        strokeLinejoin="round"
        strokeMiterlimit="10"
        d="
  M175.455,212.82l-8.797-13.854c-0.926-2.188-2.93-3.703-5.252-3.703c-1.186,0-2.288,0.395-3.207,1.072
  c-1.045-1.127-2.471-1.822-4.043-1.822c-2.205,0-4.122,1.365-5.104,3.375h-1.055c-1.049-1.16-2.495-1.875-4.092-1.875
  c-1.598,0-3.043,0.715-4.092,1.875h-0.441c-0.811,0.477-1.734,0.75-2.717,0.75s-1.907-0.273-2.718-0.75h-0.261l-9.527,14.934
  c-0.471,0.738-0.197,1.359-0.102,1.531c0.16,0.293,0.545,0.785,1.314,0.785h48.775c0.824,0,1.213-0.545,1.341-0.779
  C175.682,213.992,175.841,213.428,175.455,212.82z"
      />
      <circle
        id="XMLID_62_"
        fill="#9BB6D5"
        cx="147.284"
        cy="188.005"
        r="2.513"
      />

      <circle
        id="XMLID_61_"
        fill="none"
        stroke="#12519B"
        strokeWidth="1.5"
        strokeLinecap="round"
        strokeLinejoin="round"
        strokeMiterlimit="10"
        cx="147.284"
        cy="188.005"
        r="2.513"
      />
      <circle
        id="XMLID_64_"
        fill="#9BB6D5"
        cx="155.922"
        cy="189.654"
        r="1.65"
      />

      <circle
        id="XMLID_63_"
        fill="none"
        stroke="#12519B"
        strokeWidth="1.5"
        strokeLinecap="round"
        strokeLinejoin="round"
        strokeMiterlimit="10"
        cx="155.922"
        cy="189.654"
        r="1.65"
      />
      <circle
        id="XMLID_88_"
        fill="#9BB6D5"
        cx="150.668"
        cy="174.326"
        r="1.313"
      />

      <circle
        id="XMLID_65_"
        fill="none"
        stroke="#12519B"
        strokeWidth="1.5"
        strokeLinecap="round"
        strokeLinejoin="round"
        strokeMiterlimit="10"
        cx="150.668"
        cy="174.326"
        r="1.313"
      />
      <circle
        id="XMLID_89_"
        fill="#12519B"
        cx="146.355"
        cy="203.639"
        r="1.594"
      />
      <circle
        id="XMLID_90_"
        fill="#12519B"
        cx="156.809"
        cy="207.342"
        r="0.797"
      />

      <circle
        id="XMLID_37_"
        fill="none"
        stroke="#12519B"
        strokeWidth="1.5"
        strokeLinecap="round"
        strokeLinejoin="round"
        strokeMiterlimit="10"
        cx="151.872"
        cy="159.53"
        r="0.517"
      />

      <circle
        id="XMLID_2_"
        fill="none"
        stroke="#12519B"
        strokeWidth="1.5"
        strokeLinecap="round"
        strokeLinejoin="round"
        strokeMiterlimit="10"
        cx="147.872"
        cy="147.78"
        r="0.517"
      />
    </g>
  </g>
</svg>
