<svg height="330" viewBox="0 0 330 330" width="330" xmlns="http://www.w3.org/2000/svg"><g opacity=".4" stroke="#71af66" stroke-miterlimit="5.28" stroke-width="1.32"><path d="m270.988 171.941-13.826-23.964 13.826-23.962h27.649l13.824 23.962-13.824 23.964z" fill="none"/><path d="m223.063 144.291-13.825-23.962 13.825-23.964h27.65l13.823 23.964-13.823 23.962z" fill="#edffe9"/><path d="m223.063 88.992-13.825-23.962 13.825-23.962h27.65l13.823 23.962-13.823 23.962z" fill="none"/><path d="m175.138 171.941-13.825-23.964 13.825-23.962h27.65l13.824 23.962-13.824 23.964z" fill="none"/><path d="m175.138 116.642-13.825-23.963 13.825-23.962h27.65l13.824 23.962-13.824 23.963z" fill="#edffe9"/><path d="m127.214 199.588-13.826-23.961 13.826-23.963h27.648l13.825 23.963-13.825 23.961z" fill="#edffe9"/><path d="m127.214 144.291-13.826-23.962 13.826-23.964h27.648l13.825 23.964-13.825 23.962z" fill="none"/><path d="m127.214 88.992-13.826-23.962 13.826-23.962h27.648l13.825 23.962-13.825 23.962z" fill="none"/><path d="m79.287 116.642-13.823-23.963 13.823-23.962h27.65l13.825 23.962-13.825 23.963z" fill="#edffe9"/><path d="m31.363 199.588-13.824-23.961 13.824-23.963h27.649l13.826 23.963-13.826 23.961z" fill="#edffe9"/><path d="m31.363 144.291-13.824-23.962 13.824-23.964h27.649l13.826 23.964-13.826 23.962z" fill="none"/></g><path d="m37.759 288.934h247.5" fill="none" stroke="#5d845d" stroke-miterlimit="5.28" stroke-width="1.32"/><path d="m185.059 283.324c-2.119-2.289-4.74-4.246-8.04-5.739v-119.046l3.798-6.582c1.686-2.922-.422-6.575-3.798-6.575h-25.976c-2.421 0-4.384 1.963-4.384 4.384v127.818c-3.3 1.493-6.141 3.449-8.259 5.739h-.111c-1.573 0-2.85 1.276-2.85 2.849v2.431h52.47v-2.431c0-1.573-1.275-2.849-2.85-2.849z" fill="#fff"/><path d="m184.729 283.324c-2.119-2.289-4.74-4.246-8.04-5.739v-118.148c0-.587.162-1.162.471-1.662l3.46-5.605c1.742-2.821-.286-6.459-3.602-6.459h-26.457c-2.338 0-4.233 1.896-4.233 4.233v127.639c-3.3 1.493-5.811 3.759-7.929 6.069h-.111c-1.748 0-3.18 1.431-3.18 3.179v2.101h52.47v-2.761c.001-1.572-1.274-2.847-2.849-2.847z" fill="none" stroke="#5d845d" stroke-miterlimit="5.28" stroke-width="1.32"/><path d="m175.115 281.794-2.717-1.228v-93.604h-.055c0-3.493-2.833-6.327-6.325-6.327-2.867 0-5.285 1.91-6.06 4.528-.495-.323-1.086-.511-1.723-.511-1.451 0-2.669.977-3.043 2.31h-3.915v93.604l-2.717 1.228c-1.412.639-2.722 1.377-3.885 2.189h34.216c-1.144-.84-2.397-1.564-3.777-2.189z" fill="#80a080"/><path d="m175.115 281.794-2.717-1.228v-93.604h-.055c0-3.493-2.833-6.327-6.325-6.327-2.867 0-5.285 1.91-6.06 4.528-.495-.323-1.086-.511-1.723-.511-1.451 0-2.669.977-3.043 2.31h-3.915v93.604l-2.717 1.228c-1.412.639-2.722 1.377-3.885 2.189h34.216c-1.144-.84-2.397-1.564-3.777-2.189z" fill="none" stroke="#5d845d" stroke-miterlimit="5.28" stroke-width="1.32"/><circle cx="157.384" cy="167.327" fill="#95b595" r="3.135"/><circle cx="157.384" cy="167.327" fill="none" r="3.135" stroke="#5d845d" stroke-miterlimit="5.28" stroke-width="1.32"/><circle cx="160.684" cy="133.997" fill="#95b595" r="5.445"/><circle cx="160.684" cy="133.997" fill="none" r="5.445" stroke="#5d845d" stroke-miterlimit="5.28" stroke-width="1.32"/><circle cx="167.614" cy="122.447" fill="#95b595" r="2.119"/><circle cx="167.614" cy="122.447" fill="none" r="2.119" stroke="#5d845d" stroke-miterlimit="5.28" stroke-width="1.32"/><circle cx="166.624" cy="159.407" fill="#95b595" r="1.32"/><circle cx="166.624" cy="159.407" fill="none" r="1.32" stroke="#5d845d" stroke-miterlimit="5.28" stroke-width="1.32"/><circle cx="162.438" cy="218.251" fill="#5d845d" r="1.052"/><circle cx="160.71" cy="233.354" fill="#5d845d" r="3.284"/><circle cx="165" cy="250.184" fill="#5d845d" r="1.459"/><path d="m131.149 224.367v-49.614h-17.82v49.614c-15.51 3.973-27.225 18.388-27.225 35.361 0 11.875 5.867 22.275 14.684 29.205h43.564c8.816-6.93 14.352-17.33 14.352-29.205 0-16.975-11.715-31.39-27.555-35.361z" fill="#fff"/><path d="m131.149 224.367v-49.614h-17.82v49.614c-15.51 3.973-27.225 18.388-27.225 35.361 0 11.875 5.867 22.275 14.684 29.205h43.564c8.816-6.93 14.352-17.33 14.352-29.205 0-16.975-11.715-31.39-27.555-35.361z" fill="none" stroke="#5d845d" stroke-miterlimit="5.28" stroke-width="1.32"/><path d="m151.378 246.363h-8.802c-.14-1.845-1.679-3.3-3.561-3.3s-3.42 1.455-3.56 3.3h-.36c-.173-3.308-2.901-5.94-6.253-5.94-1.053 0-2.043.263-2.915.722-1.201-3.432-4.466-5.894-8.305-5.894-4.237 0-7.773 2.996-8.61 6.981-.799-.516-1.75-.82-2.775-.82-2.769 0-5.019 2.202-5.107 4.95h-7.366c-1.881 4.12-2.872 8.664-2.872 13.2 0 9.511 4.184 18.382 11.497 24.42h40.366c7.313-6.038 11.497-14.909 11.497-24.42-.003-4.536-.994-9.08-2.874-13.2z" fill="#95b595"/><g fill="none" stroke="#5d845d" stroke-miterlimit="5.28" stroke-width="1.32"><path d="m151.378 246.363h-8.802c-.14-1.845-1.679-3.3-3.561-3.3s-3.42 1.455-3.56 3.3h-.36c-.173-3.308-2.901-5.94-6.253-5.94-1.053 0-2.043.263-2.915.722-1.201-3.432-4.466-5.894-8.305-5.894-4.237 0-7.773 2.996-8.61 6.981-.799-.516-1.75-.82-2.775-.82-2.769 0-5.019 2.202-5.107 4.95h-7.366c-1.881 4.12-2.872 8.664-2.872 13.2 0 9.511 4.184 18.382 11.497 24.42h40.366c7.313-6.038 11.497-14.909 11.497-24.42-.003-4.536-.994-9.08-2.874-13.2z"/><path d="m109.439 247.305c-.4-1.006-.62-2.104-.62-3.251 0-4.86 3.94-8.802 8.8-8.802 3.841 0 7.107 2.462 8.308 5.894"/><path d="m123.057 244.265c.95-2.256 3.181-3.841 5.783-3.841 3.462 0 6.27 2.808 6.27 6.27"/><path d="m135.439 246.637c0-1.972 1.601-3.573 3.575-3.573s3.576 1.601 3.576 3.573"/></g><path d="m116.134 161.882h12.21v20.46h-12.21z" fill="#95d294"/><path d="m116.134 161.882h12.21v20.46h-12.21z" fill="none" stroke="#5d845d" stroke-miterlimit="5.28" stroke-width="1.32"/><path d="m132.304 174.423h-19.8c-2.186 0-3.96-1.774-3.96-3.96 0-2.187 1.774-3.96 3.96-3.96h19.8c2.187 0 3.96 1.773 3.96 3.96 0 2.186-1.771 3.96-3.96 3.96z" fill="#d2ecd2"/><path d="m132.304 174.423h-19.8c-2.186 0-3.96-1.774-3.96-3.96 0-2.187 1.774-3.96 3.96-3.96h19.8c2.187 0 3.96 1.773 3.96 3.96 0 2.186-1.771 3.96-3.96 3.96z" fill="none" stroke="#5d845d" stroke-miterlimit="5.28" stroke-width="1.32"/><circle cx="127.437" cy="230.494" fill="#95b595" r="4.043"/><circle cx="123.242" cy="196.269" fill="#95b595" r="1.828"/><circle cx="119.754" cy="209.281" fill="#95b595" r="2.298"/><circle cx="127.437" cy="230.494" fill="none" r="4.043" stroke="#5d845d" stroke-miterlimit="5.28" stroke-width="1.32"/><circle cx="123.242" cy="196.269" fill="none" r="1.307" stroke="#5d845d" stroke-miterlimit="5.28" stroke-width="1.32"/><circle cx="119.754" cy="209.281" fill="none" r="2.298" stroke="#5d845d" stroke-miterlimit="5.28" stroke-width="1.32"/><circle cx="139.83" cy="235.353" fill="#95b595" r=".999"/><circle cx="139.83" cy="235.353" fill="none" r=".999" stroke="#5d845d" stroke-miterlimit="5.28" stroke-width="1.32"/><circle cx="133.89" cy="238.323" fill="none" r=".261" stroke="#5d845d" stroke-miterlimit="5.28" stroke-width="1.32"/><circle cx="115.639" cy="267.814" fill="#5d845d" r=".99"/><circle cx="122.899" cy="275.734" fill="#5d845d" r="2.104"/><circle cx="125.869" cy="264.184" fill="#5d845d" r=".99"/><circle cx="132.799" cy="274.744" fill="#5d845d" r="1.114"/><path d="m208.259 190.923h-20.9c-2.187 0-3.96-1.774-3.96-3.96 0-2.187 1.773-3.96 3.96-3.96h20.9c2.187 0 3.96 1.773 3.96 3.96 0 2.186-1.771 3.96-3.96 3.96z" fill="#d2ecd2"/><path d="m208.259 190.923h-20.9c-2.187 0-3.96-1.774-3.96-3.96 0-2.187 1.773-3.96 3.96-3.96h20.9c2.187 0 3.96 1.773 3.96 3.96 0 2.186-1.771 3.96-3.96 3.96z" fill="none" stroke="#5d845d" stroke-miterlimit="5.28" stroke-width="1.32"/><path d="m206.719 233.163v-42.24h-17.82v42.24l-28.917 45.294c-2.797 4.393.289 10.146 5.498 10.146h64.383c5.207 0 8.433-5.751 5.636-10.146z" fill="#fff"/><path d="m206.719 233.163v-42.24h-17.82v42.24l-28.917 45.294c-2.797 4.393.289 10.146 5.498 10.146h64.383c5.207 0 8.433-5.751 5.636-10.146z" fill="none" stroke="#5d845d" stroke-miterlimit="5.28" stroke-width="1.32"/><path d="m231.601 280.922-11.612-18.287c-1.222-2.888-3.868-4.888-6.933-4.888-1.566 0-3.02.521-4.233 1.415-1.379-1.488-3.262-2.405-5.337-2.405-2.911 0-5.441 1.802-6.737 4.455h-1.393c-1.385-1.531-3.293-2.475-5.401-2.475s-4.017.944-5.401 2.475h-.582c-1.071.63-2.289.99-3.586.99s-2.517-.36-3.588-.99h-.345l-12.576 19.713c-.622.974-.26 1.794-.135 2.021.211.387.719 1.036 1.734 1.036h64.383c1.088 0 1.601-.719 1.77-1.028.271-.484.48-1.229-.029-2.031z" fill="#a6d1a6"/><path d="m231.601 280.922-11.612-18.287c-1.222-2.888-3.868-4.888-6.933-4.888-1.566 0-3.02.521-4.233 1.415-1.379-1.488-3.262-2.405-5.337-2.405-2.911 0-5.441 1.802-6.737 4.455h-1.393c-1.385-1.531-3.293-2.475-5.401-2.475s-4.017.944-5.401 2.475h-.582c-1.071.63-2.289.99-3.586.99s-2.517-.36-3.588-.99h-.345l-12.576 19.713c-.622.974-.26 1.794-.135 2.021.211.387.719 1.036 1.734 1.036h64.383c1.088 0 1.601-.719 1.77-1.028.271-.484.48-1.229-.029-2.031z" fill="none" stroke="#5d845d" stroke-miterlimit="5.28" stroke-width="1.32"/><circle cx="194.415" cy="248.167" fill="#a6d1a6" r="3.317"/><circle cx="194.415" cy="248.167" fill="none" r="3.317" stroke="#5d845d" stroke-miterlimit="5.28" stroke-width="1.32"/><circle cx="205.817" cy="250.343" fill="#a6d1a6" r="2.178"/><circle cx="205.817" cy="250.343" fill="none" r="2.178" stroke="#5d845d" stroke-miterlimit="5.28" stroke-width="1.32"/><circle cx="198.882" cy="230.11" fill="#a6d1a6" r="1.733"/><circle cx="198.882" cy="230.11" fill="none" r="1.733" stroke="#5d845d" stroke-miterlimit="5.28" stroke-width="1.32"/><circle cx="193.189" cy="268.804" fill="#5d845d" r="2.104"/><circle cx="206.988" cy="273.691" fill="#5d845d" r="1.052"/><circle cx="200.471" cy="210.58" fill="none" r=".682" stroke="#5d845d" stroke-miterlimit="5.28" stroke-width="1.32"/><circle cx="195.191" cy="195.07" fill="none" r=".682" stroke="#5d845d" stroke-miterlimit="5.28" stroke-width="1.32"/></svg>