<?xml version="1.0" encoding="utf-8"?>
<!DOCTYPE svg PUBLIC "-//W3C//DTD SVG 1.1//EN" "http://www.w3.org/Graphics/SVG/1.1/DTD/svg11.dtd">
<svg
  version="1.1"
  xmlns="http://www.w3.org/2000/svg"
  width="200px"
  height="200px"
  viewport="0 0 200 200"
  style="opacity: 0.8"
>
  <g>
    <g>
      <path
        fill="#8BABCB"
        d="M126.012,42.444c-22.217-23.11-58.965-23.832-82.077-1.614c-0.337,0.325-0.672,0.655-1.001,0.988
  c-21.97,22.147-22.342,58.21-0.853,80.828c19.494,20.517,50.939,23.983,74.437,8.21l2.43-2.162l7.201,7.611l-2.158,2.324
  l34.484,35.875c1.084,1.123,2.869,1.16,3.994,0.08l10.457-10.057c1.125-1.085,1.16-2.871,0.08-3.994l-34.146-35.514l-2.122,1.964
  l-7.666-8l1.972-2.099C147.648,94.142,145.528,62.753,126.012,42.444z M112.943,112.587c-16.53,15.891-42.813,15.371-58.706-1.156
  C38.347,94.9,38.864,68.618,55.395,52.725c16.53-15.89,42.81-15.373,58.705,1.155c15.894,16.528,15.375,42.812-1.153,58.706
  C112.945,112.585,112.945,112.585,112.943,112.587z"
      />
    </g>
    <g>
      <g>
        <path
          fill="#8BABCB"
          d="M74.998,94.839c0,1.889,1.53,3.414,3.415,3.414c1.886,0,3.416-1.525,3.416-3.414
    c0-1.885-1.528-3.414-3.416-3.414C76.529,91.423,75,92.954,74.998,94.839L74.998,94.839z M84.429,81.951
    c4.801-2.646,7.242-6.481,7.242-11.397c0-8.442-6.66-12.226-13.261-12.226c-6.428,0-13.26,4.672-13.26,13.33
    c0,1.831,1.483,3.315,3.314,3.315c1.83,0,3.315-1.484,3.315-3.315c0-4.605,3.438-6.7,6.63-6.7c2.476,0,6.63,0.726,6.63,5.596
    c0,1.728-0.452,3.743-3.809,5.593c-2.28,1.25-6.136,4.494-6.136,8.702c0,1.831,1.483,3.313,3.314,3.313
    c1.83,0,3.315-1.481,3.315-3.313C81.728,84.232,83.037,82.717,84.429,81.951z"
        />
        <path
          fill="#8BABCB"
          d="M94.036,106.681c0,1.207,0.976,2.184,2.183,2.184c1.205,0,2.183-0.977,2.183-2.184
    c0-1.203-0.978-2.18-2.183-2.18C95.011,104.501,94.036,105.478,94.036,106.681L94.036,106.681z M100.062,98.447
    c3.067-1.688,4.626-4.142,4.626-7.28c0-5.395-4.255-7.812-8.472-7.812c-4.105,0-8.473,2.985-8.473,8.517
    c0,1.17,0.946,2.118,2.117,2.118c1.169,0,2.119-0.948,2.119-2.118c0-2.941,2.193-4.279,4.234-4.279
    c1.58,0,4.234,0.463,4.234,3.574c0,1.104-0.29,2.393-2.434,3.572c-1.457,0.801-3.92,2.871-3.92,5.561
    c0,1.17,0.947,2.117,2.117,2.117s2.118-0.947,2.118-2.117C98.335,99.906,99.171,98.937,100.062,98.447z"
        />
      </g>
    </g>
  </g>
</svg>
