<?xml version="1.0" encoding="UTF-8"?>
<svg id="Layer_1" xmlns="http://www.w3.org/2000/svg" version="1.1" viewBox="0 0 200 200">
  <!-- Generator: Adobe Illustrator 29.5.1, SVG Export Plug-In . SVG Version: 2.1.0 Build 141)  -->
  <path d="M126.012,42.444c-22.217-23.11-58.965-23.832-82.077-1.614-.337.325-.672.655-1.001.988-21.97,22.147-22.342,58.21-.853,80.828,19.494,20.517,50.939,23.983,74.437,8.21l2.43-2.162,7.201,7.611-2.158,2.324,34.484,35.875c1.084,1.123,2.869,1.16,3.994.08l10.457-10.057c1.125-1.085,1.16-2.871.08-3.994l-34.146-35.514-2.122,1.964-7.666-8,1.972-2.099c16.604-22.742,14.484-54.131-5.032-74.44ZM112.943,112.587c-16.53,15.891-42.813,15.371-58.706-1.156-15.89-16.531-15.373-42.813,1.158-58.706,16.53-15.89,42.81-15.373,58.705,1.155,15.894,16.528,15.375,42.812-1.153,58.706t-.004,0Z" fill="#95b595"/>
  <g>
    <path d="M74.998,94.839c0,1.889,1.53,3.414,3.415,3.414s3.416-1.525,3.416-3.414-1.528-3.414-3.416-3.414c-1.884-.002-3.413,1.529-3.415,3.414h0ZM84.429,81.951c4.801-2.646,7.242-6.481,7.242-11.397,0-8.442-6.66-12.226-13.261-12.226-6.428,0-13.26,4.672-13.26,13.33,0,1.831,1.483,3.315,3.314,3.315s3.315-1.484,3.315-3.315c0-4.605,3.438-6.7,6.63-6.7,2.476,0,6.63.726,6.63,5.596,0,1.728-.452,3.743-3.809,5.593-2.28,1.25-6.136,4.494-6.136,8.702,0,1.831,1.483,3.313,3.314,3.313s3.315-1.481,3.315-3.313c.005-.617,1.314-2.132,2.706-2.898Z" fill="#95b595"/>
    <path d="M94.036,106.681c0,1.207.976,2.184,2.183,2.184s2.183-.977,2.183-2.184-.978-2.18-2.183-2.18-2.183.977-2.183,2.18h0ZM100.062,98.447c3.067-1.688,4.626-4.142,4.626-7.28,0-5.395-4.255-7.812-8.472-7.812-4.105,0-8.473,2.985-8.473,8.517,0,1.17.946,2.118,2.117,2.118s2.119-.948,2.119-2.118c0-2.941,2.193-4.279,4.234-4.279,1.58,0,4.234.463,4.234,3.574,0,1.104-.29,2.393-2.434,3.572-1.457.801-3.92,2.871-3.92,5.561,0,1.17.947,2.117,2.117,2.117s2.118-.947,2.118-2.117c.007-.394.843-1.363,1.734-1.853Z" fill="#95b595"/>
  </g>
</svg>
