<?xml version="1.0" encoding="UTF-8"?>
<svg id="Layer_1" xmlns="http://www.w3.org/2000/svg" version="1.1" xmlns:xlink="http://www.w3.org/1999/xlink" viewBox="0 0 100 100">
  <!-- Generator: Adobe Illustrator 29.5.1, SVG Export Plug-In . SVG Version: 2.1.0 Build 141)  -->
  <defs>
    <clipPath id="clippath">
      <rect x="0" width="100" height="100" fill="none"/>
    </clipPath>
    <clipPath id="clippath-1">
      <rect y="0" width="100" height="100" fill="none"/>
    </clipPath>
  </defs>
  <g id="g53">
    <g id="g55">
      <g clip-path="url(#clippath)">
        <g id="g57">
          <path id="path63" d="M0,100h100V0H0v100Z" fill="#8064a2" fill-rule="evenodd"/>
        </g>
      </g>
    </g>
    <path id="path65" d="M8.636,69.743V23.03h12.427c4.631,0,7.658.222,9.081.668,2.273.723,4.148,2.263,5.624,4.621,1.476,2.358,2.215,5.395,2.215,9.113,0,3.377-.638,6.208-1.912,8.492-1.275,2.284-2.868,3.887-4.78,4.811-1.912.924-5.205,1.386-9.878,1.386h-5.067v17.621h-7.711ZM16.347,30.931v13.287h4.28c2.873,0,4.827-.201,5.861-.607,1.032-.404,1.878-1.134,2.54-2.187.66-1.055.989-2.347.989-3.882,0-1.554-.34-2.864-1.023-3.928-.681-1.065-1.522-1.78-2.522-2.141-1.002-.362-3.12-.543-6.356-.543h-3.769Z" fill="#fff"/>
    <path id="path67" d="M59.034,23.217c17.947.034,32.471,14.607,32.437,32.552-.034,17.887-14.52,32.385-32.413,32.432l-.021-8.041c13.508-.035,24.429-11.011,24.393-24.515-.035-13.462-10.947-24.363-24.413-24.388l.016-8.041Z" fill="#ffc000" fill-rule="evenodd"/>
    <path id="path69" d="M44.522,69.743h7.711V23.028h-7.711v46.714Z" fill="#ffc000"/>
    <g id="g71">
      <g clip-path="url(#clippath-1)">
        <g id="g73">
          <path id="path79" d="M44.392,20.212h7.704v-7.746h-7.704v7.746Z" fill="#ffc000" fill-rule="evenodd"/>
        </g>
      </g>
    </g>
    <path id="path81" d="M32.127,88.201h20v-7.947h-20v7.947Z" fill="#ffc000" fill-rule="evenodd"/>
  </g>
</svg>