<?xml version="1.0" encoding="utf-8"?>
<!-- Generator: Adobe Illustrator 27.8.1, SVG Export Plug-In . SVG Version: 6.00 Build 0)  -->
<svg version="1.1" id="Layer_1" xmlns="http://www.w3.org/2000/svg" xmlns:xlink="http://www.w3.org/1999/xlink" x="0px" y="0px"
	 viewBox="0 0 100 100" style="enable-background:new 0 0 100 100;" xml:space="preserve">
<style type="text/css">
	.st0{fill:#23BBB9;}
	.st1{fill:#FFFFFF;}
</style>
<rect y="0" class="st0" width="100" height="100"/>
<path class="st1" d="M85.4,50c-0.8-0.8-1.7-1.4-2.8-1.7c-1.7-0.6-3.3-1.1-5-1.7c-0.6-0.2-1.1-0.5-1.6-0.8c-0.4-0.3-0.5-0.8-0.5-1.2
	c0.2-0.7,0.6-1.1,1.3-1.3c0.8-0.2,1.7-0.2,2.5-0.2c0.8,0.1,1.6,0.4,2.2,0.9c0.1,0.1,0.2,0.2,0.4,0.2c0.9,0,1.7,0,2.7,0
	c0.3,0,0.5,0,0.8,0c0.4,0,0.5-0.3,0.4-0.6c-0.1-0.2-0.2-0.5-0.4-0.7c-0.7-1-1.6-1.6-2.7-2s-2.3-0.6-3.5-0.7c-1.4-0.1-2.7,0-3.9,0.3
	c-1,0.2-1.9,0.7-2.7,1.4c-0.6,0.5-1,1.1-1.2,1.9c-2.1-2.7-4.8-4.1-8.3-3.7c-3.4,0.5-5.8,2.3-7.2,5.5c0-0.1-0.1-0.2-0.1-0.2
	c-1.4-3.1-3.9-4.8-7.3-5.1c-1.8-0.2-3.6,0.2-5.1,1.2c-0.1,0.1-0.2,0.1-0.3,0c-0.4-0.3-0.8-0.5-1.1-0.7c-0.9-0.5-1.8-0.6-2.8-0.5
	c-0.9,0.2-1.7,0.5-2.4,1.1c-0.4,0.3-0.8,0.6-1.1,0.9c-0.1-0.1,0-0.2,0-0.2c0-0.5,0-0.9,0-1.4c0-0.4-0.2-0.5-0.5-0.5
	c-0.7,0-1.4,0-2.1,0c-0.5,0-0.8,0.2-0.8,0.8c0,1.5,0,3,0,4.5c0,0.2,0,0.2-0.2,0.3c-0.5,0.5-0.9,0.9-1.4,1.4c0,0-0.1,0.1-0.2,0.1
	c0-0.1,0-0.2,0-0.2c0-2,0-4.1,0-6.1c0-0.5-0.2-0.7-0.6-0.8c-0.8,0-1.5,0-2.3,0c-0.3,0-0.5,0.2-0.5,0.5c0,0.2,0,0.3,0,0.5
	c0,0.3-0.3,0.5-0.6,0.4c-0.1,0-0.2-0.1-0.2-0.1c-1.5-0.9-3.1-1.3-4.8-1.1c-2.1,0.2-4,0.9-5.5,2.4c-2.1,2.1-3,4.7-2.4,7.7
	c0.8,4.8,5.6,7.8,10.3,6.7c0.9-0.2,1.7-0.5,2.5-1c0.4-0.2,0.7,0,0.7,0.4c0,0.2,0,0.4,0,0.5c0,0.4,0.2,0.5,0.5,0.5c0.7,0,1.4,0,2.1,0
	c0.5,0,0.8-0.2,0.8-0.8c0-1.7,0-3.6,0-5.3c0-0.2,0.1-0.2,0.2-0.4c0.2-0.2,0.5-0.5,0.8-0.8c0.2-0.2,0.5-0.5,0.7-0.7
	c0,0.2,0,0.2,0,0.3c0,2.3,0,4.5,0,6.8c0,0.5,0.2,0.8,0.7,0.8c0.8,0,1.4,0,2.2,0c0.3,0,0.5-0.2,0.5-0.5c0-0.9,0-1.7,0-2.7
	c0-2.6,0-5.1,0-7.7c0-0.2,0.1-0.4,0.2-0.5c0.2-0.2,0.4-0.3,0.5-0.5c0.5-0.5,1.1-0.9,1.8-1.2c0.6-0.2,1.2-0.3,1.8-0.2
	c0.3,0.1,0.4,0.3,0.2,0.6c-0.8,1.4-1.1,3-1,4.5c0.2,2.3,1.1,4.3,2.7,5.9c2.8,2.6,6.9,3.1,10.1,1.2c0.3-0.2,0.4-0.2,0.5,0.2
	c1,1.9,0.8,4.1-0.6,5.8c-1.5,1.7-4.1,2.3-6.1,1.2c-1.7-0.8-2.6-2.3-2.8-4.1c0.1-0.5,0.1-0.6-0.3-0.6c-0.8,0-1.7,0-2.4,0
	c-0.4,0-0.5,0.2-0.5,0.5c0.1,1.2,0.4,2.3,0.9,3.4c1.7,3.3,5.3,5.1,8.9,4.6c2.1-0.3,3.9-1.3,5.3-3c2.2-2.7,2.7-5.7,1.4-8.9
	c-0.2-0.6-0.5-1.1-0.9-1.7c-0.1-0.2-0.2-0.3,0-0.5s0.2-0.4,0.4-0.6c0.2-0.3,0.3-0.6,0.5-0.9c1.7,4.1,5.9,6.1,9.7,5.3
	c1.8-0.4,3.4-1.2,4.7-2.6c1.7-1.9,2.6-4.1,2.4-6.7c0.1,0,0.1,0.1,0.2,0.1c0.8,0.5,1.5,0.9,2.3,1.1c1.5,0.5,3,1.1,4.6,1.6
	c0.5,0.2,1.1,0.5,1.6,0.8c0.3,0.6,0.4,1,0.3,1.6c-0.2,0.6-0.6,1-1.2,1.2s-1.2,0.2-1.9,0.2c-1.1-0.1-2-0.2-2.8-1
	c-0.2-0.1-0.3-0.2-0.5-0.2c-1.1,0-2.1,0-3.1,0c-0.1,0-0.2,0-0.3,0c-0.4,0.1-0.5,0.3-0.4,0.6c0.2,0.5,0.5,0.9,0.9,1.3
	c0.7,0.7,1.6,1.1,2.5,1.4c1.6,0.5,3.2,0.6,4.8,0.5c1.3-0.1,2.6-0.3,3.7-0.9c1.4-0.7,2.3-1.7,2.6-3.3C86.6,52.1,86.3,50.9,85.4,50z
	 M22.1,53.7c-3,0-5.1-2.4-5.1-5.2c0-2.7,2.3-5.1,5.1-5c2.9,0,5.1,2.3,5.1,5.1C27.2,51.4,25.1,53.8,22.1,53.7z M69.2,48.7
	c0,2.5-1.7,4.6-4.1,5.1s-5-0.9-5.8-3.3c-0.1-0.2-0.2-0.2-0.2-0.3c-0.4-0.2-0.8-0.3-1.2-0.4c-1.2-0.2-2.4-0.2-3.6,0.1
	c-0.2,0-0.3,0.1-0.5,0.2c-0.4,0.1-0.6,0.3-0.8,0.7c-0.8,1.8-2.2,2.9-4.2,3.1c-2.5,0.3-4.7-1.2-5.5-3.6c-0.9-2.8,1-5.9,3.9-6.5
	c2.3-0.5,4.6,0.7,5.7,2.9c0.1,0.2,0.2,0.4,0.5,0.5c0.5,0.2,1.1,0.3,1.7,0.4c1.2,0.1,2.3,0.1,3.6-0.2c0.1,0,0.2-0.1,0.3-0.1
	c0.3-0.1,0.5-0.3,0.7-0.6c0.8-1.7,2.3-2.7,4.2-3c2.7-0.3,5.1,1.6,5.5,4.2C69.2,48.1,69.2,48.4,69.2,48.7z"/>
</svg>

