<?xml version="1.0" encoding="utf-8"?>
<!-- Generator: Adobe Illustrator 27.9.0, SVG Export Plug-In . SVG Version: 6.00 Build 0)  -->
<svg version="1.1" id="Layer_1" xmlns="http://www.w3.org/2000/svg" xmlns:xlink="http://www.w3.org/1999/xlink" x="0px" y="0px"
	 viewBox="0 0 100 100" style="enable-background:new 0 0 100 100;" xml:space="preserve">
<style type="text/css">
	.st0{fill:#70A9DB;}
	.st1{fill:#FFFFFF;}
</style>
<rect class="st0" width="100" height="100"/>
<g>
	<g>
		<path class="st1" d="M17.4,53.4l1.1-0.4l36.7,15.1l26.4-12l0.9,0.3c0.7,0.2,1.2,0.7,1.3,1.4c0,0.7-0.4,1.2-1,1.5L56.6,71.3
			c-0.8,0.3-1.7,0.3-2.6,0l-36.8-15c-0.6-0.2-1.1-0.8-1.2-1.4C16.2,54.2,16.7,53.6,17.4,53.4z"/>
		<path class="st1" d="M17.4,46.9l1.3-0.5c3,1.3,36.5,14.6,36.5,14.6l26.1-11.5l1.3,0.4c0.7,0.2,1.2,0.7,1.3,1.4
			c0,0.7-0.4,1.2-1,1.5L56.6,64.4c-0.4,0.2-0.8,0.3-1.3,0.3c-0.4,0-0.8-0.1-1.2-0.2L17.3,49.8c-0.7-0.2-1.1-0.8-1.2-1.4
			C16.2,47.7,16.7,47.1,17.4,46.9z"/>
		<path class="st1" d="M82.9,45.9c-0.1,0-2.3,1.1-9.3,4.2c-1.5,0.7-3.1,1-4.7,1H40.4c-2.1,0-4.1-0.3-6.1-1c-9.3-3.5-16.9-7-17.2-7.1
			c-0.6-0.2-1-0.8-1-1.4c0.1-0.7,0.6-1.2,1.3-1.3l26.7-9.6c0.7-0.2,1.5-0.2,2.2,0l36.3,12.6c0.7,0.2,1.2,0.7,1.3,1.3
			C83.9,45.1,83.4,45.7,82.9,45.9L82.9,45.9z M45.3,33.9l-22,7.9c3.1,1.3,8,3.4,13.4,5.4c1.2,0.4,2.5,0.7,3.8,0.7c6.6,0,13-5,13.1-5
			c0.5-0.4,1.1-0.6,1.8-0.6l0,0c0.6,0,1.3,0.2,1.8,0.6c1.8,1.4,7.3,5,11.6,5c0.8,0,1.6-0.1,2.3-0.5c2.5-1,4.4-1.9,5.8-2.6L45.3,33.9
			z"/>
	</g>
</g>
</svg>
