<?xml version="1.0" encoding="utf-8"?>
<!-- Generator: Adobe Illustrator 27.9.0, SVG Export Plug-In . SVG Version: 6.00 Build 0)  -->
<svg version="1.1" id="Layer_1" xmlns="http://www.w3.org/2000/svg" xmlns:xlink="http://www.w3.org/1999/xlink" x="0px" y="0px"
	 viewBox="0 0 100 100" style="enable-background:new 0 0 100 100;" xml:space="preserve">
<style type="text/css">
	.st0{fill:#FFFFFF;}
	.st1{fill-rule:evenodd;clip-rule:evenodd;fill:#A3CC39;}
	.st2{fill-rule:evenodd;clip-rule:evenodd;fill:#40843E;}
	.st3{fill-rule:evenodd;clip-rule:evenodd;fill:#40853E;}
	.st4{fill-rule:evenodd;clip-rule:evenodd;fill:#19191A;}
</style>
<rect class="st0" width="100" height="100"/>
<g>
	<path class="st1" d="M43.2,50.3c1-1.1,1.9-2.2,2.9-3.3c0.2-0.2,0.3-0.5,0.3-0.8c0-1.8,0-3.6,0-5.4c0-0.3-0.1-0.6-0.3-0.8
		c-1.1-1-2.3-2.1-3.4-3.1c-0.2-0.2-0.5-0.3-0.8-0.3c-1.6,0-3.2,0-4.9,0c-0.4,0-0.5-0.1-0.5-0.5c0-1.8,0-3.7,0-5.5
		c0-0.4,0.1-0.5,0.5-0.5c1.6,0,3.3,0,4.9,0c0.5,0,0.5,0.2,0.5,0.6c0,1.6,0,3.2,0,4.8c0,0.3,0.1,0.5,0.3,0.7c1.1,1,2.2,1.9,3.2,2.9
		c0.2,0.2,0.5,0.3,0.8,0.3c1.9,0,3.7,0,5.6,0c0.4,0,0.6-0.1,0.8-0.4c0.6-0.6,1.1-1.2,1.7-1.9c0.2-0.2,0.3-0.5,0.3-0.8
		c0-1.6,0-3.2,0-4.8c0-0.5,0.1-0.6,0.6-0.6c1.6,0,3.2,0,4.8,0c0.5,0,0.6,0.1,0.6,0.6c0,1.8,0,3.6,0,5.3c0,0.5-0.1,0.6-0.6,0.6
		c-1.5,0-2.9,0-4.4,0c-0.5,0-0.8,0.1-1.1,0.5c-0.2,0.3-0.5,0.6-0.8,0.9c-0.8,0.7-1,1.5-1,2.5c0.1,1.5,0,3.1,0,4.6
		c0,0.3,0.1,0.6,0.3,0.8c0.8,0.7,1.5,1.4,2.3,2.2c0.2,0.2,0.5,0.3,0.8,0.3c1.4,0,2.8,0,4.2,0c0.4,0,0.5,0.1,0.5,0.5
		c0,1.6,0,3.3,0,4.9c0,0.4-0.1,0.5-0.5,0.5c-1.5,0-3,0-4.5,0c-0.4,0-0.5-0.1-0.5-0.5c0-1.4,0-2.9,0-4.3c0-0.3-0.1-0.6-0.3-0.8
		c-0.8-0.7-1.6-1.5-2.3-2.2C53.3,47,53.1,47,52.8,47c-1.8,0-3.6,0-5.4,0c-0.3,0-0.5,0.1-0.7,0.4c-0.8,0.9-1.6,1.8-2.4,2.6
		c-0.3,0.1-0.2,0.4-0.2,0.7c0,2.3,0,4.6,0,6.9c0,0.6,0,0.7-0.7,0.7c-2.2,0-4.5,0-6.7,0c-0.6,0-0.6-0.1-0.6-0.7c0-2.2,0-4.5,0-6.7
		c0-0.4,0.1-0.5,0.5-0.5c2,0,4,0,6,0C42.8,50.3,43,50.4,43.2,50.3z"/>
	<path class="st2" d="M47.9,80.3c-0.2-0.2-0.1-0.4-0.1-0.6c0-6.8,0-13.6,0-20.3c0-0.2,0.2-0.5-0.2-0.6c-0.3-0.1-0.6-0.1-0.8,0.2
		c-0.8,1-1.7,1.9-2.5,2.9c-0.2,0.2-0.2,0.4-0.2,0.7c0,1.5,0,3,0,4.5c0,0.4-0.1,0.6-0.5,0.5c-1.4,0-2.9,0-4.3,0
		c-0.3,0-0.5-0.1-0.5-0.4c0-1.6,0-3.2,0-4.9c0-0.4,0.2-0.5,0.5-0.5c1.2,0,2.5,0,3.7,0c0.3,0,0.5-0.1,0.7-0.3c0.9-1,1.8-2.1,2.7-3.1
		c0.2-0.2,0.3-0.4,0.3-0.7c0-1.9,0-3.9,0-5.8c0-0.5,0.1-0.6,0.6-0.6c2.1,0,4.2,0,6.2,0c0.5,0,0.6,0.1,0.6,0.6c0,1.9,0,3.7,0,5.6
		c0,0.4,0.1,0.6,0.4,0.8c0.4,0.3,0.7,0.6,1,0.9c0.9,1.1,2,1.5,3.4,1.3c1-0.1,1.9,0,2.9,0c0.3,0,0.5,0.1,0.5,0.4c0,1.6,0,3.2,0,4.9
		c0,0.3-0.1,0.5-0.4,0.5c-1.5,0-2.9,0-4.4,0c-0.4,0-0.5-0.1-0.4-0.5c0-1.3,0-2.6,0-4c0-0.3-0.1-0.5-0.3-0.7
		c-0.8-0.7-1.6-1.4-2.4-2.2c-0.3-0.3-0.7-0.2-1-0.2c-0.2,0-0.2,0.2-0.2,0.3c0,0.3,0,0.7,0,1c0,6.5,0,13.1,0,19.6
		c0,0.2,0.1,0.4-0.1,0.6c-0.3-0.3-0.2-0.6-0.2-1c0-6.4,0-12.8,0-19.2c0-1.3,0.1-1.2-1.2-1.2c-0.9,0-1.9,0-2.8,0
		c-0.7,0-0.8,0-0.8,0.8c0,3.6,0,7.1,0,10.7c0,3,0,6,0,9C48.1,79.7,48.1,80,47.9,80.3z"/>
	<path class="st2" d="M45.8,33.2c0-1,0-2,0-3c0-0.3-0.1-0.5-0.3-0.6c0,0-0.1-0.1-0.1-0.1c-0.8-0.7-1.5-1.6-2.4-1.9
		c-0.9-0.3-2-0.1-3-0.1c-0.8,0-1.6,0-2.4,0c-0.3,0-0.4-0.1-0.4-0.4c0-1.7,0-3.4,0-5c0-0.3,0.1-0.4,0.4-0.4c1.7,0,3.4,0,5,0
		c0.3,0,0.4,0.1,0.4,0.4c0,1.4,0,2.7,0,4.1c0,0.3,0.1,0.5,0.3,0.7c1,0.8,1.9,1.6,2.9,2.4c0.2,0.2,0.5,0.3,0.8,0.3c1.6,0,3.2,0,4.9,0
		c0.3,0,0.5-0.1,0.7-0.3c0.7-0.8,1.5-1.7,2.2-2.5c0.2-0.3,0.3-0.5,0.3-0.9c0-1.5,0-2.9,0-4.4c0-0.4,0.1-0.6,0.6-0.6
		c1.6,0,3.2,0,4.8,0c0.4,0,0.5,0.1,0.5,0.5c0,1.6,0,3.3,0,4.9c0,0.4-0.1,0.5-0.5,0.4c-1.5,0-2.9,0-4.4,0c-0.3,0-0.6,0.1-0.8,0.4
		c-0.8,1-1.7,1.9-2.6,2.9c-0.2,0.2-0.3,0.5-0.3,0.8c0,1.8,0,3.6,0,5.3c0,0.4-0.1,0.5-0.6,0.5c-1.8,0-3.7,0-5.5,0
		c-0.4,0-0.5-0.1-0.5-0.5C45.8,35.2,45.8,34.2,45.8,33.2z"/>
	<path class="st3" d="M42.5,43.3c0,1,0,2.1,0,3.2c0,0.5-0.1,0.6-0.6,0.6c-1.9,0-3.8,0-5.7,0c-0.4,0-0.6,0.1-0.9,0.3
		c-0.8,0.8-1.6,1.6-2.5,2.5c-0.2,0.2-0.3,0.4-0.3,0.8c0,1.4,0,2.7,0,4.1c0,0.4-0.1,0.5-0.5,0.5c-1.4,0-2.9,0-4.3,0
		c-0.4,0-0.5-0.1-0.5-0.5c0-1.6,0-3.2,0-4.8c0-0.4,0.1-0.5,0.5-0.5c1.4,0,2.8,0,4.2,0c0.3,0,0.5-0.1,0.7-0.3
		c0.9-0.9,1.8-1.8,2.7-2.6c0.2-0.2,0.3-0.3,0.3-0.6c0-2,0-3.9,0-5.9c0-0.2-0.1-0.4-0.2-0.6c-0.6-0.6-1.2-1.3-1.8-1.9
		c-0.2-0.2-0.4-0.3-0.8-0.3c-1.4,0-2.9,0-4.3,0c-0.4,0-0.5-0.1-0.5-0.5c0-1.6,0-3.2,0-4.8c0-0.4,0.1-0.5,0.5-0.5c1.5,0,2.9,0,4.4,0
		c0.4,0,0.5,0.1,0.5,0.5c0,1.3,0,2.6,0,3.9c0,0.3,0.1,0.5,0.3,0.8c0.8,0.9,1.7,1.8,2.5,2.7c0.2,0.2,0.4,0.3,0.7,0.3
		c1.7,0,3.4,0,5.2,0c0.4,0,0.6,0.1,0.5,0.5C42.4,41.2,42.5,42.3,42.5,43.3z"/>
	<path class="st2" d="M58,43.3c0-1,0-2.1,0-3.1c0-0.5,0.1-0.7,0.6-0.7c1.7,0,3.5,0,5.2,0c0.4,0,0.6-0.1,0.8-0.4
		c0.7-0.8,1.5-1.7,2.2-2.5c0.2-0.2,0.3-0.5,0.3-0.8c0-1.4,0-2.9,0-4.3c0-0.4,0.1-0.5,0.5-0.5c1.5,0,2.9,0,4.4,0
		c0.3,0,0.4,0.1,0.4,0.4c0,1.6,0,3.3,0,4.9c0,0.3-0.1,0.4-0.4,0.4c-1.3,0-2.6,0-4,0c-0.4,0-0.6,0.1-0.8,0.4
		c-0.7,0.8-1.4,1.5-2.1,2.3c-0.2,0.2-0.3,0.5-0.3,0.8c0,1.9,0,3.8,0,5.7c0,0.3,0.1,0.6,0.4,0.8c0.8,0.7,1.7,1.4,2.5,2.1
		c0.2,0.2,0.5,0.3,0.8,0.3c1.5,0,2.9,0,4.4,0c0.3,0,0.5,0.1,0.5,0.4c0,1.6,0,3.2,0,4.9c0,0.3-0.1,0.5-0.5,0.5c-1.5,0-2.9,0-4.4,0
		c-0.4,0-0.5-0.1-0.5-0.5c0-1.3,0-2.7,0-4c0-0.3-0.1-0.6-0.4-0.8c-1-0.8-2-1.7-2.9-2.5c-0.2-0.2-0.5-0.3-0.8-0.3c-1.8,0-3.6,0-5.4,0
		c-0.4,0-0.5-0.1-0.5-0.5C58,45.5,58,44.4,58,43.3z"/>
	<path class="st4" d="M47.9,80.3c0-1.8,0-3.6,0-5.4c0-5.2,0-10.4,0-15.5c0-0.5,0.1-0.7,0.6-0.6c1.3,0,2.6,0,3.9,0
		c0.5,0,0.6,0.1,0.6,0.6c0,6.1,0,12.3,0,18.4c0,0.8,0,1.7,0,2.5c-0.6,0.2-1.3,0.1-1.9,0.1C50.1,80.3,49,80.4,47.9,80.3z"/>
	<path class="st1" d="M28.6,46.3c-1,0-2,0-3,0c-0.4,0-0.5-0.1-0.5-0.5c0-1.9,0-3.9,0-5.8c0-0.4,0.1-0.4,0.5-0.4c2,0,4.1,0,6.1,0
		c0.4,0,0.5,0.1,0.5,0.5c0,1.9,0,3.8,0,5.7c0,0.4-0.1,0.5-0.5,0.5C30.7,46.3,29.7,46.3,28.6,46.3z"/>
	<path class="st1" d="M74.8,42.9c0,1,0,1.9,0,2.9c0,0.3-0.1,0.4-0.4,0.4c-1.8,0-3.6,0-5.3,0c-0.3,0-0.4-0.1-0.4-0.4
		c0-1.9,0-3.9,0-5.8c0-0.3,0.1-0.4,0.4-0.4c1.8,0,3.6,0,5.3,0c0.3,0,0.4,0.1,0.4,0.4C74.8,41,74.8,42,74.8,42.9z"/>
	<path class="st1" d="M46.4,22.6c0-0.8,0-1.7,0-2.5c0-0.3,0.1-0.4,0.4-0.4c1.5,0,3.1,0,4.6,0c0.3,0,0.4,0.1,0.4,0.4c0,1.7,0,3.4,0,5
		c0,0.3-0.1,0.4-0.4,0.4c-1.5,0-3.1,0-4.6,0c-0.3,0-0.4-0.1-0.4-0.4C46.4,24.2,46.4,23.4,46.4,22.6z"/>
	<path class="st1" d="M67.4,26.6c0,0.7,0,1.4,0,2.1c0,0.3-0.1,0.4-0.4,0.4c-1.3,0-2.6,0-3.8,0c-0.3,0-0.4-0.1-0.4-0.4
		c0-1.4,0-2.9,0-4.3c0-0.3,0.1-0.4,0.4-0.4c1.3,0,2.6,0,3.9,0c0.3,0,0.4,0.1,0.4,0.4C67.4,25.2,67.4,25.9,67.4,26.6z"/>
	<path class="st1" d="M66.5,56c0.6,0,1.3,0,1.9,0c0.3,0,0.5,0.1,0.5,0.4c0,1.3,0,2.6,0,3.9c0,0.3-0.1,0.4-0.4,0.4
		c-1.3,0-2.6,0-3.9,0c-0.3,0-0.4-0.1-0.4-0.4c0-1.3,0-2.6,0-3.9c0-0.3,0.1-0.4,0.4-0.4C65.2,56,65.9,56,66.5,56z"/>
	<path class="st1" d="M43.2,50.3c-0.2,0.2-0.4,0.1-0.6,0.1c-2,0-3.9,0-5.9,0c-0.5,0-0.6,0.1-0.6,0.6c0,2.2,0,4.4,0,6.5
		c0,0.5,0.1,0.6,0.6,0.6c2.3,0,4.5,0,6.8,0c0.5,0,0.6-0.1,0.6-0.6c-0.1-2.4,0.1-4.9-0.1-7.3c0-0.3,0.2-0.2,0.3-0.2
		c-0.2,0.2-0.2,0.5-0.2,0.8c0,2.4,0,4.8,0,7.2c0,0.4-0.1,0.6-0.6,0.6c-2.3,0-4.7,0-7,0c-0.4,0-0.6,0.1-0.6,0.5c0,0.9,0,1.8,0,2.6
		c0,0.4-0.1,0.5-0.5,0.5c-0.8,0-1.7,0-2.5,0c-0.3,0-0.5-0.1-0.5-0.4c0-1,0-1.9,0-2.9c0-0.4,0.2-0.4,0.5-0.4c0.8,0,1.6,0,2.4,0
		c0.4,0,0.5-0.1,0.5-0.6c0-2.3,0-4.6,0-6.9c0-0.5,0.1-0.6,0.6-0.6C38.8,50.3,41,50.3,43.2,50.3z"/>
	<path class="st1" d="M35.2,27.1c0,0.6,0,1.1,0,1.7c0,0.3-0.1,0.4-0.4,0.4c-1,0-2,0-3,0c-0.3,0-0.4-0.1-0.4-0.4c0-1.1,0-2.2,0-3.4
		c0-0.3,0.1-0.4,0.3-0.4c1,0,2.1,0,3.1,0c0.3,0,0.4,0.1,0.4,0.4C35.2,26,35.2,26.6,35.2,27.1z"/>
</g>
</svg>
