<?xml version="1.0" encoding="utf-8"?>
<!-- Generator: Adobe Illustrator 27.8.1, SVG Export Plug-In . SVG Version: 6.00 Build 0)  -->
<svg version="1.1" id="Layer_1" xmlns="http://www.w3.org/2000/svg" xmlns:xlink="http://www.w3.org/1999/xlink" x="0px" y="0px"
	 viewBox="0 0 100 100" style="enable-background:new 0 0 100 100;" xml:space="preserve">
<style type="text/css">
	.st0{fill:#00A82D;}
	.st1{fill:#FFFFFF;}
</style>
<rect y="0" class="st0" width="100" height="100"/>
<path class="st1" d="M38.4,35.5c0,0.6,0,1.6-0.6,2.2c-0.6,0.6-1.6,0.6-2.2,0.6h-6.4c-1.8,0-2.9,0-3.7,0.1c-0.4,0-0.9,0.2-1.1,0.3
	c-0.1,0-0.1,0,0,0l14.5-14.8c0,0,0.1,0,0,0c-0.1,0.2-0.3,0.7-0.3,1.1c-0.1,0.7-0.1,1.8-0.1,3.7V35.5z M52,80.2
	c-1.7-1.1-2.6-2.5-2.9-3.4c-0.3-0.8-0.5-1.8-0.5-2.7c0-4.1,3.4-7.5,7.6-7.5c1.2,0,2.2,1,2.2,2.2c0,0.8-0.4,1.5-1.1,1.9
	c-0.2,0.1-0.6,0.2-0.8,0.3c-0.2,0-1.2,0.1-1.6,0.5c-0.5,0.4-0.9,1-0.9,1.7c0,0.7,0.3,1.4,0.8,1.9c0.9,0.9,2.1,1.4,3.4,1.4
	c3.4,0,6.1-2.7,6.1-6.1c0-3-2-5.7-4.7-6.9c-0.4-0.2-1-0.3-1.6-0.5c-0.7-0.1-1.4-0.2-1.5-0.2c-2.1-0.2-7.3-1.9-7.7-6.5
	c0,0-1.5,7-4.6,8.9c-0.3,0.1-0.7,0.3-1.1,0.4c-0.4,0.1-0.9,0.1-1.1,0.1c-5,0.3-10.4-1.3-14.1-5.1c0,0-2.5-2-3.8-7.8
	c-0.3-1.4-0.9-3.9-1.2-6.2c-0.1-0.8-0.2-1.5-0.2-2.1c0-2.4,1.5-4.1,3.4-4.3c0,0,0.2,0,0.3,0c1.1,0,9.9,0,9.9,0c1.7,0,2.7-0.4,3.4-1
	c0.8-0.8,1-1.9,1-3.3c0,0,0-9.1,0-10.2c0,0,0-0.2,0-0.3c0.2-1.8,1.9-3.4,4.3-3.4c0,0,0.7,0,1.2,0c0.5,0,1.1,0,1.6,0.1
	c0.4,0,0.7,0.1,1.3,0.3c3,0.7,3.7,3.8,3.7,3.8s5.7,1,8.6,1.5c2.7,0.5,9.5,0.9,10.8,7.8c3,16.2,1.2,32,1,32
	C70.8,82.8,58.1,82,58.1,82C55.4,82,53.3,81.1,52,80.2z M63.4,47.6c-1.6-0.1-3,0.5-3.5,1.7c-0.1,0.2-0.2,0.5-0.1,0.7
	c0,0.1,0.1,0.2,0.2,0.2c0.6,0.3,1.6,0.4,3,0.6c1.4,0.1,2.4,0.2,3.1,0.1c0.1,0,0.2,0,0.3-0.2c0.1-0.1,0-0.4,0-0.7
	C66.3,48.7,65.1,47.8,63.4,47.6z"/>
</svg>
