<?xml version="1.0" encoding="utf-8"?>
<!-- Generator: Adobe Illustrator 27.8.1, SVG Export Plug-In . SVG Version: 6.00 Build 0)  -->
<svg version="1.1" id="Layer_1" xmlns="http://www.w3.org/2000/svg" xmlns:xlink="http://www.w3.org/1999/xlink" x="0px" y="0px"
	 viewBox="0 0 100 100" style="enable-background:new 0 0 100 100;" xml:space="preserve">
<style type="text/css">
	.st0{fill:#9C131E;}
	.st1{fill-rule:evenodd;clip-rule:evenodd;fill:#FFFFFF;}
</style>
<rect y="0" class="st0" width="100" height="100"/>
<path class="st1" d="M82.4,62.3C82.1,55,74.2,57,72,52.5c-2.1-4.3,1.5-5.8,1.5-10.6c0-5.7-4.7-10.3-10.5-10.3c-7.5,0-7.4,6.2-13,6.2
	h0c-5.7,0-5.6-6.2-13-6.2c-5.8,0-10.5,4.6-10.5,10.3c0,4.8,3.6,6.3,1.5,10.6C25.8,57,17.9,55,17.6,62.3c-0.1,3.4,2.8,6.2,6.2,6.2
	s6.3-2.8,6.2-6.2c0-2.8-1.9-3.8-1.3-7.1h0c0.6-2.8,3.6-5.1,7.4-5.6c4.3-0.5,9.3,1.6,9.3,6.4c0,3-1.8,3.4-1.8,6.3
	c0,3.3,2.7,6.2,6.2,6.2s6.2-2.9,6.2-6.2c0-3-1.8-3.4-1.8-6.3c0-4.8,4.9-6.9,9.3-6.4c3.9,0.5,6.9,2.9,7.4,5.6h0
	c0.7,3.3-1.2,4.3-1.3,7.1c0,3.4,2.8,6.2,6.2,6.2C79.6,68.4,82.5,65.7,82.4,62.3L82.4,62.3z M50,52c-3.4,0-6.2-2.8-6.2-6.2
	c0-3.4,2.8-6.2,6.2-6.2c3.4,0,6.2,2.8,6.2,6.2C56.2,49.2,53.5,52,50,52z"/>
</svg>
