<?xml version="1.0" encoding="utf-8"?>
<!-- Generator: Adobe Illustrator 27.8.1, SVG Export Plug-In . SVG Version: 6.00 Build 0)  -->
<svg version="1.1" id="Layer_1" xmlns="http://www.w3.org/2000/svg" xmlns:xlink="http://www.w3.org/1999/xlink" x="0px" y="0px"
	 viewBox="0 0 100 100" style="enable-background:new 0 0 100 100;" xml:space="preserve">
<style type="text/css">
	.st0{fill:#363636;}
	.st1{fill:#FFFFFF;}
</style>
<rect y="0" class="st0" width="100" height="100"/>
<g>
	<path class="st1" d="M73.5,61.3c-2.3,1.5-4.8,2.6-7.4,3.5c-1,0.4-1.9,0.7-2.9,1c-0.2-1-0.4-1.9-0.6-2.8c-0.8-3.6-2.7-6.5-6.2-7.9
		c-2.2-0.9-3.2-2.5-3.5-4.8c-0.2-2-0.4-4.1,0.1-6.1c0.1-0.2,0.1-0.4,0.2-0.7c0.6-1.6,1.3-2.1,2.9-1.8c1.5,0.3,3.1,0.6,4.6,1.2
		c1.6,0.6,3.2,1.4,4.8,2.2c4.3,2.2,6.8,5.8,7.9,10.4c0.3,1.5,0.4,3,0.7,4.5C74,60.8,73.8,61.1,73.5,61.3L73.5,61.3z M56.2,65.1
		c-1,2.5-2.6,4.4-5,5.7c-0.9,0.5-1.8,0.4-2.6-0.1c-2.3-1.3-3.9-3.2-4.8-5.7c-0.4-1.1-0.1-1.9,1-2.5c1.6-0.9,3.4-1.2,5.9-1.3
		c0.8,0.2,2.2,0.5,3.6,0.9c0.4,0.1,0.9,0.4,1.2,0.7C56.4,63.4,56.6,64.1,56.2,65.1L56.2,65.1z M37.5,62.9c-0.2,0.9-0.4,1.8-0.6,2.8
		c-1.6-0.6-3.2-1.1-4.7-1.8c-1.9-0.9-3.7-1.9-5.6-2.9c-0.4-0.2-0.5-0.5-0.5-0.9c0.2-3.6,1.2-6.9,3.1-10c0.8-1.3,1.9-2.4,3.2-3.3
		c3.4-2.4,7.1-4,11.1-4.8c0.2,0,0.5-0.1,0.7-0.1c1.9-0.1,2.6,0.3,3.1,2.1c0.7,2.3,0.4,4.7,0,7.1c-0.3,1.9-1.2,3.3-3.1,3.9
		c-0.1,0-0.2,0.1-0.4,0.2C40.3,56.5,38.4,59.3,37.5,62.9L37.5,62.9z M72.3,40.5c-0.1-0.2-0.2-0.6-0.2-0.8c0.1-1.2,0.1-2.4,0.3-4
		c-0.1-1.7-0.2-3.8-0.5-5.9c-0.2-1.3-0.6-2.6-1.1-3.9c-0.4-1.1-1.1-1.4-2.2-1.1c-0.9,0.2-1.7,0.5-2.5,0.9c-3.7,1.9-6.8,4.6-9,8.1
		c-0.2,0.4-0.5,0.5-0.9,0.5c-1.6-0.1-3.2-0.3-4.8-0.3c-2.3,0-4.7,0.1-7,0.2c-0.4,0-0.6-0.1-0.9-0.5c-2.2-3.6-5.1-6.3-8.8-8.3
		c-0.8-0.4-1.7-0.7-2.6-0.9c-1.1-0.3-1.7,0-2.3,1c-0.3,0.6-0.6,1.3-0.7,2c-1,3.8-1.1,7.7-0.9,11.7c0,0.3,0,0.7-0.2,1
		c-2.9,5.5-4.9,11.3-5.9,17.4c-0.4,2.3,0.2,4.3,2.3,5.6c0.9,0.6,1.7,1.2,2.6,1.7c3.2,1.8,6.6,3,10.1,4.2c0.2,0.1,0.5,0.2,0.7,0.4
		c2.8,2.8,6.2,4.8,10,5.9c1,0.3,2.1,0.5,3,0.3c4.2-0.9,7.9-2.9,11.1-5.8c0.3-0.3,0.7-0.5,1.1-0.7c1.9-0.7,3.8-1.2,5.6-2
		c2.7-1,5.3-2.2,7.6-4.1c0.9-0.7,1.7-1.6,1.8-2.8c0-1.1,0-2.2-0.1-3.3C76.9,51.2,75,45.7,72.3,40.5L72.3,40.5z"/>
</g>
</svg>
