<?xml version="1.0" encoding="utf-8"?>
<!-- Generator: Adobe Illustrator 27.9.0, SVG Export Plug-In . SVG Version: 6.00 Build 0)  -->
<svg version="1.1" id="Layer_1" xmlns="http://www.w3.org/2000/svg" xmlns:xlink="http://www.w3.org/1999/xlink" x="0px" y="0px"
	 viewBox="0 0 100 100" style="enable-background:new 0 0 100 100;" xml:space="preserve">
<style type="text/css">
	.st0{fill:#189ACB;}
	.st1{fill-rule:evenodd;clip-rule:evenodd;fill:#FFFFFF;}
</style>
<rect class="st0" width="100" height="100"/>
<g>
	<path class="st1" d="M28.5,45.8c1.2,0,2.3,0,3.4,0c0.5,0,0.5,0.3,0.6,0.6c1,3,2.1,6,3,9.2c0.4-1.4,0.8-2.6,1.1-3.9
		c0.5-1.8,1.1-3.5,1.5-5.3c0.2-0.6,0.4-0.7,1-0.7c0.8,0,1.7,0,2.5,0c0.4,0,0.5,0.1,0.3,0.5c-1.8,4.7-3.3,9.5-5.4,14
		c-1,2-2.3,3.7-4.4,4.7c-1.7,0.8-1.7,0.8-2.2-0.9c-0.1-0.4-0.4-0.9-0.3-1.3c0.1-0.4,0.8-0.4,1.2-0.6c1-0.6,1.8-1.3,2.4-2.2
		c0.4-0.6,0.4-1.1,0.2-1.8c-1.6-3.8-3.1-7.7-4.6-11.5C28.8,46.4,28.7,46.2,28.5,45.8z"/>
	<path class="st1" d="M78.1,51.5c0-2.3,0-4.7,0-7c0-0.7-0.1-0.9-0.9-0.9c-1.3,0.1-2.5,0-3.8,0c-0.6,0-0.7-0.2-0.7-0.7
		c0.1-0.7-0.3-1.6,0.1-2.1c0.4-0.5,1.4-0.1,2.1-0.1c3.7,0,7.5,0,11.2,0c0.6,0,0.9,0.1,0.8,0.8c-0.1,0.7,0.3,1.6-0.2,2
		c-0.4,0.5-1.3,0.1-2,0.1c-0.8,0-1.6,0.1-2.4,0c-0.8-0.1-0.9,0.2-0.9,0.9c0,4.7,0,9.4,0,14.2c0,0.7-0.2,0.9-0.9,0.8
		c-0.7-0.1-1.3,0-2,0c-0.5,0-0.7-0.1-0.7-0.7C78.2,56.3,78.1,53.9,78.1,51.5C78.1,51.5,78.1,51.5,78.1,51.5z"/>
	<path class="st1" d="M56.9,59c-0.5-1.8-1-3.5-1.4-5.3c-0.4-1.4-1-2.5-2.5-3.2c2.7-1.3,3.7-3.1,3.3-5.7c-0.4-2.3-2-3.7-4.8-4.1
		c-2.4-0.3-4.8-0.2-7.2,0.1c-0.5,0.1-0.6,0.2-0.6,0.7c0,2.1,0,4.1,0,6.2c0,3.7,0,7.4,0,11.1c0,0.6,0.2,0.8,0.7,0.7
		c0.7-0.1,1.4,0,2.1,0c0.5,0,0.7-0.2,0.6-0.7c0-1.7,0-3.5,0-5.2c0-1.9,0-1.9,1.9-1.9c1.3,0,2.3,0.6,2.7,1.9c0.2,0.5,0.3,1,0.4,1.5
		c0.3,1.3,0.6,2.5,1,3.7c0.1,0.3,0.2,0.6,0.6,0.6c0.9,0,1.9,0,2.8,0C56.9,59.4,57,59.4,56.9,59z M51.2,48.7
		c-1.2,0.6-2.5,0.4-3.7,0.4c-0.4,0-0.3-0.3-0.3-0.5c0-0.8,0-1.6,0-2.5c0-0.8,0-1.5,0-2.3c0-0.4,0.1-0.7,0.6-0.7c1-0.1,2-0.1,3,0.1
		c1.3,0.3,2,1.2,2.2,2.4C53,47.1,52.4,48.2,51.2,48.7z"/>
	<path class="st1" d="M74.4,58.8c-1.9-5.9-3.8-11.7-5.7-17.6c-0.1-0.5-0.4-0.6-0.8-0.6c-1,0-2.1,0-3.1,0c-0.6,0-0.8,0.2-0.9,0.7
		c-0.6,1.9-1.2,3.9-1.8,5.8c-1.2,3.8-2.4,7.7-3.7,11.5c-0.2,0.6-0.2,0.9,0.6,0.8c0.7-0.1,1.4,0,2.2,0c0.5,0,0.7-0.2,0.8-0.7
		c0.4-1.4,0.8-2.8,1.2-4.1c0.1-0.4,0.2-0.6,0.7-0.5c1.6,0,3.3,0,4.9,0c0.4,0,0.5,0.1,0.7,0.5c0.3,1,0.6,2.1,1,3.1
		c0.6,1.8,0.6,1.8,2.4,1.8c0.4,0,0.8,0,1.2,0C74.4,59.5,74.6,59.4,74.4,58.8z M64.2,51.5c-0.6,0-0.3-0.3-0.2-0.6
		c0.7-2.4,1.5-4.8,2.1-7.3c0.7,2.6,1.6,5.2,2.4,7.8C67.1,51.5,65.7,51.5,64.2,51.5z"/>
	<path class="st1" d="M27.5,45.4c-0.2-2.3-1.8-4-4.3-4.6c-2.5-0.6-5.1-0.3-7.6-0.1c-0.6,0.1-0.8,0.3-0.7,0.9c0,2.8,0,5.6,0,8.4
		c0,0,0,0,0,0c0,1.4,0,2.9,0,4.3c0,1.4,0,2.9,0,4.3c0,0.6,0.2,0.8,0.8,0.8c0.7,0,1.4,0,2.1,0c0.5,0,0.6-0.1,0.6-0.6
		c0-1.9,0-3.8,0-5.7c0-0.6,0.1-0.7,0.7-0.7c1.8,0.2,3.5,0,5.1-0.8C26.6,50.5,27.7,48.4,27.5,45.4z M21.3,49.6
		c-0.8,0.2-1.5,0.2-2.3,0.1c-0.5-0.1-0.7-0.2-0.7-0.8c0-1.6,0-3.3,0-4.9c0-0.6,0.2-0.8,0.8-0.8c0.4,0,0.7-0.1,1.1-0.1
		c0.3,0,0.6,0.1,1,0.1c1.8,0.3,2.8,1.2,2.9,2.9C24.1,47.9,23.1,49.2,21.3,49.6z"/>
</g>
</svg>
