<?xml version="1.0" encoding="utf-8"?>
<!-- Generator: Adobe Illustrator 27.8.1, SVG Export Plug-In . SVG Version: 6.00 Build 0)  -->
<svg version="1.1" id="Layer_1" xmlns="http://www.w3.org/2000/svg" xmlns:xlink="http://www.w3.org/1999/xlink" x="0px" y="0px"
	 viewBox="0 0 100 100" style="enable-background:new 0 0 100 100;" xml:space="preserve">
<style type="text/css">
	.st0{fill:#4A154B;}
	.st1{fill:#FFFFFF;}
</style>
<rect y="0" class="st0" width="100" height="100"/>
<g>
	<g>
		<path class="st1" d="M35.8,56.4c0,2.8-2.3,5.1-5.1,5.1s-5.1-2.3-5.1-5.1c0-2.8,2.3-5.1,5.1-5.1h5.1V56.4z"/>
		<path class="st1" d="M38.4,56.4c0-2.8,2.3-5.1,5.1-5.1c2.8,0,5.1,2.3,5.1,5.1v12.8c0,2.8-2.3,5.1-5.1,5.1s-5.1-2.3-5.1-5.1
			C38.4,69.3,38.4,56.4,38.4,56.4z"/>
	</g>
	<g>
		<path class="st1" d="M43.6,35.8c-2.8,0-5.1-2.3-5.1-5.1s2.3-5.1,5.1-5.1c2.8,0,5.1,2.3,5.1,5.1v5.1H43.6z"/>
		<path class="st1" d="M43.6,38.4c2.8,0,5.1,2.3,5.1,5.1c0,2.8-2.3,5.1-5.1,5.1H30.7c-2.8,0-5.1-2.3-5.1-5.1s2.3-5.1,5.1-5.1
			C30.7,38.4,43.6,38.4,43.6,38.4z"/>
	</g>
	<g>
		<path class="st1" d="M64.2,43.6c0-2.8,2.3-5.1,5.1-5.1s5.1,2.3,5.1,5.1c0,2.8-2.3,5.1-5.1,5.1h-5.1V43.6z"/>
		<path class="st1" d="M61.6,43.6c0,2.8-2.3,5.1-5.1,5.1c-2.8,0-5.1-2.3-5.1-5.1V30.7c0-2.8,2.3-5.1,5.1-5.1c2.8,0,5.1,2.3,5.1,5.1
			V43.6z"/>
	</g>
	<g>
		<path class="st1" d="M56.4,64.2c2.8,0,5.1,2.3,5.1,5.1s-2.3,5.1-5.1,5.1c-2.8,0-5.1-2.3-5.1-5.1v-5.1H56.4z"/>
		<path class="st1" d="M56.4,61.6c-2.8,0-5.1-2.3-5.1-5.1c0-2.8,2.3-5.1,5.1-5.1h12.8c2.8,0,5.1,2.3,5.1,5.1c0,2.8-2.3,5.1-5.1,5.1
			H56.4z"/>
	</g>
</g>
</svg>
