<?xml version="1.0" encoding="utf-8"?>
<!-- Generator: Adobe Illustrator 27.9.0, SVG Export Plug-In . SVG Version: 6.00 Build 0)  -->
<svg version="1.1" id="Layer_1" xmlns="http://www.w3.org/2000/svg" xmlns:xlink="http://www.w3.org/1999/xlink" x="0px" y="0px"
	 viewBox="0 0 100 100" style="enable-background:new 0 0 100 100;" xml:space="preserve">
<style type="text/css">
	.st0{fill:#0067C9;}
	.st1{fill:#FFFFFF;}
</style>
<rect class="st0" width="100" height="100"/>
<g>
	<path class="st1" d="M88.7,45.3c-0.4-0.9-0.9-1.6-1.5-2.2c-0.6-0.6-1.4-1.1-2.2-1.5C84,41.1,83.1,41,82.2,41c-1,0-1.9,0.2-2.8,0.5
		c-0.4,0.2-0.8,0.4-1.2,0.6c-0.4,0.3-0.7,0.5-1.1,0.9c-0.2,0.2-0.4,0.4-0.6,0.6c-0.2,0.2-0.4,0.6-0.5,0.8c-0.2,0.2-0.5,1-0.7,1.5
		c0-0.9,0.2-2.2,0.7-2.9v-6.4c0-0.4-0.2-0.8-0.5-1.1c-0.3-0.3-0.6-0.4-1-0.4c-0.4,0-0.8,0.1-1.1,0.4c-0.3,0.3-0.4,0.6-0.4,1.1v5.7
		c-0.6-0.4-1.2-0.7-1.9-1C70.5,41.1,69.8,41,69,41c-1,0-1.9,0.2-2.7,0.5c-0.9,0.4-1.6,0.9-2.2,1.5c-0.6,0.6-1.1,1.4-1.5,2.2
		c0,0.1-0.1,0.1-0.1,0.2c0-0.1-0.1-0.1-0.1-0.2c-0.4-0.9-0.9-1.6-1.5-2.2c-0.6-0.6-1.4-1.1-2.2-1.5c-0.9-0.4-1.8-0.5-2.7-0.5
		c-1,0-1.9,0.2-2.8,0.5c-0.9,0.4-1.6,0.9-2.2,1.5c-0.7,0.6-1.2,1.4-1.5,2.2c0,0.1,0,0.1-0.1,0.2c0-0.1,0-0.1-0.1-0.2
		c-0.4-0.9-0.9-1.6-1.5-2.2c-0.6-0.6-1.4-1.1-2.2-1.5c-0.9-0.4-1.8-0.5-2.7-0.5c-1,0-1.9,0.2-2.8,0.5c-0.8,0.4-1.6,0.9-2.2,1.5
		c-0.7,0.6-1.2,1.4-1.5,2.2c0,0.1,0,0.1-0.1,0.2c0-0.1,0-0.1-0.1-0.2c-0.4-0.9-0.9-1.6-1.5-2.2c-0.6-0.6-1.4-1.1-2.2-1.5
		c-0.9-0.4-1.8-0.5-2.7-0.5c-1,0-1.9,0.2-2.8,0.5c-0.8,0.3-1.5,0.8-2.1,1.4v-0.2c0-0.8-0.7-1.5-1.5-1.5H12.5c-0.8,0-1.5,0.7-1.5,1.5
		c0,0.8,0.7,1.5,1.5,1.5h8.3L11,57.3c-0.2,0.3-0.3,0.6-0.3,0.9v1c0,0.8,0.7,1.5,1.5,1.5h11.3c0.8,0,1.5-0.6,1.5-1.4
		c0.5,0.4,1.1,0.7,1.7,1c0.9,0.4,1.8,0.5,2.7,0.5c1.5,0,2.8-0.4,3.9-1.2c0.9-0.6,1.7-1.4,2.2-2.4v2c0,0.4,0.1,0.8,0.4,1.1
		c0.3,0.3,0.6,0.4,1.1,0.4c0.4,0,0.7-0.1,1-0.4c0.3-0.3,0.5-0.6,0.5-1.1v-5.3h0c0,0,0,0,0,0s-3.3,0-3.7,0c-0.3,0-0.6,0.1-0.8,0.3
		c-0.2,0.2-0.4,0.4-0.5,0.7l-0.2,0.5c-0.3,0.7-0.8,1.3-1.5,1.7c-0.7,0.4-1.4,0.6-2.2,0.6c-0.5,0-1.1-0.1-1.6-0.3
		c-0.5-0.2-0.9-0.5-1.3-0.9c-0.4-0.4-0.7-0.8-0.9-1.3c-0.2-0.5-0.3-1-0.3-1.6v-1.3h9.5h0.7h3V48c0-0.5,0.1-1.1,0.3-1.6
		c0.2-0.5,0.5-0.9,0.9-1.3c0.4-0.4,0.8-0.7,1.3-0.9c0.5-0.2,1-0.3,1.6-0.3c0.5,0,1.1,0.1,1.6,0.3c0.5,0.2,0.9,0.5,1.3,0.9
		c0.4,0.4,0.7,0.8,0.9,1.3c0.2,0.5,0.3,1,0.3,1.6v11.4c0,0.4,0.1,0.8,0.4,1.1c0.3,0.3,0.6,0.4,1.1,0.4c0.4,0,0.7-0.1,1-0.4
		c0.3-0.3,0.4-0.6,0.4-1.1v-2c0.3,0.5,0.7,1,1.1,1.5c0.6,0.6,1.4,1.1,2.2,1.5c0.9,0.4,1.8,0.5,2.7,0.5c1,0,1.9-0.2,2.7-0.5
		c0.9-0.4,1.6-0.9,2.3-1.5c0.7-0.6,1.2-1.4,1.5-2.2c0-0.1,0-0.1,0.1-0.2c0,0.1,0,0.1,0.1,0.2c0.4,0.9,0.9,1.6,1.5,2.2
		c0.7,0.6,1.4,1.1,2.2,1.5c0.8,0.4,1.8,0.5,2.8,0.5c1,0,1.9-0.2,2.7-0.5c0.9-0.4,1.6-0.9,2.2-1.5c0.6-0.6,1.1-1.4,1.5-2.2
		c0-0.1,0.1-0.1,0.1-0.2c0,0.1,0.1,0.1,0.1,0.2c0.4,0.9,0.9,1.6,1.5,2.2c0.6,0.6,1.4,1.1,2.2,1.5c0.9,0.4,1.8,0.5,2.7,0.5
		c1,0,1.9-0.2,2.7-0.5c0.9-0.4,1.6-0.9,2.3-1.5c0.7-0.6,1.2-1.4,1.5-2.2c0.4-0.9,0.5-1.8,0.5-2.7V48C89.2,47,89.1,46.1,88.7,45.3z
		 M14.5,57.7L22.5,47c0,0.3-0.1,0.6-0.1,1v5.8c0,1,0.2,1.9,0.6,2.7c0.2,0.4,0.4,0.8,0.6,1.1c0,0,0,0,0,0H14.5L14.5,57.7z M33.6,49.5
		h-8.2V48c0-0.5,0.1-1.1,0.3-1.6c0.2-0.5,0.5-0.9,0.9-1.3c0.4-0.4,0.8-0.7,1.3-0.9c0.5-0.2,1-0.3,1.6-0.3c0.5,0,1.1,0.1,1.6,0.3
		c0.5,0.2,0.9,0.5,1.3,0.9c0.4,0.4,0.7,0.8,0.9,1.3c0.2,0.5,0.3,1,0.3,1.6L33.6,49.5L33.6,49.5z M59.9,53.8c0,0.5-0.1,1.1-0.3,1.6
		c-0.2,0.5-0.5,0.9-0.9,1.3c-0.4,0.4-0.8,0.7-1.3,0.9c-0.5,0.2-1,0.3-1.6,0.3c-0.5,0-1.1-0.1-1.6-0.3c-0.5-0.2-0.9-0.5-1.3-0.9
		c-0.4-0.4-0.7-0.8-0.9-1.3s-0.3-1-0.3-1.6V48c0-0.5,0.1-1.1,0.3-1.6c0.2-0.5,0.5-0.9,0.9-1.3c0.4-0.4,0.8-0.7,1.3-0.9
		c0.5-0.2,1-0.3,1.6-0.3c0.5,0,1.1,0.1,1.6,0.3c0.5,0.2,0.9,0.5,1.3,0.9c0.4,0.4,0.7,0.8,0.9,1.3c0.2,0.5,0.3,1,0.3,1.6L59.9,53.8
		L59.9,53.8z M73.1,53.8c0,0.5-0.1,1.1-0.3,1.6c-0.2,0.5-0.5,0.9-0.9,1.3c-0.4,0.4-0.8,0.7-1.3,0.9c-0.5,0.2-1,0.3-1.6,0.3
		c-0.6,0-1.1-0.1-1.6-0.3c-0.5-0.2-0.9-0.5-1.3-0.9c-0.4-0.4-0.7-0.8-0.9-1.3c-0.2-0.5-0.3-1-0.3-1.6V48c0-0.5,0.1-1.1,0.3-1.6
		c0.2-0.5,0.5-0.9,0.9-1.3c0.4-0.4,0.8-0.7,1.3-0.9c0.5-0.2,1-0.3,1.6-0.3c0.6,0,1.1,0.1,1.6,0.3c0.5,0.2,0.9,0.5,1.3,0.9
		c0.4,0.4,0.7,0.8,0.9,1.3c0.2,0.5,0.3,1,0.3,1.6L73.1,53.8L73.1,53.8z M86.3,53.8c0,0.5-0.1,1.1-0.3,1.6c-0.2,0.5-0.5,0.9-0.9,1.3
		c-0.4,0.4-0.8,0.7-1.3,0.9c-0.5,0.2-1,0.3-1.6,0.3c-0.5,0-1.1-0.1-1.6-0.3c-0.5-0.2-0.9-0.5-1.3-0.9c-0.4-0.4-0.7-0.8-0.9-1.3
		c-0.2-0.5-0.3-1-0.3-1.6V48c0-0.5,0.1-1.1,0.3-1.6c0.2-0.5,0.5-0.9,0.9-1.3c0.4-0.4,0.8-0.7,1.3-0.9c0.5-0.2,1-0.3,1.6-0.3
		c0.5,0,1.1,0.1,1.6,0.3c0.5,0.2,0.9,0.5,1.3,0.9c0.4,0.4,0.7,0.8,0.9,1.3c0.2,0.5,0.3,1,0.3,1.6L86.3,53.8L86.3,53.8z"/>
</g>
</svg>
