<?xml version="1.0" encoding="utf-8"?>
<!-- Generator: Adobe Illustrator 16.0.0, SVG Export Plug-In . SVG Version: 6.00 Build 0)  -->
<!DOCTYPE svg PUBLIC "-//W3C//DTD SVG 1.1//EN" "http://www.w3.org/Graphics/SVG/1.1/DTD/svg11.dtd">
<svg version="1.1" id="Layer_1" xmlns="http://www.w3.org/2000/svg" xmlns:xlink="http://www.w3.org/1999/xlink" x="0px" y="0px"
	 width="100px" height="100px" viewBox="0 0 100 100" enable-background="new 0 0 100 100" xml:space="preserve">
<rect fill="#00AEEF" width="100" height="100"/>
<circle fill="none" stroke="#FFFFFF" stroke-width="8" stroke-miterlimit="10" cx="50" cy="50" r="35.25"/>
<g>
	<path fill="#FFFFFF" stroke="#FFFFFF" stroke-miterlimit="10" d="M54.383,67.005c0,2.418-1.957,4.383-4.381,4.383
		c-2.417,0-4.381-1.965-4.381-4.383c0-2.416,1.964-4.381,4.381-4.381C52.426,62.624,54.383,64.589,54.383,67.005z"/>
	<path fill="#FFFFFF" stroke="#FFFFFF" stroke-miterlimit="10" d="M59.266,31.96c-2.129-2.16-5.31-3.348-8.942-3.348
		c-7.64,0-12.583,5.435-12.583,13.846h7.051c0-5.209,2.903-7.056,5.388-7.056c2.225,0,4.581,1.473,4.783,4.297
		c0.216,2.968-1.364,4.474-3.372,6.384c-4.949,4.707-5.04,6.982-5.019,12.155h7.024c-0.042-2.327,0.109-4.218,3.278-7.637
		c2.376-2.558,5.325-5.738,5.385-10.591C62.298,36.773,61.264,33.987,59.266,31.96z"/>
</g>
</svg>
