<svg enable-background="new 0 0 100 100" height="100" viewBox="0 0 100 100" width="100" xmlns="http://www.w3.org/2000/svg"><path d="m0 0h100v100h-100z" fill="#00aeef"/><g stroke="#fff" stroke-miterlimit="10"><circle cx="50" cy="50" fill="none" r="35.25" stroke-width="8"/><path d="m54.383 67.005c0 2.418-1.957 4.383-4.381 4.383-2.417 0-4.381-1.965-4.381-4.383 0-2.416 1.964-4.381 4.381-4.381 2.424 0 4.381 1.965 4.381 4.381z" fill="#fff"/><path d="m59.266 31.96c-2.129-2.16-5.31-3.348-8.942-3.348-7.64 0-12.583 5.435-12.583 13.846h7.051c0-5.209 2.903-7.056 5.388-7.056 2.225 0 4.581 1.473 4.783 4.297.216 2.968-1.364 4.474-3.372 6.384-4.949 4.707-5.04 6.982-5.019 12.155h7.024c-.042-2.327.109-4.218 3.278-7.637 2.376-2.558 5.325-5.738 5.385-10.591.039-3.237-.995-6.023-2.993-8.05z" fill="#fff"/></g></svg>