<?xml version="1.0" encoding="UTF-8"?>
<svg id="Layer_1" xmlns="http://www.w3.org/2000/svg" version="1.1" viewBox="0 0 350 120">
  <!-- Generator: Adobe Illustrator 29.5.1, SVG Export Plug-In . SVG Version: 2.1.0 Build 141)  -->
  <g>
    <g>
      <polygon points="23.586 37.464 23.586 82.536 62.619 105.072 62.619 60 23.586 37.464" fill="#8cb7fd"/>
      <path d="M62.619,108.072c-.518,0-1.036-.134-1.5-.402l-39.033-22.536c-.928-.535-1.5-1.525-1.5-2.598v-45.072c0-1.072.572-2.062,1.5-2.598.928-.536,2.072-.536,3,0l39.033,22.536c.928.536,1.5,1.526,1.5,2.598v45.072c0,1.072-.572,2.062-1.5,2.598-.464.269-.982.402-1.5.402ZM26.586,80.804l33.033,19.072v-38.144l-33.033-19.072v38.144Z" fill="#004494"/>
    </g>
    <g>
      <polygon points="62.619 60 62.619 105.072 101.653 82.536 101.653 37.464 62.619 60" fill="#fae68d"/>
      <path d="M62.619,108.072c-.518,0-1.036-.134-1.5-.402-.928-.535-1.5-1.525-1.5-2.598v-45.072c0-1.072.572-2.062,1.5-2.598l39.034-22.536c.928-.536,2.072-.536,3,0,.928.536,1.5,1.526,1.5,2.598v45.072c0,1.072-.572,2.062-1.5,2.598l-39.034,22.536c-.464.269-.982.402-1.5.402ZM65.619,61.732v38.144l33.034-19.072v-38.144l-33.034,19.072Z" fill="#004494"/>
    </g>
    <g>
      <polygon points="23.586 37.464 62.619 60 101.653 37.464 62.619 14.928 23.586 37.464" fill="#a8ecaf"/>
      <path d="M62.619,63c-.518,0-1.036-.134-1.5-.402l-39.033-22.536c-.928-.536-1.5-1.526-1.5-2.598s.572-2.062,1.5-2.598L61.119,12.33c.928-.536,2.071-.536,3,0l39.034,22.536c.928.536,1.5,1.526,1.5,2.598s-.572,2.062-1.5,2.598l-39.034,22.536c-.464.269-.982.402-1.5.402ZM29.586,37.464l33.033,19.072,33.034-19.072-33.034-19.072-33.033,19.072Z" fill="#004494"/>
    </g>
  </g>
  <g>
    <path d="M130.578,81.058v-2.643h.999c.822,0,1.575-.088,2.261-.265.685-.176,1.242-.537,1.674-1.086.43-.548.646-1.37.646-2.467v-28.951c0-1.135-.226-1.977-.675-2.525-.451-.548-1.019-.91-1.703-1.086-.686-.177-1.419-.265-2.202-.265h-.999v-2.643h16.677c3.562,0,6.489.432,8.779,1.292,2.291.861,3.983,2.124,5.08,3.788,1.096,1.664,1.645,3.729,1.645,6.195,0,2.113-.422,3.886-1.263,5.314-.843,1.429-1.919,2.574-3.23,3.435-1.312.863-2.672,1.528-4.081,1.998l7.811,12.508c1.018,1.606,1.986,2.8,2.906,3.582.92.784,1.968,1.175,3.143,1.175h.234v2.643h-1.175c-2.388,0-4.297-.127-5.726-.382-1.429-.254-2.594-.764-3.493-1.526-.901-.764-1.782-1.889-2.643-3.377l-7.635-13.154h-4.58v11.979c0,1.097.206,1.919.616,2.467.411.549.959.91,1.645,1.086.685.177,1.418.265,2.202.265h.881v2.643h-17.793ZM146.903,59.683c3.249,0,5.49-.743,6.724-2.231s1.85-3.738,1.85-6.754c0-2.074-.284-3.738-.852-4.991s-1.497-2.163-2.789-2.73-2.976-.852-5.05-.852h-3.759v17.559h3.876Z" fill="#004494"/>
    <path d="M182.842,81.645c-2.114,0-3.955-.205-5.521-.616-1.566-.411-2.839-.998-3.816-1.762-.979-.764-1.714-1.653-2.202-2.672-.49-1.018-.734-2.094-.734-3.229,0-.94.205-1.732.616-2.379.411-.646.969-1.135,1.674-1.468.705-.332,1.546-.499,2.525-.499.078,1.762.411,3.376.998,4.845.587,1.468,1.468,2.623,2.643,3.465s2.643,1.262,4.404,1.262c2.544,0,4.531-.625,5.96-1.879,1.429-1.252,2.144-2.995,2.144-5.227,0-1.409-.304-2.603-.91-3.582-.607-.978-1.585-1.898-2.936-2.76-1.351-.86-3.162-1.762-5.433-2.701-2.545-1.018-4.619-2.134-6.225-3.348-1.605-1.213-2.789-2.613-3.553-4.198-.764-1.586-1.145-3.415-1.145-5.491,0-2.27.577-4.218,1.732-5.843,1.153-1.624,2.739-2.867,4.756-3.729s4.296-1.292,6.842-1.292c2.466,0,4.541.322,6.225.969,1.683.646,2.966,1.479,3.847,2.496s1.321,2.095,1.321,3.229c0,1.292-.451,2.29-1.351,2.995-.901.704-2.193,1.057-3.876,1.057,0-1.213-.216-2.407-.646-3.582s-1.126-2.144-2.084-2.907c-.96-.763-2.242-1.145-3.847-1.145-2.153,0-3.837.567-5.051,1.703s-1.82,2.682-1.82,4.639c0,1.449.284,2.692.852,3.729s1.527,1.987,2.878,2.848c1.351.861,3.22,1.782,5.607,2.76,2.388.979,4.404,2.036,6.049,3.171,1.645,1.137,2.878,2.438,3.7,3.905.821,1.469,1.232,3.221,1.232,5.256,0,2.506-.607,4.649-1.82,6.431-1.214,1.781-2.936,3.151-5.168,4.11-2.231.959-4.854,1.438-7.868,1.438Z" fill="#004494"/>
    <path d="M201.515,94.976v-2.643h.528c.783,0,1.527-.099,2.232-.294.704-.196,1.281-.587,1.731-1.175.45-.587.676-1.468.676-2.643v-31.946c0-1.213-.216-2.104-.646-2.672-.432-.567-.989-.939-1.674-1.116-.686-.176-1.439-.264-2.261-.264h-.705v-2.643h10.629l.764,5.108h.234c.861-1.722,2.006-3.102,3.436-4.14,1.429-1.037,3.278-1.557,5.55-1.557,3.875,0,6.841,1.303,8.896,3.905,2.055,2.604,3.083,6.744,3.083,12.42s-1.028,9.817-3.083,12.42c-2.056,2.604-5.041,3.905-8.955,3.905-2.193,0-3.993-.44-5.403-1.321-1.409-.881-2.545-2.064-3.405-3.553h-.235c.078,1.136.137,2.32.176,3.553.039,1.233.06,2.261.06,3.083v4.992c0,1.135.225,1.986.675,2.554s1.027.94,1.732,1.116,1.448.265,2.231.265h.47v2.643h-16.736ZM220.6,77.77c2.428,0,4.16-1.058,5.197-3.172,1.037-2.113,1.557-5.226,1.557-9.337s-.52-7.194-1.557-9.25c-1.037-2.055-2.77-3.083-5.197-3.083-1.918,0-3.416.451-4.492,1.351-1.077.901-1.84,2.271-2.29,4.111-.45,1.84-.675,4.15-.675,6.929,0,2.701.225,4.973.675,6.812.45,1.841,1.224,3.239,2.319,4.198,1.096.96,2.584,1.439,4.463,1.439Z" fill="#004494"/>
    <path d="M249.08,81.645c-1.723,0-3.279-.343-4.668-1.027-1.391-.685-2.477-1.723-3.26-3.112s-1.174-3.161-1.174-5.314c0-3.132,1.095-5.451,3.288-6.959,2.192-1.507,5.539-2.339,10.042-2.495l4.815-.177v-3.407c0-1.409-.118-2.643-.353-3.699-.235-1.057-.715-1.889-1.438-2.496-.726-.606-1.812-.91-3.26-.91-1.371,0-2.418.274-3.142.822-.725.549-1.214,1.292-1.468,2.231-.255.939-.382,2.056-.382,3.348-1.879,0-3.289-.294-4.229-.881-.939-.588-1.409-1.565-1.409-2.937s.499-2.476,1.497-3.317c.999-.842,2.329-1.448,3.994-1.82,1.663-.372,3.493-.559,5.49-.559,3.719,0,6.508.764,8.368,2.29,1.859,1.527,2.789,4.15,2.789,7.869v15.092c0,1.097.118,1.948.353,2.555.235.607.626,1.038,1.175,1.292.548.255,1.252.382,2.113.382h.177v2.643h-8.75l-1.057-4.757h-.47c-.822,1.058-1.625,1.987-2.408,2.79s-1.684,1.429-2.701,1.879c-1.019.449-2.33.675-3.935.675ZM250.959,77.829c1.487,0,2.761-.323,3.817-.97,1.057-.646,1.879-1.575,2.467-2.789.587-1.213.881-2.622.881-4.228v-4.64l-3.465.176c-2.036.079-3.641.402-4.815.97s-2.007,1.36-2.496,2.378c-.49,1.019-.733,2.271-.733,3.759,0,1.174.155,2.153.47,2.936.312.784.792,1.38,1.438,1.791.646.411,1.458.617,2.437.617Z" fill="#004494"/>
    <path d="M287.544,81.645c-2.663,0-5.021-.538-7.076-1.614s-3.67-2.799-4.845-5.168c-1.175-2.368-1.762-5.49-1.762-9.366,0-4.229.597-7.546,1.791-9.955,1.193-2.407,2.799-4.11,4.815-5.108,2.016-.999,4.296-1.498,6.842-1.498,1.879,0,3.62.235,5.226.705s2.907,1.145,3.905,2.025,1.498,1.988,1.498,3.318c0,.901-.206,1.654-.617,2.261-.411.607-1.037,1.057-1.879,1.351-.843.294-1.987.44-3.436.44,0-1.292-.138-2.456-.411-3.494-.274-1.037-.733-1.879-1.38-2.525s-1.596-.969-2.848-.969c-1.371,0-2.575.392-3.612,1.175s-1.84,2.144-2.407,4.081c-.568,1.938-.852,4.65-.852,8.134,0,2.74.283,5.021.852,6.841.567,1.82,1.458,3.171,2.672,4.052,1.213.881,2.818,1.321,4.815,1.321,1.252,0,2.397-.186,3.436-.558,1.036-.372,1.947-.881,2.73-1.526.782-.646,1.389-1.381,1.82-2.202.353.274.626.607.822.998.195.392.294.861.294,1.409,0,.939-.382,1.86-1.146,2.76-.764.901-1.908,1.645-3.436,2.231-1.526.588-3.465.881-5.813.881Z" fill="#004494"/>
    <path d="M317.376,81.645c-4.463,0-7.919-1.409-10.365-4.228-2.446-2.819-3.67-6.772-3.67-11.862,0-5.48,1.175-9.622,3.523-12.42s5.657-4.199,9.925-4.199c3.914,0,6.997,1.185,9.248,3.553,2.251,2.369,3.377,5.883,3.377,10.542v2.76h-19.438c.078,4.19.831,7.233,2.261,9.132,1.429,1.899,3.533,2.849,6.312,2.849,2.035,0,3.749-.44,5.139-1.321s2.438-1.889,3.142-3.024c.353.117.665.372.939.763.273.393.411.862.411,1.41,0,.821-.382,1.702-1.145,2.643-.764.939-1.938,1.742-3.523,2.407-1.586.665-3.632.998-6.137.998ZM322.661,62.443c0-3.093-.451-5.559-1.351-7.4-.901-1.84-2.428-2.76-4.581-2.76-1.996,0-3.562.871-4.697,2.613-1.136,1.742-1.782,4.257-1.938,7.546h12.567Z" fill="#004494"/>
  </g>
</svg>