<?xml version="1.0" encoding="UTF-8"?>
<svg id="Layer_1" xmlns="http://www.w3.org/2000/svg" version="1.1" viewBox="0 0 30 30">
  <!-- Generator: Adobe Illustrator 29.5.1, SVG Export Plug-In . SVG Version: 2.1.0 Build 141)  -->
  <path d="M14.959,28.654c-.138,0-.275-.038-.396-.113l-10.958-6.807c-.221-.137-.355-.379-.354-.639l.033-12.912c0-.272.149-.522.387-.654L14.678,1.44c.239-.13.528-.124.759.019l10.958,6.806c.221.137.355.379.354.639l-.033,12.896c0,.271-.148.522-.386.654l-11.007,6.106c-.113.062-.239.094-.364.094ZM4.752,20.682l10.229,6.354,10.236-5.68.031-12.037L15.02,2.965l-10.236,5.664-.031,12.053Z" fill="#0071bc"/>
  <path d="M18.639,12.517h3.159c-.098-.879-.326-1.661-.7-2.345s-.847-1.254-1.433-1.726c-.57-.456-1.221-.814-1.954-1.042-.733-.244-1.498-.374-2.328-.374-1.14,0-2.166.212-3.077.619-.896.423-1.677.977-2.296,1.71-.619.716-1.107,1.579-1.433,2.54-.342.977-.505,2.035-.505,3.175,0,1.107.163,2.133.505,3.094.326.961.814,1.807,1.433,2.507.619.716,1.4,1.27,2.296,1.677.912.407,1.938.602,3.077.602.928,0,1.758-.13,2.524-.423.765-.277,1.433-.7,2.003-1.237.57-.537,1.026-1.189,1.368-1.954.358-.765.57-1.628.651-2.589h-3.159c-.13,1.026-.472,1.856-1.042,2.475-.554.635-1.335.944-2.345.944-.733,0-1.351-.147-1.872-.44-.521-.293-.928-.684-1.254-1.156-.309-.488-.554-1.042-.7-1.645-.147-.602-.212-1.221-.212-1.856,0-.668.065-1.319.212-1.938.147-.635.391-1.189.7-1.677.326-.488.733-.879,1.254-1.172s1.14-.44,1.872-.44c.407,0,.798.065,1.156.212.374.13.7.309.993.554.293.244.537.521.733.847.195.326.309.668.374,1.058Z" fill="#5b616b"/>
</svg>