<?xml version="1.0" encoding="UTF-8"?>
<svg id="Layer_1" xmlns="http://www.w3.org/2000/svg" version="1.1" viewBox="0 0 100 100">
  <!-- Generator: Adobe Illustrator 29.5.1, SVG Export Plug-In . SVG Version: 2.1.0 Build 141)  -->
  <rect width="100" height="100" fill="#8faacc"/>
  <g>
    <path d="M49.876,91.187c-.415,0-.829-.115-1.193-.342l-33.056-20.533c-.667-.412-1.071-1.143-1.069-1.927l.1-38.949c.001-.82.449-1.576,1.167-1.974L49.028,9.093c.72-.393,1.594-.373,2.289.057l33.056,20.53c.666.414,1.072,1.143,1.069,1.928l-.1,38.902c-.003.819-.448,1.576-1.164,1.974l-33.203,18.42c-.342.189-.722.283-1.099.283ZM19.086,67.137l30.855,19.166,30.879-17.133.094-36.311-30.855-19.164-30.879,17.085-.094,36.358Z" fill="#31373f"/>
    <path d="M60.976,42.534h9.529c-.296-2.652-.983-5.011-2.112-7.074s-2.555-3.783-4.323-5.207c-1.719-1.376-3.683-2.455-5.894-3.143-2.211-.736-4.519-1.128-7.023-1.128-3.439,0-6.534.64-9.282,1.867-2.703,1.276-5.059,2.947-6.926,5.158-1.867,2.16-3.339,4.763-4.323,7.662-1.032,2.947-1.523,6.139-1.523,9.578,0,3.339.492,6.434,1.523,9.333.983,2.899,2.455,5.451,4.323,7.563,1.867,2.16,4.223,3.831,6.926,5.059,2.751,1.228,5.846,1.816,9.282,1.816,2.799,0,5.303-.392,7.614-1.276,2.308-.836,4.323-2.112,6.042-3.731,1.719-1.62,3.095-3.587,4.127-5.894,1.08-2.308,1.719-4.911,1.964-7.81h-9.529c-.392,3.095-1.424,5.599-3.143,7.466-1.671,1.916-4.027,2.848-7.074,2.848-2.211,0-4.075-.443-5.647-1.327-1.572-.884-2.799-2.063-3.783-3.487-.932-1.472-1.671-3.143-2.112-4.962-.443-1.816-.64-3.683-.64-5.599,0-2.015.196-3.979.64-5.846.443-1.916,1.179-3.587,2.112-5.059.983-1.472,2.211-2.652,3.783-3.535s3.439-1.327,5.647-1.327c1.228,0,2.407.196,3.487.64,1.128.392,2.112.932,2.995,1.671.884.736,1.62,1.572,2.211,2.555.588.983.932,2.015,1.128,3.192Z" fill="#31373f"/>
  </g>
</svg>
