<?xml version="1.0" encoding="UTF-8"?>
<svg id="Layer_1" xmlns="http://www.w3.org/2000/svg" version="1.1" viewBox="0 0 100 100">
  <!-- Generator: Adobe Illustrator 30.1.0, SVG Export Plug-In . SVG Version: 2.1.1 Build 136)  -->
  <defs>
    <style>
      .st0 {
        fill: #f15a24;
      }

      .st1 {
        fill: #fff;
      }
    </style>
  </defs>
  <rect class="st0" y="0" width="100" height="100"/>
  <path id="Path" class="st1" d="M66.5,62.74l-4.68-8.3-8.39-2.46,6.46-.95-6.05-10.72-6.08-3.34,5.85.98,12.77,1.95-19.07-15.41c-.94-.91-2.34-.5-2.83.84l-4.9,18.79,6.82,1.15-7.55,1.67-4.22,16.16,12.54,1.78-14.14,2.27-17.68,8.87s11.62-.53,15.58-1.08c14.97-2.1,25.97-2.31,40.96-4.63,2.62-.41,12.78-7.04,12.78-7.04l-18.16-.52h0Z"/>
</svg>