<?xml version="1.0" encoding="utf-8"?>
<!-- Generator: Adobe Illustrator 27.8.1, SVG Export Plug-In . SVG Version: 6.00 Build 0)  -->
<svg version="1.1" id="Layer_1" xmlns="http://www.w3.org/2000/svg" xmlns:xlink="http://www.w3.org/1999/xlink" x="0px" y="0px"
	 viewBox="0 0 100 100" style="enable-background:new 0 0 100 100;" xml:space="preserve">
<style type="text/css">
	.st0{fill:#2183ED;}
	.st1{fill:#FFFFFF;}
</style>
<rect y="0" class="st0" width="100" height="100"/>
<path class="st1" d="M22.3,48.1c-0.1-5.8,0.5-11.7,1.7-17.4c0.5-2.8,3.4-5.6,6.2-6.2c2.7-0.6,10.5-1.6,19.8-1.6s17.5,1,20.2,1.6
	c2.8,0.6,5.6,3.4,6.2,6.2s1.4,8.1,1.4,17.4c0.1,5.7-0.4,11.5-1.6,17.1c-0.5,2.8-3.4,5.6-6.2,6.2C67.3,72,59.3,72.9,50.2,73l0,0
	L34.6,85V72.1c-2.1-0.2-3.7-0.5-4.7-0.7c-2.8-0.6-5.6-3.4-6.2-6.2C23.2,62.4,22.3,57.4,22.3,48.1 M68.1,32.6
	c-2-0.4-9.1-1.3-18.1-1.3c-5.9,0-11.9,0.4-17.7,1.3c-0.1,0.1-0.1,0.1-0.2,0.1v0.1c-1,5-1.5,10.1-1.4,15.2c0,8,0.8,12.4,1.3,15
	c0.1,0.1,0.1,0.1,0.2,0.1c2.2,0.5,9.1,1.3,17.7,1.3c6.1,0,12.1-0.4,18.1-1.3c0.1-0.1,0.1-0.1,0.2-0.1c0.5-2.6,1.3-7,1.3-15
	c0-7.8-0.6-12.5-1.2-15.4C68.1,32.7,68.1,32.7,68.1,32.6"/>
</svg>

