<svg enable-background="new 0 0 100 100" viewBox="0 0 100 100" xmlns="http://www.w3.org/2000/svg"><path d="m0 0h100v100h-100z" fill="#2183ed"/><path d="m22.3 48.1c-.1-5.8.5-11.7 1.7-17.4.5-2.8 3.4-5.6 6.2-6.2 2.7-.6 10.5-1.6 19.8-1.6s17.5 1 20.2 1.6c2.8.6 5.6 3.4 6.2 6.2s1.4 8.1 1.4 17.4c.1 5.7-.4 11.5-1.6 17.1-.5 2.8-3.4 5.6-6.2 6.2-2.7.6-10.7 1.5-19.8 1.6l-15.6 12v-12.9c-2.1-.2-3.7-.5-4.7-.7-2.8-.6-5.6-3.4-6.2-6.2-.5-2.8-1.4-7.8-1.4-17.1m45.8-15.5c-2-.4-9.1-1.3-18.1-1.3-5.9 0-11.9.4-17.7 1.3-.1.1-.1.1-.2.1v.1c-1 5-1.5 10.1-1.4 15.2 0 8 .8 12.4 1.3 15 .1.1.1.1.2.1 2.2.5 9.1 1.3 17.7 1.3 6.1 0 12.1-.4 18.1-1.3.1-.1.1-.1.2-.1.5-2.6 1.3-7 1.3-15 0-7.8-.6-12.5-1.2-15.4-.2.1-.2.1-.2-0" fill="#fff"/></svg>