<?xml version="1.0" encoding="UTF-8"?>
<svg id="Layer_1" xmlns="http://www.w3.org/2000/svg" version="1.1" viewBox="0 0 100 100">
  <!-- Generator: Adobe Illustrator 29.5.1, SVG Export Plug-In . SVG Version: 2.1.0 Build 141)  -->
  <g>
    <polygon points="16.386 30.593 16.386 69.407 50 88.814 50 50 16.386 30.593" fill="#8cb7fd"/>
    <path d="M50,91.398c-.446,0-.892-.115-1.292-.346l-33.614-19.406c-.799-.461-1.292-1.313-1.292-2.237V30.594c0-.923.493-1.776,1.292-2.237.799-.462,1.784-.462,2.583,0l33.614,19.407c.799.461,1.292,1.313,1.292,2.237v38.813c0,.923-.493,1.776-1.292,2.237-.4.232-.846.346-1.292.346ZM18.97,67.916l28.447,16.423v-32.847l-28.447-16.424s0,32.848,0,32.848Z" fill="#004494"/>
  </g>
  <g>
    <polygon points="50 50 50 88.814 83.614 69.407 83.614 30.593 50 50" fill="#fae68d"/>
    <path d="M50,91.398c-.446,0-.892-.115-1.292-.346-.799-.461-1.292-1.313-1.292-2.237v-38.813c0-.923.493-1.776,1.292-2.237l33.613-19.407c.799-.462,1.784-.462,2.583,0,.799.461,1.292,1.313,1.292,2.237v38.814c0,.923-.493,1.776-1.292,2.237l-33.613,19.406c-.4.232-.846.346-1.292.346ZM52.584,51.493v32.847l28.446-16.423v-32.848s-28.446,16.424-28.446,16.424Z" fill="#004494"/>
  </g>
  <g>
    <polygon points="16.386 30.593 50 50 83.614 30.593 50 11.186 16.386 30.593" fill="#a8ecaf"/>
    <path d="M50,52.584c-.446,0-.892-.115-1.292-.346L15.094,32.831c-.799-.461-1.292-1.313-1.292-2.237s.493-1.776,1.292-2.237L48.709,8.949c.799-.462,1.784-.462,2.583,0l33.613,19.407c.799.461,1.292,1.313,1.292,2.237s-.493,1.776-1.292,2.237l-33.613,19.407c-.4.232-.846.346-1.292.346ZM21.553,30.593l28.447,16.424,28.446-16.424-28.446-16.424s-28.447,16.424-28.447,16.424Z" fill="#004494"/>
  </g>
</svg>