<?xml version="1.0" encoding="utf-8"?>
<svg version="1.1" id="Layer_1" xmlns="http://www.w3.org/2000/svg" xmlns:xlink="http://www.w3.org/1999/xlink" x="0px" y="0px" viewBox="0 0 200 200" >  
  <path d="M136.24,110.16a35,35,0,0,0,17.18-12.73,34.25,34.25,0,0,0-3.72-44.34A33.65,33.65,0,0,0,125,42.93H78.42v21H125A13.37,13.37,0,0,1,134.83,68a13,13,0,0,1,4,9.5,13.19,13.19,0,0,1-4,9.67,13.4,13.4,0,0,1-9.83,4H78.42v21h34.19l24.45,41.46h24.45Z" fill="#fff" style="
    transform: scale(1.3) translate(-24px, -26px);
"></path>
  <rect x="39.17" y="90.34" width="20.98" height="62.03" fill="#fff" style="
    transform: scale(1.3) translate(-24px, -26px);
"></rect>
  <rect x="39.17" y="41.7" width="20.98" height="20.98" fill="#fff" style="
    transform: scale(1.3) translate(-24px, -26px);
"></rect>
</svg>
