<svg enable-background="new 0 0 100 100" viewBox="0 0 100 100" xmlns="http://www.w3.org/2000/svg"><path d="m0 0h100v100h-100z" fill="#181616"/><path d="m50.1 20.6c-16.7 0-30.2 13.5-30.1 30.2 0 13.3 8.7 24.5 20.7 28.5 1.6.2 2-.6 2-1.4v-5.2c-8.4 1.8-10.3-4-10.3-4-1.4-3.4-3.4-4.4-3.4-4.4-2.8-1.8.2-1.8.2-1.8 3 .2 4.6 3 4.6 3 2.6 4.6 7 3.2 8.9 2.4.2-2 1-3.2 2-4-6.7-.8-13.7-3.4-13.7-14.9 0-3.2 1.2-6 3-8-.4-.8-1.4-3.8.2-8 0 0 2.6-.8 8.3 3 2.4-.6 5-1 7.6-1s5.2.4 7.6 1c5.8-3.8 8.2-3 8.2-3 1.6 4.2.6 7.2.2 8 2 2 3 4.8 3 8 0 11.7-7 14.1-13.7 14.9 1 1 2 2.8 2 5.6v8.2c0 .8.6 1.8 2 1.4 12.1-4 20.5-15.3 20.5-28.6.4-16.4-13.1-29.9-29.8-29.9z" fill="#fff"/></svg>