<?xml version="1.0" encoding="utf-8"?>
<!-- Generator: Adobe Illustrator 27.9.0, SVG Export Plug-In . SVG Version: 6.00 Build 0)  -->
<svg version="1.1" id="Layer_1" xmlns="http://www.w3.org/2000/svg" xmlns:xlink="http://www.w3.org/1999/xlink" x="0px" y="0px"
	 viewBox="0 0 100 100" style="enable-background:new 0 0 100 100;" xml:space="preserve">
<style type="text/css">
	.st0{fill:#181616;}
	.st1{fill:#FFFFFF;}
</style>
<rect class="st0" width="100" height="100"/>
<path class="st1" d="M50.1,20.6c-16.7,0-30.2,13.5-30.1,30.2c0,13.3,8.7,24.5,20.7,28.5c1.6,0.2,2-0.6,2-1.4l0-5.2
	c-8.4,1.8-10.3-4-10.3-4C31,65.3,29,64.3,29,64.3c-2.8-1.8,0.2-1.8,0.2-1.8c3,0.2,4.6,3,4.6,3c2.6,4.6,7,3.2,8.9,2.4
	c0.2-2,1-3.2,2-4C38,63.1,31,60.5,31,49c0-3.2,1.2-6,3-8c-0.4-0.8-1.4-3.8,0.2-8c0,0,2.6-0.8,8.3,3c2.4-0.6,5-1,7.6-1
	c2.6,0,5.2,0.4,7.6,1c5.8-3.8,8.2-3,8.2-3c1.6,4.2,0.6,7.2,0.2,8c2,2,3,4.8,3,8c0,11.7-7,14.1-13.7,14.9c1,1,2,2.8,2,5.6l0,8.2
	c0,0.8,0.6,1.8,2,1.4c12.1-4,20.5-15.3,20.5-28.6C80.3,34.1,66.8,20.6,50.1,20.6z"/>
</svg>
