<svg enable-background="new 0 0 100 100" viewBox="0 0 100 100" xmlns="http://www.w3.org/2000/svg"><path d="m0 0h100v100h-100z" fill="#70a9db"/><g fill="#fff"><path d="m17.4 53.4 1.1-.4 36.7 15.1 26.4-12 .9.3c.7.2 1.2.7 1.3 1.4 0 .7-.4 1.2-1 1.5l-26.2 12c-.8.3-1.7.3-2.6 0l-36.8-15c-.6-.2-1.1-.8-1.2-1.4.2-.7.7-1.3 1.4-1.5z"/><path d="m17.4 46.9 1.3-.5c3 1.3 36.5 14.6 36.5 14.6l26.1-11.5 1.3.4c.7.2 1.2.7 1.3 1.4 0 .7-.4 1.2-1 1.5l-26.3 11.6c-.4.2-.8.3-1.3.3-.4 0-.8-.1-1.2-.2l-36.8-14.7c-.7-.2-1.1-.8-1.2-1.4.1-.7.6-1.3 1.3-1.5z"/><path d="m82.9 45.9c-.1 0-2.3 1.1-9.3 4.2-1.5.7-3.1 1-4.7 1h-28.5c-2.1 0-4.1-.3-6.1-1-9.3-3.5-16.9-7-17.2-7.1-.6-.2-1-.8-1-1.4.1-.7.6-1.2 1.3-1.3l26.7-9.6c.7-.2 1.5-.2 2.2 0l36.3 12.6c.7.2 1.2.7 1.3 1.3 0 .5-.5 1.1-1 1.3zm-37.6-12-22 7.9c3.1 1.3 8 3.4 13.4 5.4 1.2.4 2.5.7 3.8.7 6.6 0 13-5 13.1-5 .5-.4 1.1-.6 1.8-.6.6 0 1.3.2 1.8.6 1.8 1.4 7.3 5 11.6 5 .8 0 1.6-.1 2.3-.5 2.5-1 4.4-1.9 5.8-2.6z"/></g></svg>