<svg enable-background="new 0 0 100 100" viewBox="0 0 100 100" xmlns="http://www.w3.org/2000/svg"><path d="m0 0h100v100h-100z" fill="#363636"/><path d="m73.5 61.3c-2.3 1.5-4.8 2.6-7.4 3.5-1 .4-1.9.7-2.9 1-.2-1-.4-1.9-.6-2.8-.8-3.6-2.7-6.5-6.2-7.9-2.2-.9-3.2-2.5-3.5-4.8-.2-2-.4-4.1.1-6.1.1-.2.1-.4.2-.7.6-1.6 1.3-2.1 2.9-1.8 1.5.3 3.1.6 4.6 1.2 1.6.6 3.2 1.4 4.8 2.2 4.3 2.2 6.8 5.8 7.9 10.4.3 1.5.4 3 .7 4.5-.1.8-.3 1.1-.6 1.3zm-17.3 3.8c-1 2.5-2.6 4.4-5 5.7-.9.5-1.8.4-2.6-.1-2.3-1.3-3.9-3.2-4.8-5.7-.4-1.1-.1-1.9 1-2.5 1.6-.9 3.4-1.2 5.9-1.3.8.2 2.2.5 3.6.9.4.1.9.4 1.2.7.9.6 1.1 1.3.7 2.3zm-18.7-2.2c-.2.9-.4 1.8-.6 2.8-1.6-.6-3.2-1.1-4.7-1.8-1.9-.9-3.7-1.9-5.6-2.9-.4-.2-.5-.5-.5-.9.2-3.6 1.2-6.9 3.1-10 .8-1.3 1.9-2.4 3.2-3.3 3.4-2.4 7.1-4 11.1-4.8.2 0 .5-.1.7-.1 1.9-.1 2.6.3 3.1 2.1.7 2.3.4 4.7 0 7.1-.3 1.9-1.2 3.3-3.1 3.9-.1 0-.2.1-.4.2-3.5 1.3-5.4 4.1-6.3 7.7zm34.8-22.4c-.1-.2-.2-.6-.2-.8.1-1.2.1-2.4.3-4-.1-1.7-.2-3.8-.5-5.9-.2-1.3-.6-2.6-1.1-3.9-.4-1.1-1.1-1.4-2.2-1.1-.9.2-1.7.5-2.5.9-3.7 1.9-6.8 4.6-9 8.1-.2.4-.5.5-.9.5-1.6-.1-3.2-.3-4.8-.3-2.3 0-4.7.1-7 .2-.4 0-.6-.1-.9-.5-2.2-3.6-5.1-6.3-8.8-8.3-.8-.4-1.7-.7-2.6-.9-1.1-.3-1.7 0-2.3 1-.3.6-.6 1.3-.7 2-1 3.8-1.1 7.7-.9 11.7 0 .3 0 .7-.2 1-2.9 5.5-4.9 11.3-5.9 17.4-.4 2.3.2 4.3 2.3 5.6.9.6 1.7 1.2 2.6 1.7 3.2 1.8 6.6 3 10.1 4.2.2.1.5.2.7.4 2.8 2.8 6.2 4.8 10 5.9 1 .3 2.1.5 3 .3 4.2-.9 7.9-2.9 11.1-5.8.3-.3.7-.5 1.1-.7 1.9-.7 3.8-1.2 5.6-2 2.7-1 5.3-2.2 7.6-4.1.9-.7 1.7-1.6 1.8-2.8 0-1.1 0-2.2-.1-3.3-1-5.8-2.9-11.3-5.6-16.5z" fill="#fff"/></svg>