<?xml version="1.0" encoding="utf-8"?>
<!-- Generator: Adobe Illustrator 27.9.0, SVG Export Plug-In . SVG Version: 6.00 Build 0)  -->
<svg version="1.1" id="Layer_1" xmlns="http://www.w3.org/2000/svg" xmlns:xlink="http://www.w3.org/1999/xlink" x="0px" y="0px"
	 viewBox="0 0 100 100" style="enable-background:new 0 0 100 100;" xml:space="preserve">
<style type="text/css">
	.st0{fill:#0082C9;}
	.st1{fill-rule:evenodd;clip-rule:evenodd;fill:#FFFFFF;}
</style>
<rect class="st0" width="100" height="100"/>
<g>
	<g>
		<path class="st1" d="M84,42.5c-2.1-2.3-4.7-3.5-7.8-3.5c-4.5,0-7.7,2.2-9.9,6c-3-7.4-8.3-11.9-16.3-11.8
			c-8.1,0.1-13.3,4.5-16.1,12c-2.6-5.1-8-7.1-12.7-5.9c-4.7,1.3-8,5.5-8.1,10.4c-0.2,4.7,3.1,9.1,7.7,10.6
			c4.6,1.4,10.3-0.2,13.1-5.6c2.9,7.5,8.1,12,16.4,11.9c8-0.1,13.1-4.5,16-11.8c3.7,6.9,12.2,7.5,17,3.2C87.8,54.1,88.2,47,84,42.5z
			 M24,54.5c-2.5,0.1-4.6-2-4.6-4.5s2-4.5,4.5-4.5s4.5,2,4.5,4.5C28.5,52.5,26.6,54.5,24,54.5z M50.1,60.4
			c-5.8,0-10.4-4.7-10.4-10.4s4.7-10.4,10.4-10.4s10.4,4.7,10.4,10.4C60.4,55.8,55.8,60.4,50.1,60.4z M76,54.5c-2.5,0-4.5-2-4.5-4.5
			c0-2.5,2-4.5,4.4-4.6c2.5,0,4.5,2,4.6,4.4C80.5,52.5,78.6,54.5,76,54.5z"/>
	</g>
</g>
</svg>
