<svg enable-background="new 0 0 100 100" viewBox="0 0 100 100" xmlns="http://www.w3.org/2000/svg"><path d="m0 0h100v100h-100z" fill="#0082c9"/><path clip-rule="evenodd" d="m84 42.5c-2.1-2.3-4.7-3.5-7.8-3.5-4.5 0-7.7 2.2-9.9 6-3-7.4-8.3-11.9-16.3-11.8-8.1.1-13.3 4.5-16.1 12-2.6-5.1-8-7.1-12.7-5.9-4.7 1.3-8 5.5-8.1 10.4-.2 4.7 3.1 9.1 7.7 10.6 4.6 1.4 10.3-.2 13.1-5.6 2.9 7.5 8.1 12 16.4 11.9 8-.1 13.1-4.5 16-11.8 3.7 6.9 12.2 7.5 17 3.2 4.5-3.9 4.9-11 .7-15.5zm-60 12c-2.5.1-4.6-2-4.6-4.5s2-4.5 4.5-4.5 4.5 2 4.5 4.5c.1 2.5-1.8 4.5-4.4 4.5zm26.1 5.9c-5.8 0-10.4-4.7-10.4-10.4s4.7-10.4 10.4-10.4 10.4 4.7 10.4 10.4c-.1 5.8-4.7 10.4-10.4 10.4zm25.9-5.9c-2.5 0-4.5-2-4.5-4.5s2-4.5 4.4-4.6c2.5 0 4.5 2 4.6 4.4 0 2.7-1.9 4.7-4.5 4.7z" fill="#fff" fill-rule="evenodd"/></svg>