<svg enable-background="new 0 0 100 100" viewBox="0 0 100 100" xmlns="http://www.w3.org/2000/svg"><path d="m0 0h100v100h-100z" fill="#4a154b"/><g fill="#fff"><path d="m35.8 56.4c0 2.8-2.3 5.1-5.1 5.1s-5.1-2.3-5.1-5.1 2.3-5.1 5.1-5.1h5.1z"/><path d="m38.4 56.4c0-2.8 2.3-5.1 5.1-5.1s5.1 2.3 5.1 5.1v12.8c0 2.8-2.3 5.1-5.1 5.1s-5.1-2.3-5.1-5.1z"/><path d="m43.6 35.8c-2.8 0-5.1-2.3-5.1-5.1s2.3-5.1 5.1-5.1 5.1 2.3 5.1 5.1v5.1z"/><path d="m43.6 38.4c2.8 0 5.1 2.3 5.1 5.1s-2.3 5.1-5.1 5.1h-12.9c-2.8 0-5.1-2.3-5.1-5.1s2.3-5.1 5.1-5.1z"/><path d="m64.2 43.6c0-2.8 2.3-5.1 5.1-5.1s5.1 2.3 5.1 5.1-2.3 5.1-5.1 5.1h-5.1z"/><path d="m61.6 43.6c0 2.8-2.3 5.1-5.1 5.1s-5.1-2.3-5.1-5.1v-12.9c0-2.8 2.3-5.1 5.1-5.1s5.1 2.3 5.1 5.1z"/><path d="m56.4 64.2c2.8 0 5.1 2.3 5.1 5.1s-2.3 5.1-5.1 5.1-5.1-2.3-5.1-5.1v-5.1z"/><path d="m56.4 61.6c-2.8 0-5.1-2.3-5.1-5.1s2.3-5.1 5.1-5.1h12.8c2.8 0 5.1 2.3 5.1 5.1s-2.3 5.1-5.1 5.1z"/></g></svg>