<?xml version="1.0" encoding="utf-8"?>
<!-- Generator: Adobe Illustrator 27.9.0, SVG Export Plug-In . SVG Version: 6.00 Build 0)  -->
<svg version="1.1" id="Layer_1" xmlns="http://www.w3.org/2000/svg" xmlns:xlink="http://www.w3.org/1999/xlink" x="0px" y="0px"
	 viewBox="0 0 100 100" style="enable-background:new 0 0 100 100;" xml:space="preserve">
<style type="text/css">
	.st0{fill:#202E44;}
	.st1{fill:#FEFEFE;}
</style>
<rect class="st0" width="100" height="100"/>
<g>
	<path class="st1" d="M32.3,67.8c-0.3-0.2-0.6-0.5-0.9-0.8c-0.1-0.1-0.2,0-0.3,0c-1.2,0.8-2.5,1.4-4,1.5c-4.1,0.5-7.5-0.9-9.9-4.3
		c-3.4-5-1.5-11.8,3.9-14.5c1.5-0.7,3.1-1.1,4.7-1c0.2,0,0.3-0.1,0.4-0.2c0.8-2,2-3.5,3.7-4.8c0.1-0.1,0.2-0.2,0.1-0.3
		c-1.7-3.4,0.1-7.4,3.8-8.2c1.4-0.3,2.8-0.1,4,0.6c0.2,0.1,0.2,0.1,0.3-0.1c1.7-2.6,4-4.3,7.1-4.7c5.1-0.7,9.6,2.4,11,7
		c0.1,0.3,0.2,0.3,0.5,0.3c5-0.2,9.3,3.3,10.2,8.1c0,0.3,0.1,0.5,0.1,0.8c0,0.2,0.1,0.2,0.3,0.3c1.5,0.1,3,0.5,4.4,1.2
		c3,1.6,4.9,4.1,5.6,7.5c0.1,0.3,0.1,0.3,0.4,0.3c3-0.3,5.7,1.8,6.3,4.6c0.7,3.3-1.4,6.5-4.7,7.1c-2,0.4-3.8-0.2-5.3-1.7
		c-0.2-0.2-0.2-0.2-0.4,0c-2.1,1.8-4.6,2.6-7.4,2.5c-2.9-0.1-5.3-1.3-7.3-3.4c-0.1-0.1-0.2-0.2-0.4,0c-3,2.4-6.4,3.5-10.2,3.1
		c-1.7-0.2-3.2-0.6-4.7-1.4c-0.1,0-0.2-0.1-0.3-0.1c-0.4-0.1-0.7-0.3-1-0.6c-0.5-0.3-1-0.7-1.4-1.1c-0.4,0.8-0.8,1.4-1.5,1.9
		c-1.8,1.5-3.8,1.8-6.1,1c-0.1,0-0.1,0-0.2-0.1C33,68.3,32.6,68.1,32.3,67.8z"/>
	<path class="st0" d="M37.4,55.3c0-6.9,5.6-12.6,12.5-12.6c6.9,0,12.6,5.6,12.6,12.5c0,6.9-5.6,12.5-12.5,12.6
		C43.1,67.8,37.4,62.2,37.4,55.3z"/>
	<path class="st0" d="M67.4,48.5c4.3,0,8.4,3.5,9.2,8.3c0.8,5.2-2.8,10.2-7.9,11c-3.4,0.6-6.3-0.4-8.8-2.9c-0.2-0.2-0.1-0.2,0-0.4
		c2.1-2.2,3.3-4.9,3.7-8c0.2-2.3-0.1-4.6-1-6.7c-0.1-0.2,0-0.3,0.1-0.4C64,48.9,65.4,48.5,67.4,48.5z"/>
	<path class="st0" d="M25.7,67.8c-4.4,0-8.3-3.3-8.9-7.7c-0.7-4.7,2.4-9.1,7.1-10.1c0.6-0.1,1.2-0.2,1.8-0.2c0.2,0,0.2,0.1,0.2,0.2
		c-0.9,4.5,0.5,8.1,4,11c0.2,0.1,0.2,0.2,0.1,0.4c-0.4,1.6-0.2,3.1,0.6,4.5c0.1,0.2,0.1,0.3-0.1,0.4C29,67.3,27.4,67.7,25.7,67.8z"
		/>
	<path class="st0" d="M37.9,41c0-4.5,3.2-8.2,7.7-8.9c4.8-0.7,9.3,2.5,10.1,7.3c0.2,1.1,0.2,2.2,0,3.3c0,0.2-0.1,0.2-0.2,0.1
		c-5-2-9.7-1.4-14,1.9c-0.5,0.4-1,0.9-1.5,1.4c-0.1,0.2-0.2,0.2-0.4,0C38.5,44.6,37.9,42.9,37.9,41z"/>
	<path class="st0" d="M26.6,52.5c0-4.6,3.2-8.6,7.7-9.5c0.8-0.2,1.7-0.2,2.5-0.2c0.2,0,0.2,0.1,0.2,0.2c0.3,1.5,0.9,2.8,1.9,4.1
		c0.1,0.1,0.1,0.2,0,0.3c-1.6,2.3-2.4,4.8-2.5,7.6c0,0.6,0,1.3,0.1,1.9c0,0.2,0,0.3-0.2,0.3c-1.6-0.2-3,0.3-4.2,1.3
		c-0.6,0.5-1.1,1-1.4,1.7c-0.1,0.2-0.2,0.2-0.3,0.1C28,58.3,26.6,55.4,26.6,52.5z"/>
	<path class="st0" d="M36,67.9c-2.8,0-4.9-2-5.1-4.6c-0.2-2.5,1.7-4.8,4.2-5.2c0.5-0.1,1-0.1,1.5,0c0.2,0,0.2,0.1,0.3,0.2
		c0.6,2.4,1.7,4.5,3.4,6.2c0.1,0.1,0.1,0.2,0.1,0.4C39.3,66.8,37.8,67.8,36,67.9z"/>
	<path class="st0" d="M83.3,62.3c0,2.1-1.2,3.9-3,4.7c-1.8,0.8-4,0.3-5.4-1.1c-0.2-0.2-0.2-0.3,0-0.5c1.9-2.2,2.8-4.7,2.7-7.6
		c0-0.2,0.1-0.2,0.2-0.3c2.4-0.3,4.7,1.3,5.3,3.7C83.3,61.7,83.3,62.1,83.3,62.3z"/>
	<path class="st0" d="M57.6,39.4c4.1,0.2,7.5,2.9,8.5,7c0.1,0.3,0.1,0.6,0.2,1c0,0.1,0,0.2-0.2,0.2c-1.4,0.1-2.7,0.5-3.9,1.1
		c-0.1,0.1-0.2,0-0.3-0.1c-1.2-2.2-2.9-3.9-5.1-5.1c-0.1-0.1-0.2-0.1-0.1-0.3c0.3-1.2,0.3-2.4,0.2-3.5c0-0.2,0-0.3,0.2-0.3
		C57.1,39.4,57.3,39.4,57.6,39.4z"/>
	<path class="st0" d="M36.1,41.7c-1.7,0-3.3,0.5-4.8,1.3c-0.2,0.1-0.3,0.1-0.3-0.1c-1.5-2.9,0.5-6.4,3.7-6.7c1-0.1,1.9,0.1,2.8,0.6
		c0.2,0.1,0.2,0.2,0.1,0.3c-0.6,1.4-0.8,2.9-0.7,4.4c0,0.2-0.1,0.3-0.3,0.2c-0.1,0-0.2,0-0.3,0C36.3,41.7,36.2,41.7,36.1,41.7z"/>
</g>
</svg>
