<svg enable-background="new 0 0 100 100" viewBox="0 0 100 100" xmlns="http://www.w3.org/2000/svg"><path d="m0 0h100v100h-100z" fill="#202e44"/><path d="m32.3 67.8c-.3-.2-.6-.5-.9-.8-.1-.1-.2 0-.3 0-1.2.8-2.5 1.4-4 1.5-4.1.5-7.5-.9-9.9-4.3-3.4-5-1.5-11.8 3.9-14.5 1.5-.7 3.1-1.1 4.7-1 .2 0 .3-.1.4-.2.8-2 2-3.5 3.7-4.8.1-.1.2-.2.1-.3-1.7-3.4.1-7.4 3.8-8.2 1.4-.3 2.8-.1 4 .6.2.1.2.1.3-.1 1.7-2.6 4-4.3 7.1-4.7 5.1-.7 9.6 2.4 11 7 .1.3.2.3.5.3 5-.2 9.3 3.3 10.2 8.1 0 .3.1.5.1.8 0 .2.1.2.3.3 1.5.1 3 .5 4.4 1.2 3 1.6 4.9 4.1 5.6 7.5.1.3.1.3.4.3 3-.3 5.7 1.8 6.3 4.6.7 3.3-1.4 6.5-4.7 7.1-2 .4-3.8-.2-5.3-1.7-.2-.2-.2-.2-.4 0-2.1 1.8-4.6 2.6-7.4 2.5-2.9-.1-5.3-1.3-7.3-3.4-.1-.1-.2-.2-.4 0-3 2.4-6.4 3.5-10.2 3.1-1.7-.2-3.2-.6-4.7-1.4-.1 0-.2-.1-.3-.1-.4-.1-.7-.3-1-.6-.5-.3-1-.7-1.4-1.1-.4.8-.8 1.4-1.5 1.9-1.8 1.5-3.8 1.8-6.1 1-.1 0-.1 0-.2-.1-.1 0-.5-.2-.8-.5z" fill="#fefefe"/><g fill="#202e44"><path d="m37.4 55.3c0-6.9 5.6-12.6 12.5-12.6s12.6 5.6 12.6 12.5-5.6 12.5-12.5 12.6c-6.9 0-12.6-5.6-12.6-12.5z"/><path d="m67.4 48.5c4.3 0 8.4 3.5 9.2 8.3.8 5.2-2.8 10.2-7.9 11-3.4.6-6.3-.4-8.8-2.9-.2-.2-.1-.2 0-.4 2.1-2.2 3.3-4.9 3.7-8 .2-2.3-.1-4.6-1-6.7-.1-.2 0-.3.1-.4 1.3-.5 2.7-.9 4.7-.9z"/><path d="m25.7 67.8c-4.4 0-8.3-3.3-8.9-7.7-.7-4.7 2.4-9.1 7.1-10.1.6-.1 1.2-.2 1.8-.2.2 0 .2.1.2.2-.9 4.5.5 8.1 4 11 .2.1.2.2.1.4-.4 1.6-.2 3.1.6 4.5.1.2.1.3-.1.4-1.5 1-3.1 1.4-4.8 1.5z"/><path d="m37.9 41c0-4.5 3.2-8.2 7.7-8.9 4.8-.7 9.3 2.5 10.1 7.3.2 1.1.2 2.2 0 3.3 0 .2-.1.2-.2.1-5-2-9.7-1.4-14 1.9-.5.4-1 .9-1.5 1.4-.1.2-.2.2-.4 0-1.1-1.5-1.7-3.2-1.7-5.1z"/><path d="m26.6 52.5c0-4.6 3.2-8.6 7.7-9.5.8-.2 1.7-.2 2.5-.2.2 0 .2.1.2.2.3 1.5.9 2.8 1.9 4.1.1.1.1.2 0 .3-1.6 2.3-2.4 4.8-2.5 7.6 0 .6 0 1.3.1 1.9 0 .2 0 .3-.2.3-1.6-.2-3 .3-4.2 1.3-.6.5-1.1 1-1.4 1.7-.1.2-.2.2-.3.1-2.4-2-3.8-4.9-3.8-7.8z"/><path d="m36 67.9c-2.8 0-4.9-2-5.1-4.6-.2-2.5 1.7-4.8 4.2-5.2.5-.1 1-.1 1.5 0 .2 0 .2.1.3.2.6 2.4 1.7 4.5 3.4 6.2.1.1.1.2.1.4-1.1 1.9-2.6 2.9-4.4 3z"/><path d="m83.3 62.3c0 2.1-1.2 3.9-3 4.7s-4 .3-5.4-1.1c-.2-.2-.2-.3 0-.5 1.9-2.2 2.8-4.7 2.7-7.6 0-.2.1-.2.2-.3 2.4-.3 4.7 1.3 5.3 3.7.2.5.2.9.2 1.1z"/><path d="m57.6 39.4c4.1.2 7.5 2.9 8.5 7 .1.3.1.6.2 1 0 .1 0 .2-.2.2-1.4.1-2.7.5-3.9 1.1-.1.1-.2 0-.3-.1-1.2-2.2-2.9-3.9-5.1-5.1-.1-.1-.2-.1-.1-.3.3-1.2.3-2.4.2-3.5 0-.2 0-.3.2-.3z"/><path d="m36.1 41.7c-1.7 0-3.3.5-4.8 1.3-.2.1-.3.1-.3-.1-1.5-2.9.5-6.4 3.7-6.7 1-.1 1.9.1 2.8.6.2.1.2.2.1.3-.6 1.4-.8 2.9-.7 4.4 0 .2-.1.3-.3.2-.1 0-.2 0-.3 0-0 0-.1 0-.2 0z"/></g></svg>