<svg enable-background="new 0 0 100 100" viewBox="0 0 100 100" xmlns="http://www.w3.org/2000/svg"><path d="m0 0h100v100h-100z" fill="#fff"/><path d="m56.7 57.2 13.2-12.6c-2.7-10.7-13.6-17.1-24.3-14.4-4.8 1.2-9 4.2-11.7 8.4.1-.1 22.8 18.6 22.8 18.6z" fill="#0364b8"/><path d="m42.4 40.9c-2.5-1.6-5.4-2.4-8.4-2.4-.1 0-.1 0-.2 0-8.8.1-15.9 7.4-15.8 16.2 0 3.2 1 6.3 2.9 8.9l19.8-2.5 15.2-12.2z" fill="#0078d4"/><path d="m69.9 44.5c-.3 0-.6 0-.9 0-1.8 0-3.5.4-5.1 1.1l-8 3.4 8.8 10.9 15.8 3.8c3.4-6.3 1-14.2-5.3-17.6-1.7-.9-3.5-1.4-5.3-1.6z" fill="#1490df"/><path d="m20.9 63.6c3 4.3 7.9 6.8 13.1 6.8h35c4.8 0 9.2-2.6 11.4-6.8l-24.6-14.7z" fill="#28a8ea"/></svg>