<?xml version="1.0" encoding="utf-8"?>
<!-- Generator: Adobe Illustrator 27.9.0, SVG Export Plug-In . SVG Version: 6.00 Build 0)  -->
<svg version="1.1" id="Layer_1" xmlns="http://www.w3.org/2000/svg" xmlns:xlink="http://www.w3.org/1999/xlink" x="0px" y="0px"
	 viewBox="0 0 100 100" style="enable-background:new 0 0 100 100;" xml:space="preserve">
<style type="text/css">
	.st0{fill:#FFFFFF;}
	.st1{fill:#0364B8;}
	.st2{fill:#0078D4;}
	.st3{fill:#1490DF;}
	.st4{fill:#28A8EA;}
</style>
<rect class="st0" width="100" height="100"/>
<g id="STYLE_COLOR_2_">
	<path class="st1" d="M56.7,57.2l13.2-12.6c-2.7-10.7-13.6-17.1-24.3-14.4c-4.8,1.2-9,4.2-11.7,8.4C34,38.5,56.7,57.2,56.7,57.2z"/>
	<path class="st2" d="M42.4,40.9L42.4,40.9c-2.5-1.6-5.4-2.4-8.4-2.4c-0.1,0-0.1,0-0.2,0C25,38.6,17.9,45.9,18,54.7
		c0,3.2,1,6.3,2.9,8.9l19.8-2.5l15.2-12.2L42.4,40.9z"/>
	<path class="st3" d="M69.9,44.5c-0.3,0-0.6,0-0.9,0c-1.8,0-3.5,0.4-5.1,1.1v0l-8,3.4l8.8,10.9l15.8,3.8c3.4-6.3,1-14.2-5.3-17.6
		C73.5,45.2,71.7,44.7,69.9,44.5L69.9,44.5L69.9,44.5z"/>
	<path class="st4" d="M20.9,63.6c3,4.3,7.9,6.8,13.1,6.8h35c4.8,0,9.2-2.6,11.4-6.8L55.8,48.9L20.9,63.6z"/>
</g>
</svg>
