<svg viewBox="0 0 100 100" xmlns="http://www.w3.org/2000/svg" xmlns:xlink="http://www.w3.org/1999/xlink"><linearGradient id="a" gradientTransform="matrix(.8 0 0 -.8 23 122.4)" gradientUnits="userSpaceOnUse" x1="15.6" x2="76.1" y1="72.2" y2="72.2"><stop offset=".2" stop-color="#d0bd2b"/><stop offset="1" stop-color="#d0bd2b" stop-opacity="0"/></linearGradient><path d="m0 0h100v100h-100z" fill="#039"/><path d="m64 39.2h-43.8c-.6 0-1-.5-1-1v-11.4c0-.6.5-1 1-1h43.8c.6 0 1 .5 1 1v11.3c0 .6-.4 1.2-1 1.2z" fill="#fff"/><path d="m52.3 56.8h-32c-.6 0-1.1-.5-1.1-1.1v-11.2c0-.6.5-1.1 1.1-1.1h32c.6 0 1.1.5 1.1 1.1v11.2c0 .6-.5 1.1-1.1 1.1z" fill="#fff"/><path d="m79.8 74.2h-43.8c-.6 0-1.1-.5-1.1-1.1v-11.2c0-.6.5-1.1 1.1-1.1h43.7c.6 0 1.1.5 1.1 1.1v11.2c0 .6-.5 1.1-1 1.1z" fill="url(#a)"/></svg>