<?xml version="1.0" encoding="UTF-8"?>
<svg xmlns="http://www.w3.org/2000/svg" version="1.1" xmlns:xlink="http://www.w3.org/1999/xlink" viewBox="0 0 100 100">
  <defs>
    <style>
      .cls-1 {
        fill: #039;
      }

      .cls-2 {
        fill: #fff;
      }

      .cls-3 {
        fill: url(#linear-gradient);
      }
    </style>
    <linearGradient id="linear-gradient" x1="15.6" y1="72.2" x2="76.1" y2="72.2" gradientTransform="translate(23 122.4) scale(.8 -.8)" gradientUnits="userSpaceOnUse">
      <stop offset=".2" stop-color="#d0bd2b"/>
      <stop offset="1" stop-color="#d0bd2b" stop-opacity="0"/>
    </linearGradient>
  </defs>
  <!-- Generator: Adobe Illustrator 28.6.0, SVG Export Plug-In . SVG Version: 1.2.0 Build 709)  -->
  <g>
    <g id="Layer_1">
      <rect class="cls-1" width="100" height="100"/>
      <g>
        <path id="path4233" class="cls-2" d="M64,39.2H20.2c-.6,0-1-.5-1-1v-11.4c0-.6.5-1,1-1h43.8c.6,0,1,.5,1,1v11.3c0,.6-.4,1.2-1,1.2Z"/>
        <path id="path4235" class="cls-2" d="M52.3,56.8h-32c-.6,0-1.1-.5-1.1-1.1v-11.2c0-.6.5-1.1,1.1-1.1h32c.6,0,1.1.5,1.1,1.1v11.2c0,.6-.5,1.1-1.1,1.1Z"/>
        <path id="path4242" class="cls-3" d="M79.8,74.2h-43.8c-.6,0-1.1-.5-1.1-1.1v-11.2c0-.6.5-1.1,1.1-1.1h43.7c.6,0,1.1.5,1.1,1.1v11.2c0,.6-.5,1.1-1,1.1Z"/>
      </g>
    </g>
  </g>
</svg>

